<mxfile host="app.diagrams.net" agent="Mozilla/5.0 (X11; Linux x86_64) AppleWebKit/537.36 (KHTML, like Gecko) Chrome/128.0.0.0 Safari/537.36 Edg/128.0.0.0" version="24.7.17">
  <diagram id="R2lEEEUBdFMjLlhIrx00" name="Page-1">
    <mxGraphModel dx="2091" dy="1384" grid="1" gridSize="10" guides="1" tooltips="1" connect="1" arrows="1" fold="1" page="1" pageScale="1" pageWidth="850" pageHeight="1100" math="1" shadow="0" extFonts="Permanent Marker^https://fonts.googleapis.com/css?family=Permanent+Marker">
      <root>
        <mxCell id="0" />
        <mxCell id="1" parent="0" />
        <mxCell id="VmXVUIM37Ywe6BHCHsZL-2" value="Test Framework" style="rounded=0;whiteSpace=wrap;html=1;" vertex="1" parent="1">
          <mxGeometry x="57.5" y="42" width="742.5" height="50" as="geometry" />
        </mxCell>
        <mxCell id="VmXVUIM37Ywe6BHCHsZL-8" value="Game&lt;div&gt;&lt;br&gt;&lt;/div&gt;" style="rounded=0;whiteSpace=wrap;html=1;" vertex="1" parent="1">
          <mxGeometry x="80" y="392" width="120" height="60" as="geometry" />
        </mxCell>
        <mxCell id="VmXVUIM37Ywe6BHCHsZL-9" value="Autotest Driver" style="rounded=0;whiteSpace=wrap;html=1;" vertex="1" parent="1">
          <mxGeometry x="85" y="232" width="120" height="60" as="geometry" />
        </mxCell>
        <mxCell id="VmXVUIM37Ywe6BHCHsZL-12" value="Test Script" style="whiteSpace=wrap;html=1;" vertex="1" parent="1">
          <mxGeometry x="250" y="200" width="125" height="58" as="geometry" />
        </mxCell>
        <mxCell id="VmXVUIM37Ywe6BHCHsZL-13" value="" style="shape=singleArrow;direction=south;whiteSpace=wrap;html=1;" vertex="1" parent="1">
          <mxGeometry x="115" y="292" width="60" height="100" as="geometry" />
        </mxCell>
        <mxCell id="VmXVUIM37Ywe6BHCHsZL-22" value="" style="shape=singleArrow;whiteSpace=wrap;html=1;direction=west;" vertex="1" parent="1">
          <mxGeometry x="205" y="232" width="45" height="20" as="geometry" />
        </mxCell>
        <mxCell id="VmXVUIM37Ywe6BHCHsZL-23" value="" style="shape=singleArrow;whiteSpace=wrap;html=1;" vertex="1" parent="1">
          <mxGeometry x="205" y="275" width="45" height="20" as="geometry" />
        </mxCell>
        <mxCell id="VmXVUIM37Ywe6BHCHsZL-25" value="&lt;div&gt;&lt;span style=&quot;color: rgb(0, 0, 0); font-family: Helvetica; font-size: 12px; font-style: normal; font-variant-ligatures: normal; font-variant-caps: normal; letter-spacing: normal; orphans: 2; text-align: center; text-indent: 0px; text-transform: none; widows: 2; word-spacing: 0px; -webkit-text-stroke-width: 0px; white-space: normal; background-color: rgb(251, 251, 251); text-decoration-thickness: initial; text-decoration-style: initial; text-decoration-color: initial; float: none; display: inline !important;&quot;&gt;&lt;b&gt;Test Logs&lt;/b&gt;&lt;/span&gt;&lt;/div&gt;&lt;div&gt;&lt;span style=&quot;color: rgb(0, 0, 0); font-family: Helvetica; font-size: 12px; font-style: normal; font-variant-ligatures: normal; font-variant-caps: normal; letter-spacing: normal; orphans: 2; text-align: center; text-indent: 0px; text-transform: none; widows: 2; word-spacing: 0px; -webkit-text-stroke-width: 0px; white-space: normal; background-color: rgb(251, 251, 251); text-decoration-thickness: initial; text-decoration-style: initial; text-decoration-color: initial; float: none; display: inline !important;&quot;&gt;&lt;b&gt;&lt;br&gt;&lt;/b&gt;&lt;/span&gt;&lt;/div&gt;&lt;span style=&quot;color: rgb(0, 0, 0); font-family: Helvetica; font-size: 12px; font-style: normal; font-variant-ligatures: normal; font-variant-caps: normal; font-weight: 400; letter-spacing: normal; orphans: 2; text-align: center; text-indent: 0px; text-transform: none; widows: 2; word-spacing: 0px; -webkit-text-stroke-width: 0px; white-space: normal; background-color: rgb(251, 251, 251); text-decoration-thickness: initial; text-decoration-style: initial; text-decoration-color: initial; display: inline !important; float: none;&quot;&gt;test_1.log&lt;/span&gt;&lt;div style=&quot;forced-color-adjust: none; color: rgb(0, 0, 0); font-family: Helvetica; font-size: 12px; font-style: normal; font-variant-ligatures: normal; font-variant-caps: normal; font-weight: 400; letter-spacing: normal; orphans: 2; text-align: center; text-indent: 0px; text-transform: none; widows: 2; word-spacing: 0px; -webkit-text-stroke-width: 0px; white-space: normal; background-color: rgb(251, 251, 251); text-decoration-thickness: initial; text-decoration-style: initial; text-decoration-color: initial;&quot;&gt;test_2.log&lt;/div&gt;&lt;div style=&quot;forced-color-adjust: none; color: rgb(0, 0, 0); font-family: Helvetica; font-size: 12px; font-style: normal; font-variant-ligatures: normal; font-variant-caps: normal; font-weight: 400; letter-spacing: normal; orphans: 2; text-align: center; text-indent: 0px; text-transform: none; widows: 2; word-spacing: 0px; -webkit-text-stroke-width: 0px; white-space: normal; background-color: rgb(251, 251, 251); text-decoration-thickness: initial; text-decoration-style: initial; text-decoration-color: initial;&quot;&gt;test_3.log&lt;/div&gt;&lt;div style=&quot;forced-color-adjust: none; color: rgb(0, 0, 0); font-family: Helvetica; font-size: 12px; font-style: normal; font-variant-ligatures: normal; font-variant-caps: normal; font-weight: 400; letter-spacing: normal; orphans: 2; text-align: center; text-indent: 0px; text-transform: none; widows: 2; word-spacing: 0px; -webkit-text-stroke-width: 0px; white-space: normal; background-color: rgb(251, 251, 251); text-decoration-thickness: initial; text-decoration-style: initial; text-decoration-color: initial;&quot;&gt;&lt;span style=&quot;forced-color-adjust: none; background-color: initial;&quot;&gt;test_4.log&lt;/span&gt;&lt;/div&gt;" style="rounded=0;whiteSpace=wrap;html=1;" vertex="1" parent="1">
          <mxGeometry x="250" y="269" width="125" height="181" as="geometry" />
        </mxCell>
        <mxCell id="VmXVUIM37Ywe6BHCHsZL-27" value="Validator" style="rounded=0;whiteSpace=wrap;html=1;" vertex="1" parent="1">
          <mxGeometry x="420" y="201" width="160" height="130" as="geometry" />
        </mxCell>
        <mxCell id="VmXVUIM37Ywe6BHCHsZL-30" value="" style="shape=singleArrow;direction=south;whiteSpace=wrap;html=1;" vertex="1" parent="1">
          <mxGeometry x="470" y="92" width="60" height="108" as="geometry" />
        </mxCell>
        <mxCell id="VmXVUIM37Ywe6BHCHsZL-33" value="&lt;b&gt;Decision Tables&lt;/b&gt;&lt;br style=&quot;forced-color-adjust: none; color: rgb(0, 0, 0); font-family: Helvetica; font-size: 12px; font-style: normal; font-variant-ligatures: normal; font-variant-caps: normal; font-weight: 400; letter-spacing: normal; orphans: 2; text-align: center; text-indent: 0px; text-transform: none; widows: 2; word-spacing: 0px; -webkit-text-stroke-width: 0px; white-space: normal; background-color: rgb(251, 251, 251); text-decoration-thickness: initial; text-decoration-style: initial; text-decoration-color: initial;&quot;&gt;&lt;br style=&quot;forced-color-adjust: none; color: rgb(0, 0, 0); font-family: Helvetica; font-size: 12px; font-style: normal; font-variant-ligatures: normal; font-variant-caps: normal; font-weight: 400; letter-spacing: normal; orphans: 2; text-align: center; text-indent: 0px; text-transform: none; widows: 2; word-spacing: 0px; -webkit-text-stroke-width: 0px; white-space: normal; background-color: rgb(251, 251, 251); text-decoration-thickness: initial; text-decoration-style: initial; text-decoration-color: initial;&quot;&gt;&lt;span style=&quot;color: rgb(0, 0, 0); font-family: Helvetica; font-size: 12px; font-style: normal; font-variant-ligatures: normal; font-variant-caps: normal; font-weight: 400; letter-spacing: normal; orphans: 2; text-align: center; text-indent: 0px; text-transform: none; widows: 2; word-spacing: 0px; -webkit-text-stroke-width: 0px; white-space: normal; background-color: rgb(251, 251, 251); text-decoration-thickness: initial; text-decoration-style: initial; text-decoration-color: initial; display: inline !important; float: none;&quot;&gt;table_1&amp;nbsp;&lt;/span&gt;&lt;div style=&quot;forced-color-adjust: none; color: rgb(0, 0, 0); font-family: Helvetica; font-size: 12px; font-style: normal; font-variant-ligatures: normal; font-variant-caps: normal; font-weight: 400; letter-spacing: normal; orphans: 2; text-align: center; text-indent: 0px; text-transform: none; widows: 2; word-spacing: 0px; -webkit-text-stroke-width: 0px; white-space: normal; background-color: rgb(251, 251, 251); text-decoration-thickness: initial; text-decoration-style: initial; text-decoration-color: initial;&quot;&gt;table_2&amp;nbsp;&lt;/div&gt;&lt;div style=&quot;forced-color-adjust: none; color: rgb(0, 0, 0); font-family: Helvetica; font-size: 12px; font-style: normal; font-variant-ligatures: normal; font-variant-caps: normal; font-weight: 400; letter-spacing: normal; orphans: 2; text-align: center; text-indent: 0px; text-transform: none; widows: 2; word-spacing: 0px; -webkit-text-stroke-width: 0px; white-space: normal; background-color: rgb(251, 251, 251); text-decoration-thickness: initial; text-decoration-style: initial; text-decoration-color: initial;&quot;&gt;table_3&amp;nbsp;&lt;/div&gt;&lt;div style=&quot;forced-color-adjust: none; color: rgb(0, 0, 0); font-family: Helvetica; font-size: 12px; font-style: normal; font-variant-ligatures: normal; font-variant-caps: normal; font-weight: 400; letter-spacing: normal; orphans: 2; text-align: center; text-indent: 0px; text-transform: none; widows: 2; word-spacing: 0px; -webkit-text-stroke-width: 0px; white-space: normal; background-color: rgb(251, 251, 251); text-decoration-thickness: initial; text-decoration-style: initial; text-decoration-color: initial;&quot;&gt;&lt;span style=&quot;forced-color-adjust: none; background-color: initial;&quot;&gt;table_4&amp;nbsp;&lt;/span&gt;&lt;/div&gt;" style="rounded=0;whiteSpace=wrap;html=1;" vertex="1" parent="1">
          <mxGeometry x="640" y="264.5" width="120" height="185.5" as="geometry" />
        </mxCell>
        <mxCell id="VmXVUIM37Ywe6BHCHsZL-37" value="" style="shape=flexArrow;endArrow=classic;startArrow=classic;html=1;rounded=0;" edge="1" parent="1">
          <mxGeometry width="100" height="100" relative="1" as="geometry">
            <mxPoint x="108" y="226" as="sourcePoint" />
            <mxPoint x="238" y="96" as="targetPoint" />
          </mxGeometry>
        </mxCell>
        <mxCell id="VmXVUIM37Ywe6BHCHsZL-38" value="" style="shape=singleArrow;whiteSpace=wrap;html=1;" vertex="1" parent="1">
          <mxGeometry x="375" y="300" width="45" height="20" as="geometry" />
        </mxCell>
        <mxCell id="VmXVUIM37Ywe6BHCHsZL-39" value="" style="shape=singleArrow;direction=west;whiteSpace=wrap;html=1;" vertex="1" parent="1">
          <mxGeometry x="580" y="300" width="60" height="20" as="geometry" />
        </mxCell>
        <mxCell id="VmXVUIM37Ywe6BHCHsZL-41" value="" style="shape=singleArrow;direction=south;whiteSpace=wrap;html=1;" vertex="1" parent="1">
          <mxGeometry x="487" y="331" width="30" height="52" as="geometry" />
        </mxCell>
        <mxCell id="VmXVUIM37Ywe6BHCHsZL-43" value="Validate Tests log&lt;br&gt;&lt;br&gt;test_1 P&lt;div&gt;test_2 P&lt;/div&gt;&lt;div&gt;test_3 F&lt;/div&gt;&lt;div&gt;&lt;span style=&quot;background-color: initial;&quot;&gt;test_4 P&lt;/span&gt;&lt;/div&gt;" style="rounded=0;whiteSpace=wrap;html=1;" vertex="1" parent="1">
          <mxGeometry x="442" y="384" width="120" height="158" as="geometry" />
        </mxCell>
        <mxCell id="VmXVUIM37Ywe6BHCHsZL-46" value="Start auto tests&lt;div&gt;&lt;br&gt;&lt;/div&gt;" style="shape=note;whiteSpace=wrap;html=1;backgroundOutline=1;darkOpacity=0.05;fillStyle=solid;direction=west;gradientDirection=north;shadow=1;size=20;pointerEvents=1;" vertex="1" parent="1">
          <mxGeometry x="70" y="125" width="80" height="45" as="geometry" />
        </mxCell>
        <mxCell id="VmXVUIM37Ywe6BHCHsZL-47" value="&lt;div&gt;All tests finished&lt;/div&gt;&lt;div&gt;&lt;br&gt;&lt;/div&gt;" style="shape=note;whiteSpace=wrap;html=1;backgroundOutline=1;darkOpacity=0.05;fillStyle=solid;direction=west;gradientDirection=north;shadow=1;size=11;pointerEvents=1;" vertex="1" parent="1">
          <mxGeometry x="218" y="130" width="80" height="50" as="geometry" />
        </mxCell>
        <mxCell id="VmXVUIM37Ywe6BHCHsZL-50" value="&lt;div&gt;Start validate&amp;nbsp;&lt;br&gt;test logs&lt;/div&gt;" style="shape=note;whiteSpace=wrap;html=1;backgroundOutline=1;darkOpacity=0.05;fillStyle=solid;direction=west;gradientDirection=north;shadow=1;size=11;pointerEvents=1;" vertex="1" parent="1">
          <mxGeometry x="510" y="120" width="80" height="50" as="geometry" />
        </mxCell>
        <mxCell id="VmXVUIM37Ywe6BHCHsZL-52" value="" style="shape=image;imageAspect=0;aspect=fixed;verticalLabelPosition=bottom;verticalAlign=top;image=data:image/png,iVBORw0KGgoAAAANSUhEUgAAB2wAAAEvCAYAAACJ5jE4AAAMJHpUWHRSYXcgcHJvZmlsZSB0eXBlIGV4aWYAAHjarZhrcuQ4DoT/8xR7BL5AEsfhM2JvsMffD5Tc7e62Z2ci1hVVJaskPpCJREJu/+ffx/2LvxRzdFlqK1qK5y9r1tg5aP750/sZfL6f969MX9+zv5x38byHke/Ed3p+qP35Dp3z8vOGjznC+PW8a+8vsb0DvT98DJhs5sjB+rxIzsfnfMjvQLrfJWurn5c64vM93wvvUt53Cf68gz338r/7fCJXorSEiVKMO4Xk72d7rkn2zqnb+eeT60JK9zi5+xXelRCQX7b38e395wD9EuSPI/d79ONHNH8LfuzvFem3WJY3Rhx8+UOQr4N/Q/xp4vRjRfHXH2r244/tvO9zVjtnP7vruRDR8jLKu4/o2D1cyCA53dsKr8pbOK73pbya734C+fKTCQfHGiJxPy7ksEIPJ+z7PcNkiTnuWPmOccZ0z7VUo8aZDKdsr3BiTZpWamA543bAl1P8sZZw59U73wyNmVfg0hgYLHDLty/3Vz/+k5c7Z1qIggXzpskFOBpFWYYhZ59cBSDhvLjJDfDH64XffyIWVAVBuWFubLD78QwxJPzkVro4J64Tvp8UCq6udwBCxNzCYmB6DiRQkkAW1RhrCMSxAVBn5eRJHCAQROJikTGnVKKrsUWbm3tquNdGiSXaabQJICSVVMFGUwesnAX+1NzgUJckWUSKVGlOVHpJJRcppdRiItdrqrlKLbXWVrX2llpu0kqrrTVtXaMmNFC0aNWmqr1H15moM1bn+s6ZEUcaecgoo442dPQJfWaeMsuss02dfcWVFjKxyqqrLV19B7dRip237LLrblt3P3DtpJOPnHLqaUdP/4Hai+ofr3+AWnhRixcpu67+QI2zrtaPIYLJiRhmIBZzAPFqCEDoaJj5FnKOhpxh5jWSFGKSL4aNW8EQA8K8Q5QTfmD3E7m/hZuT9rdwi/8LOWfQ/T+Qc0D3J25foLaszs2L2JOFFlOfyL6DUulybc2MWiyZMweOiFdrye/mj6xeV9ExkMV5uGUx7jpN7Hiz+TxqJZtqIv3dQolAsvo0yI2UDsFhzcQwyhadiCvg5EGtrnnnaoMEAfPMDy2d0cccvQTXzmYJprKIsM62Ypj7jDXQxRPGzdp09mHNKVRwmAO1TKWk1NBIMvoOXd3epWUGlVgLg/UFAdKqbHTWBWSEZpzvNieyYq1l5Vhcy2xubwLVUw2HaA+dGjdrnCPZDYV9alibJecWYlpSJpuj3Phuvx/0RLojHsWfverQxIpWYR+dgl3jYIJ7zhZ1Iw5shODHomxJYbYT+We5JXttlKmiPQSdIakGm6847u5JN+K9iyUdM3sZe0DeNEoBpJnUE4Z2gtNzxgbsePpIGk6SI7ulvYwkDDTy1vVtjLi7zJHXGK7JFN31sPiVxl2+h5L1FBX+XV72rDa83Ro7ROssKKAOCl/HWl0Ch8vNeIrhq8rZrN/O7VPpqdzgT6vbsTzhXDDp9H7cGWj4+XZ+lITJoYJxYa7VUP5b2wP5b6QjGAC6vWPUSZU+FuXe2yEpVpycO8Y6GR0AzFRlv/Uwya4pMwr5PECD7dWxUJ7ohIytOqFQOqhH9iZcX0MtG0dQGwgCHywlSxETWEV9Xw7RCnYbAd/dS56oXkNnM9svrLQjWvZ768hLRWemL7vM9ESJkpd07zEtRdZ5SadfryQvBM93MgFiaNkTXB/CdXI2E27ygdpP7PUH1UNiIaGPTRhOaUxM8i7W3IcRi2H1TkbqzjGYqLLqu2JXqBVqWWbbM3LyPrd4lN11Bt6UcXILvciZLKxhFwPLhgtLyFUKRsnOT/YlSvE4M4qaZsTSrZ3YUtpOfgIOiRh3Gzeq5gzZmFze/RQ994cw7H0kjJr8rYqrz4walUREuQ55WGJ60eWS86CPI5y5qnsRMeZtkuvmV133c4cHr7XQD5TZNDHuvbGgEMZEIxgw+D3KkivskcSviLWlPAqb9omjEzVl7USkU08RlY1ojixrrjnwvjMAOmu0qZJ2SrZVnG/yK8gE3YCo930jNVS8Bm0BPt1wy4QQycLtyKAE5rUQGGYn7sjhUfS+Gv0W7Ip6PugH3GtRyNC7bdQL3wY7/0WkUn35x5UtfhDwqSoT64cHIDCwRkreaanWBgxoHeZuM3YFk4pCs75GZM6zpbFiL+tmMaiO4zb0eXg9emdxvULbuWIjuyVOqfsQFhKKxH5DS1nfVgJipXCt3KemsF2f5DwxWVbyhArHYMmmeGawhcPpUTqQUkeoqUp1ycX4NZRNZdvKaejRCekl1cupARDHeoqynm0owuON7XLSACeEf84COysFa61AsbAOMuuRNk5MyClCRkrQEAa8SNW8twcAXZX6QHQzVatQAHOc5gt6sR4a0CJ1DQ1OhkUc+CNBlIR/SfOW6E7qEYyQT8nYkxEi3Jai3pgQyFi6aqPP2jJmdziPvEmPeQnGgjshNo9hBs8cwO136W/gCwldroYClKY9Qt0Eq2dTHEde6FCU4eCEqPVEax+cWMQ+9fSUyLqgpN4IerxE2xNGjhIxJ6thuJC/de0xTSE3nvHnbCiwqGKcimBPAxUI03PwdWkjUzetkDuiNN1TEqlZ2ueOAdYTgjLBaOP4Y4bZAxGP0mI2dwFPt8c+gjzlA/OHqNjM7p0aLSzwLlfqWxpSgyaSnHJ20yR2OSOYy8r+PB7FPqy7h0ODHQ6H8bD48D9eAXv0TvAxfhIF5xEv++mb7yCPqBnxlnYdd5fuvJu81YM9svSVMpbaI47dAy90kpLIv95To7PWkg/lDAXZmJ/dN7WTYGfEbBRqJeZZkQVYya2y81OaKtGjqgpOGh+Iwo4Jd7h70LctfIwxfrAL94kP0HEBB+kY5pRjClieeCAGPX8dpa54v6KHcjT8u/9897/tYrkG5+GDfAqaarRKXagqQVrNR7GFEcd/3DONDXQnunNxd8bDhW1ca8CJc+IiG9evVkTpQ05EPg5aV60dTeqYi8uPOUDB3+FSkdSDTRZTc+tU1kQ/8GQkGTWJLKK7OeZ+lLyxnuKmgDtvBtw6aw8M8MyWO2Q05ZmR75WXTVPu5j+xA/2FAJX9opAsnawYT1gXOLEFQWa+zjRiMICLMDUZCHmbKGrP2lFItt7bFhogtHLiO8yT0rHpH/n0kU7oTBke80Lp4cCeYx1H0zQawaKF0euyPhM7wABLAJiT7j5RO6o3FQvjaU6S6lYe/XeoorfupVvM6q+JsDD/SOlLuZ8cCLRUTW6Voxmycs/WWv1mA+27NG1zjtgxIljsnluaGLydaY4Nd5DhHNJaxcIzD91js18G89Bi1chSIg6P6sSw9E1S3hW887ufyUrThEue5qOMRyjQk23AQ5pXOmfG6v4ylWTAcH5CM1/r91XpKfbgUTsNVFDBHtDQk/wWERxCWpFkidbdtraDrjCsO6KTezKLCiVWvbYsPBWdV25mWK8vmE1RPWo3NZd93jvwP62bfJbscf4wmWpBTQlTrWak10LQzqkfnflTnijIRoOJSvc4kTY3Xg3cjBOd+YPL1iuoOcxgT4UGWoDZqibWaRehd6kxDNpMLGU+3aKzSXuxh73YXdr1w7U6HR4QgbOqVfEJDLUjroxy6wWWqj2/4/bDDowvMAgOUd9IMVbY8H8gjfapC7d7pCg2cige5PPG7oYu3k3mFO4CAlbN0j/5EelAdu326I0WK1O2qwNWyWWhwa1KhFpP1/yxBHic+rDnLHkir9ue2FycD5Ylk10NVda+xOkNYwgT0zdSbHiN0MwvrtyewZQ45NSWeoY6Uj18oypjdSMUJfeTPRt1sJsWOlv/Md9V0FwqqFAQEYl8TBsJFhu1ZyR7yw1/XAP72U7ezPKBGgu0DJkRIZRZ7OF3tcW10KwhQDzzKR5dw4lFMzrFmPO0HQ17b+xzD/1gq0UQOUrd2IZPAe1h1BPWjOSgyAQGsXk4iL+kqUgeSm3z73SQzUwEvUXqG0uq6LNke+ADzLPRkM+euppFeWZOPeOgW9iWN3j+TfN27fGGOJ2sqlROHEea5pXMqFLknslZzqJtnZ44r0mdaRWZNosyeqyNpoE2bDtrdPozGd0uxgMscisUvSPc+TzUqAkPu0iPOPgtlYDIUmcy0PkHIaoIJHX/BXiKxcISg4BRAAABg2lDQ1BJQ0MgcHJvZmlsZQAAeJx9kT1Iw0AYht+maqVUHOwg4pChOlkQFXHUKhShQqgVWnUwufQPmjQkKS6OgmvBwZ/FqoOLs64OroIg+APi7OCk6CIlfpcUWsR4x3EP733vy913gNCoMM3qGgc03TbTyYSYza2KoVeE3RlBj8wsY06SUvAdX/cI8P0uzrP86/4cfWreYkBAJJ5lhmkTbxBPb9oG533iKCvJKvE58ZhJFyR+5Lri8RvnossCz4yamfQ8cZRYLHaw0sGsZGrEU8QxVdMpX8h6rHLe4qxVaqx1T/7CSF5fWeY6rWEksYglSBChoIYyKrARp10nxUKazhM+/iHXL5FLIVcZjBwLqEKD7PrB/+B3b63C5ISXFEkA3S+O8zEChHaBZt1xvo8dp3kCBJ+BK73trzaAmU/S620tdgT0bwMX121N2QMud4DBJ0M2ZVcK0hIKBeD9jL4pBwzcAuE1r2+tc5w+ABnqVeoGODgERouUve7z7t7Ovv1b0+rfD+xocnHM3fprAAAABmJLR0QA/wD/AP+gvaeTAAAACXBIWXMAAB7CAAAewgFu0HU+AAAAB3RJTUUH6AoKCg0MokF8OgAAIABJREFUeNrs3Xd8T/f////7KwNJpDFCE7LsVaOkSCIoUav2Xo1RMVLEqFb10xi1YtQmtFIau9oSKrRqloq8a5TWqpkQLbUiIfP3h1/O10tCKZqG2/VyyeXidc7znNd5nfN63V/H6/E8z2NKT09PFwAAAAAAAAAAAADgX2fBLgAAAAAAAAAAAACA7EHBFgAAAAAAAAAAAACyCQVbAAAAAAAAAAAAAMgmFGwBAAAAAAAAAAAAIJtQsAUAAAAAAAAAAACAbELBFgAAAAAAAAAAAACyCQVbAAAAAAAAAAAAAMgmFGwBAAAAAAAAAAAAIJtQsAUAAAAAAAAAAACAbELBFgAAAAAAAAAAAACyCQVbAAAAAAAAAAAAAMgmFGwBAAAAAAAAAAAAIJtQsAUAAAAAAAAAAACAbELBFgAAAAAAAAAAAACyCQVbAAAAAAAAAAAAAMgmFGwBAAAAAAAAAAAAIJtYPc2VeXp6Ki4ujr0K4Lnxxx9/KDU1VZaWlipcuDA7BAC5BgDkGgCQawBArgGAnJycFB0d/VTWZUpPT09/Whvm4uKi2NhYjhAAAAAAAAAAAACA51bRokUVExPzVNZl9Sw20MLCQs7OzhwpADleRicUcg0AuQYA5BoAkGsAQK4BwMWLF5WWlvZU1/lMCrbOzs5PraIMANnJ0tJSaWlp5BoAcg0AyDUAINcAgFwDgGcy4rAFuxUAAAAAAAAAAAAAsgcFWwAAAAAAAAAAAADIJhRsAQAAAAAAAAAAACCbULAFAAAAAAAAAAAAgGxCwRYAAAAAAAAAAAAAsgkFWwAAAAAAAAAAAADIJhRskWMFBARo6tSpxuNmzZpp2bJlD10mNDRUnTt3ZucBAAAAAAAAAADgP4GCLZ7Y5cuXFRISohYtWsjLy0tNmzbV4MGDFRUV9a9ux5IlS9S6dWvjsaenp7Zt22bWplu3bpo7dy4HDcA/MmrUKA0dOvRff96IiAjVrVv3kfJ45MiRat26tV577TWzTi0AkFOz7YcfflD//v3l5+enOnXqqEePHtqzZw8HDkCOzbUDBw6oZ8+eql+/vnx8fNSmTRstXbqUAwcgx+ba/RlXo0YNLpgAkGMzLTo6Wp6enpn+Ll++zMHDM2XFLsCTuHDhgnr16iV7e3sNHDhQJUuWVEpKivbs2aNJkyZpzZo1/9q25M+f/2/b2NraytbWlgMH4LmUlJSk/Pnzq2fPnn874gAA5BT79+9XjRo1FBgYKHt7e0VERGjw4MH6/PPPVbZsWXYQgBwnT548at++vUqVKiUbGxsdOHBA48ePl42NjVknZADIaW7evKng4GC99tpr+uuvv9ghAHK0NWvWyM7OznhcoEABdgqeKa6wxROZOHGiTCaTFi9erPr168vd3V0lSpRQ165d9fnnn0uS4uLiNGTIEPn6+qpOnTp6//33deXKFWMdGcMUb9iwQc2aNVOdOnU0YsQI3bp1y2iTmJiojz76SL6+vmrYsKHCw8Mzbcu9QyI3a9ZMkjRs2DB5enoaj+8fEjktLU0LFy5UkyZN5OXlpc6dO2v37t3G/AsXLsjT01M//PCD+vTpIx8fH3Xq1EmHDh3i4ANQQECAJk+erBkzZqhevXpq2LChQkNDzdp4enrqyy+/1MCBA+Xj46MWLVro+++/N+Zn9Nq7efOmMe3YsWPy9PTUhQsXFB0drdGjRys+Pt7o0Xf/c2QoUqSIhg0bpjfffFN58+blAAF4LrJt6NCh8vf3V4UKFeTm5qbAwEC5ublp586dHCwAOTLXypYtq0aNGqlEiRIqUqSI8f/R/fv3c7AA5MhcyzB+/Hg1atRIFStW5CAByPGZVqBAATk6Ohp/FhaU0/Bs8Q7DP3b9+nXt2bNH7dq1k42NTab59vb2SktL05AhQ3Tjxg0tWLBAc+bMUWxsrEaMGGHWNiYmRtu2bdMnn3yi6dOn6+effzYKvpI0Y8YM/fzzz5o6darmzJmj//3vfzp27NgDt23JkiWSpODgYEVGRhqP77d8+XKFh4dr0KBBWr58uWrWrKkhQ4bo3LlzZu3mzp2rbt26admyZXJzc9PIkSOVkpLCmwCA1q9fLxsbG33++ecaMGCAPv30U/30009mbebNm6d69epp2bJlatSokUaOHKnTp08/0vorV66soUOHys7OTpGRkYqMjFS3bt3Y8QBe2GxLS0vTrVu39NJLL3GgADwXuXb06FEdOnRI1apV40AByLG5tm7dOsXGxqp3794cHADPxbla586d1bBhQ/Xv318HDhzgIOGZo2CLf+z8+fNKT0+Xh4fHA9tERUXp999/18cff6xy5crplVde0ejRo/Xzzz/ryJEjRru0tDSNGjVKJUuW1KuvvqomTZpo3759kqSEhAStXbtWQUFBql69ukqWLKlRo0Y9tGCaMTyyvb29HB0dHzhccnh4uPz9/dWwYUN5eHho4MCBKl26tJYvX27WrmvXrqpVq5bc3d3Vp08fXbx4UTExMbwJAKhUqVIKCAiQm5ub3nzzTZUrV87Irwx+fn5q2bKl3N3d1a9fP5UrV04rV658pPVbW1srb968MplMRo8+hnYH8CJn2xdffKHExEQ1aNCAAwUgR+daxpW1b731ltq1a6eWLVtyoADkyFw7d+6cZs+erbFjx8rKijvwAcjZmebo6KgRI0YoJCREISEhevnll9WnTx8dPXqUA4Vnim9QPFNnzpzRyy+/LCcnJ2Na8eLFZW9vr9OnT6tChQqS7g7jee948I6Ojrp69aqku1ffJicn65VXXjHmOzg4yN3d/Ym2LT4+Xn/++acqV65sNr1y5co6ceJEpi+Me7dNkv7666+HFqsBvDgnlPef1N1/r577h4OqWLGijh8/zs4DQLY9psjISC1cuFBTp07l/kEAcnyuLVy4UImJifrll180e/Zsubi4qFGjRhwsADkq11JTU/Xhhx8qICDgiX+rA0Cm/RfO1Tw8PMx+969cubJiY2O1dOlSjR07loOFZ4aCLf4xV1dXmUwmnTlz5snfiPf1vjOZTEpLS/vvfFDu2T6TySRJ/6ntA/DfyIeMjEhPT3/k5TPuf3HvMgy5DoBsy2zTpk0aO3asJk2apBo1anCQAOT4XCtatKgkqWTJkrpy5YoWLFhAwRZAjsu1hIQE/frrrzp27JgmT54s6e5vZunp6apRo4Zmz56t1157jQMGIMedq92rQoUKDIuMZ44hkfGPOTg4yMvLS6tXr1ZiYmKm+Tdv3pSHh4cuXbqkuLg4Y/qpU6d08+ZNFS9e/JGex8XFRVZWVjp8+LAx7caNG5nuM5tVyKempj5wft68eVWoUCEdPHjQbPrBgwdVrFgxDjCAp+be/Mp4nJEzGUO2X7582Zh/f+9Aa2trOokAeKGzLTIyUmPGjNG4ceNUq1Ytdj6A5+6cLT09XcnJyRwEADku1+zs7LRixQotXbrU+GvTpo3c3d21dOlSsxHzACCnnqsdO3bMGHkTeFYo2OKJDB8+XKmpqfL399eWLVt07tw5nT59WitWrFCPHj1Uo0YNlShRQv/3f/+no0eP6vDhwwoODlbVqlVVvnz5R3oOW1tbtWjRQjNmzNC+fft08uRJjRo1yug18yBFihTRvn37dPnyZd24cSPLNt26ddPixYu1efNmnTlzRrNmzdLx48fVqVMnDi6Ap+b777/X2rVrdfbsWYWGhurIkSNq3769pLujFbz88stasGCBzp07p127dik8PNxseWdnZyUkJCgqKkrXrl3T7du3H3oCeezYMSUmJurq1as6duyYTp06xUEAkGOzLTIyUsHBwQoKCtIrr7yiy5cv6/Lly4qPj+cgAMiRubZq1Srt2LFD586d07lz5/TNN98oPDxcjRs35iAAyHG5ZmFhoZIlS5r95c+fX7lz51bJkiVlY2PDgQCQo87Vli1bpm3btun8+fM6efKkpk6dqujoaLVr146DgGeKgi2eiIuLi5YuXapq1app+vTp6tChgwIDAxUVFaX3339fJpNJ06ZNk729vXr37q3AwEAVLVpUEyZMeKznGTRokKpUqaLBgwcrMDBQVapUUdmyZR+6TFBQkPbu3aumTZuqS5cuWbbp2LGjunTpounTp6tjx47as2ePpk2bJjc3Nw4ugKemT58+2rx5szp16qQNGzZo3LhxxigDVlZWGjdunM6cOaNOnTpp8eLF6tevn9nylStXVps2bTRixAj5+flp8eLFD3yuLl26qEuXLvrtt98UGRmpLl26aNCgQRwEADk227766iulpqZq0qRJatSokfE3ZcoUDgKAHJlraWlpmj17tjp37qxu3bpp9erVGjBggPr27ctBAJBj/y8KAM9LpiUnJxv1gj59+uj48eOaO3euqlevzkHAM2VKf5yBwP+Gi4uLYmNjVbRoUcXExLB3AeR4lpaWSktLI9fwj3l6emrKlCmqW7cuOwPkGsg2gFwDuQaQayDXQK4BZBpyuGdRD+UKWwAAAAAAAAAAAADIJhRsAQAAAAAAAAAAACCbWLELAAB4dqKjo9kJAMg2ACDXAIBcAwAyDXggrrAFAAAAAAAAAAAAgGxCwRYAAAAAAAAAAAAAsgkFWwAAAAAAAAAAAADIJhRsAQAAAAAAAAAAACCbULAFAAAAAAAAAAAAgGxCwRYAAAAAAAAAAAAAsgkFWwAAAAAAAAAAAADIJhRsAQAAAAAAAAAAACCbmNLT09Of1spy5cql5ORkSZKFBbVgADlfWlqa8W9yDQC5BgDkGgCQawBArgEg1yTJ2tpaSUlJT2WdT7Vga2lpaRa+AAAAAAAAAAAAAPC8sbCwUGpq6lNZl9XT3LCMgq2FhYWcnZ05UgByvNjYWCN4yTUA5BoAkGsAQK4BALkG4MV28eJFpaWlydLS8qmt86kWbAsXLqzY2Fg5OzsrJiaGIwYgx8voiEKuASDXAIBcAwByDQDINQBwcXFRbGysChcu/NTWyYDxAAAAAAAAAAAAAJBNKNgCAAAAAAAAAAAAQDahYAsAAAAAAAAAAAAA2YSCLQAAAAAAAAAAAABkEwq2AAAAAAAAAAAAAJBNKNgCAAAAAAAAAAAAQDahYAsAAAAAAAAAAAAA2YSCLR5bQECApk6dyo4AAAAAAAAAAAAAnhAF22xw9epVTZgwQU2bNpWXl5caNmyod955RwcOHMgR2z958mT17dv3qa4zOjpanp6exp+Pj4/at2+vr776KlPbgwcPauDAgXr99dfl7e2tDh06KDw8XKmpqWbtPD095e3trYsXL5pNHzp0qEaNGmU8flABOiIiQnXr1jUe3759W7Nnz1aLFi3k7e0tPz8/BQQEaNu2bY/8Os+fP6/Ro0cbx75x48bq16+fNm7cqJSUlEztx40bp+rVq+v777/PNC80NFSenp4aMGBApnlLliyRp6enAgICMrW//69NmzZ8KPGfN2rUKLP3bf369TVgwACdOHHCaJOamqqlS5eqQ4cO8vb21uuvv66BAwdmytaIiIgsPzs3b96Up6enoqOjJUkXLlyQp6enjh07lml77s+N48ePa/DgwWrQoIG8vb3VrFkzjRgxQn/99ddDX9eDPpf3/t3/+mvUqKHmzZtrxowZunPnTqbcuz+ToqOjFRQUJD8/P3l7e6tFixYaMWKEfv75Z7N26enp+vrrr9WjRw/VqVNHvr6+at++vaZMmaLz588/VpYEBAQY0729vdW6dWuFhYUpPT2dNzNA/pnZunWrunfvrjp16qh27dpq3769sf57sySrv3vPcx7lnMnT01PVq1dX06ZNNW7cOF2/fj3TOWhWfxn7BcDzn7Wff/652fRt27YZ52MZ/ve//6lp06Zm0w4dOqTq1atr0KBB7EwA5BoAkGvAP2LFLvj3DR8+XMnJyRo9erSKFi2qK1euaN++fbp+/fp/eruTk5NlbW0tBweHZ/Yca9askZ2dne7cuaOdO3dq4sSJcnFxUfXq1SXd/VHv/fffV/PmzRUYGCh7e3tFRUVp5syZ+uWXXzRx4kSZTCZjfSaTSfPnz9fo0aOfeNvGjx+vw4cP691331Xx4sV1/fp1HTx48JGP2+HDhxUYGKjixYvrvffek4eHhyTp119/1erVq1WiRAmVLl3aaH/79m1t3rxZb731ltatWyc/P79M63R0dFR0dLQuXbqkl19+2Zi+bt06OTk5ZWpfvHhxzZ071zwErIgB5Aze3t766KOPJElXrlzRvHnzFBQUpA0bNig9PV0ffPCBoqKiNGjQIL322mu6deuWVq9erT59+mjSpElmHTAsLS0VFRVl/FD/JK5evap+/frJ19dXs2bNkr29vS5evKjt27crMTHxoct269bNrNDp7++vVq1aqWXLlg98/SkpKTp69KiCg4NlMpk0cODAB65/9erVCgkJUZMmTTRhwgS5uLgoPj5e0dHRmjZtmsLDwyXdLdaOHDlS27dvV48ePTRkyBAVKlRIf/75p7Zu3arPPvvMrKPLo2RJq1at1KdPHyUnJ2vfvn0aN26c7O3t1bZtW97MAPknSYqKitKIESPUv39/1a5dWyaTSadPn9bevXsl3e0kmJycLEm6dOmS/P39NXfuXBUvXlySZG1t/cjnTBm5lZaWptOnT2vMmDGKj4/XmDFjFBkZabSbOnWqbt26ZexvSc/03BfAf0fu3Lm1ePFitW7dWi+99NID223fvl2+vr5m09auXasOHTpo7dq1+vPPP1WoUCF2KAByDQDINeCxUKn5l928eVP79+9XaGioqlWrJklydnbWK6+8kqndzJkztX37dsXHx8vFxUUDBgwwgubAgQOaPXu2fvvtN+XLl09169bVO++8IxsbG0lSs2bN1KpVK50/f15btmyRvb29evXqpdatWxvPMXPmTG3btk2XLl2So6OjGjVqpN69exs/uoeGhmr79u1q3769Fi1apIsXL2rfvn0KCAhQmTJlNHToUEnSjRs3NGXKFO3cuVNJSUmqVq2ahg0bJjc3t8fePwUKFJC9vb0kqWPHjlqxYoWOHj2q6tWrKzExUR9//LFq166tkSNHGsu0bNlSBQoU0JAhQ/Tdd9/pjTfeMOa1b99eS5cuVbdu3VSyZMknOnY7duzQsGHDVKtWLUlSkSJFVK5cuUdaNj09XaNHj5abm5s+++wzWVj8v4vb3dzc1KhRo0xXnn3//fcqXry4unfvrkaNGikuLi5TEbZAgQIqV66c1q9fr169ekm6ewXytWvX5Ofnp1OnTpl/4K2s5OjoyAcROZK1tbXx/nV0dFT37t319ttv6+rVq9q3b5+2bNmiadOmqXbt2sYyI0eO1LVr1zR27FjVqFHDyEgbGxs1aNBAs2bN0uLFi59ouw4ePKj4+Hh9+OGHRn4WLVr0kQohtra2srW1NR5bWFjI1tY2y8/pva/fyclJ1atXN4oaWYmLi9PUqVPVqVMnDRkyxGxeqVKl1LFjR+Px5s2btXnzZk2dOlV16tQxpjs5OalixYqZ8ulRsiRPnjxGm+bNm2vVqlXau3cvBVuA/DPs3LlTlStX1ltvvWVMc3d3NwrM9xZKk5KSjGn358+jnDPdm1uFCxeWn5+fIiIizPZtxg8ASUlJnC8BL6Dq1avr/PnzCgsLe+iVFzt27NDw4cONxwkJCfruu++0ZMkSXb58WREREerZsyc7FAC5BgDkGvBYGBL5X2ZjYyNbW1tt27bN+OHpfmlpaRo4cKAOHjyoMWPGaNWqVRowYIBR5IuJidGAAQNUr149LV++XOPHj9eBAwcUEhJitp6lS5eqfPnyWrp0qdq1a6eJEyfqzJkzxnxbW1sFBwdr9erVGjp0qL755hstXbrUbB3nz5/XDz/8oJCQEC1btizL7R01apR+++03TZs2zRjyctCgQWZD/Hp6eioiIuKR91N6erp2796tuLg4o5j9008/6fr16+rWrVum9rVr15abm5s2bdpkNr1y5cqqVauWZs+e/cTHrmDBgvrxxx9169atx1722LFjOn36tLp27WpWrL3XvVcGS3d7/TRu3Fh58+aVt7e31q9fn+VyzZs3N5u3bt06NW7c2LjqBHgeJSQk6Ntvv5Wrq6scHBwUGRkpNzc3s2JFhq5du+r69euZipsBAQE6efJklsNnPm42pKamatu2bf/akL8nT57UoUOHHvo537Jli1JSUswKIQ/KnE2bNsnd3d2sWPuwfHoc6enp2r9/v86cOcMV/QD5l2n5U6dO6eTJk0+0HY96zpThwoUL2rNnD+dKAMx/HLGwUGBgoFatWqVLly5l2eb333/X1atX9dprrxnTvvvuO3l4eMjDw0NNmjTRunXruA0EAHINAMg14PHf4+yCf5eVlZWCg4O1YcMGvf766+rZs6fmzJljdh+yqKgoHTlyRJMnT1bNmjXl4uIiX19f+fj4SJLCwsLUqFEjde7cWW5ubqpcubLeffddbdiwwex+ht7e3mrXrp1cXV3l7++vfPnymd2D6+2331blypVVpEgR1a5dW127ds30w13G0M1ly5ZVqVKlMr2ec+fOaceOHfrwww/16quvqnTp0ho7dqz++OMPs/souru7K2/evH+7f5o0aSJfX1/VrFlTQUFB6t27t6pWrSpJOnv2rCSpWLFiWS7r4eGhc+fOZZr+zjvvaM+ePdq/f/8THbuRI0fq0KFDql+/vt566y1NnTr1ke87nLFd7u7uxrS//vpLvr6+xt/q1avN2v/yyy/G1cJNmjRRREREll8kvr6+unXrln7++WclJibq+++/V/PmzbPcjpMnT5o9p6+vr8aPH88HEznCrl27jPdt7dq1tWPHDk2YMEEWFhY6d+7cA7MhY3pGhmQoVKiQOnXqpLlz52Z5D+lHVbFiRfXo0UMjR46Un5+fBg4cqCVLlujKlSvP5PV7e3urY8eOunr1apYdWO7NETs7O7OrxLZs2WL2+c8okpw7d84sn6S7w4JmtGvSpMljZ8nq1avl6+srLy8v9e7dW+np6WZX9QIg/zp06KDy5curY8eOxr1v165d+8BOjQ/Kukc5Z8rILR8fHzVv3lynTp16YIcWAC+u119/XaVLl1ZoaGiW87dv366aNWuadfjI6DQiSV5eXoqPj9f//vc/diYAcg0AyDXgsXCpSzaoX7++atWqpf379+vw4cPavXu3lixZog8//FDNmjXTsWPHVLhw4Uw/nmc4ceKETpw4YXa/rfT0dKWlpenChQvGj3P3FlhNJpMKFiyoq1evGtM2b96sFStWKDY2VgkJCUpNTZWdnZ3Zczk7Oyt//vwPfC2nT5+WpaWl2ZDO+fLlk7u7u06fPm1MW7NmzSPtm4ULF8rOzk5JSUk6cuSIQkJC5ODgYDaE5uP2filevLiaNGmiWbNmadGiRf/4uFWtWlVr167VL7/8ooMHD2rfvn1asWKF+vTpo7fffvux1+fg4GBctZxxn8cM69atk5eXl/LlyydJ8vHx0dixY7Vv3z7jfr7Gh9jKSo0bN1ZERIRiY2Pl5uaWZXFdulswnjZtmtm0+4858F9VrVo1jRgxQtLdodi//PJLDRw40BjS85/0jPP399dXX32ldevWqUGDBv942wIDA9WlSxdFR0fr8OHDWrNmjcLCwrRw4cInHo79/tefmJioZcuWydLSUvXr13/oMvdfGevl5aVly5bpjz/+UJ8+fZSamvrAZXv27Kn27dvrhx9+UFhY2GNnSePGjdWzZ0/duHFDoaGhqlSpkipXrswbGSD/DDY2NpoxY4ZiYmIUHR2tX375RdOnT9eKFSsUFhamPHny/O3zP+o5U0Zu3blzRxs3btTx48fVoUMH3lwAMhkwYID69euXZce4jFsGZThz5oyOHDmiKVOmGP83a9CggdauXfvE9wkHAHINAMg1vFgo2GaT3Llzq2bNmqpZs6befvttjR07VqGhoWrWrJly58790GUTEhLUunXrLK9Uuvd+XfcPPWkymZSWliZJOnTokP7v//5PAQEB8vLyUt68ebV582aFh4ebLZNxv7N/S9GiRY172JYoUUKHDx/WokWL1LZtW6OAffr06Sx/9D9z5swDrzDp06eP2rRpY3bVbwY7OzvFx8dnmn7z5s1MVwVbWVnp1Vdf1auvvqru3bvr008/1aeffip/f/+HDquXcT/fs2fPqmzZspIkS0tLubq6Gv/OkJqaqvXr1+vKlSuqUaOG2fR169ZlKthKd4dF7t69u37//fcHXl0r3b0HXsZzAjmNjY2N2fu3bNmyqlu3rr7++mu5ubmZDfl+r4zOI1l1grG3t1f37t21cOFC4x7h92aDpCzzIT4+PlM+5MuXT35+fvLz8zMKGF988YVGjx791F//Rx99pE6dOumbb75Ry5Yts2zv6uqq+Ph4Xb582bjKNuOeufdmTkbb+6/Ay58/v/Lnz68CBQr8oyzJmzev0WbixIlq1aqVKlasaJZrAMg/SXJxcZGLi4tatmypnj17qnXr1tq8efNDz2ke95zp3twaMGCABg0apIULF6pfv368wQCYqVq1qmrWrKnZs2erWbNmxvTLly/r2LFjqlWrljFt7dq1Sk1NNa7YkO52orG2ttZ77733SKNMAQC5BgDkGiAxJPJ/RrFixZSYmCjp7pWxf/zxR6YfzzOULVtWp0+flqura6a/R70X16FDh+Tk5KRevXqpfPnycnNz08WLF//Rdqempurw4cPGtGvXruns2bMPLJ4+DktLS2OY55o1a8rBwSFTUVm623Pm3LlzatiwYZbrcXJyUvv27TVnzhyjaJ3Bw8NDR48ezbTM0aNHjULrgxQvXlypqalmQ1FnpUyZMvLw8FB4eHim57/fjz/+qISEBC1dutTsb9y4cdq6datu3ryZaZkSJUqoePHi+v3339WoUSM+UHghmEwmWVhY6M6dO3rjjTeMIdrvFx4eLgcHhwcWCjt06CALCwstX77cbLqDg4Py5cun3377zWx6fHy8zp8//9Dfc66pAAAgAElEQVR8sLa2VtGiRY1cf+pf3hYW6tGjh+bNm6fbt29n2cbPz09WVlbGFXgP07BhQ509ezbLTi1Pg62trTp27KgZM2ZwjxCA/HuoIkWKKE+ePI+0/D85Z8rQq1cvhYeH688//+QNBSCTAQMGaOfOnTp06JAxbceOHapUqZIcHBwkSSkpKfr2228VFBRklkHLli1ToUKFzEbEAgByDQDINeDvcIXtv+zatWt6//331bx5c5UqVUq2trb67bff9MUXX6hOnTqS7g579+qrr2r48OEaPHiwXF1ddebMGZlMJnl7e8vf31/du3fXpEmT1LJlS9nY2OjUqVPau3ev3nvvvUfaDldXV8XFxWnTpk2qUKGCdu3a9Y9+qHdzc1OdOnU0btw4ffDBB7K1tdXs2bNVuHBh1a1b12jXpk0bvfPOO3r99dcfur6//vpLd+7cUXJyso4cOaJvv/1W9erVk3T36pIRI0Zo5MiRGjdunNq3by87OztFRUVp5syZql+//kOH9Ovevbu+/vprXbhwwaxdmzZttGrVKk2ePFktW7aUtbW1du3apU2bNumTTz4x2gUEBKhhw4YqX768HBwcdOrUKc2ZM0eenp5/2xPHZDIpODhYgYGB6tWrl7p3765ixYopJSVFP//8s65evSoLi7v9J9auXSsfHx+VLl3abB3FixfXtGnTtHHjRrNhHTLMnz9fKSkpxhXKWUlJSdHly5czbVvBggX5cOI/Lzk52Xj/3rx5U6tWrVJCQoJ8fX1VrVo1bdmyRaNGjdLAgQNVvXp13bp1S6tWrdKOHTs0adKkB44YkDt3bgUEBCgkJCTTvC5duigsLEwFCxZUxYoVde3aNX322WfKnz+/kWc7d+7U5s2b9cYbb8jNzU3p6enauXOndu/erY8++uiZ7Q8/Pz/NnDlTq1evznIIGCcnJwUFBWnq1Km6ceOGmjVrpiJFiujGjRv69ttvJf2/q/sbNmyorVu3auTIkerevbu8vLxUoEABXbx4Ud99912mK3L/SZa0bt1an376qbZs2SI/Pz/e0AD5p9DQUN2+fVs+Pj5ydnbWzZs3tXLlSqWkpDzS1fj/9JxJkipVqqSSJUtq0aJFj3z+DODFUbJkSTVq1EgrV640pu3YsUO1a9c2Hu/atUs3btxQy5YtM/1/sF69elq3bp3ZrX0AgFwDAHINeBgKtv8yW1tbvfLKK1q2bJliYmKUkpKil19+WS1btlSPHj2MdiEhIZo+fbpGjhyp27dvy8XFRQMGDJB09wrcBQsWaO7cuerdu7fS09Pl4uLyWPcfq1Onjjp37qyQkBAlJyfLx8dHvXr10oIFCx77NQUHB2vKlCkKCgpScnKyqlatqhkzZpgNyXz27Nksh9W7X5s2bSTdLSI4OTmpdevWCggIMOb7+fmpYMGCWrRokd5++20lJSXJ1dVVPXv2VKdOnTLdr/FeDg4O8vf315w5c8ymu7i4GPuzf//+Sk5OloeHhyZNmiRvb2+jnZeXlzZs2KC5c+fq9u3bcnR0lK+v7yPfv7ZixYr64osvFBYWppCQEF2+fFk2NjYqXbq0hgwZoubNm+vKlSvatWuXxo0bl2l5CwsLvf7661q7dm2WPz4+yvDVp06dynQFbq5cubR7924+nPjP2717t/H+tbOzk7u7uyZOnGjcb2LChAlavny5li1bpkmTJilXrlyqVKmSQkNDVaVKlYeu+80339TSpUt16tQps+lvvfWWbGxstHjxYsXExMjBwUGVKlXS/PnzjXsrFitWTHny5NEnn3yiS5cuKVeuXHJ1ddWHH36opk2bPrsvcCsrtW/fXkuWLFHbtm2zzICOHTuqWLFiWrp0qd577z3Fx8crX758qlixombNmmXcX9JkMmnChAn6+uuvFRERoSVLliglJUWFCxdW9erVNXjw4CfOEgcHBzVt2lQLFixQvXr1jE4qAF7c/KtWrZpWrVql4OBg/fXXX3rppZdUpkwZzZkzRx4eHg9d9knOmTJ07txZo0ePlr+/v9ltRQBAkvr27avvvvtOkpSYmKh9+/Zp6NChxvy1a9eqevXqWXberVevnpYsWaITJ06oVKlS7EwA5BoAkGvA3zKlP8WxCV1cXBQbG6uiRYsqJiaGvQsgx7O0tFRaWhq5BoBcAwByDS+oH374QfPmzdPq1avZGSDXQK4B5BrINeCZ1EO5vAUAAAAAAOABbG1tjRGvAIBcAwByDXgWGBIZeAr279+vgQMHPnD+zp072UnAC2r8+PHauHFjlvMaN26sDz74gJ0EgPwDgP+wmjVrshMAkGsAQK4BzxQFW+ApKFeunJYtW8aOAJBJ37591a1btyzn2dnZsYMAkH8AAAAAAAAvOAq2wFOQJ08eubq6siMAZFKgQAEVKFCAHQGA/AMAAAAAAECWuIctAAAAAAAAAAAAAGQTCrYAAAAAAAAAAAAAkE0o2AIAAAAAAAAAAABANqFgCwAAAAAAAAAAAADZhIItAAAAAAAAAAAAAGQTCrYAAAAAAAAAAAAAkE1M6enp6U9rZbly5VJycrIkycKCWjCAnC8tLc34N7kGgFwDAHINAMg1ACDXAJBrkmRtba2kpKSnss6nWrC1tLQ0C18AAAAAAAAAAAAAeN5YWFgoNTX1qazL6mluWEbB1sLCQs7OzhwpADlebGysEbzkGgByDQDINQAg1wCAXAPwYrt48aLS0tJkaWn51Nb5VAu2hQsXVmxsrJydnRUTE8MRA5DjZXREIdcAkGsAQK4BALkGAOQaALi4uCg2NlaFCxd+autkwHgAAAAAAAAAAAAAyCYUbAEAAAAAAAAAAAAgm1CwBQAAAAAAAAAAAIBsQsEWAAAAAAAAAAAAALIJBVsAAAAAAAAAAAAAyCYUbAEAAAAAAAAAAAAgm1CwBQAAAAAAAAAAAIBsQsEWz42IiAjVrVs3R7+G6OhoeXp66ubNmxxQ4AX57I8aNUpDhw7lQAIg1wCQa+QaAHKNXANArpFreEFZsQueb6NGjdL69euNxw4ODipfvrwGDhyoUqVK/We3u1mzZrp48eID57/55psaNWqU2bQGDRrIx8eHgw48xzlmZWUlJycnNW3aVD169JCV1X//a+zePMuTJ4/c3d3Vo0cP+fn55ZgT9tGjRxuPbWxs5O7urp49e6pevXqPtZ6pU6dq27ZtvKlBrpFr5BpArpFr5BpArpFr5BpArpFr5BruQcH2BeDt7a2PPvpIknTlyhXNmzdPQUFB2rBhw392m5csWaLU1FRJ0qFDhzR8+HCtWbNGdnZ2RijfKyUlRXny5Mk0PTukp6crNTU1R3zRATktx5KTk/Xjjz9q0qRJsrKyUo8ePf4z25iSkvLAz33fvn3VsmVL3bp1S+Hh4RoxYoQKFSqkypUr54j9b2dnpzVr1kiSEhISFBERoREjRmjlypXy8PDgDQqQa+QaAHKNXAPINXKNXAPINXKNXMMTYEjkF4C1tbUcHR3l6OioMmXKqHv37rp06ZKuXr1qtDl58qT69u0rHx8f1a9fX+PGjVNCQoIxP2NIgS+++EINGzZU/fr1NWnSJKWkpBhtPD09M/XsqFu3riIiIiRJycnJmjRpkho2bChvb2+9+eabCgsLy3Kb8+fPb2zzSy+9JEkqUKCAHB0dlZSUpLp162rz5s0KCAiQt7e3Nm7cmOWwDZ9++qkaNGig2rVra+zYsZo1a5Y6d+5s9gUwefJk1a1bV/Xr19fMmTMVHBxsNnxCWlqawsLC1Lx5c/n4+KhTp076/vvvjfkZwxj/+OOP6tq1q7y8vHTgwIG/XU6Sdu3apdatW8vHx0d9+vR56FXFADnmKGdnZ7Vt21bVq1fXjh07smwbExOjIUOG6I033pCvr6/eeust7d2715i/cOFCtW/fPtNynTt31rx584zH33zzjdq2bStvb2+1adNGq1evNuZduHBBnp6emXLoQWxtbeXo6Ch3d3e99957yp07t3bu3Jll2927d6tXr15GLgUFBSkmJsaszaVLl/TBBx+oXr16qlWrlrp166bDhw8b87dt26YuXbrI29tbLVq00IIFC4y8Tk9PV2hoqJo2bSovLy81atRIkydPfuj+N5lMRia7ubmpX79+MplMOnnypNEmKSlJ06dPV+PGjVWrVi35+/srOjrayMnRo0crPj5enp6e8vT0VGhoKG9skGvkGrkGkGvkGrkGkGvkGrkGkGvkGrkGcYXtCychIUHffvutXF1d5eDgIElKTEzUO++8o4oVK2rx4sW6evWqPv74Y4WEhJgNOxwdHS1HR0eFhobq/PnzGjFihEqXLq1WrVo90nOvWLFCO3bs0MSJE+Xk5KRLly4pLi7uH7+W2bNnKygoSGXKlFHu3Lm1Z88es/kbN25UWFiY3nvvPVWuXFmbN29WeHi4ihYtarRZvHixIiMjFRwcrGLFimn58uXatm2bPD09jTZhYWHauHGjRowYIVdXV+3fv18fffSR8ufPr2rVqpltz6BBg+Ti4iJ7e/u/XS4uLk7Dhw9Xu3bt1KpVK/3222+aPn06b1LgEeTOnVvXr19/YM75+Piof//+ypUrlzZs2KAhQ4ZozZo1cnJyUvPmzbVw4UIdOXJEFSpUkCQdPXpUJ06cUEhIiJEf8+fP1/Dhw1WmTBkdO3ZM48aNk42Njd58880H5tAjffFaWcnKykrJyclZzk9MTFSXLl1UqlQpJSQkaP78+Ro2bJiWLVsmCwsLJSQkKCAgQIULF9a0adNUsGBBHT16VGlpaZKk/fv3Kzg4WO+++66qVKmimJgYjR8/XpIUEBCgLVu2aNmyZRo/frxKlCihy5cv68SJE4+871NTU40RGsqWLWtMDwkJ0alTpzR+/HgVKlRIW7du1cCBA7VixQpVrlxZQ4cO1fz5842ehLa2tryRAXKNXAPINXKNXAPINXKNXAPINXKNXIMo2L4Qdu3aJV9fXyOoHB0dNX36dFlY3L3AOjIyUklJSRozZoxsbGwkSe+++66GDBmiAQMGqGDBgpKkl156ScOHD5elpaU8PDxUq1YtRUVFPXLBNi4uTm5ubqpSpYpMJpOcnZ2f6HV16tTpoeO7r1y5Us2bN1fz5s0lSb1799ZPP/2kxMREo82qVavUvXt3vf7665Kk4cOH68cffzTmJyUlKSwsTHPnzlWlSpUkSS4uLjpw4IC++uors4Jtnz59VLNmzUdebs2aNXJxcdHgwYMlSR4eHjp58qQWL17MmxZ4gPT0dEVFRemnn35Shw4dsmxTunRplS5d2njcr18/bd26Vdu3b1eHDh308ssvq2bNmoqIiDBOKCMiIlS1alW5uLhIkkJDQxUUFGRkTNGiRXXq1Cl99dVXZieUf5dD90tOTlZ4eLji4+P12muvZdmmfv36Zo+Dg4Pl5+enU6dOqWTJkoqMjNS1a9e0ZMkSo+ONq6ur0X7hwoXq3r27sZ0uLi7q27evZs6cqYCAAMXFxalgwYKqUaOGcc+SV1555aHbHR8fb3yP3LlzR1ZWVho5cqSxv+Li4hQREaH169erUKFCkqRu3bppz549ioiIUGBgoPLmzWv0JARArpFrALlGrpFrALlGrpFrALlGrpFr+H8o2L4AqlWrphEjRkiSbty4oS+//FIDBw7U4sWL5ezsrNOnT6tUqVJGsVaSqlSporS0NJ09e9Yo2BYvXlyWlpZGG0dHR7PL9f9Os2bNFBgYqDZt2sjLy0u+vr5GgfOfKFeu3EPnnz17Vm3btjWbVqFCBWMIgfj4eF25csX4QpEkS0tLlStXzuhJc/78ed2+fVuBgYGZvhTKlCljNq18+fLGvx9ludOnT5s9tyRVrFiRNyyQhYyOJykpKUpLS1OjRo0UEBCQZduEhAQtWLBAu3bt0uXLl5Wamqo7d+6YXdHfqlUrjRkzRoMHD5aFhYUiIyM1ZMgQSXc7tsTExGjs2LEaN26csUxqaqry5s37WDmUYdasWZo3b56SkpJkY2Ojd955R7Vq1cqy7blz5zR//nwdOXJE165dM/IoLi5OJUuW1PHjx1WmTBnjZPJ+x48f18GDB7Vo0SJjWlpamu7cuaPbt2/Lz89Py5cvV4sWLeTl5SUfHx/5+vo+9L7bdnZ2Cg8PlyTdvn1be/fu1YQJE+Tg4KDatWvr5MmTSk1NVevWrc2WS0pKeuB2AuQauUauAeQauUauAeQauUauAeQauUau4S4Kti8AGxsbs94hZcuWVd26dfX111+rf//+j/5muS9sTCaTEXQZj9PT083a3HuP27Jly2rt2rXavXu3oqKi9P7776t69erGEAn/5HU9axlX406fPl2FCxc2m2dtbf3A7Xmc5QD8vYyOJxn32njYyc/06dO1d+9eBQUFydXVVblz59Z7771nlke+vr7KlSuXtm7dKmtra6WkpBg97zLu3/3hhx9m6hmXMTLB4+ZQt27d1KxZM9nY2KhgwYIymUwPbDt48GA5Oztr5MiRKlSokNLS0tShQwdj+/9uaJjExEQFBARk2TMxV65ccnJy0po1axQVFaW9e/dq4sSJ+uKLL7RgwYIH7leTyWT2PVKqVCnt3btXixcvVu3atZWQkCBLS0t98cUXZh17/q2sBsg1co1cA8g1co1cA8g1co1cA8g1cg05GQXbF5DJZJKFhYXu3LkjSSpWrJjWr1+vxMRE44N/4MABWVhYyN3d/ZHXmz9/fl2+fNl4fO7cOd2+fdusTd68efXGG2/ojTfeUP369TVgwABdv379mfQQcXd316+//mo2vMKvv/5qti0FCxbUr7/+qqpVq0q628Pn6NGjxnAPxYoVU65cuRQXF2c2/PHfeZTlihUrpu3bt5tNu/em5gDMT0ruPaF5mIMHD6pZs2bGUOcJCQm6cOGC2WfRyspKTZs2VUREhKytrfXGG28oT548kqSCBQuqUKFCio2NVePGjZ/K9ufLl++Rtv/atWs6e/asPvzwQ7366qtGHt+rVKlS+uabbx6YnWXKlNHZs2cf+nx58uRR7dq1Vbt2bbVr105t27bVyZMnze6Z8Xfu/R4pU6aMUlNTdfXqVWO772dtbW3WyQcg18g1cg0g18g1cg0g18g1cg0g18g1cg3//2eKXfD8S05ONgqpN2/e1KpVq5SQkGCMl964cWOFhoYqODhYAQEBunbtmiZPnqwmTZoYwyE/Ck9PT61atUoVK1ZUWlqaZs2aZdabJDw8XI6OjipbtqxMJpO+//57FSxYUPb29s/kdXfo0EEff/yxypcvr0qVKmnz5s06ceKEihYtarRp3769wsLC5OLiIg8PD61cuVI3btwweufY2dmpa9eumjZtmtLT01WlShXFx8frwIEDyps3r1kx+F6PslybNm0UHh6uGTNmqEWLFjp69KgiIiJ4wwJPyM3NTT/88IN8fX1lMpk0b968TFf/S1LLli3Vrl07SdJnn31mNq9Pnz6aPHmy8ubNKy8vLyUnJ+vXX3/VjRs31LVr12e27S+99JIcHBz01VdfydHRUXFxcZo1a5ZZm4YNG2rRokUaNmyYAgMD5ejoqGPHjqlQoUKqVKmSevfuraCgIDk5Oal+/fqysLDQ8ePH9fvvv6t///6KiIhQamqqXnnlFeXJk0cbN25U7ty55eTk9MDtSk9PN75H7ty5o7179+qnn37S22+/LeluB5nGjRsrODhYQUFBKlOmjK5evap9+/apVKlSqlWrlpydnZWQkKCoqCiVLl1aefLkMU7iAZBr5BpArpFr5BpArpFr5BpArpFr5NqLjILtC2D37t1q1KiRpLuFRHd3d02cOFGenp6S7vYEmT17tqZMmSJ/f3/lyZNH9erV0+DBgx/reQYPHqzRo0erd+/eKlSokIYOHarffvvNmG9nZ6clS5bo/PnzsrCwUIUKFTRjxoxMQyA8LY0bN1ZsbKymT5+upKQk+fn5qVmzZjpy5IjRxt/fX1euXFFwcLAsLS3VqlUreXl5mW1Tv379lD9/foWFhSk2Nlb29vYqW7asevTo8dDn/7vlnJycFBISomnTpmnlypWqUKGCAgMDNWbMGN60wBMYPHiwxowZo549eypfvnzy9/fXrVu3sjzxrFSpkq5fv55paJaWLVsqT548WrJkiWbMmCEbGxuVLFlSnTp1eqbbbmFhofHjx2vKlCnq0KGD3N3dNWzYMPXp08doY21trTlz5uiTTz7RoEGDlJqaquLFi2v48OGSJC8vL02fPl0LFy7U4sWLZWVlJQ8PD7Vs2VKSZG9vr88//1yffPKJ0tLSVLJkSX3yySfKly/fA7fr1q1bxvdIxrAvffr0kb+/v9EmODhYn332maZPn64//vhD+fLlU8WKFY3OQZUrV1abNm00YsQIXb9+Xb179zZ7XQDINXININfINXININfINXININfINXLtRWVKz6pbxD/k4uKi2NhYFS1aVDExMexd/Of0799fBQsW1NixY7Ocn5aWprZt26pBgwbq168fOwyytLRUWloaufYcSk9PV6tWrdS2bdtn2qsPINdArgHkGsg1gFwDuQZyjVwj14Dnx7Ooh3KFLZ5bt2/f1pdffikvLy9ZWlpq06ZNioqK0pw5c4w2Fy9e1E8//aSqVasqOTlZK1eu1IULF4yeLgCeT1evXtWmTZt05coVNW/enB0CgFwDAHINAMg1ACDXgGxDwRbPtd27dyssLEx37tyRu7u7QkJCVKNGDWO+yWRSRESEpk+fLkkqUaKE5s6dq2LFirHzgOdYgwYNlC9fPo0cOVIvvfQSOwQAuQYA5BoAkGsAQK4B2YaCLZ5befLk0dy5cx/axsnJSYsWLWJnAS+Y6OhodgIAcg0AyDUAINcAgFwD/hMs2AUAAAAAAAAAAAAAkD0o2AIAAAAAAAAAAABANqFgCwAAAAAAAAAAAADZhIItAAAAAAAAAAAAAGQTCrYAAAAAAAAAAAAAkE0o2AIAAAAAAAAAAABANqFgCwAAAAAAAAAAAADZhIItAAAAAAAAAAAAAGQTU3p6evrTWlmuXLmUnJwsSbKwoBYMIOdLS0sz/k2uASDXAIBcAwByDQDINQDkmiRZW1srKSnpqazzqRZsLS0tzcIXAAAAAAAAAAAAAJ43FhYWSk1NfSrrsnqaG5ZRsLWwsJCzszNHCkCOFxsbawQvuQaAXAMAcg0AyDUAINcAvNguXryotLQ0WVpaPrV1PtWCbeHChRUbGytnZ2fFxMRwxADkeBkdUcg1AOQaAJBrAECuAQC5BgAuLi6KjY1V4cKFn9o6GTAeAAAAAAAAAAAAALIJBVsAAAAAAAAAAAAAyCYUbAEAAAAAAAAAAAAgm1CwBQAAAAAAAAAAAIBsQsEWAAAAAAAAAAAAALIJBVsAAAAAAAAAAAAAyCYUbJFjRUREqG7dutm+HQEBAZo6dSoHBAAAAAAAAAAAAI/Nil2ARzVq1CitX7/eeOzg4KDy5ctr4MCBKlWq1GOt5+bNm39b5Lz3+aysrOTk5KSmTZuqR48esrLirQvgv8PT0/Oh83v37q1mzZqpefPmxrSXXnpJJUuWVL9+/fTqq6/+bUZGR0erb9++2rp1q+zt7RUREaHRo0dneq5cuXJp9+7dHBQA5BoAkGsAyDVyDQCZRqYhh6Dqhcfi7e2tjz76SJJ05coVzZs3T0FBQdqwYcMzfb7k5GT9+OOPmjRpkqysrNSjRw8OBoD/jMjISOPf3333nebPn681a9YY02xtbXXt2jVJ0ty5c1W8eHFdu3ZNixYtUlBQkL766isVLFjwsZ/Xzs7O7HkkyWQycUAAkGsAQK4BINfINQBkGpmGHISCLR6LtbW1HB0dJUmOjo7q3r273n77bV29elX58+eXJMXFxWn69On66aefZGFhoSpVqmjYsGEqUqSIQkNDjatmM3rNzJ8//4E9aO59vrZt22rr1q3asWNHlgXbmJgYTZs2TYcPH1ZiYqKKFSumwMBA1ahRw2iTlJSk+fPna9OmTfrrr7/08ssvq3v37mrZsqUk6eTJk5o5c6b2798vGxsb1ahRQ0OHDlW+fPkkSYmJiZowYYK2bt0qW1tbdevWjTcFACOnJClv3rwymUxm0yQZJ5UODg5ydHSUo6Ojevbsqc2bN+vw4cOqU6fOYz9vVs8DAOQaAJBrAMg1cg0AmUamIWfhHrb4xxISEvTtt9/K1dVVDg4OkqSUlBQNGDBAtra2+vTTT/XZZ5/J1tZWAwYMUHJysrp166YGDRrI29tbkZGRioyMVOXKlR/5OXPnzq3k5OQHbo+Pj4/mzp2rpUuXysvLS0OGDFFcXJzRJjg4WJs2bdKwYcO0evVqffDBB7K1tZUk3bx5U/369fv/2LvzuKjq/Y/j75kB2cR1VEAQd9T0pymZaRamFqbkkmlqi6gplXBdsJul4p5lmuJuWilqWZo/xYyb16UuLimkmWbu2yDadcENkYHh94cPzq8JUjQKqdfz8eDxYM6cbc6cec858/me71FQUJDi4uIUGxurCxcu6PXXXzemnz59ur777jtNmTJFs2bNUnJysg4cOMDOAOCOZWRkGL0TuLq6skEAkGsAQK4BALkGAGQa/qa4whZ3JDExUS1btpR082pTq9WqadOmyWy+Wfv/6quv5HA4NHLkSKPrgJiYGIWEhCg5OVnNmjWTm5ubMjMz76jlSk5Ojnbs2KHt27ere/fu+Y5Tu3Zt1a5d23j88ssva9OmTfr666/VvXt3nThxQuvXr9esWbOMq279/f2N8ZcvX66goCC9+uqrxrBRo0apffv2OnHihCpUqKDVq1dr3Lhxatq0qaSb/eE/+eST7BgACqxPnz4ym83KyMhQTk6O6tata2TKnbp69aqRybnuv/9+xcbGsqEBkGsAQK4BALkGgEwj01BMULDFHWnSpImGDx8uSbp8+bJWrFihqKgoLVq0SL6+vjp06JBsNpseeeQRp+kyMzNls9nueHm5BeKsrCw5HA6FhrhtRLgAACAASURBVIaqf//++Y6bnp6u+fPnKzExUefOnVN2drZu3LhhXGF78OBBWSwWNWnSJN/pDx06pKSkpDwBLd3sbvnGjRuy2+2qX7++Mbx06dIKDAxkxwBQYG+99ZaqVq2qI0eOKDY2VjExMXJxubuvYy8vLy1ZssRpmJubGxsZALkGAOQaAJBrAMg0Mg3FCAVb3BEPDw8FBAQYj+vUqaOQkBCtWrVKr7zyitLT01WnTh2NHz8+z7S597i9E7kF4tx72d4qeKdNm6Zvv/1WgwYNUkBAgNzc3PTPf/5TWVlZBQra69evq2XLloqKisrznNVq1alTp9gBAPxulSpVUpUqVVSlShVlZ2dr2LBhWr58uUqUKGEcKKampuaZ7urVq7JYLPLw8DCGmUwmp0wGAHINAMg1ACDXAJBpZBqKH+5hi9/FZDLJbDbrxo0bkm4WcE+dOqWyZcsqICDA6a9kyZKSbvYn73A4CjT/3AKxj4/PbVvJfP/99woLC1OrVq1Us2ZNlS9fXqdPnzaer1mzphwOh5KTk/OdPigoSEePHpWvr2+edffw8JC/v79cXFy0d+9eY5rLly/r5MmT7AgA7krr1q1lsVj02WefGcMCAwN19OhRZWZmOo37008/yc/P765bDAIAuQYA5BoAkGsAyDQyDfcmCra4I3a7XefOndO5c+d07NgxTZ48Wenp6UY3wu3atVOZMmU0dOhQ7dq1SykpKUpKStLkyZN19uxZSTK6Tj5+/LjS0tKMK2B/rypVqmjjxo06cOCADh48qDfffFM5OTnG835+furQoYPGjh2rzZs3G+u2fv16SVK3bt10+fJlvfnmm9q3b59sNpu2bdumMWPGKDs7W56enurYsaOmT5+unTt36vDhwxo9erRx/14AuFMmk0nPPvusFi1apIyMDCNHTSaTYmJitH//fp06dUqrV6/Wxx9/rF69ejlNn5OTY2TyL/8K2igGAMg1ACDXAJBr5BoAMo1MQ9GjKQHuyNatWxUaGirpZtcCgYGBmjRpkoKDgyVJ7u7umj9/vmbMmKFhw4YpPT1dFSpUUNOmTeXl5SVJ6ty5s5KTk/XCCy8oPT1dc+fONab/PQYPHqyxY8eqT58+KlOmjF588UVdu3bNaZzXX39ds2bN0qRJk3Tp0iX5+PgoPDxcklShQgUtXLhQM2bM0MCBA5WZmSlfX1899NBDRlH2H//4h9LT0zV48GB5eXmpV69eunr1KjsGgLvWoUMHzZ49W8uXL9eLL74ob29vvf/++5o5c6aGDBmiq1evKiAgQIMHD1bHjh2dpr127ZqRyb+UkJAgq9XKxgVArgEAuQYA5BoAMo1MQzFgyvnlJYi/k7+/v1JSUlS5cmXZbDa2LoBiz2KxyOFwkGsAyDUAINcAgFwDAHINAP6Qeih9uQIAAAAAAAAAAABAEaFgCwAAAAAAAAAAAABFhIItAAAAAAAAAAAAABQRCrYAAAAAAAAAAAAAUEQo2AIAAAAAAAAAAABAEaFgCwAAAAAAAAAAAABFhIItAAAAAAAAAAAAABQRCrYAAAAAAAAAAAAAUEQo2AIAAAAAAAAAAABAEaFgCwAAAAAAAAAAAABFhIItAAAAAAAAAAAAABQRU05OTk5hzaxEiRKy2+2SJLOZWjCA4s/hcBj/k2sAyDUAINcAgFwDAHINALkmSa6ursrMzCyUeRZqwdZisTiFLwAAAAAAAAAAAAD81ZjNZmVnZxfKvFwKc8VyC7Zms1m+vr68UwCKvZSUFCN4yTUA5BoAkGsAQK4BALkG4O8tNTVVDodDFoul0OZZqAXbihUrKiUlRb6+vrLZbLxjAIq93IYo5BoAcg0AyDUAINcAgFwDAH9/f6WkpKhixYqFNk86jAcAAAAAAAAAAACAIkLBFgAAAAAAAAAAAACKCAVbAAAAAAAAAAAAACgiFGwBAAAAAAAAAAAAoIhQsAUAAAAAAAAAAACAIkLBFgAAAAAAAAAAAACKCAVbAAAAAAAAAAAAACgiFGxRaHbv3q3u3bvrwQcf1NChQ/MdlpSUpODgYF25cqVA8+zfv7+mTJnCxgWAP8np06cVHBysAwcOsDEAkGsAQK4BALkGAOQa/gQubAJcvHhRc+fOVWJioi5cuKBSpUqpVq1a6tevnxo1alTg+bz33nuqXbu2YmNj5enpme8wd3d3JSQkqGTJkgWa5+TJk+XiUri76ejRo3XlypXbFoJHjx6ttWvXGo9Lly6tevXqKSoqSrVq1Sr05QEoGr/8rLu4uMjHx0ft27dXeHh4oefP3QoLC1Nqaqokyc3NTeXKldN9992np59+Wg888ABvIgByDQC5Rq4BINfINQDkGrmGYoyCLfTaa6/JbrdrzJgxqly5ss6fP6+dO3fq0qVLdzQfm82mp59+WpUqVbrlMKvVWuB5li5duki3TfPmzTVq1ChJ0vnz5zVnzhwNGjRIX3zxBTsO8BeS+1m32+3asmWL3n77bbm4uCg8PDzPuHa7Xa6urn/6OkZERKhTp07KysrS6dOn9eWXX+qVV15RRESE+vbty5sIgFwDQK6RawDINXINALlGrqGYomD7N3flyhXt2rVL8+bNU5MmTSRJvr6+ql+/vjHO6dOn9dRTT2np0qUKCgoypmvVqpXmzp0rPz8/PfXUU5KksWPHauzYsYqJidGYMWPyDPP19VVERIQ2bdokb29vSTe7TZ49e7b27dunEiVK6L777tPEiRNVqlQp9e/fX0FBQUYXy5mZmZo9e7b+9a9/6cqVK6pRo4YiIyMVHBwsSYqPj9eUKVP01ltvacqUKTp79qwaNWqkmJgYWa1WzZs3z2jpkzvN3Llzjf9/zdXV1SgwW61W9e7dW/369dPFixdVtmxZSdKZM2c0bdo0bd++XWazWY0aNVJ0dLT8/PzueHkAisYvP+tdu3bVpk2b9M033yg8PNy4Sr5evXr67LPPVKJECa1Zs+aWn31JSkpKUmxsrI4ePSoXFxdVr15dEyZMkK+vrw4ePKgpU6Zo//79MplMCggI0BtvvKF69er95jp6enoa6+jj46PGjRsbuda6dWtVrVpVknT48GHFxsZq165d8vDwMLqkL1OmjCRp69atWrhwoY4cOSKLxaIGDRooOjpa/v7+7AgAuUauASDXyDUA5Bq5BoBcI9dQBLiH7d+ch4eHPD09tXnzZmVmZt7VPCpVqqSEhAR5eXlp6NChSkhIUJs2bfIMa9u2bZ5pDxw4oFdeeUXVq1fXhx9+qAULFqhly5ZyOBz5Luudd97Rnj17NHHiRH3yySdq06aNoqKidPLkSWOcjIwMxcXFaezYsXr//feN0Jek559/Xm3btlXz5s2VkJCghIQENWzYsECvMz09XevWrVNAQIBx5W9WVpYiIyPl6empBQsWaOHChfL09FRkZKTsdvvvWh6AouPm5ia73W483rlzp06cOKFZs2bpvffeu+1nPysrS9HR0WrSpIk++eQTffjhh+rSpYtMJpMkacSIEapYsaIWL16suLg49e7d+666h3n22WeVk5Ojr7/+WtLNxjQvv/yygoKCFBcXp9jYWF24cEGvv/66Mc3169fVq1cvxcXFafbs2TKZTIqOjv7N3AVArpFrAMg1cg0AuUauASDXyDX8sbjC9u++A7i4KCYmRhMmTNDnn3+uoKAgNWnSRI8//niB79NqsVhktVplMplUsmRJo4WKh4dHnmG/tnjxYtWtW9cp7GrUqJHvuGfOnFF8fLzWrl2rChUqSLpZgN22bZvi4+P16quvSrpZRH3jjTeM1izdunXTggULJN1sQePm5qbMzMwCdc2cmJioli1bGiFstVo1bdo0mc032zp89dVXcjgcGjlypPFFERMTo5CQECUnJ6tZs2Z3tDwARSsnJ0c7duzQ9u3b1b17d2O4h4eHRo4caXTVsm7dult+9uvWraurV6/q4YcfNrKoWrVqxvzOnj2rF154wWi1V6VKlbta39KlS6tcuXLG/TeWL1+uoKAgIw8ladSoUWrfvr1OnDihwMBAtW7d2mkeMTExatOmjY4ePaqaNWuyEwDkGrkGgFwj1wCQa+QaAHKNXMOfjIIt1Lp1az388MPatWuX9u7dq61bt2rx4sUaMWKEwsLC/tBlHzx4UG3atCnQuIcPH1Z2dra6dOniNDwzM9PpXrfu7u5OXQ9YrVZduHDhrtavSZMmGj58uCTp8uXLWrFihaKiorRo0SL5+vrq0KFDstlseuSRR/Ksk81mY+cCioncxhlZWVlyOBwKDQ1V//79jedr1KjhdF+N2332mzVrprCwMEVGRurBBx9U06ZN1bZtW6PhRs+ePTVu3DitW7dOTZs2VZs2be66y5ScnBzjoPbQoUNKSkoyGpr8ks1mU2BgoE6ePKm5c+dq3759SktLM1r+nTlzhgNKgFwj1wCQa+QaAHKNXANArpFrKAIUbCHpZvcEzZo1U7NmzdSvXz+NGzdO8+bNU1hYmHE1aU5OjjF+VlZWoS23oNLT02WxWBQXFyeLxeL0nIeHx//v1L/q9sBkMjmt+53w8PBQQECA8bhOnToKCQnRqlWr9Morryg9PV116tTR+PHj80ybe49bAPe+3MYZuffa+HWO/DJjcvPodp/9mJgYde/eXdu2bdP69es1Z84czZo1Sw0aNNCAAQMUGhqqxMREbd26VfPmzdPEiRPVqlWrO1rvtLQ0Xbx40bivx/Xr19WyZUtFRUXlGTf3YHbw4MHy9fXVm2++qQoVKsjhcKh79+6FlusAyDVyDQC5Rq4BINfINYBcI9eAO0PBFvmqVq2aNm/eLEnGjbTPnTtnPH/gwIFCWU6tWrW0Y8cODRgw4LbjBgUFKTs7WxcvXtT9999/18t0dXW9677kTSaTzGazbty4IelmAXf9+vUqW7asSpYsWejLA/Dn+HXjjNspyGc/d7w6deooPDxc4eHhSkhIUIMGDSRJgYGBCgwMVK9evfTGG29ozZo1d3xA+cknn8hsNiskJMTIyY0bN8rX1zffe3akpaXpxIkTGjFihJGju3fvZgcAyDVyDQC5Rq4BINfINQDkGrmGImRmE/y9paWlKSIiQuvWrdOhQ4eUkpKif//734qLi9Ojjz4q6WYXww0aNNCiRYt07NgxJScna86cOYWy/N69e+vHH3/UpEmTdOjQIR0/flwrVqxQWlpannEDAwPVrl07xcTEaOPGjUpJSdHevXv14YcfKjExscDLzO3K+Pjx40pLS7tlqxe73a5z587p3LlzOnbsmCZPnqz09HSjO4R27dqpTJkyGjp0qHbt2qWUlBQlJSVp8uTJOnv27B0vD0DxcLvPfkpKimbOnKk9e/YoNTVV27dv18mTJ1WtWjVlZGTo7bffVlJSklJTU7V79279+OOPTvfgyE96errOnTunM2fO6LvvvtOECRO0cOFCvfzyy8bBcLdu3XT58mW9+eab2rdvn2w2m7Zt26YxY8YoOztbpUqVUunSpfX555/r1KlT2rlzp6ZOncobCoBcA0CukWsAyDVyDQC5Rq6hCHGF7d+cp6en6tevr2XLlslmsykrK0uVKlVSp06dFB4ebow3atQojRs3Ts8995wCAwMVFRWlgQMH/u7lBwYGaubMmZo1a5ZefPFFubm5qX79+nriiSfyHT8mJkYLFy7UtGnT9PPPP6tMmTJq0KBBvv3J/5bOnTsrOTlZL7zwgtLT0zV37lwFBwfnO+7WrVsVGhoqSfLy8lJgYKAmTZpkjO/u7q758+drxowZGjZsmNLT01WhQgU1bdpUXl5ed7w8AMXD7T77N27c0PHjx7V27VpdunRJVqtV3bp1U5cuXZSdna1Lly4pJiZGFy5cUJkyZdSqVavb9jQwd+5czZ07V66uripfvrwaNGigOXPmOOVJhQoVtHDhQs2YMUMDBw5UZmamfH199dBDD8lsNstkMmnixIl699131b17dwUGBio6OrpAvRwAINfINQDkGrkGgFwj1wCQa+Qa/himnLu9uWc+/P39lZKSosqVK8tms7F1ARR7FotFDoeDXANArgEAuQYA5BoAkGsA8IfUQ+kSGQAAAAAAAAAAAACKCAVbAAAAAAAAAAAAACgiFGwBAAAAAAAAAAAAoIhQsAUAAAAAAAAAAACAIkLBFgAAAAAAAAAAAACKCAVbAAAAAAAAAAAAACgiFGwBAAAAAAAAAAAAoIhQsAUAAAAAAAAAAACAIkLBFgAAAAAAAAAAAACKCAVbAAAAAAAAAAAAACgippycnJzCmlmJEiVkt9slSWYztWAAxZ/D4TD+J9cAkGsAQK4BALkGAOQaAHJNklxdXZWZmVko8yzUgq3FYnEKXwAAAAAAAAAAAAD4qzGbzcrOzi6UebkU5orlFmzNZrN8fX15pwAUeykpKUbwkmsAyDUAINcAgFwDAHINwN9bamqqHA6HLBZLoc2zUAu2FStWVEpKinx9fWWz2XjHABR7uQ1RyDUA5BoAkGsAQK4BALkGAP7+/kpJSVHFihULbZ50GA8AAAAAAAAAAAAARYSCLQAAAAAAAAAAAAAUEQq2AAAAAAAAAAAAAFBEKNgCAAAAAAAAAAAAQBGhYAsAAAAAAAAAAAAARYSCLQAAAAAAAAAAAAAUEQq2AAAAAAAAAAAAAFBEKNgCAAAAAAAAAAAAQBFxYRPgl0aPHq21a9caj0uXLq169eopKipKtWrVKvB84uPjNWXKFG3evNlpeFhYmHr06KGePXv+qa/FxcVFPj4+at++vcLDw+Xiwq4PoPAEBwff8vmXXnpJYWFheuqpp4xhpUqVUs2aNfXyyy/r/vvvd8quK1euaMqUKU7zSEpKUkREhDZt2iRvb2/Fx8drzJgxeZZVokQJbd26lTcFALkGAOQaAHKNXANAppFpKCaoWiGP5s2ba9SoUZKk8+fPa86cORo0aJC++OKLYvta7Ha7tmzZorffflsuLi4KDw/PM67dbperqys7AIA7lpCQYPy/fv16zZ07VytXrjSGeXp6Ki0tTZI0e/ZsVa9eXWlpafrggw80aNAgff755ypfvvwdL9fLy8tpOZJkMpl4QwCQawBArgEg18g1AGQamYZihIIt8nB1dZXVapUkWa1W9e7dW/369dPFixdVtmzZPC1RJOnAgQPq1auX1qxZo9OnTxstU3Jbxrz00ktKTk5Wamqqpk6dqqlTp0q62apFkjZs2KB58+bp1KlTslqt6t69u5577jljncLCwtS5c2edOnVKGzZskLe3t/r27asuXboU+LV07dpVmzZt0jfffKPw8HCjpU29evX02WefqUSJElqzZo3OnDmjadOmafv27TKbzWrUqJGio6Pl5+dnrHNsbKyOHj0qFxcXVa9eXRMmTJCvr68OHjyoKVOmaP/+/TKZTAoICNAbb7yhevXqsWMBf2G5OSNJJUuWlMlkchomyTioLF26tKxWq6xWq/r06aOvvvpKe/fu1aOPPnrHy81vOQBArgEAuQaAXCPXAJBpZBqKFwq2uKX09HStW7dOAQEBKl26dIGmadiwoYYOHerUCsbT01PPPvusevbsqc6dO6tTp07G+Pv379fw4cPVv39/tW3bVnv27NGkSZNUunRphYWFGeMtXbpUERER6tOnjzZs2KBJkyapcePGqlq1aoFfj5ubmy5dumQ83rlzp7y8vDRr1ixJUlZWliIjI9WgQQMtWLBAFotFCxcuVGRkpD755BOZTCZFR0erc+fOmjhxoux2u/bt22e0uhkxYoSCgoI0fPhwmc1mHTx4kO6XAeQrIyPD6LmAq/sBkGsAQK4BALkGAGQa/r6oJCGPxMREtWzZUpJ0/fp1Wa1WTZs2TWazuUDTu7q6/mYrGLPZLE9PT6fhS5cu1QMPPKB+/fpJkgIDA3X06FHFxcU5FWybN2+uZ555RpL04osvatmyZUpKSipQwTYnJ0c7duzQ9u3b1b17d2O4h4eHRo4caQT6unXr5HA4NHLkSKMIGxMTo5CQECUnJ6tu3bq6evWqHn74Yfn7+0uSqlWrZszv7NmzeuGFF4x1qlKlCjsUACd9+vSR2WxWRkaGcnJyVLduXTVt2vSu5nX16lUjr3Pdf//9io2NZUMDINcAgFwDAHINAJlGpqGYoGCLPJo0aaLhw4dLki5fvqwVK1YoKipKixYtkq+vb6Ev79ixY3m6K2jYsKE+/vhjZWdny2KxSJJq1aplPG8ymVS+fHldvHjxlvPOLT5nZWXJ4XAoNDRU/fv3N56vUaOGU+ubQ4cOyWaz6ZFHHnGaT2Zmpmw2m5o1a6awsDBFRkbqwQcfVNOmTdW2bVujAN2zZ0+NGzdO69atU9OmTdWmTRujsAsAkvTWW2+patWqOnLkiGJjYxUTE3PXV+J7eXlpyZIlTsPc3NzYyADINQAg1wCAXANAppFpKEYo2CIPDw8PBQQEGI/r1KmjkJAQrVq1Sq+88opxpW1OTo4xTlZW1h+/s/4qdE0mkxwOxy2nyS0+597L9tfz8PDwcHqcnp6uOnXqaPz48XnmVbZsWUk3r7jt3r27tm3bpvXr12vOnDmaNWuWGjRooAEDBig0NFSJiYnaunWr5s2bp4kTJ6pVq1bsWAAkSZUqVVKVKlVUpUoVZWdna9iwYVq+fLlKlChhHCimpqbmme7q1auyWCxOuZV7r2wAINcAgFwDAHINAJlGpqH4MrMJcDsmk0lms1k3btyQ9P+Fy3PnzhnjHDx40GkaV1fXfIup+Q2vVq2avv/+e6dh33//vapUqWJcXXu3covPPj4+BWplU6dOHZ06dUply5ZVQECA01/JkiWdxgsPD9cHH3ygGjVqKCEhwXguMDBQvXr10qxZs9SqVSutWbOGnQhAvlq3bi2LxaLPPvvMKUOOHj2qzMxMp3F/+ukn+fn5cV9sAOQaAJBrAECuAQCZhr8YCrbIw26369y5czp37pyOHTumyZMnKz093ejLPSAgQJUqVdL8+fN18uRJJSYm5uk2wNfXV+np6dqxY4fS0tKUkZFhDP/uu+/0888/Ky0tTZL03HPPaefOnVqwYIFOnDihtWvX6tNPP9Xzzz//p7/2du3aqUyZMho6dKh27dqllJQUJSUlafLkyTp79qxSUlI0c+ZM7dmzR6mpqdq+fbtOnjypatWqKSMjQ2+//baSkpKUmpqq3bt368cff3S6xy0A/JLJZNKzzz6rRYsWGTnZrl07mUwmxcTEaP/+/Tp16pRWr16tjz/+WL169XKaPicnx8jrX/7drvcBACDXAIBcA0CukWsAyDQyDfcOmhIgj61btyo0NFTSze4DAgMDNWnSJAUHB9/caVxcNGHCBE2aNEk9evRQvXr19PLLL+v111835tGwYUM9/fTTGj58uC5duqSXXnpJAwYMUEREhCZOnKhOnTopMzNTSUlJqlOnjt566y3NmzdPCxYskNVqVUREhMLCwv701+7u7q758+drxowZGjZsmNLT01WhQgU1bdpUXl5eunHjho4fP661a9fq0qVLslqt6tatm7p06aLs7GxdunRJMTExunDhgsqUKaNWrVppwIAB7FQAflOHDh00e/ZsLV++XC+++KK8vb31/vvva+bMmRoyZIiuXr2qgIAADR48WB07dnSa9tq1a0Ze/1JCQoJxb20AINcAgFwDAHINAJlGpuHeZsr55Y1Ifyd/f3+lpKSocuXKstlsbF0AxZ7FYpHD4SDXAJBrAECuAQC5BgDkGgD8IfVQukQGAAAAAAAAAAAAgCJCwRYAAAAAAAAAAAAAiggFWwAAAAAAAAAAAAAoIhRsAQAAAAAAAAAAAKCIULAFAAAAAAAAAAAAgCJCwRYAAAAAAAAAAAAAiggFWwAAAAAAAAAAAAAoIhRsAQAAAAAAAAAAAKCIULAFAAAAAAAAAAAAgCJCwRYAAAAAAAAAAAAAiggFWwAAAAAAAAAAAAAoIqacnJycwppZiRIlZLfbJUlmM7VgAMWfw+Ew/ifXAJBrAECuAQC5BgDkGgByTZJcXV2VmZlZKPMs1IKtxWJxCl8AAAAAAAAAAAAA+Ksxm83Kzs4ulHm5FOaK5RZszWazfH19eacAFHspKSlG8JJrAMg1ACDXAIBcAwByDcDfW2pqqhwOhywWS6HNs1ALthUrVlRKSop8fX1ls9l4xwAUe7kNUcg1AOQaAJBrAECuAQC5BgD+/v5KSUlRxYoVC22edBgPAAAAAAAAAAAAAEWEgi0AAAAAAAAAAAAAFBEKtgAAAAAAAAAAAABQRCjYAgAAAAAAAAAAAEARoWALAAAAAAAAAAAAAEWEgi0AAAAAAAAAAAAAFBEKtrit+Ph4hYSEsCFuoX///poyZUqhzzc4OFibN29mAwMAAAAAAAAAAPxFubAJio/Ro0dr7dq1N984Fxf5+Pioffv2Cg8Pl4vLH/dWtm3bVi1atLhnXrvFYlGlSpXUunVrRUREyM3N7Z5+344fP66uXbvqww8/VIMGDYzhvXv31sGDB7Vp0ybjNdy4cUOtWrXSa6+9pk6dOikhIUGlSpVi5wfuccHBwbd8/qWXXlJYWJieeuopY1ipUqVUs2ZNvfzyy7r//vud8u7KlSt5GoEkJSUpIiJCmzZtkre3t+Lj4zVmzJg8yypRooS2bt3KmwKAXAMAcg0AuUauASDTyDQUExRsi5nmzZtr1KhRstvt2rJli95++225uLgoPDw8z7h2u12urq6/e5nu7u5yd3e/Z157VlaWfvrpJ8XExMhkMikqKuqefs+qVq2q8uXLKzk52SjYXrt2TT/99JPKly+vH374wfhC+uGHH5SZmakHHnhAkmS1WtnpgWIgISHB+H/9+vWaO3euVq5caQzz9PRUWlqaJGn27NmqXr260tLS9MEHH2jQoEH6/PPPVb58+TterpeXl9NyJMlkMvGGACDXAIBcA0CukWsAyDQyDcUIXSIXM66urrJarfL19VXXrl3VtGlTffPNN5JutaVZ3QAAIABJREFUthwZOnSoFi5cqNDQUD399NOSpDNnzuj1119XSEiIHnvsMQ0ZMkSnT5+WJG3fvl3NmzfXlStXnJbz7rvvKiIiQlL+XSKvWLFCHTt2VLNmzdSlSxd98cUXxnOnT59WcHCwDhw4YAy7cuWKgoODlZSUJEm6fPmyRowYoTZt2qhFixbq3Lmz1qxZU6DX7uPjo5CQEDVt2lTffvut8XxmZqYmT56stm3bqnnz5urbt6/27dtnPJ/f69i8ebNT65158+apZ8+e+uKLLxQWFqZHH31Uw4cP17Vr14xxrl+/rlGjRqlly5Z64okntGTJktu+b8HBwUpOTjYe7969W1WqVFHLli2dhicnJ8vX11eVK1c2psvtEjl3u27cuFEDBgxQixYt1KNHD+3Zs4cPBlDErFar8VeyZEmZTCanYZ6ensa4pUuXltVqVc2aNdWnTx9du3ZNe/fuvavl/no5Vqv1rg5OAYBcA0CukWsAyDVyDQCZRqah6FCwLebc3Nxkt9uNxzt37tSJEyc0a9Ysvffee8rKylJkZKQ8PT21YMECLVy4UJ6enoqMjJTdbtcDDzwgb29vbdiwwZhHdna21q9fr9DQ0HyXuWnTJr377rt67rnntHz5cnXp0kVjx441irEFMWfOHB09elSxsbH67LPP9Prrr6tMmTIFnv7w4cPas2eP0xXEsbGx2rhxo0aPHq0lS5YoICBAkZGRunTp0h1tU5vNps2bN+u9997TtGnT9N133+mjjz4ynp8+fbq+++47TZkyRbNmzVJycrJTcTo/wcHB2r17t7KysiTd7H6hSZMmaty4sVPBNikp6bbdP8yePVvPP/+8li1bpipVqujNN9805gug+MjIyDAauxRGbwgAQK4BALkGAOQaADINKJ7oErmYysnJ0Y4dO7R9+3Z1797dGO7h4aGRI0caAbVu3To5HA6NHDnSuJQ/JiZGISEhSk5OVrNmzfT444/rX//6lzp16iTpZtH3ypUrat26db7LjouLU1hYmJ555hlJUmBgoPbu3au4uLjbFhtznTlzRkFBQapXr54kyc/P77bTJCYmqmXLlsrOzlZmZqbMZrNee+01STevel2xYoVGjx5t3G93xIgRCgsL0+rVq/XCCy8UeNs6HA6NHj1aXl5ekqQnn3xSO3fulCSlp6dr9erVGjdunJo2bSrp5pXNTz755C3nGRwcrOvXr+vHH3/U//zP/yg5OVkvvPCCGjVqpNGjR+vGjRvKycnRvn371LFjx1vO67nnntPDDz8sSRowYIC6desmm82mqlWr8sEAioE+ffrIbDYrIyNDOTk5qlu3rpEnd+rq1atq2bKl07D7779fsbGxbGgA5BoAkGsAQK4BINPINBQTFGyLmdyiZVZWlhwOh0JDQ9W/f3/j+Ro1aji1Jjl06JBsNpseeeQRp/lkZmbKZrNJkkJDQxUeHq7//ve/qlChgr788ku1aNFC3t7e+a7D8ePH1aVLF6dhDRs21CeffFLg19G1a1e99tprOnDggB588EGFhISoYcOGt5ymSZMmGj58uK5fv65ly5bJYrEYRWWbzaasrCynebi4uOi+++7TsWPH7mgb+/n5GcVa6WZ3DBcvXjSWY7fbVb9+feP50qVLKzAw8JbzDAgIUKVKlZScnKzq1avrwIEDaty4scqVKycfHx/98MMPysnJUWZm5m2L3rVq1XJaN0m6cOECBVugmHjrrbdUtWpVHTlyRLGxsYqJiZGLy919HXt5eeXplt3NzY2NDIBcAwByDQDINQBkGpmGYoSCbTGTW7TMvZ/rr4PIw8PD6XF6errq1Kmj8ePH55lX2bJlJUn33Xef/P399a9//Utdu3bV5s2bFRMTc9fraDbf7Gk7JyfHGPbrLntbtGihtWvXasuWLfr222/1yiuv6JlnntGgQYN+c74eHh4KCAiQJI0aNUo9evTQ//7v/xpXBt+OyWRyWqf81ktSnm1qMpnkcDh+93vXuHFjJSUlqVatWqpSpYrKlSvnNDwnJ0cBAQHy8fG59Yf2F+uXe9V0YawfgD9HpUqVVKVKFVWpUkXZ2dkaNmyYli9frhIlShgHiqmpqXmmu3r1qiwWi1POm0wmIxcBgFwDAHINAMg1AGQamYbiiXvYFjO5RUsfH58CtRqpU6eOTp06pbJlyyogIMDpr2TJksZ4oaGhSkhI0H/+8x+ZTCajy938VK1aVd9//73TsO+//17VqlWTJONetOfOnTOez+8er2XLllWHDh00btw4DRkyRKtWrSr4jms2Kzw8XHPmzFFGRob8/f3l6urqtF5ZWVn68ccfVb16dWN56enpun79+i3X61b8/f3l4uLidBPzy5cv6+TJk7edNjg4WHv27NG3336rJk2aGMPvv/9+JScnKzk5ucBdSgP4a2jdurUsFos+++wzY1hgYKCOHj2qzMxMp3F/+ukn+fn53XWLQQAg1wCAXAMAcg0AmUam4d5EwfYvrl27dipTpoyGDh2qXbt2KSUlRUlJSZo8ebLOnj3rNN5PP/2kDz74QK1btzZao+TnhRdeUHx8vFasWKGTJ09qyZIl2rRpk5577jlJkru7uxo0aKBFixbp2LFjSk5O1pw5c5zmMXfuXG3evFmnTp3SkSNHlJiYeMdd+rZp08YIYw8PD3Xt2lXTp0/X1q1bdfToUY0fP14ZGRnGPWHr168vd3d3zZo1SzabTQkJCVq7du0dLdPT01MdO3bU9OnTtXPnTh0+fFijR482riq+ldz72K5Zs0aNGzc2hjdp0kR79+7Vvn37nAq5AP76TCaTnn32WS1atEgZGRlGHptMJsXExGj//v06deqUVq9erY8//li9evVymj4nJ0fnzp3L88dV9wDINQAg1wCAXANAppFpKD5oSvAX5+7urvnz52vGjBkaNmyY0tPTVaFCBTVt2tTpPq0BAQG67777tG/fPg0dOvSW8wwJCVF0dLTi4uL07rvvys/PT6NGjXK6OnTUqFEaN26cnnvuOQUGBioqKkoDBw78/x3PxUWzZs3S6dOn5e7urkaNGmnixIl3tvO6uKhbt25avHixunbtqoEDB8rhcGjUqFFKT09X3bp1NWPGDJUqVUrSzXvNjhs3TtOnT9eqVavUtGlT9e/fXxMmTLij5f7jH/9Qenq6Bg8eLC8vL/Xq1UtXr1697XSVK1eWr6+vUlNTnQq2Pj4+qlChgk6fPs0VtsDfUIcOHTR79mwtX75cL774ory9vfX+++9r5syZGjJkiK5evaqAgAANHjzYaICS69q1awoNDc0zz4SEBOMe1wBArgEAuQYA5BoAMo1Mw73NlPPrm3r+Dv7+/kpJSVHlypVls9nYugCKPYvFIofDQa4BINcAgFwDAHINAMg1APhD6qF0iQwAAAAAAAAAAAAARYSCLQAAAAAAAAAAAAAUEQq2AAAAAAAAAAAAAFBEKNgCAAAAAAAAAAAAQBGhYAsAAAAAAAAAAAAARYSCLQAAAAAAAAAAAAAUEQq2AAAAAAAAAAAAAFBEKNgCAAAAAAAAAAAAQBGhYAsAAAAAAAAAAAAARYSCLQAAAAAAAAAAAAAUEQq2AAAAAAAAAAAAAFBETDk5OTmFNbMSJUrIbrdLksxmasEAij+Hw2H8T64BINcAgFwDAHINAMg1AOSaJLm6uiozM7NQ5lmoBVuLxeIUvgAAAAAAAAAAAADwV2M2m5WdnV0o83IpzBXLLdiazWb5+vryTgEo9lJSUozgJdcAkGsAQK4BALkGAOQagL+31NRUORwOWSyWQptnoRZsK1asqJSUFPn6+spms/GOASj2chuikGsAyDUAINcAgFwDAHINAPz9/ZWSkqKKFSsW2jzpMB4AAAAAAAAAAAAAiggFWwAAAAAAAAAAAAAoIhRsAQAAAAAAAAAAAKCIULAFAAAAAAAAAAAAgCJCwRYAAAAAAAAAAAAAiggFWwAAAAAAAAAAAAAoIhRsAQAAAAAAAAAAAKCIULD9iwgODtbmzZsLPP7o0aM1dOjQ37XM06dPKzg4WAcOHCiW2+xeXP/CeF+Av7v4+HiFhISwIQD8LfXv319TpkxhQwAotPPLe/W8j2M+APdCRpJfeYWFhWnZsmVFtn3/rHkCv2XevHnq2bNnsc2oeykP/qx5/l5JSUkKDg7WlStX/rLbne+4P4cLm+Dedu7cOX300UdKTEzUzz//rJIlS8rf319PPvmkOnToIHd393t6/VNSUjR79mwlJyfr8uXLKlOmjOrUqaOoqChVrVr1nt/+hbH+o0eP1pUrV5x+PD19+rSeeuopLV26VEFBQcbw6Oho5eTksOOj0I0ePVpr1641HpcuXVr16tVTVFSUatWqdU+f6KWmpv7m8x06dNDo0aOdhrVt21YtWrT4y/9AkMtischqtap169YaOHCgSpQoYTx35swZzZs3T9u2bVNaWpqsVqtCQkLUr18/lSlTxhivf//++u677zRhwgQ98cQTxvBly5bp448/Vnx8vHHS8fXXX+c56Msv01atWqVPP/1UNptNFotFfn5+atu2rcLDw2/7+jIyMrRgwQKtX79e//3vf+Xp6anq1aurZ8+eql27tp566qlbTh8TE6OwsDBlZGToySeflMlk0pdffum0bX69f7m5ucnf3189evRQp06d8nxmfs3X19fYLij+Ll68qLlz5yoxMVEXLlxQqVKlVKtWLfXr10+NGjUyPnfvvvvuHZ94hIWFqUePHoVywm6327Vs2TIlJCTo5MmTcnd3V2BgoDp16qQnn3xSLi4c2ufmmSS5uroax25hYWF67LHHfjNLf+nXWShJTz/9tE6fPq34+HhZrdY8ywwKCvrNRne/3neCg4NVokQJrVy5Ur6+vsZ4Q4cOlbe3t9P3WnE/F0Dhnhd+8MEH2rJli37++WeVK1dOtWvXVo8ePdS0adM/dNmVKlVSQkKCceyQlJSkiIgIbdq0Sd7e3rf8sWbKlCn5/mB4t5laGMeWhZXJvyd//i5u3Liht956S/v379fx48f18MMP59uoKCkpSe+9956OHj2qSpUqqW/fvgoLC3Ma59NPP1VcXJzOnz+vWrVqadiwYapfvz7h8Dc+Nisu598uLi7y8fFR+/btFR4ezvEaUAzs2bNH/fr100MPPaTp06ff8fTPP/+8unfv/oev52/9RpOQkKBSpUrxRv6NLV68WB4eHkVybP13+F32j8RRwj3MZrOpb9++8vb21quvvqqaNWvK1dVVhw8f1qpVq1ShQgU9+uij9+z6Z2Vl6dVXX1VgYKAmT54sq9Wqs2fPauvWrfdMa5N7bf1LlizJjo8/TPPmzTVq1ChJ0vnz5zVnzhwNGjRIX3zxxT19gJGdnW0cML/22mtauXKlvLy8JCnPD9VZWVlyd3e/J37AzsnJUXZ29h92Qh4TE6OHHnpIWVlZOnTokMaMGSMPDw+9/PLLxndInz59VKVKFU2YMEGVK1fWkSNHNH36dG3dulUffvihSpcubczPzc1Nc+bMUevWrX/3Oq9evVpTpkxRdHS0mjRposzMTB06dEhHjhwp0PQTJ07U3r17NWzYMFWvXl2XLl3S999/r0uXLhk/GudasmSJtm7dqtmzZ+fJ0o0bN6p69erKycnR5s2b9fjjj+dZVkREhDp16qSMjAz9+9//1vjx41WhQgVFR0dr4MCBxnihoaHGNpduFsrx1/Haa6/JbrdrzJgxqly5ss6fP6+dO3fq0qVL98w62u12DRw4UIcOHVJERIQaNmwoLy8v7d27V3FxcQoKCnJqBPZ31rlzZw0YMEDZ2dn6+eeftWnTJr3xxhsKCwvTm2++mW+W/tKvC1C7d+/WjRs31Lp1a61du1a9e/f+3etoMpk0d+5cjRkz5i97LoDCc/r0aWNfiIqKUs2aNZWVlaVt27bp7bff1sqVK3/zfKYwjkNyG4ehcPOnsM9d78UikMPhkJubm5599llt3Lgx33FSUlI0aNAgPf300xo/frx27Nih8ePHy2q1Gvn81Vdf6b333tPw4cNVv359ffzxx4qMjNTKlStVrlw5djyOze7p82+73a4tW7bo7bfflouLS4EasBYH2dnZMplMMpvpvBF/PatXr1b37t21evVq/fe//1WFChXuaHpPT095enoW2fpz3PbHnpe7urre8+tZtmzZIlv2vfK7bHFFwfYelnswFxcX59Qiwt/fXyEhIbe8EvPw4cN699139cMPP8jd3V2PPfaYBg8enOfLYv78+fr0009lt9v1xBNPaNiwYUbobN26VQsXLtSRI0dksVjUoEEDRUdHy9/fv0Drf+TIEdlsNs2ZM8e4esDX1zdPa8jbrWt+Vy38+gqEsLAwde7cWadOndKGDRvk7e2tvn37qkuXLsY0e/fu1cSJE3X8+HHVqFFDffr0KZT1P3PmjKZNm6bt27fLbDarUaNGio6Olp+fn+bNm2e0qsy9imPu3LmKiIiQJPXq1UuS1LhxY82fPz/P1bj9+/dXrVq1VKJECa1evVqurq7q0qWLBgwYYCz/+PHjGjdunPbv36/KlSsrOjpar776apG0WMe9zdXV1Thos1qt6t27t/r166eLFy8aX+S3+zzm7qONGjXSkiVLlJWVpccff1xDhw41fiTK74qJkJAQDR06VGFhYbLb7Zo6dao2btyoK1euqFy5cnr66afzPXH95QFGbuvAcuXKydvbW6dPn1ZoaKgmTpyoFStWaO/evRo+fLgk5bmaY8GCBVq+fLlu3Lihtm3bqkyZMtq2bZvRCjErK0vvvfeevvjiC1ksFnXs2FHnz5/X1atXjc+jw+HQokWLtGrVKp0/f15VqlRR37591aZNG0n/f7XJ9OnTNWfOHB0+fFgzZ878zSu4fusHq/LlyxfowMbb29t4P318fPToo4/qp59+Mp5/55135OrqqpkzZxrz8/HxUVBQkDp16qTZs2cb20uSHn/8cX3zzTdatWqVnnnmmd+1r33zzTdq27atOnXqZAyrUaPGHU0fHR2thx9+WJLk5+enunXr5nvy4eHhIRcXl3xPSFavXq127dopJydHq1evzrdg6+npaUzbu3dvxcXF6dtvv1WLFi3yNKL55TbHX8eVK1e0a9cuzZs3T02aNDG+73951U7uVT7R0dHG8/Hx8bLZbJo6dar27t2r69evq1q1anr11Vf14IMPGt/jqampmjp1qqZOnWpkhXSzCDhz5kzt379fZcqUUUhIiAYOHPibrWCXLVumXbt2afHixapTp47TcWGbNm1kt9uNYQ6HQ9OnT//NY4clS5YoPj5eKSkpKl26tFq2bKmoqCgj63Ovinvrrbc0ZcoUnT17Vo0aNVJMTIzxGSiM3LwTGRkZOn/+vCpXrlygE8Tc9axUqZIaNGigqlWrauzYsWrTpo3x/hT0c7169WqFhoaqcePGevfddwulYNutWzctXbpUzz//vGrWrFno5wL4a5k0aZJMJpMWLVrktC/UqFFDHTt2NB4HBwfr9ddf15YtW7Rz5049//zzGjBggDZv3qz3339fx44dU4UKFdS+fXv16dPHOHY7efKkxo0bp3379qly5cp5rhb/ZU8a3t7exrlMq1atJOXf48mdyD2GmjZtmmbOnKmTJ0+qdu3aGjFihNPnIz4+XnPnzlVaWpoeeuihPOdlf2Ym/978udU55C+zZ+nSpTp16pRKlSqlxx57TP/85z9/13t9u/xPTU3VO++8o927d8tut8vPz09RUVHGMdnhw4cVGxurXbt2ycPDQw8++KCGDh3q1HPLL3l4eBjHm99//32+DZ9XrlwpPz8/DR48WJJUrVo17d69W8uWLTMKtkuXLlWnTp2MXlaGDx+uxMRErVmzplAyGcXv2Cz3c/TOO+9o586dMpvNeuihhzRs2DCVL1/e6dz1l1d1T5kyRQcOHND8+fML/JvL7TKyIOffXbt21aZNm/TNN9/ke957u/x6//33tX79en366adO0/Xs2VMtW7Y0Gu3ezq1ypaDHh2PGjDGyetWqVXJ3d9e4ceO0Y8cOlS9fvsDrcifb93aZuW/fPs2aNUsHDhxQVlaWgoKCNGTIEKdj5lv5z3/+o5EjR2rDhg2yWCw6cOCAevXqpRdffFGRkZGSpHHjxikzM1Pjxo1TWlqa3nnnHe3atUuXL1+Wv7+/wsPDFRoaKkn6/PPPNX/+fK1bt86poD1kyBCVLl1aMTExfNDvYenp6Vq/fr0WL16sc+fOKT4+3uk35NzjltmzZ2vGjBk6evSogoKCNGrUKKM3xl9f+ZqbR/fdd58++eQTZWZmqlevXgoPD9esWbO0evVqubu7KyIiwqlHsdjYWG3evFlnz56V1WpVaGioXnrpJbm4uCg+Pl7vv/++02/Oub2N/fp3ucL4ra8gLly4cNs8uHLliqZNm6avv/5adrtddevW1ZAhQ1S7du0C5eHdfKfExsbq66+/1tWrV+Xv76/IyEi1bNnytp/l3O+JGjVqyMXFRevWrVPNmjU1b948JSYmaurUqTp79qzq16+vDh06OC33dsdUvyU7O1sTJkxQUlKSzp8/r0qVKumZZ55Rjx49jHEK8n79+srX4OBgDR8+XP/5z3+0c+dO+fr6atSoUSpbtqzGjRunH3/8UbVr19bYsWON2s/dHlvn18vOihUrFBcXp7Nnz8rPz099+/ZV+/btnc5jRowYocTERG3btk0VK1bUoEGD/pYNlGkGdY9KS0vT9u3b9cwzz/zmSaLJZMp3+PXr1zVw4EB5e3tr0aJFmjRpknbs2KF33nnHabydO3fq2LFjmjdvniZMmKBNmzYZB6258+nVq5fi4uI0e/ZsmUwmRUdHy+FwFOg1lC1bVmazWRs2bDCukLvbdS2IpUuXql69elq6dKmeeeYZTZo0ScePHze+bAcPHqzq1asrLi5O/fv317Rp0373+mdlZSkyMlKenp5asGCBFi5cKE9PT0VGRsput+v5559X27Zt1bx5cyUkJCghIUENGzbUokWLJEmzZ89WQkKCJk+e/JvrsXbtWnl4eOijjz5SZGSkFixYoO3btxshPnToULm7u+ujjz7Sm2++6XSVGXCrA9B169YpICDAuMqyoJ/HpKQk2Ww2zZs3T6NHj1Z8fPwddQ37ySef6JtvvtGkSZO0cuVKjR8/3qlLyDs1c+ZMPfvss/rss8/yXCUlSV9++aU+/PBDRUZGKi4uTj4+PlqxYoXTOIsWLVJCQoJiYmK0cOFCXbt2LU/3fR9++KG++OILDR8+XMuXL1fPnj01atQoJScn51mfgQMHasWKFXfc3fS0adM0aNAgZWRk3NF0J06cUFJSkvEjxqVLl7Rt2zZ17do1T/HXarWqXbt2Wr9+vdOP/SVLllSfPn20YMECXb9+/XftX+XLl9cPP/xwy+6sbzf9li1bdO3atbteB5vNph9++EFt27ZV27ZttXv37luuj8Ph0IYNG3T58uVi0VoShcfDw0Oenp7avHmzMjMz8x1n8eLFxglwQkKC8Tg9PV0tWvxfe/cel+P9/wH81TmistJBp7uEnIaQMhlZJmTIodGWjcrxO7GMhRLfcl60HMKahVWzTc0htPke+jqkKIcpbTpbKNGUDqrfH3739ejuru67g2W8no9Hf9R9urqu+/O+3p/zW9i1axcOHz4MOzs7LFu2DAUFBQCALVu2QF9fH/PnzxfyAPH3c8mSJXBwcMC3336LwMBApKSkNJn/xMXFwcbGpsGGJ2VlZYl8sancAQAUFRXh4+OD6Oho+Pv74/Lly9i5c6fEe5aXlyMiIgIBAQHYt2+f0FD2IuKmPI4dOwYPDw/k5eW16DpPnDgRmpqaOHfuXLNeV1paivj4eDg5OWHYsGEoLS3F1atXW/29GzBgAEaMGIEvv/yyzesC9GoR39Mb+y7UnxEeFhaG0aNHIzIyEu+99x6uXr0KPz8/vP/++4iOjsaqVatw/PhxfPXVV8L9Tzxo9+uvv8aqVasQEhLS6PHo6+sLser7779HXFycMJiltXbs2IGlS5fim2++QZcuXbBs2TI8e/YMwPPBt+vXr8eMGTNw5MgRDBkyBAcOHJDKb19UTN67d6/UEr0tjT+y6pDiRq3NmzdjypQpiIyMxPbt22FiYtKqay1P/N+0aRMqKyuxb98+REZGCscpbvBcsGABevXqhYiICOzcuRMPHz7EypUrW3Xdr1+/LtUIa2dnh2vXrgF4PpMlLS1N4jmKioqwsbERnkOvX25WU1ODZcuWoaSkBGFhYQgNDUV+fr7EgFR5NZU3NTdGNkVNTU1igF1z4tekSZOQlZWFmzdvCq9JS0tDRkYGnJ2dhb0T79692+jny4or8uaHBw8exOrVqxEVFYU33ngD/v7+uHfvHvbs2YNNmzbhu+++w8OHD+U6J/KcX3liZllZGSZOnIgDBw7g66+/homJCT755BO565ODBg1CWVmZsFf7lStXoK2tLZGzXrlyRRhAUFlZid69eyM4OBhRUVGYMmUK/Pz8cOPGDQDAO++8g8ePHwuDgurez52cnFjIX3Jnz56FSCSCSCTC+PHjERsb2+BAyV27dmHp0qWIiIiAkpISAgICmnzfpKQkPHjwAGFhYfD29sbevXvh7e2Nzp074+uvv8bUqVMRGBiIe/fuCa/p2LEj/Pz88N1332H58uU4duwYDh8+DOD5srNubm6wsLAQ8hpHR8cWt73LauuTJxeSJx589tlnePjwIXbu3ImIiAhYWVlhwYIFwgoKsuJhc9TU1OAf//gHUlNTERAQgOjoaCxZskQYSCGrLIudOHECysrKOHDgAFatWoWCggKsWLEC9vb2wqCy+vW6pnKqptTW1kJfXx8bN25EdHQ0PDw8EBoairNnz7a6bfbAgQOYMGECjhw5ApFIhNWrVyMwMBAfffQRIiIiUFtbK/G9aGluXd+5c+ewdetWuLm5ISoqClOnTkVAQIBEjASeD0565513EBmUzQwYAAAgAElEQVQZibfeegtr1qz5W62s0VbYYfuSysvLQ21tLczMzCT+PmbMGNjb28Pe3l4qcarboFdZWYmAgABYWlpi6NCh8PHxwcmTJ1FUVCQ8T0VFBX5+fujevTtGjBgBLy8vREVFCR2yY8aMgYODA0xMTNCrVy/4+fnht99+w507d+T6H/T09PDpp59iz549cHBwwPz587F//36JhjZ5j1Uew4cPx/Tp02FiYgJ3d3doa2sLBT8uLg41NTVYs2YNunfvDnt7e3zwwQetPv4zZ84I72tpaQlzc3P4+fmhoKAAycnJ6NixI9TU1ISRlbq6ulBRURFmDWppaUFXV1diWdL6evToAU9PT5iammLixIno3bs3Ll++DAC4dOkS8vLysG7dOvTs2RMDBw7EwoULWYCoQQkJCUL8GDlyJP7zn/8gKChISFTkLY+amppYsWIFRCIR7O3tMWLECCQmJsp9HAUFBTA1NcXAgQOFWet1R6811/vvvw8HBwcYGRk1OEsqKioKkyZNwqRJk2BmZgYPDw+p2UzR0dGYM2cORo8eDZFIhBUrVkg0gFZWViI8PBxr166FnZ0djI2N4ezsDCcnJ/zwww8S7+Xl5QVbW1sYGxs3WbYb4ufnh7KyMixbtkxmp62vry/s7e0xfPhwuLi4wMLCQhitnZubi9raWpibmzf4WpFIhJKSEhQXF0v8ffr06VBVVRUqAC3l6emJzp07w9nZGVOnToW/vz/Onj0r94AfX19fXLt2DWPGjMGHH36Ibdu2ISUlpVnHEBMTg+HDh0NTUxNaWlqwtbVFbGys1PNCQkJgb28POzs7fPbZZ9DU1JSYGUyvPmVlZfj5+eHEiRMYPXo0Pv74Y4SGhiIjI0N4jvi+LZ6NKf69Z8+ecHFxgaWlJUxNTbFgwQIYGRnh3//+t3CfV1RUFGZyi2NUeHg4xo0bh1mzZsHU1BQDBgyAj48PTpw4gYqKigaPMycnRxixLUtTuQPwfDbGkCFD0K1bNwwdOhQLFiyQqgA+e/YMn3/+Ofr06QMrKyvMmDFD4j3aMm7KY+bMmXjrrbfg5eXVok5bRUVFmJqaSjVkimNp3Z+6jQFnzpyBiYkJunfvDiUlJYwdOxYxMTFt8t1bvHgxLly40GAHcGvqAvRqEd/T5S3/7777LiZNmgRjY2MYGBhg3759mDNnDiZOnAhjY2PY2tpi/vz5QjlMTExEVlaWUJ+wtrbGokWLGn1/JSUliVVPdHV122xbFw8PD9ja2sLS0hL+/v4oKioSOjm//fZb2NnZwd3dHWZmZnB1dYWtra3E619kTNbW1pZ7pSlZ8UdWHVLcoDZ79my8//77MDMzQ9++faX23W3utZYn/hcUFGDAgAGwtLSEsbEx7O3tYW1tLeTUvXr1wqJFiyASiWBlZYW1a9ciKSkJ2dnZLb7uRUVFUssav/HGGygtLUV5eTkePXqE6urqBp/T3DYDenVys8TERPz+++/YsGEDevfujX79+mHdunW4cuWKRKdma/Om5sbIxhrfL126hIsXL2Lo0KENPkdW/NLX14etra1EY/xPP/0Ea2trGBsbQ11dHWZmZk3OhJMVV+TND1euXIkBAwZAJBIJ24b5+vqif//+6N27N9auXdtoPlufPOdXnpg5dOhQjB8/HiKRCObm5vD19UV5ebmwr7gsnTp1Qs+ePYX3S05OxqxZs5Ceno6ysjLcv38fubm5QjzU09PDBx98gF69esHY2Biurq6ws7NDfHy80GYinrgh9vPPP0NbW7tZK3BR+xCv1AU8H0D05MmTBgecLly4EIMHD4aFhQXc3d1x7dq1Jr/7mpqa8PHxgUgkwnvvvQczMzOUl5cLW1l99NFHUFFRkWj7mDdvHgYMGIBu3bph5MiRcHNzE75n6urqEiuO6erqNrhaW1u19cnKhbKzs2XGg5SUFNy8eRObNm1Cnz59YGpqiqVLl6Jz5874+eef5YqHzZGYmIibN29iy5YtQjudvb29sL+qrLIsJh4EIu7I//7772FsbAxvb2+IRCI4OTlJzbBtKqeSdQ/08vJCnz59YGRkBCcnJzg7O0vF45a0zTo7O8PR0RFmZmZwd3cXVi60s7ODubk5XF1dJb7rLc2t64uIiICzszOmT58OMzMzuLm5YfTo0YiIiJB43sSJEzFu3DiYmJhg0aJFKCsra/Y9/ZXIgxiG/14OHjyI2tparF69utGReZmZmejRo4fECOyBAweipqYG2dnZwvIwPXr0kAjkb775JsrKynDv3j0YGhoiJycHe/bswc2bN/Ho0SOhob2goKDRpdvqmzFjBiZMmIDk5GRcv34d8fHxCA8Px7Zt22Brayv3scqbZIspKChAR0dH6IwQf46amprE/9va48/IyEBeXh5Gjhwp8brKysoWzwBp6v8Cns+OE49Oys7OhoGBgURA7Nu3LwsKNWjw4MHCiOOSkhIcPXoU//jHP3Dw4EEYGhrKXR4tLCwk9u/U1dXFb7/9JvdxODs7Y9GiRXBxcYGdnR3s7e2lGtyao+5SuY0ljdOmTZP4W9++fYUBHU+ePEFRUZFE2VFSUkLv3r2FuJebm4vy8nKpymNVVZXUnpF9+vRp8nj8/f2FpdKbcujQIcybN6/Rx729vTFs2DBUV1cLy5SsWbMGQUFBEo0DzaGqqgovLy9s2bJF6pw1h66uLsLDw/Hbb7/h6tWruHbtGvz9/XHs2DGEhITI3OfI2toaMTExuH79OlJTU3H58mVERkbCy8uryXMiVl1djRMnTkgsp+Xk5IQdO3bAw8ND4vM/+OADODs7o7CwEDt27MC0adOkZrDQq2/MmDEYMWIErl69ihs3buD8+fP45ptvsHr16iZHEZeVlSEsLAwJCQkoLCxEdXU1KioqZI7+zcjIQEZGhkQjTm1tLWpqanD37t1GB1u0Re4APB/w9fXXXyMrKwulpaXCcZeXlwu5obq6ukSFvO57tHXcrNvw2NSermL//Oc/sXv37mafl9raWqlZqeJYWv98icXGxmL8+PESscTT0xM+Pj7CfuotZWFhgfHjxyMkJERiBlxr6wL0equfh9y+fRupqakS37GamhqhzGdmZsLAwEBibzZ56kkvQt3P1dLSgpmZGTIzM4X6nHgJ5rrPv3Dhwl8Sk2fOnImZM2e2+H+rG39k1SEfPnyIBw8ewMbGpk2vtbq6usz47+rqiqCgIFy8eBHDhg2Dg4ODcE/JyMhAUlIS7O3tpY4lLy9PaoAJ0YvMzbKysqCvrw8DAwOJ+2rnzp2RmZnZrHaRpvKm1sRI8YDpZ8+eoaamBuPGjYOnp2eLc8opU6YgICAA3t7eUFRURFxcHJYtWwYA6NevX6P7mQOQK67Ikx+qqKhInK/MzEwhBxQTiURSqz80Rp7zK0+7W1FREXbv3o3k5GQ8fPgQNTU1KC8vb9aMPGtrayQnJ8PNzQ1Xr17F4sWLER8fj5SUFJSUlKBr164wNTUV6pvh4eE4e/YsHjx4gKqqKlRWVkq0sTo5OWHDhg1YuXIlVFVVERcXh7Fjx3LP35eceCb71q1bATzvPHN0dERMTIxUZ3vdsiCuPxQXF0vEpfq5f93rr6OjI7F1lJKSErS0tCQG1p85cwaRkZHIz89HWVkZqqurm10Haau2Plm5kDzx4Pbt23j69CnGjBkj8dqKigqhPLc0n2tIeno69PT0Gs1R5CnLDbU7NnSf6d+/v8TvTeVUskRHRyM2NhYFBQWoqKhAVVWVsGR03e9Tc9tm636+eCBc3T4eHR0dVFRU4MmTJ+jUqVObXYusrCyJbSuB5ytORUZGNnp8HTp0gIaGhtwrNrxK2GH7kjI2NoaCgoLUSFVxw1ndjscXxdvbG4aGhvD19UXXrl1RU1ODmTNnCstSyUtDQwMjR47EyJEjsXDhQixevBhfffWV3B00ioqKUp0ODR1D/ZGECgoKcs/maunxl5WVwcrKChs2bJB6XVtt7t3Q/8U9y6glOnToINERZWVlhVGjRuHHH39s1sxsWWWtoe9o3TJrZWWFmJgYnD9/HomJiVi5ciVsbGxatBS6+P960cRLBAcHB0NPT0/isfrL58o6nsWLFze619azZ88QEBCAp0+fYsqUKU2+j66urnA9RSIRSktL4evri4ULFwr3kIYaN8XJkqamZoNxavz48Th06BAOHDggtVS1hoYGnjx5IvUa8X5k9WfYWFpawtLSEtOnT4eLiwvmzZuHK1euyDWqWFlZGYMGDcKgQYMwZ84c7N+/H/v374e7u7vMJYsvXLiA+/fv4/PPP5dKxhMTEyXuP9ra2jAxMYGJiQk2btwIV1dX9OnTBxYWFgwarxk1NTXY2trC1tYW8+bNw/r162Uu+xQcHIxLly5h6dKlMDExgZqaGj777DOZuVJZWRmmTp0KV1dXqccaq+CbmpoKWz20Jne4e/cuvL294eLigoULF0JTUxMpKSlYv349qqqqhMppa/OP5sRNsdGjR0tVdOs6fPgwTp8+Leyf2RzV1dXIzc2V6uCoG0vru3PnDq5fv46bN29KLM9XXV2NM2fOyIzT8vDy8oKLi4vUctIvQ12AXg4mJiZQUFCQu/zXz0OePn0KT09PODg4SD1XVVX1hR67hoYGnj59ipqaGokGysbyhtb6K2Nya+KPrDqkvMudN/dayxP/J0+eDFtbWyQkJODSpUsIDw/H0qVL4erqiqdPnwp7WjaUl7aUjo6OVGPcw4cPoaGhAXV1dSgpKUFJSanB5zRngDe9HrmZrNxF3raktmhzEQ+YFq+41tTsV3nil729PVRVVXHu3DmoqKjg2bNnUp0eTZ3LpsibH6qpqf3lWzLI0+7m7++Px48fY/ny5TA0NISqqio++uijZg1uGzx4MGJjY3H79m0oKytDJBJh8ODBSE5ORklJicTMuIiICHz77bdYvnw5LC0t0aFDB2zbtk3i8+zt7VFbW4uEhAT06dMHV69eFTrY6eUVExOD6upqiaWra2troaKigs8++0wid6lbpsXloql26IZiQFPta9euXcOaNWvg6ekJOzs7dOrUCWfOnMGhQ4deyP/+otrV65dnXV1d7N27V+oxccduS/O5lsQ+ecpyS9sdm8qpmnL69Glhm5D+/ftDQ0MD33zzjdRM05Zcr4a+sw19L8X3wLa8Fq1tx3idcFjPS0pbWxvDhg1DdHR0s/cSNDc3R0ZGhsTrUlJSoKioKDGiJCMjQ2LJzevXr6Njx47Q19fHo0ePkJ2djblz58LGxgbm5uZCxbo1FBQUIBKJhGOT51i7dOmCwsJCiQrv77//3qJzUncZhuvXr7f6+K2srJCbm4suXboIDf7iH/FNXEVFRSpgihsqW3vjMzMzQ0FBgcQSFr/++isLEMn9fVZUVBTKhbyxQ5b6ZTYnJ0dqed9OnTph7NixWL16NYKCgvDLL7+8sH0JzMzMpMpF3d87deoEHR0dib9VV1cjLS1NIoaoqqqioKBAqqw3tyFPV1dXWEal/k9ERARKS0uxe/fuZjdAiUfWVVRUCPeQo0ePSp37wsJCnDp1Co6Ojg1WthUVFYU9eOvv+Spe9qr+8nNpaWlQU1Nr8lyIZwy2dH9cCwsLYTSfPJWssWPH4vDhwxI/spYyNTAwgKOjY6N7StLrxdzcXOL7qqysLLWnfWpqKpydnTF69GhYWlpCR0dHasndhvIAKysrZGZmSsUTExOTRjsz3333XSQmJkrEprqNj/KWrVu3bqGmpgbe3t7o378/zMzM8ODBg2admxcVNzt16tRofLx27RpOnz6NnTt3YsCAAc2+nsePH0dJSYncDZviWGJtbY0jR45IxJLZs2e32bLIBgYGmDFjBkJDQyW+J62pC9CrRUtLC3Z2dvjuu+8a/C7IqqP16tUL2dnZDcYbRUVFmJubo6CgQCJ3k1VPEsep+jGxoRysuroat2/flsobAAgzlRr63JKSEuTk5Aj5g7m5udR+YvWP86+Mya2JP7LqkBoaGujWrVuzthyR51rLG/8NDAwwbdo0bNmyBW5ubjh27Jjw/nfu3IGhoaHU+7dmAGX//v2l/tdLly4Js+xUVFRgZWUl8Zyamhpcvny53WaDU/vnZuJ6Sd1ZPnfu3MGff/4pDLysXy8FIOxR2pzPbG6MFBMPmDYwMGiys1be+KWsrIwJEyYI+xSOHTu2weVPGyIrrrQ0PxSJRKiursatW7eEv2VlZcndfijP+ZWn3S01NRUzZ87EiBEj0L17d6ioqODRo0fNutbifWyPHDkidM6KO2yTk5OF/WvFn/f2229j/Pjx6NmzJ4yMjJCTkyPxfmpqanBwcMCpU6dw+vRpmJmZwcrKigX5Jfbs2TOcPHkSS5culcj9jxw5gq5duza6P+eLcu3aNRgYGGDu3LnC8sH122hUVFRk5mNt1dbXFvHAysoKRUVFUFJSkirP2tracsdDefXo0QP3799vdOsGecpyY+e0fgdq/Ty1qZxK1v3gzTffxPTp02FlZQUTExPk5+e3S5loaW7d0HcjNTVV6r1bu7LYq4odti+xlStXorq6Gh988AHOnDmDzMxMZGVl4eTJk8jOzm50GQ0nJyeoqqoKe84mJSVhy5YtGD9+vEQHQFVVFdavX487d+4gISEBYWFhmDFjBhQVFYU9/3744Qfk5ubi8uXL2L59e7OOPz09HcuWLUN8fDzu3LmD3NxcHDt2DLGxsXj77bflPtYhQ4YgISEBCQkJyMrKwsaNG5vdeTxu3DgoKChgw4YNwv8ra0SSvMevra2N5cuX4+rVq8jPzxf+B/Em8YaGhsjIyEBWVhYePXqEZ8+eoUuXLlBTU8P58+dRVFTU4Iw1eQwbNgzGxsbw9/dHRkYGUlJSWrREIL0eqqqqUFhYiMLCQmRmZmLLli0oKysTljWTN3bIMmTIEERHRyMtLQ2//vorgoKCJCqohw4dQlxcHLKyspCdnY34+Hjo6OjIvWxSc82cORMxMTE4fvw4cnJysH//fon9j4Dny5+Hh4fjX//6F7KysrB161aUlJQIHZoaGhpwc3PD9u3bcfz4ceTl5SEtLQ2RkZFyLW8sr6lTp2Lv3r1yzVL4888/UVhYiAcPHiA5ORn79u2DqampsMfdihUrUFlZiSVLluDKlSsoKCjA+fPnsWjRIujp6TU5q3rEiBHo16+f1D6Ttra2MDMzg6+vL1JTU5GXl4f4+Hjs3r0brq6uQqdxUFAQ9u/fj5SUFPzxxx+4fv06/Pz80KVLlyZnz4l5enri+++/x61bt3D37l0kJCQgNDQUQ4YMkTkbp7i4GP/9738xceJEYYav+GfChAn497//3eTggPfffx///e9/OfjlNfLo0SPMnz8fJ0+eREZGBvLz8xEfH4+IiAjhfg8A3bp1w+XLl1FYWIiSkhIAzzsbfvnlF6Snp+P27dvw9fWVGgFqaGiIK1eu4P79+0LDkbu7O1JTU7Fp0yakp6cjJycH//rXv7Bp06ZGj3PWrFkYMGAAFi5ciOjoaNy+fRt5eXk4e/Ys5syZI1fFEng+W+/Zs2eIiopCXl4eTpw40aI9Zf/quDl8+HCEhIRg4MCBMp9bXl6OwsJC3Lt3D9evX8fOnTsRFBSEadOmSc3wF8fSuj9Pnz4VGmzGjh0rFUsmT56MGzduSAwgLC4uRnp6usSPvHsrzpkzBw8ePJBqRG1pXYBePStWrEB1dTXc3d3x888/IycnB5mZmYiMjBT2r2+Mh4cHTpw4gbCwMPz+++/IzMzE6dOnsWvXLgCAjY0NzMzM4Ofnh9u3b+Pq1avCY40xNDSEgoICEhISUFxcjLKysgaf1717d9ja2iIgIACJiYnIz8/H+fPnsXHjRjg6OkrNvt+3bx8SExPx22+/wd/fH9ra2hg1ahSA58vKXbhwAREREcjJyUFUVJTEcsgvOiZHRUVhwYIFbRJ/5KlDenp64vDhw4iMjEROTo4QP1tzreWJ/9u2bcOFCxeQn5+PtLQ0JCUlCY1pM2bMQElJCXx9fXHz5k3k5eXhwoULWLduXZONxXfu3EF6ejoeP36MJ0+eCDFSzMXFBfn5+dixYweysrLw3XffIT4+XmJvzdmzZ+PYsWM4fvw4MjMzERQUhKdPn8o905Jevdxs2LBh6N69O9asWYO0tDTcuHEDfn5+sLa2FmazDx06FLdu3RLqgXv37m324P+WxMiWkCd+Ac9nbCUlJeHChQt47733hL/fuHEDLi4uuH//fpN1rMbiSkvzQ5FIhOHDhyMwMBA3btzArVu3sGHDBrlXApHn/MoTM01MTHDy5ElkZmbixo0bWLNmjcxjWLBgAaKiooTfNTU1YWlpibi4OKFzdtCgQUhLS0NOTo7EDFsTExNcunQJqampyMzMRGBgYIN537hx4/C///0PsbGxGDduHAv3Sy4hIQElJSWYPHmyVP7v4OCA2NjYv/R4TExMUFBQgNOnTyMvLw+RkZFSq/J069YNd+/eRXp6Oh49eoTKysoW9xPIIisXkiceDBs2DP3798enn36Kixcv4u7du0hNTUVoaKjQBiNvPJTH4MGDMWjQIKxYsQIXL15Efn4+/ve//+H8+fPNKsv1ubi4IDc3V8hd4uLiJPYYl5VTybof/Prrr7hw4QKys7Oxe/fudtvHtaW5dX0ffvghfvrpJxw9ehQ5OTk4dOgQzp07Bzc3NwaeBnBJ5JeYsbExDh8+jK+++gqhoaG4d+8eVFVVYW5uDjc3N0yfPr3B16mrq+PLL7/E1q1b4e7uDnV1dTg4OMDb21vieUOHDoWpqSk8PDxQVVWFd999V9hPQ1FREYGBgdi6dStmzpwJMzMzfPrpp/Dy8pL7+PX19dGtWzfs27cPf/zxBxQUFGBoaAgvLy+h8iXPsb733nvIyMiAn58flJSUMGvWLLmW06yrY8eO+OKLLxAUFITZs2fD3NwcS5YswYoVK1p9/GFhYQgJCYGPjw/KysrQtWtX2NjYCHsKTJkyBcnJyfjwww9RVlaGPXv2YMiQIfDx8cG+ffuwd+9eDBw4EGFhYc3+jigpKWHbtm1Yv349PvzwQxgZGeGTTz6Bt7c3l8ojKefPnxcqCRoaGjAzM8PGjRuF8iRv7JDF29sb69atg4eHB7p27Yrly5dLjLATL+eRm5sLRUVF9O3bFzt27HhhDc9OTk7Iz89HcHAwKisr8c4778DZ2Vki4XF3d0dRUZEQZ6ZMmQI7OzuJY1qwYAG6dOmC8PBw5Ofno3PnzrCyspLZUNoczZk1Jt7nUbxn96BBg7Bo0SKhc9zU1BQRERHYu3cvVq1ahcePH0NHRwejRo2Ch4cHtLS0mnz/JUuW4OOPP5ZMGpSVERoaitDQUPj6+qK4uBhGRkZwdXWVSLRsbGwQGxuLo0eP4vHjx9DW1kb//v2xe/duYdRkU+zs7HDixAns2rUL5eXl0NXVhb29vVz71544cQIdOnRocH8mGxsbqKmp4dSpU40uQ2NhYQFbW1vs2bMHO3fuZOB4DXTs2BH9+vXDkSNHkJeXh2fPnkFfXx+TJ0+WKN9Lly7FF198gR9//BF6enr46aef4O3tjYCAAHz88cfQ1taGu7s7SktLJd5//vz5CAwMxOTJk1FZWYmkpCT06NEDYWFh2LVrFzw8PFBbWwtjY2M4Ojo2epyqqqoIDQ3FkSNH8MMPP2DHjh1QV1eHSCSCq6urxP5HTenZsye8vb1x8OBBfPnll7C2tsaiRYvg5+fXrPP2V8dNXV1duZfc/PHHH/Hjjz9CRUUFWlpa6N27N4KCghpcIr6hPXMXL14MExMTPH78uMHXmJubw9zcHDExMcLSdnFxcVKj7ufPny9X3NLS0oK7uztCQ0PbpC5Ar2698MCBAwgODkZhYSG6dOkCKysrrFy5UuY9NTg4GPv27cPBgweFZR4nT54s1Pu2bNmC9evXw93dHYaGhvDx8cGSJUsafU89PT14eXkhJCQE69atw4QJE+Dv79/gc4OCgrB3714EBgbiwYMH0NfXx6hRoxosG0uWLMHWrVuRm5uLnj174osvvhBmuPbv3x++vr4ICwvDnj17YGNjg7lz52L//v0SOeiLismPHj0S9lZrbfyRpw45ceJEVFRU4MiRIwgODoa2trbMFQJkXWt54n91dTU2bdqE+/fvQ0NDA3Z2dkKc69q1Kw4cOICQkBAsXrwYlZWVMDQ0lIr99X3yyScSM4Jmz54NAEhKSgIAGBkZITg4GNu3b0dkZCT09PSwevVq2NnZCa8ZO3YsiouLsWfPHhQVFaFnz54ICQnhksivcW6moKCA7du3Y/PmzfDw8ICioiLs7Ozg4+MjUSbmzZuHkJAQVFRUYNKkSZgwYYLMPf7qakmMbAl54pe4jvfmm2/i8ePH6Nevn/D38vJyZGdnN7lMZVNxpTX54dq1a7FhwwZ4enrijTfewIIFC4SO1LY4v/LEzDVr1iAwMBBubm7Q19fHwoULsWPHjiY/Oy8vT6pzYfDgwbh9+7bQRqKlpQULCwsUFRUJA6MBYO7cucjPz8eSJUugrq6OKVOmYNSoUVKTMYYOHQpNTU1kZ2ezw/ZvICYmBjY2Ng0OEndwcMA333wjNfj/RXr77bcxa9YsbN68GVVVVXjrrbcwd+5cifZjBwcH/PLLL5g/fz7+/PNP+Pn5SQ1maqu2PnlyIVnxQEFBATt27MCuXbuwbt06FBcXQ0dHB9bW1sKeqvLGQ3lt3rwZwcHB8PX1RXl5OYyNjYUYI29Zrs/AwACbN2/G9u3bERUVhb59+2LRokUICAiQK6dqytSpU5Geno5Vq1ZBQUEB7777LqZPny50Mv+VWppb1zdq1Ch8+umniIiIwNatW9GtWzesXbu22f07rwuF2jZcCNrY2Bj5+fkwMjKSqzJDRG0vJSUF8+bNw7Fjx4R9zqjllJSUUFNTw7j2ilm4cCF0dHSwfv36Bh+vqanBtGnT4OjoKNdsCiLGNXrdMW4S4xq1VHI+cQ0AAAPfSURBVFJSEubPn49z5869sBVXiBjX6FVQW1uLKVOmYNq0aZyZRIxrRETt7EX0h3KGLdHf3Llz59ChQweYmpoiNzcX27Ztw4ABA9hZS/T/ysvLcfToUdjZ2UFJSQmnT59GYmKixEymP/74AxcvXoS1tTWqqqoQFRWFu3fvchQsEVEjGDeJiIiI/jrFxcU4ffo0ioqKMGnSJJ4QIiKiVxA7bIn+5kpLSxESEoKCggJoa2vDxsYGS5cu5YkhquP8+fMIDw9HRUUFzMzMsHnzZgwbNkx4XEFBAT/99BOCg4MBPN9zbdeuXXLtL0HNJ943uSE7d+7EoEGDeJKIXnKMm0RERER/HUdHR2hra8PX1xeampp/i2M+deoUAgMDG3zM0NAQ0dHRvLBE9FrFmMDAQJw6darBx5ycnPD555/zwr7muCQyEVETuGQLUdvLzc1t9LGuXbtCXV2dJ4lxjYiIcY2IGNcY1+hvrLS0FA8fPmzwMWVlZRgaGvIkMa4RvVYx5uHDh43uyauhoSHs5Ut/D1wSmYiIiP72TExMeBKIiIiIiIheYRoaGtDQ0OCJICLGmP/3xhtvsFOWmqTIU0BERERERERERERERERE1D7YYUtERERERERERERERERE1E7YYUtERERERERERERERERE1E7YYUtERERERERERERERERE1E7YYUtERERERERERERERERE1E7YYUtERERERERERERERERE1E6UX8Sb/vHHHzA2NubZJaK/vZqaGsY1ImJcIyJiXCMiYlwjImJcIyIS4llbU6itra1tqzczNjZGfn4+rxQRERERERERERERERERvbKMjIyQl5fXJu/VpjNsDQwMeHWI6JVy//59VFdXQ0lJCXp6ejwhRMS4RkTEuEZExLhGRMS4RkTUpv2ibTrDloiIiIiIiIiIiIiIiIiI5KfIU0BERERERERERERERERE1D7YYUtERERERERERERERERE1E7YYUtERERERERERERERERE1E7YYUtERERERERERERERERE1E7YYUtERERERERERERERERE1E7YYUtERERERERERERERERE1E7YYUtERERERERERERERERE1E7YYUtERERERERERERERERE1E7YYUtERERERERERERERERE1E7YYUtERERERERERERERERE1E7YYUtERERERERERERERERE1E7YYUtERERERERERERERERE1E7YYUtERERERERERERERERE1E7YYUtERERERERERERERERE1E7YYUtERERERERERERERERE1E7YYUtERERERERERERERERE1E7+DxSmE9cTsJHFAAAAAElFTkSuQmCC;" vertex="1" parent="1">
          <mxGeometry x="90" y="670" width="520" height="83" as="geometry" />
        </mxCell>
        <mxCell id="VmXVUIM37Ywe6BHCHsZL-56" value="" style="shape=image;imageAspect=0;aspect=fixed;verticalLabelPosition=bottom;verticalAlign=top;image=data:image/png,iVBORw0KGgoAAAANSUhEUgAABMIAAAE0CAIAAABB5ghUAAAACXBIWXMAAAxOAAAMTgF/d4wjAAAgAElEQVR4nOzdd1gU1xYA8DOzswssvSOIgCI2FFRQscWCPWrsGgsWEmPX+GIvUaOx9xJLNPZGrNhbLChFY0d6R3qvW2bm/QEoyM7ssq6C5vy+970vuHNnzty95947O40YPcjMwszOzMRBJoWz95MAIYQQQgghhBDiRmmLmZycjIJ8AU2TAILqjgchhBBCCCGEUI1GkULa0srG3KSeTMY8joqu7ngQQgghhBBCCNVolEwmy88vEmsVy6TS6g4GIYQQQgghhFBNRwmFemEhMRFsgYwtBKhT3fEghBBCCCGEEKrRKJbWKsgrIFmplJAAWd3hIIQQQgghhBCq2ajsTKlIpEeCmGDJfLq6w0EIIYQQQgghVLORcolQKBSTAiFJaFd3MAghhBBCCH0JBPW9951e2FZY3XEgVD1IOS0QkFoEIWCAqu5gEEIIIYQQ+k/TqtexS32dj18GoU+KBNAmSG2GBQIPIxFCCCGEEKpOuu6DvXs6aRMfuwxCnxYlkwsoUsCSJLAsz3JdOnf8tndPkuB7CA/DMhd9r9y5e1/TQSKEEEIIIaSA0LrDjzPHdm9gSGeG3zr2yHC8+7NJSy5ng0mrMbO9OtY3E2uRRVF3DqzdfT8J6nvvnCY8d9esb383a7Ek0f/Q1rOS7j+O6ehoKsgNvb7n9z2PUhkgjZsNmzS+r4ulNp0dcv3A5sOBqcqeHkKaNh/x09i+LWvrsfnxT6/s/+N0UDrNGVuemYfXVG/PBmY6QjYv5u6fazbfTS2dhRMGrX9cNrODqa77lmPDpREnF29IG7p9puHhGSuupbKEcbv5W73Z3UvuNPm53DKLlvgm803iEfo0KJmUYEmWZlmaZXiW+2GcV20bawAAAgggWGChpMGW+1Na+MrKcgweRiKEEEIIoc9BYDdk/gy3iPU/LPJPFzn0mvnrTIO4ZwAAbG7i0wsbz/8blc1a9vh128TvA/03PAUQ2Pft/e+CheNX5Bl3nr1+3vomj/74deL2OMZuwMqNPwx5ELQj2KLf/AXdEzbNGBmQoevy05oF83NmzT77lm+WTNoOXji/W/y22d8/eMuYuY9bvHAZ+cuMY+Gs4tiopkNmdMzYPOl7/xwQWzpYSNPfHwSyuQF71pxsuKPVzRlzLmWxAEDsXXd3w6IZPV8uDWw45ceGQVun+MXn+VVcBqHqQEpkUCiRSKTFcrmUZzkhJZDJpDKZVC6XMzRNy+kP/szPvq6rddSY3UriW0MQQgghhNCnR9q2/cYu7OyRgFQpMPnRV0/eTig74JMnvgiIzJaxIE/590msjrmpDgEAQL++ev55lhzkaQ/9w+i8oHPXYgtZtjjOPzDesJaVFlm7Q8+GUWePBqbJgcl5ef5WYoP27ua8F4+Stu26OkacOfQgsZhlpWmBR04/rdWte0OKKzYmPSlZt0m3bi3t9KAwJTImi+8QFdjC5wc2+RqMWrR8/k+1763b+yQPDxxRzUBJpXKSJEmSpAS8KUIQWlrvH+UqAAB4/2QqSe5tY/07TE6MgTxuoZdg5UExw+DV2p/E7euXuT7q0r3354wEIYQQQqh6kYbGhrKMtNzSQysmKyOLdgQAIMR1Ow/9vrtLbT2gGcq4jiDuZsnUVJ6TnV+yNEMzTH5e6R8swzBAEITAxMxE2GDs5gMjAACAoLSlKdpiAoD74I00NjEqFwNIMlLzDMyMSFKgODYm4dyiuRmDhg5f89fUlIdn9u2/8DKb99BQEn7u7JvBc1uGbP39VZFa1YTQJ0AZGpvI5TK5TCYQCECt90YW5t7S17nO5MSwuXGMTO5hFjexq+muG7U0HSoq9e5wkeeQEiGEEELoq8fk5eQJrU30CCi5AlRXV0wCAAibea2candh/pLfQ/Nowmrwxh1uZUV4HwYCTE5WtuSFz+Tl11U+68dkZWQJXS0MCSi5OlXLzEI/Jy2LYYoUxwbA5kfdO7j63hHD+n1nLlo+OXP0qvv55VbIAgC8Px9DGLr/MKb+s4sBdsO9O/mvvZPBVl4Goc+PFIl06tSxNzI2AVKgRvmivDvljyHzopKSMwVH7ltoPFCk1O3rl0v+V92BIIQQQgh9DkzcoweJDfoPczURAAjN2/TvUlcAAEAZGukVxIfG5tFA6Dl16uCg6iyXib1/M6rR0PHt64hJAELL2K5BbV3+wzUm/v6VYPvvRnnU0iKAMm35/cAWKbdvhsq5YiPM6jWx1qUA6NzE0LhcUiQkBLbdpv7P28OUAAAoyMlhres76BFAEAQQpp2nTXF9sWP9jq0b/Rwmz+xei6y0DELVgaJZxtDYRCaTFRcXg6xqhYvy7uhpX313DJkflSRhTGccNc8rVueIlIPA1KWv14geHg2tjUR0XnJE4PWTB3yepMg1t4UvlsKrWPEwEiGEEEL/FfKo46t2Gs2ctv+0jjQ73v/av6Hy2gBQFHhqb9tpM3duLyiQ5oRcu/0go42KK2TifVasIrxHr/xrurEIpFkx/xxYG5ZQwFvk7YXfV4omjl9/ZKY+KUl5eWP1ryfC5ACgODbSuNnoOcsbmwlkEklOtN/mHffzBI3qt2jRKM2HeJTBsvl+p058M2vW4dNs5InFm4smTHbw/31GUA7LPvtry/XNi+cMDPnFJ67cMgt/8Ynjvb0SoU+C6OjhbmZmVlRUoKurG5mUy7Wcz/GDtaysyv9L5WNIKZjlOx4c+eMcDYZn5DF9+9ym4Yd3/XU7OLlIaOroMXzyhFYJ26f+fi+9ZtxhPGLY4B8mjFf40cHDRw8ePqrZzd2+fpn/HkilCyCEEEIIfZXIOsN2bHXy+X7FrcLqDqWSmhwbQmqg5HJpdnamtra2QFCFU4gKjyG12vjKJJQmoxPUHTi+c/G5/636O0IGAFD09tW1zb9pb9w1dpjzox3B9t47p4vO3jbu+10rGz15yvMLu7cf+jeTBY4X/gjqe++cRp25ZdT7uzZ2hkRuxO39m3f88/Yjz2seP+kDAJWPJD/FMSRCCCGEECpHaNO4EZUYEpcjBW3rTkO72UZefKPx59DouE9Z6+X6/uGSwOT6bVlwPFjJJPKzxIZQNaG0tLQJgiwoKCwqkpQ+gVUZrmNIfePa+cnJGgyOMHNuZpX08EF0+YttmST/+xFjezW3FQQDCOz69DFavMR7ZaaoXr//rV44PXXisiuZtThf+COw7z+g1vKlE9ekEjbd/7dpmtezoN/v8l6noIrKR5LVeAyJpyIRQggh9J9BmLgOmbGwvqVYQLDFycH/rN1w6a3GL1grCtoxLaiGxoZQNaGEQhHDMIWFRQRBgNBAaQGeY0iNB0fqGehDTmZOxeu92dzsPNA30COgCIB+feXs0wwZgCzy0smb361s31zvemiHng2jzq4JTJMD5Lw8fytxb3t383PnUwAA6OBLp/1TpCxAwt0HwZMG1TYloUAD15OXP5KsrmNIvJwVIYQQQv8x0pfHFnsfq+4oFKvJsSH0sSiSFDAMKxKJCIKQcf9AQlEUqHAMWbKYpjD5uXlgaGxAQlq5V5EQBkb6kBeZz4IAQJ6bU1AaNZ2Rlkk4G+qRXC/8AQCQZ2WWvb6HphkgCFJj0R4/6SMSaQEAXsuKEEIIIYQQ+opRDMMAgEikRRBEgYRzOQN9fQAQsg+ZnGg2N77k3R4yMNdu46tnbPPBYprCpr96kTTOo53d4ciodxefk1at29XLenogngZ7AMrYxICADBYABGYWpmxudh7nC38EAMpeFvSRqusA8t3TWUv+A89JIoQQQgghhD4dUiqVsizLsqxcznebMEkKAEDfamV+QaOS85AyMNNqc7H8MeS7xTSGjjr7113dgXPn9HeprS8SUGKLRp7TFo60Djx46nXJ/ZJUk17ftTCmgNBx6DPMU+/5vacFdNVf+POl69K9d8mh47v/QAghhBBCCKFPhKJpmmVZkiQtLS3z3mbyL717154h/cfkxj+QE7RWm4v6RqXHkARBaGlpEySZnZSo0fDYrIfbZi7rP3bEpM3jrI206Nyk8KAb62b6PE4rOanI5gQEFHy78s/F1np0yrNzK7ddz2ABqv7Cny/KB2+GxONGhBBCCCGE0OdEfNO2tVgstrGxcXJyOn7+Gtdy/1y/JBRSj/we1K1rIwC5rp6Rjr75u09JUqClrZ2akqStLe7Uvc9niRxAUN9790qL/SNXPZQpXxghhBBCCNU8tEHLPu1z/70SnqrqnUekrq21TmJCugYekqgco+va3VMacjE4QcnmlEZFaNl37NJMl5Skxzz6N8Gu2zf2LF0U8+LOm3iaUL0SGJ2mXXtC5PkXMVrOnbqRsb4vYpn3V93xRvtZ6w199Sg9PT0DAwMrKyv+p+PkFUlNhJRHu/ZcC6SmJOnrG2TmfuY3qhJf99WqCCGEEEJfNULP3lYnzjdN5adXsGStui420sT4dKhB00DlUREGNg1MCwNP3k0WsqSDm1NBzOU7L4oEAIQalQAAZFHY49ukhFG1EmpmvaEvFyWTSaVSSVJSUmpqKs9yy/Zc+bZTSwHJ1+xoJvPinSeajhAhhBBCCH2lSKu6tjnRdyW0jmvXzsKMNCNLE7GBjjTz+T93o6UMCLTtWrdraqILLFGcEBz4LDxXz9K1ZQMjivbsXi/931v/ZoFt6/bORlpAkIXhT/1DE0gHF48mdtosQwId8c/1kKKK596EJs26tqnNAikS5b7wexCTotVM0XYpPacOHRqKKZmkIF0igozKgbM6duU2FPhM/D6qm+H2XToVPL8UksS8O3kYWdjEvbGxUNyiZ+/k+FCRo722NtOxh2nkvX8ipGxpJejX793R8vHf91MpAMq41aBv8v8+H0wYfxBwWQCMTsPW3SDy/Is4Rqgo2op76pdGuJSvt2ziw4olGJ2mXTvSMW9tm9bXyn989nacRp94gr46VF5eHkVRQqFQJBLxLPf40p6gKyIA/vdjMAQj1Wx8fOjwfd5DPt/mEEIIIYSQulijJh7utmZkfnpUSGgqZWoJyeHJOWb1GhSGXs8XgA7QRtYmz3xvBAFj6tGvvaN1bHCc2Lldc3nC9QuhhQJB7U7929bNuhad8iwk3tEw+2ZgKEMwuk09m+aH3fCLlwnFLv36Nkn0yXNukn//1O1cGgQkSVe6flOW/frGlRc0C7p1uvR2topIyVKw3Vh9l3bOBVFXboUWUaKGvYcS6ZV3h6xdYUM0lItK377S4gXpr/4NtW5rHnTtYSbFkoxpbdPcW/4hcgIA6NJKyJZEsy3sTQSpuXKBbV2b5KhrUhbIygF/gDZUGG3FPbU8drt8vem5dKtUsakAjHGDxvHXrp0tlLB4DImUoABAUIZ/0c96iIgQQgghhL4ehFCnIOH+FX+yTkNXt44NpenP7kWylLmDRWHMg3wAACClCXHJLABBZGVmCnW1gAXzWjaZj+8VkgCs/G10TGs7G53ItOL3K2XNrWuJSa0uVk0AWAHNZokhLCzCqVPvtmEh4dFR5V88XhqFnolTsyaWFNAgMhSQFKN4u8bmlulPbheRAExxwtvUBgoux6OTKm5I/VeRv68ENiY6pUddW8HTaOu69bJe+xaSCgP+kMJo+QsqqthUFgh5bGhogYTFq16RcpRQKNTS0gIAmq6UaQghhBBCCGkAK0+KSQACID7kYXxIyT8JHR0t4qKeMiXXuxE0/e7tc5w3CX7wBnCCEKQ/vf1Pcrl3n6cHXY7Ts67XoEWf71JunH+WV/6NdoR9e0+b4Ku3Y7MZoWWH4a4l/1h5uwQA+y4GRmEwZH54+Q2de8ERMCEggG+OzQrt31UCURQZmtWrca1XxXbGWVFvC4FUGHClTSiIVqWCFeJgAYCgZdJP+Yp19DUh9fT0BAJByasjqzsYhBBCCCH0X0HY1LVLi4yWcp/IS02MM65XV8wAEJS1g31RwttiAYBMzoi1tRgAINLeJpg1dDYGAABSR6xNgFBLCJL8xOCgJ8m0pal+hfNqhEBLROZm5zEEK7K2NuV+YmlmeqppHXttGoAUWdUyUxjgBxsqFxXIiou09PUFDABQFpbmvCcqK1ZCYWJ0jlHdFk4mEeFvCVUDVhCtwoLlIlRcsQhVAWVoaFhyGEngQ08RQgghhNBnolvbXpwakiYDzpcFkAWvHj1p1a5T3/oAlDzpzcOINJYg2MTIsEaduve1T35yM+DVwwD3tu36DyDlLEgy/r3lB+7dWhhScpqFouRnCdkVzpKwsthXb9q36945XyLLSU7O4zqFIsh5/jCkY4ce/RpJiguS01PkCibJpGWFDeUw5PuoAiNfhHVq361r7VwZLclJl/HMsStVQmJklHvbBnHn/eSEigErilZBQYKpUG+VK5Y7SIQUILy9RpIkmZeXJ5VKo5JzqjsehBBCCCGEEEI1GpWXlwcA+fn5MpmsuoNBCCGEEEJIM1jStlFHx9pk2Tk8adyrh1HJ3Jeyfp5VIfR1IDp6tKLLyEUG1R0PQgghhBBCCKEajcrLy2NZVunbPhBCCCGEEEIIIQCgtLS09PX1LS0tKYp6Hh5f3fEghBBCCCGEEKrRKENDQ11dXZIk8d5IhBBCCCGEEEJKUSKRiKbp3NxcAHBp1rS640EIIYQQQgghVKNRBEEwDMOyLEmSG9f+ppGVsiwAAEEAywK+jRIhhBBCCCGEviYUTdMsy7IsK5FINLXSd4eOeAyJEEIIIYQQQl8ZSiaTA8uyAHK5vLqDQQghhBBCCCFU01FyGQ0AAoGAEoiqOxiEEEIIIYQQQjUdRZKkQCCgKIqmaVULESQBZOkVqyzNssyniw8hhBBCCCGEUI1CCQQCAJBKpQyj+tEgiXc9IoQQQgghhNB/E1VYWCSXy+VyuVAoVLUQS7MsC4SAIMhPGRtCCCGEEEIIoRqHomlGIKAIktQSaalciv2EESGEEEIIIYQQqsEogiAokZBlWSDxOlWEEEIIIYQQQkqQDMuyLEsQRFXujUQIIYQQQggh9B9FMgzDMgwBAICHkQghhBBCCCGElKCAZmg5DSwAXtOKEEIIIYQQQkgZSiQUEQQJLLCsyg/OISiCgNLjToIkCBKAZRmVXzuJEEIIIYQQQuiLRVEkVfJwHYaVq1yK4PhvhBBCCCGEEEJfOYphGIIlAFiCUPmAkJWpfuYSIYQQQgghhNDXhGIZOcMCjZekIoQQQgghhBBSAQUMywILLK3By1NLzlUSBLAsqH6OEyGEEEIIIYRQzUd0aNacJQgWWIZhinX0Pn6NLs2a3r939+PXgxBCCCGEEEKoBqJYGgRCQltHl2WJYry0FSGEEEIIIYQQL5IS0gCFIpHM3FwDpyIRQgghhBBCCH3dSGdnp2bNnHv16jFowKBq2Lz18H33T01vIvj8m0YIfR6Y5gghhNBn9sUMvoJGU07ePTjGjlSynLD9kut+G3rrf6aQ/B4H+j8OfHjpfy2oz7DFLxPl5TVEW1sHBGBhYQ1/qFCC0HXqNmx4z9bO9pZGwuKU8MeXDh849TSD4Vpe6Dbv3IY6fw6cciaj8ltC2MLoh1fuxmV/+veH8IbxORD6jfp4jenX3qVuLWNRUXLIo7N7dxwJSi+rN536/ab94uXZxJLKiQ44s33D/oB0RnmpEqR5t+UHV3ga+S3vMftynrJAyFqdJk3+rlXjRvVt9Asu/tx7pb/s/YccYWh4hcIuv11f012n0tOX6LC9XqP3RrCajpC3lIZ3mfMjwqjfpgtL2ooqrIhJPPrjsE0vVH9l6xdJY2lO2o//68jkhhQAy9KyvLToZ9cPbdl7K1ZS8qlxi5Ezpw9u62RK5SU8u/rn5h03YqUAIOqy+vaqrrIHK4b8ciGdBaBcZ53e2erK2FF7wsi2Sy6vaXhq3Oi9ETQAgFa3328sN9k+YNKpZAZAx6GH9+TR3V3rGlNFWUmRL+8f27b7nyTlrcPEZdBP3t91cLY1oLPiXt87vXvv2eDcsp3X6bj0zOpu2iG7x3gfjmcAAAjjfpsuLWpNP/p94MwLaSyAqOUcn21DzRMOeY/Y+ppsNe/s9oFm5QdX2dONpRGqrdr7w1KVa6MUZeH+/U/j+7VtaK1H5yaGPjy66fcLsR34+o2YprNO7xlRq1xFSe8v6/PzpTwW1GobX8odHlX9Kmt6EvGODgetll5d11uPAJalZflpUc9uHNu192pUIUBJSJwNgC8ruT4ScqYe1X45ZxhIAarZDJ/ttff0/uVyftk/8bdD9AF1e+zPN8f++tBvdgxrt4MwGbj17ITqjgUUJlHNQLVs04SgtKJCX758dUOlEoSZq4dD/uNzO47FpRYbugyYMG75r1qzZh2MUGcqzGYH7F8VoEbBLw9h3rKjY57/iY37o5OLjVsMn/bTxo3a3uP3hMoBCIN2szbNaxO2bcFov/x6Q+cvXvNb0djJR2MY3lKlBLX7L/I2jY+RG6kYibaYynx1Zb9f1NgZ7SuGyBmGhlcoD9zhPfKQAACo5j/ummF7edHSswkMACvJiKMBSA1HyFNK47vM/RGb+8+68SG6ZXMSwqTz7JVjjR/6RX8p01X1aTbNC++vm7DtsYzUMnHsPnnOrxsgafj2YDmQNgOWbZhoeX/j/FXPi2r3mLrg1w3CrDFrH5dM7VhW231IX4dLB6JUrW7C8Js5W5e2CP1z8+xfowrFFvbO7VtbG5Og5DCS0Gs5bdemfvSNP1ZOe5IkN7Rp7OHe0IIMzi3drk6LTq0yL/ikdP+mg83RY++PnIpSsut272LlezKJ0XHr0YFNSSu3HebtxSXzTkeV/QtbmKrKbydfAI7aIIw7Ltj9W8eMc9uXbnmZKbR0at3T1kIAkbz9Bh16ZNaoSyJhy0l/TLM8P3/ZhSQ6P6mg5DhBw23jy1eDk4h/dLACoKOOz513NgG0zRp6es9ausUw//sVD/JYvgbAk5VKEpY79bjCQFXA0Q6RxvyH5tiomlCErhawYkNj4+yX8SqVYGJPLVv87q+QWJ2mx2Z4uNc6HBH/wchAGPfbenGBR8nZl3mXguYBgPThb/1mXMhmAQT1fzh6aIKjAICOO+Q9Yuvr0oGJajbDZ5tLVKBei1bikGP7AhqMHuemHXJw3sw/XxYCAKHj2Oun6aO7utoaQE6M/7ld6/c/Si0pSpq4j/l52sDWjqYiSXZSeNDxtSvOR9D8YRAGLsNmevd2c7I102Wy457dPLh957XoYiVhCDsuu7ra4tL+zKZ9Xa30IC3wxIbVR57n8A8gTNSROTPf/fU6Sux6aUGHtrX3hcYwhHGnwd2Mn21fffJxKgNRW7c177hpcL/GJ7e+kvOUKvknkeOoJcPz9y2+129fU5W+P2CiL2/ZBEDajx9WMWKeMDS9wvykyLAkAACRRS7NStJjw8IimY9Z4bsIKV1jE7GgOCc9V6pCKfVWyBMh30dMbmJEbul/k5a9Vw1smHh4ys7Aj5l4cLT50g/NWoyY5D2wXaNauvLM6GdX963feS+FAZ4kEnosvLCh1rn1kU2GezaqJc4PPrdh8bYHqQwAd6aUVLHpwK0XJiSuXJXa6acBbRwMmaw3h+ZN3v+a5krzkuDdRs2cNqhtfTNBfsLza/u37Hi/Qh4sm58aGxMrBYiJTj7fa+j8Rg2NiOB0st63g1owdxatPfM4HyDsj3V12x4aNbjdH09u5AIAyF/dD7LqP6jl8XWBKmwDAEDo3LmD4cvdaw/cSmUAIDriRcBNFb4R+6HTB9d6sWn4yjNvGQCAyJCn98p9rt2ik4ckaOGpuDr9e3SodeJYYlmzlz6/5tewu6fN6cNZbXq6R9+4Zzzc4/0+SzLjwsM0cn6Mpz8Es35bfKbkrxi88FZJoyQMuq44u1h/x5BZZ9IEfJ0eT7fMi6M2hM6jpvYW3100ftPNLBYAIsNfPiwpwNtvFKXFhKWBqFYuyxqmx4aHvfsxSKDptsGPozZI6+G7TwwP/3no2sclXQlpNXS7z5jY2YPWBEjUyUr+EZZXTU4ilm90EAEAK81+GxMTy0BsVATr3GNb1w6NqAeBMmA5GwBPVipLWO7U4wpDHRqf9vB+xNuZi2p3mzpvcu+mFmxywKnzGd0nOl0cM+5QLO/AoTaOdsjyjA48g5TQY+GF9eY7+8y6mM0CkHXG7Dvc/8mkoTuCaf6K4sFZG+pNHdWpQ2Vprtbgy/Mtq9kAOMPgKyWy6zF9zqReTc2ZtwGnfTOVXc/6vk5Etr3m7RnTs6FRcdzDk5tWH3ySyQDBN37xXf6gznyeuwEoCUO9OqzZSLksUybJ1Lck6zVS69JfLR0dUpaRnlu5ztmsC9Pat3FrN9UnTRK4uo97qzZurTpOLxvh6PC9wz3atPpu87PKxyiUYdbVuZP3xTQe90ODO7+MXffcbtiAlloAQNr0W7lzRqOYw4u8hg4b++sl+Pa3dWMcS+IWt52yckKdV5unDOo/xGv2xotRElJ5GIS2mXFRwOEVM8cOGjJ+kU9++8WbZrXWURYGAICweef6/kuG9undd+YVg9GrF/U0I4Ew6LP+YaD/4w/+90jBhemEtlhMyNJSs1kAoBydG1EJz1+WXhksDX72hrZq3Mi0UlJVKAUAoOPyw5L+iTs33ErXwI+gKodRg1cocPh+60XfU3M8hCqVUm+FH4206bdwpnvCnyv2vSz6mPVwtXkAAHHzads3TXCIODBv3KAh4+fsf6ljbU6WbpwziQCAat6jZfgGr2979Pn5tv6Qud7uJS2eN1NKltD/ZuIow5vLxnTr3GPowpPBeSzwpTlZZ8hvG8bbvd4xbcjg8Yt95V2XbPy5tR5RhSQSGNTv3rkhJLwOyWaB0GvQuA4b+Sqk9LoyJv71mzztBo0dSgux+f4+voVdh3Y2VvVFtkxudi5h6+pmraV82fd7ZdW6rSP74hbXVXvaLTq1gSf+r5MDH0U5de5oVS4VZC+v3tP37FbX2KOnS8jV+1mf6LQGT3/IZtw5/4Bt16djaR0RRh16tSEe+d4qO/+iqNMD7hal9KvkqA2BQ6HxkNMAACAASURBVLu21kWBt/w0VAeabxt8OPOLSb5z/ZVhJ0/X0gZFWnXxbJz5z/WnEr5SJRRmJfdX+WUnkaoE+nYdu7mZEMVFRfwNhScrlSWsJsNQQqPTHt6PeDpzYZMJa5b1YC8tHjdk/MqH9gN627xbn9ppDgDASrOTE9MLOCu5QjvkHh3KqkrxIMWHb6zkxFMb6k0dlaS5QvwT6dJoqjb48uyXGg2APwyeUqJmE9cs7UZfWOg1ZMKawHoD+9iqegMn5Ta4Z9Gxn78f4b3hmY3X77/2tSRVGL94cAxtPDgbAG8Y6tVhKWVJVG2ojOTntJwWaGVIyadVLk0YtRkzsNHby3MeKDt0rxJ5RNCj6NA6r5Kl8MQ/JoZ6ES/qUMuQhMwmQ73cEg6O2Hw5kQGAt6c3He/sM6Cb06GIYJrUs7LSK459EhSelMdCempciCpbYlJv7VpX9kfSuT1n+hwb4O4gCAjmCyMVAICO9T1wOV4CAOF/H74zckPfb8yu/Z1+b6PXqD0fDrGsJDO+4s8JhHH7H0c4J5yZdiebBQChsYkeZGfmmPX47c/ZNhdmTn6WlQ92JsYEpPCUAsLQY9riLiEbx9/LZI2rWMWKqBjGF7dCnlIaj1AVlN2whVOahO4cdyRcqnxpHjxtnjDpMnJQrRfbhm32TWYAICn5UHDp1nmSCACAjr3815XYIhaKXly9Gze4Q2NrMiCa4c6U9y1bmHl187brEXIASH1xO1VJ7A49+jnnX5m95fobCUDi0fWH2p+a9F3rLQG38pUkESHu8fs/XRkgKSFZHHt97ex9wXIA0tDYiGTTc3LL+lgmJzuXMDIxejcayMPO/h1+dMi3dteOq1S78teH151wXjLf5/KEkBcvXjwNuH3t9rMUJd8YaWltSRYEJOWxAKDbY/3lpR21gE4+PWXwpn/lAFounduKnm54KWGKA/wTf+zU3vLkqXfzV3nojduCpSO80xq9OL8qx3Z4udUKHLwOPfIq+4uJPzJxyNaXmr/0i83zu3inYG1vT6srp5IY0qJzH7fiOwved+4KO71UkrNFhfB/lVy1IbCwtoT0e8kflx3vERpvGzz48iv1zrXn0370bLk58GExkNadPRul397+SqqkFABnVnJhv+gkUoZqMPGo/0QAgiAJkL69vcrnNX8u8GTlC/6E5Uu9KoehhIanPTwfcXfmItf+fW0jTyza/yiaAfh709HOHf9X+gR/7iaqJM0BAIAOOfjTiMr7rLgd8owOBSVrq1o68NcGN57aUG/qyPdVqhAPjyoNvjz7pVYDeB985TCoppylBC369raJOrHgL/9oBuDUhqPftJslVm132dQrO3b9EyYFeLvjD4+ua/p2sb54PIFRMn7xUDy08TUp7iTiGUbVq8N3QSpOoupHRUS8MLPQr2NhZgn1AMKrUJTQbTJy4Ry36G1zDn7cOZVKGIlEDqxMKmelEinLglQKIpEISGOnBpaiZjP/Dnx/mSewuYkmAgCaSX9w4fbIBctOHOgX9OJN6Cu/m3depim/wIQ0bjpg3MhebvVrGWpTAlJLT1gYJiYBWO4wSmNMjH9b+sXLE+OTCQ+72iSk5idHRhKV+lOWLd8cCf1mE1YvaROxfsofT8vdks8CyAoyUpOF2cWKWn2lUqRZlznzWgat8vbLYUHBj8OkzYhdp2Y0FQIAk33+5/4VnlPDjTsMja9QTbwrpMP3jm69t2ql1FuhuoT1Ry78yf7JmnFn4z72UgWeNi+wb+BIxZ1/Uqkj5E0iAAA2rezmH1ZSVAza4tJnXXBlyvudKAh5Ga3yPIqytbeBGJ8oadmuhIdnCV3trEiI5EkiEgCgyG9T6e00Du1GTZ+1dnKK95agAhWqK+Xa6Qfjpw92PXNLpRCZjEc7vPufcGru5trMuWWXqTvHj/KZO2VTgPJRiS1Zoshv/dgx5/svW9OldG+0XDu1032582khABvlH5A+qlMHC59TyWXrk0dcvyU7OrH+ldn++WBbIZQKN2ixsqz4T3T7UPET36upO/t0t/U5GG/j2bNZxo3dj9937go7vXTuFsXw9occtVEtv7VWtW1w4s0vNuPe9cczpni21HnoJ7Ht0rVB0u31r2XKSgFwZyXn/nz5ScSNjvZZsOhssnbttl7jmz39/TffBJXaDFdW8n/EnXpqhsFJw9MevhkR57TH2N7OQBIZVronbHZURDrjWlpEzTTnp7Ad5vGMDgxA1dOBvza4kNy1AWpNHZWmufqqMvjy7BfvRyoEXykMnlKksa2dfnFk2d1wTGZEeDrjotou0HGR0aXfniQ6Ih7a2tcWQAKjZPzioXg+z//LBPeMiCsM9eqw5qPCwsIEpLtVLaGV4VCAlaqWI/Sbjl66vEfu/vlrLid8on1mWbasfweCKPk/NufCrG+X+ynIfyb52qJhTxq0bOna1LXdwLnjxnZd4TXfl39SQtoMWbl5otaFdWv+ePY2T8qa9l21b/iH/WGlMErLCkiipM8AUlDyay1h0Hvt1aXtKz6Ls+KF6YRB8x/Wr+ubs2v6knOxZXshy8rMh9omhjmnN41/AADi7sZ6kJ35/pIuRaUE9dzdLG0NNlzqXxIOJRTAgmv/9N0+asqxBAaASfFd8v0jbQIAWDovVYXvSEkYGl9h1am3Qp5SGo9QGa1GXovHmd9eOvdKigamy3xtvqxxfog3iQCAZdny5UobvAqZwkokEg3UG28SvYEKt9NEhcfou/r+PLzTX499c7KyGULf0ICEQgYAgDQ0MmCzM7PL5s0AwOY/Onll0qYh3zxJf7deuVz+4Y8wrFxOv9sRaUZYwLWwgGun/jz47drjC8Z2PxZ0mqdTYVKSUhhdS0tdArJZJj85Okor892TB0UundqZ6ZgtvHh3AQAASQmZzu3NfXze/eDIxFzcvCpP72VQEWtdMSTN3RuphPyN7+WoYb16Oh2/2aFXg7gra16WP3WkoNPjaVGEQR+e/lDAURspDJ2alAodrC1FEKKR3ydZNduGWnjzi832uxY4a7anm9g/0dPTMeHW6lBaeSngykruIL7oJFKGlWbER0RGM5HhywW/Hl85JWzMhsACvq6HJyt5ExaA/97IKoah4t5patrD+ZFK055K1Exz/j5LcTu8qOyJt6qlA0GU2yl15oc81Js6KktztWlo8OWlQvAKwuAuRQKwQNPlzljT6g9wZdXMP37xUDi08S3P2wC4wlCvDms8qrmbq6W5XVZmniQ3V/niJQjDFt7LlnRM3T13/ZUEZd8SyzAMIaAormmt6pjMsLA0cbuWDUV+HG1Dmh766Froo2unjj9f7zu/YzMt3+SyeYjCMLSd3Zsy9xfsuvJcCgAgcrC0EkCUSsFQDvXrCeGJFAB06jnWhoTLiYyyS4lIo1ZTNv7umbxl6q8XYsvtgTzidYi8T1NnUzIslQEQNXRtKEi+FVJ6wx5HKdnzPd7DjgtKN2bouXDHBNke7zU3Esp6RnleSqzSt3+Uxx/GJ1hhlamwQkrfzFxPUJSVkl2sQilWrRWqTdxs4uLvxb5zN95TfKBK6hiZ6QuleRnZRSrXkeI2T8eERMj7Nm9ufjCq4vGq8iRS6CMyRTE6ITYRXJ3qiiBDAgCkmaOjsTw+LoVhC1W8MhwAAORSGQj09XUINjUsOI4Y6txQfDI5HwBI2yaN9ItDg6Pp9zNgANmbM2eiDw3u87Lsn5i8nDwQ64pLN0eIdXWBzstVMBtkct4mF4CLvi7vbjHJAY8iJ4/u3N7M1/fDu/pFTTu1Nwr+c8qy65ksAICw2Y/b5nRuZ3bm7LshhUl/dtEHoHzIKlCn2XB2y0zMlUsvvEb0HypuZfvm7ysVLhVT1OnxtCje/lDkylEbZ1Lp6If+yV49u3oY3rutibsl2Hy12kaZKlWvkvxicx7e8P9lrme7pvGeDjHXfy19xoeaWVm6zspfpdKLWiuoaUmkMjbn7pFzE/ZMH3F+7L5wnt81ebKSL2E/Lgx1slJh8B8z7VH4EXdnzmTFxOZoNXKqTfpFMwCEkUO9snvE1EzzqnjXDiGPa3TgXwFbXCQBLW2tkkwQmFiYVgyKp6IU4akN9QZETae5mvi+ZXUaAO+2uEsxWXGxeWK72iYkpDAAhI6Nramy3zLKCOrUcxBCphQAtOwdbSHuTllb4xu/eCgc2srIpLLSZvWekgagOIyPagA1GNmkibOekTA5qTg8KkylEoSh28SVy3sxl3f7hGvVdqxX17FeXXsz7osKmKT4JHD06FjPSEckElJqP14FAOSvTh16YjhkybLv2zrZWNk6Ne88ZPqqH1sJAQBIyy7e04Z0bFbX2ty8TvPenRoK4iPLH6opDEOSEJei1cjN2YAEoExb/fBjT3NV2zFh0WvKpE5OtWwa9Zj64zfsI9+7aQwweW/DwyoJj00vBiCM2szYur4/c37LkRAteycnJyen+nUtdAgAYLPunL6Z1dzrl6EtHGwbdJ067VvDYJ8LwXLgLVWcGR8bGxMTGxMTGxObkFnMskUZ8bHJuUpPEwoMbBydnJzszbQIgaFNfScnJztTLf4wvpgVChyGbzp37vj/Wpd7Ig5PKfVWyBMhz0eEnvukhcMNHh27kVOrvlMZR2v993ftG/dacc7371W9VHyCBU+bZzNvHz2T5DJ55bTeLnZWFjZOHgN/+q4RBfxJxO0jMkUxOuqq72v9XlNndG9oU8u+1ff/82qWef1iQAHwJhEAAEHoWdjZ29k71G/WfvD/vNwhKvBxKgN0xKWzTwWdJ/0yoKVT3cZdJv5vuEPy5b/9Pnj2F5N09eSjWu3bmJfey09HBwSmWvT8YULnJnXtnVoNmPp9c+lT/5fFACBoPH7d6lkjurd1capbt5HHwNmzepskBgR++EDqDzDRp3ecTXebvm52/zYNHRwatOna0rLkCxY17dTBOO7h7RfRJTkbE3HnzlN5007tVXjkFKFlUud9m3FyqtDhVrXZlFYEV7fMpNy8GGTw3aSB5k8vX39bYW8Vdno8LYrnq+StDdnLIzuvSzrPXzejn3uDuo5N2/bxXjaxrbayStIxt3dycqpvbUAQ2mZ29d8nl3ptQ73qVZZfeY9uPGTb/TCnd53wGzfePUpUvawsi7vyV/llJ5Hq6MhzJ5/VHubd3YzgawDcWcn3UUlN8aWewjBKy6mTlQqpOe3h/oinM5c+O+8bX2/4rHGt7SxqNe4/fXgzglUahrLGxoOrHXKODrzo6OBQWYNvutppAaFTt9/wLu+fk6JsfqgQT22oNyBqOs3VxLNfajUAPjylpE99LyU2HjiqtYkASAOXUcPaKL02uQxh3nPyT9841bJu4Dl5Uhcy4OLtd+eVecYvvhUqHNpKsAWhwbHiNn37Nq5lZmpioEUCKG8AisP4mAZQg1FyuTAzPTMuJk0uVe1JrYI6Hu3txXrk8CWbyx4CwWb4Lhqx9aniwwMm2Xf7nuZzvfZf+VlbIHtU8pziiq9idz3gNwZAHrZ31Jg/Y/i2zSScm/9T0Q+TR87dM9mEKs5MDH92/3RSyc0j0gKo8/2U1ROtTMRMdszTa8sX/hVa7scwhWHQwfuXbjOfs/TvS2xBXlbknTOnnjbsr1ItgCzQ55rBmM0nHA0KY/3+nLf6irKfMgUOHTo7ig3IMav3jymLKf3MjL6rg2TA5j7c+POaGf8bt+boNCo3JuDw3PXHY2hlpdREGHSa91fZ86MdfjnUCejI/aNH7QmjucP4slfIU0rjEXJ/RNh7tLUVWdgt2Nu13JrKvyCb0NUVk0xuckqhaj838rb5wqdbp/6cPmnChLUHF+vKMmOeX9v7kAHgTSJu6mUKd5pHMEzcycX/0541ddqO06aCgsSXN1bO3vZQpZefiDv8crwDyzLyoqy3IYEH/rfrSBgNAEzC30tn68ycMW7NX6ZUfsKzy8tm7wiqdHUUm/fg9JW33b63Kf27+PH22Utl08b/sn2csaAwOeT+rl+2XEhhAIBNfv5v5shu3t0nWBiLIT85POjEwu1/vVJ69UVuwOafZiRN8h6x/I//6RN5ia8fbP314HO50KVTe/OMe0HlWlf+vwEviVmd25n8o2ywI637/nao77s/mbfHfxi85Xlph1vVZlOyCkX9YekeZN/1fTCzQ/tnV+5+8KJrjk5PjRYldOaujbPn0pn02yt+Khw9cezY3/pb6TK5iW/8jt5R9vOToMGoTe/ePj983cHh75NLvbZRoqrVq6w2CoOu3i/u2dfsxebb5W6mUysrS4tyf5XcanYSqY5JvXnyxo/rvEe53N78irsBcGUlcCds6QYUpx5fGM+KAdTMSo59VGvaw/0RX2cue/3nvF/F86b8fngC/fbR8XNXkyc5MrSyMNTH1Q7VGh3Y7Fs717n/Om2/7+jMhNc3L98I92hX9pGS+aFi3LWh5tTxM6Y53+DL8y1rvAHwlJK+2DNvpc7cucd8RZKcuIcP7ic6WitZWyn5k7+v6Y3efNzJoDju4cH5qy+VO1HNPX7x4J3PMxHHV293XDh5z9/zRfKg1QOmnMlQfuygOIxPkkTVjsjLuJCY+PZJUHBhvmjn0Ucfv0aXZk3v37v78eupwYQdl139Xby22y/XlF3Dj5DKCKN+G8/O0ds7cuKx2Jr3TGdUQ2m+2ZCWAzef/iFt0aAV9953cP/VTg+zEqnh62g2Wu2WXlihu6HfnOv51R1KDfC11gbPfn2Ru6xw/OLxiYa2qobxBSPlEl0jEycX1zauzTpUdzAI/YfpuLg3zryw++wXPO1An59Gm41QbGRRv8eU0a5pl8/6f+2Dn0owK5EavthmQ1p7fNejuZ2xjpaedasxo76h718NVOEJvl+pr7U2ePbri97lGjJ+1ZAwPhsq7FWGc/M2Fk0aMzJdgLXVHQ9C/1WFdxf3+LpP46NPQJPNRqfrsgvL2xbH+v2x9MDrr+kZAOrDrERq+HKbDWXWYvjYyfPNDajilOC7f/yy9Y7yS6S/Xl9rbfDs1xe8yzVk/KohYXw+xObFy5yd29VxrFO3Xj337h0/fo3/gYtaEUL/VYL6fad866ToRnIm9eHhYwHpX9r5B4Q+N0wihBD6KlBhYdGxMRIbW4t69a2qOxiEEKrZ6PCLWzdVdxAIfckwiRBC6KtANna21RHTWTnJtArvk0cIIYQQQggh9B9H9fq2ZU4OSzNacoledQeDEEIIIYQQQqimI5Mzn+QURmnrkAQpqYbNWw/fd//U9CYC5YsihL5MmOYIIYRQjSNoNOXk3YNj7MjqDgR9oShjy6zsDEhJj7A0a6BaEVHjgT97d29Y18ZEDIVpUc+vH9t/NCCF85JYodu8cxvq/DlwyhkF7wJlC6MfXrkb9xmeBMUbxudA6Dfq4zWmX3uXurWMRUXJIY/O7t1xJOjdowR06veb9ouXZxNLKic64Mz2DftLnjKgpFQJ0rzb8oMrPI38lveYfTlPWSBkrU6TJn/XqnGj+jb6BRd/7r3SX/b+Q44wNLxCYZffrq/prkN8uCY6bK/X6L0RrKYj5C2l4V3m/Kji64BLMYlHfxy26cVXfkG5xtKctB//15HJDSkAlqVleWnRz64f2rL3VmzJL2CkcYuRM6cPbutkSuUlPLv65+YdN2KlACDqsvr2qq6yByuG/HIhnQWgXGed3tnqythRe8LItksur2l4atzovRE0AIBWt99vLDfZPmDSqWQGQMehh/fk0d1d6xpTRVlJkS/vH9u2+58k5a3DxGXQT97fdXC2NaCz4l7fO71779ng3LKd1+m49Mzqbtohu8d4H45nAAAI436bLi1qTT/6feDMC2ksgKjlHJ9tQ80TDnmP2PqabDXv7PaBZuXHeNnTjaURqq3a+0MQcuyXDzl0p8+k/FX9f/EtazBU02mnd3cPmjVoVQDLWRsU17d8oPYyvt7my3j1c1W/ry8iUxSXEvCPDjSAoiQCELVffnVdbz0CWJaW5adFPbtxbNfeq1GFyoabL6MBfF5Usxk+22vv6f3L5XfvC+RvUUh1Gu97P0FnrqABIMSB8vO/KhY1sLPpbmKs4iN2CELy1v/MvaNJGfm0QYPuo39cskw0e+reEHWmwmx2wP5VAWoU/PIQ5i07Oub5n9i4Pzq52LjF8Gk/bdyo7T1+T6gcgDBoN2vTvDZh2xaM9suvN3T+4jW/FY2dfDSG4S1VSlC7/yJv0/gYuZGKkWiLqcxXV/b7RY2d0b5iiJxhaHiF8sAd3iMPCQCAav7jrhm2lxctPZvAALCSjDgagNRwhDylNL7L3B+xuf+sGx+iWzYBJkw6z1451vihX/TXP43RbJoX3l83YdtjGall4th98pxfN0DS8O3BciBtBizbMNHy/sb5q54X1e4xdcGvG4RZY9Y+LnltE8tquw/p63DpQJSq1U0YfjNn69IWoX9unv1rVKHYwt65fWtrYxKUTI4JvZbTdm3qR9/4Y+W0J0lyQ5vGHu4NLcjg3NLt6rTo1Crzgk9K92862Bw9Fv9uZUUp2XW7d7HyPZnE6Lj16MCmpJXbDvP24pJ5p6PK/oUtTP06HmWpaL8Yxu9+6FSv1i7avneLAACArOPubpXrf/e5FEDIUar0PxV9y0p6m69Yjc4UzlIqfF9cSQR01PG5884mgLZZQ0/vWUu3GOZ/v+JB/n+2AWgcR4tCCP13UQ0du6anEiFvQqPDs1QrInl96dDrsj9CI0Uunee6NLUgQ95+MGgQxv22XlzgUXL2Zd6loHkAIH34W78ZF7JZAEH9H44emuAoAKDjDnmP2Pq6tD+nms3w2eYSFajXopU45Ni+gAajx7lphxycN/PPl4UAQOg49vpp+uiurrYGkBPjf27X+v2PUkuKkibuY36eNrC1o6lIkp0UHnR87YrzETR/GISBy7CZ3r3dnGzNdJnsuGc3D27feS26WEkYwo7Lrq62uLQ/s2lfVys9SAs8sWH1kec5/D8EMVFH5sx899frKLHrpQUd2tbeFxrDEMadBnczfrZ99cnHqQxEbd3WvOOmwf0an9z6Ss5TquSfRI6jlgzP37f4Xr99TVX7/pjoy1s2AZD244dVjJgnDE2vMD8pMiwJAEBkkUuzkvTYsLBI5mNW+C5CStfYRCwozknPlapQSr0V8kTI9xGTmxiRW/rfpGXvVQMbJh6esjMw7yN+QORo86UfmrUYMcl7YLtGtXTlmdHPru5bv/NeCgM8SST0WHhhQ61z6yObDPdsVEucH3xuw+JtD1IZAO5MKali04FbL0xIXLkqtdNPA9o4GDJZbw7Nm7z/Nc2V5iXBu42aOW1Q2/pmgvyE59f2b9nxfoU8WDY/NTYmVgoQE518vtfQ+Y0aGhHB6WS9bwe1YO4sWnvmcT5A2B/r6rY9NGpwuz+e3MgFAJC/uh9k1X9Qy+PrAlXYBgCA0LlzB8OXu9ceuJXKAEB0xIuAmyp8I/ZDpw+u9WLT8JVnSjrEyJCn98p9rt2ik4ckaOGpuDr9e3SodeJYYlmzlz6/5tewu6fN6cNZbXq6R9+4Zzzc4/0+SzLjwsPCNDHn5ekPwazfFp8p+SsGL7xV0igJg64rzi7W3zFk1pk0AV+nx9Mt81K8X4l+96MmDmrVWHj3iQwASHM3d/sC/31Pi3lLAXB8yyx/b6Mmjl0mrYfvPjE8/Oehax+X9Bek1dDtPmNiZw9aEyBRJ/X4h1FeNTtTuEsp/b44kwhYafbbmJhYBmKjIljnHtu6dmhEPQjUeAPQ+CyF9yPevldUu9vUeZN7N7VgkwNOnc/oPtHp4phxh2J5+3m1cbQolqcz5xlThB4LL6w339ln1sVsFoCsM2bf4f5PJg3dEUzzVxQPztpQb6anbh1qdC4KAFwj7IG3ffg6B57gRXY9ps+Z1KupOfM24LRvJl7Pij4C2bqtUY9+9k1czRydale1MKFl2qR316ZU2pvQjMq9Mpt1YVr7Nm7tpvqkSQJX93Fv1catVcfpZYMfHb53uEebVt9tflb5GIUyzLo6d/K+mMbjfmhw55ex657bDRvQUgsASJt+K3fOaBRzeJHX0GFjf70E3/62boxjydunxG2nrJxQ59XmKYP6D/GavfFilIRUHgahbWZcFHB4xcyxg4aMX+ST337xplmtdZSFAQAgbN65vv+SoX169515xWD06kU9zUggDPqsfxjo//iD/z1ScFcYoS0WE7K01GwWAChH50ZUwvOXpZUoDX72hrZq3Mi0Um5XKAUAoOPyw5L+iTs33ErXwMUMKodRg1cocPh+60XfU3M8hCqVUm+FH4206bdwpnvCnyv2vSz6mPVwtXkAAHHzads3TXCIODBv3KAh4+fsf6ljbU6WbpwziQCAat6jZfgGr2979Pn5tv6Qud7uJS2eN1NKltD/ZuIow5vLxnTr3GPowpPBeSzwpTlZZ8hvG8bbvd4xbcjg8Yt95V2XbPy5tR5RhSQSGNTv3rkhJLwOyWaB0GvQuA4b+Sqk5JQKMPGv3+RpN2jsUFqIzff38S3sOrSzcaVr2zgwudm5hK2rm7WW8mXf75VV67aO7ItbXBf0abfo1Aae+L9ODnwU5dS5o1W5VJC9vHpP37NbXWOPni4hV+9nfaJrTXn6QzbjzvkHbLs+HUvriDDq0KsN8cj3VtnJPkWdHnC3qCr0hxUw8ffvxxm7uTsKAAAI/RZtGhUH3v+3UIWdq/K3rCbOJGKS71x/ZdjJ07W01ZBWXTwbZ/5z/amEr1QJhanH/X192ZmiZikA3iQqI9C369jNzYQoLir6VNdsa3SWwvsRT98rbDJhzbIe7KXF44aMX/nQfkBvm3fr+6isZKXZyYnpBZzH2hVaFHdnXlZViscUPnxDGyee2lBvpqckYasavPpz0ZJ9qDTC8q6QJ3hRs4lrlnajLyz0GjJhTWC9gX1sP+yQlTUAhN6jpMITadlGUck60a/MVS8mqDty17YR9SgCCiLP/b5g9wuNXiAvjwh6FB1a51WyFJ74x8RQL+JFV4UzyAAAIABJREFUHWoZkpDZZKiXW8LBEZsvJzIA8Pb0puOdfQZ0czoUEUyTelZWesWxT4LCk/JYSE+NC1FlS0zqrV3ryv5IOrfnTJ9jA9wdBAHBfGGkAgDQsb4HLsdLACD878N3Rm7o+43Ztb/T7230GrXnw9GXlWTGV/z9ijBu/+MI54Qz0+5kswAgNDbRg+zMHLMev/052+bCzMnPsvLBzsSYgBSeUkAYekxb3CVk4/h7maxxFatYERXD+OJWyFNK4xGqgrIbtnBKk9Cd446ES5UvzYOnzRMmXUYOqvVi27DNvskMACQlHwou3TpPEgEA0LGX/7oSW8RC0Yurd+MGd2hsTQZEM9yZ8r5lCzOvbt52PUIOAKkvbqcqid2hRz/n/Cuzt1x/IwFIPLr+UPtTk75rvSXgVr6SJCLEPX7/pysDJCUki2Ovr529L1gOQBoaG5Fsek5u2cDH5GTnEkYmRu8mEvKws3+HHx3yrd214yrVrvz14XUnnJfM97k8IeTFixdPA25fu/0sRck3RlpaW5IFAUl5LADo9lh/eWlHLaCTT08ZvOlfOYCWS+e2oqcbXkqY4gD/xB87tbc8eerdAac89MZtwdIR3mmNXpxflWM7vNxqBQ5ehx55lf3FxB+ZOGTrS81fS8bm+V28U7C2t6fVlVNJDGnRuY9b8Z0FD95dZ6Gw00slOVtUCN9XSXLvFx11/0HCGDe3WuSbBEbbpVUz+t91QQUq1UZVv2X18CVR6p1rz6f96Nlyc+DDYiCtO3s2Sr+9/ZVUSSkAztTjwn7RmaJmKeBPIqrBxKP+EwEIgiRA+vb2Kp/Xn+qSSw3PUng+4u57Ra79+9pGnli0/1E0A/D3pqOdO/6v9IH73I2NNytL0SEHfxpReZ8VtyiezrwkaavYsPlrgxtPbag30+P7KjUdvMZHWJ7eRtCib2+bqBML/vKPZgBObTj6TbtZ4oqlORoAQgpQ0bGmb+O146LozKwqzGnp+EvLJvvp6Fk08RzhNXlyfPxv52JlyoupiJFI5MDKpHJWKpGyLEilIBKJgDR2amApajbz78D3l3kCm5toIgCgmfQHF26PXLDsxIF+QS/ehL7yu3nnZZrykEjjpgPGjezlVr+WoTYlILX0hIVhYhKA5Q6jNMbE+Lel+S1PjE8mPOxqk5CanxwZSVTqoFm2fJdJ6DebsHpJm4j1U/54Wu4HdhZAVpCRmizMLlb0+2mlUqRZlznzWgat8vbLYUHB78akzYhdp2Y0FQIAk33+5/4VnlPDjTsMja9QTbwrpMP3jm69t2ql1FuhuoT1Ry78yf7JmnFnP/q+HJ42L7Bv4EjFnX+S+uFgzZtEAABsWtmdZqykqBi0xaWPpuDKlPc7URDyMlrlORtla28DMT5R0rJdCQ/PErraWZEQyZNEJABAkd+m0vtzHNqNmj5r7eQU7y3lDjK4qyvl2ukH46cPdj1zS6UQmYxHO7z7n3Bq7ubazLlll6k7x4/ymTtlU4CSq9cBgC1Zoshv/dgx5/svW9OldG+0XDu1032582khABvlH5A+qlMHC59TyWXrk0dcvyU7OrH+ldn++WBbIZQKdwOysqz4TzQ5Ln7iezV1Z5/utj4H4208ezbLuLH78fsT5go7vXTuFsUo6w+59ouOePAgZVgrN+MjCbmNWzUXPtsTUO7ab97aqOq3rA7eJGIz7l1/PGOKZ0udh34S2y5dGyTdXv9apqwUAHfqceGr3i8gU9TML44kKqk4OtpnwaKzydq123qNb/b09998Ez7Z+RQNz1L4JjCcsxRjezsDSWRY6U6y2VER6YxraRH1s5KHwhaVx9OZMwBVb9j8tcGF5K4NUGumpzRhNRg8T4TqjbA8wZPGtnb6xZERpfcUM5kR4emMi4rrRagS6vxBsW2derXMteXF6QAqP5VJlp0Ymw0QE/EmUaferrFDW1xZF6DpR3axLFs2IQOCKPk/NufCrG+X+ynISSb52qJhTxq0bOna1LXdwLnjxnZd4TXfl/9phqTNkJWbJ2pdWLfmj2dv86Ssad9V+4Z/2MFWCqO0rIAkSjohIAUlP+QSBr3XXl3avuKzOCveFUYYNP9h/bq+ObumL3l/4C3LysyH2iaGOac3jX8AAOLuxnqQnfn+sjZFpQT13N0sbQ02XOpfEg4lFMCCa//03T5qyrEEBoBJ8V3y/SNtAgBYOi9Vhd5HSRgaX2HVqbdCnlIaj1AZrUZei8eZ314690qKBuY3fG2+rHF+iDeJAIBl2fLlShu8CpnCSiQSDdQbbxK9gQr350SFx+i7+v48vNNfj31zsrIZQt/QgIRCBgCANDQyYLMzs8um1ADA5j86eWXSpiHfPEl/t165XP7hjzCsXE6/2xFpRljAtbCAa6f+PPjt2uMLxnY/FnSap1NhUpJSGF1LS10CslkmPzk6SivzXb8ocunUzkzHbOHFuwsAAEhKyHRub+7j8+5nZSbm4uZVeXovg4pY64ohae7eSCXkb3wvRw3r1dPp+M0OvRrEXVnzsvyviwo6PZ4WRRj04ekPAXj2Sx563y/zu1auur4Jrd30nx+rcGzBXxuKvmVN400iNtvvWuCs2Z5uYv9ET0/HhFurQ2nlpYAr9biD+KIzRd1SXElU0p+y0oz4iMhoJjJ8ueDX4yunhI3ZEFjwSR9FrLFZCudHKs1SKlEzK/m7GMUt6qKyy81Va9gEUW6n1JnO8VBvpqcsYbl8orlo1UZY7uBJABZouty5Z/ozjCzo60VFRxZKZZkG+qYiyhQgueprIAgCtHTFFIDiw0iWYRhCQFFc01rVMZlhYWnidi0bivxeKj5zKk0PfXQt9NG1U8efr/ed37GZlm9y2U/pCsPQdnZvytxfsOvKcykAgMjB0koAUSoFQznUryeEJ1IA0KnnWBsSLicyyq4yIo1aTdn4u2fylqm/XogttwfyiNch8j5NnU3JsFQGQNTQtaEg+VZI6Q17HKVkz/d4DzsuKN2YoefCHRNke7zX3Ego663keSmxSt/+UR5/GJ9ghVWmwgopfTNzPUFRVkp2sQqlWLVWqDZxs4mLvxf7zt14T/GBKqljZKYvlOZlZBepXEeK2zwdExIh79u8ufnBqIrHq8qTSKGPyBTF6ITYRHB1qiuCDAkAkGaOjsby+LgUhi1U8cpwAACQS2Ug0NfXIdjUsOA4YqhzQ/HJ5HwAIG2bNNIvDg2Opt9PjgFkb86ciT40uM/Lsn9i8nLyQKwrLt0cIdbVBTovV8HMk8l5m1wALvq6vLvFJAc8ipw8unN7M1/ftA++Q1HTTu2Ngv+csux6JgsAIGz247Y5nduZnTn7bpxn0p9d9AEoH/L/2TvvuJr+N4A/59xRXdpDQyrqUlZIlBlZEV8jQopkVJIte5ORjGyyNyEl29eoVPzMkvZUKm115zm/P25R3HPu7Xb5Guf98vKST8/nPOf5PM/z+ZxzPkMKZHEbwrSMZUSEv3YbP2Isy9rw3eWIenPPxCU9Eo8iz4fkt8iPfxT9ea11R2M9K92EG9ENerHzXStLQYNsKCGI8LKoO08XLrbv0T7b3iTj9uqanUFkDL2aOr9vL4mTWuvxq0WKjFKEQRRSf44fXvbw1NWpB2ePvzb5cLI0X3BkCSJxNGqUIraIOPdiJRmZZQrm7OZoZDoGgKiZtKo9CkfWqGwAXzwKKoiSOXkFOKeaCwqKCiKfpmnoaNZXisRQ4iCxhmz9V6MC9ieORcVWSKI8VpKVWcEyaq6BwkcMAFEyMNSU9FaCgoIYVIGuzfnMzMspz8qQMNe6BoVObn7TxvSz7mTBbtPBZuTsBc5mVXGRrwlfSGF52XlgatO7lZoSk8mgN2ZLKMHbCyeeqzqtXDPBlm2ga8juZOc0e+N0awYAANqsn4ePU+8OLfW1tVt0cujbhpadWvdRTawa3JysjwrmVu1UUAC6pvW06YO1pQ0nRGeIt2dftp6B+aBZ0/vg0WEPCzHAKj4kJ31HcmYRBwBR6+67a9sI7NrOU4kKxmw2m802a6mjhAAAXvLg4t2STm4Lx3Y2MWzdf5bPMNWES6EJAiCV4hRnZ2ZmZGRmZGRmZOYUc3C8+lN2Zn65xD6TpmJgymazjbUUEJqqgRmbzTbSVCBX47epkGbiHHj16tkF3ersiEMiJVuFJBqSFCFNu3ouc1aJPnOnTM+MXYupvvLXbQDUh6y7GnZ54xApN7cg8Xm8+P7pkLyOXht8HDoa6eoYsG1GzfzHnA7kQURMIyJFPMK0m2HxykNm+Q5sY6BnbD1hgVuH4tvXYz4DaRABACBIUx0jYyNjE7MOPccscOsKabHPCjAQpoRfeUGz81w4sgu7pUW/GQucTfJvXI4s/+YhKe/m+Wi9nt21a7YUEKbHxBboDJ421a5tS2O29chZEzrxXjx9wwEAmoX7Vv+54wfadmS3bGluM2r+XAeN3JjYbPKxEZZ+cc+VIqvZW+eP6N7GxKR19/5dmokamNm+by/1rKj7r9NFMZuR8uDBC0H7vj2l2HIKUdBo8dVn2GxjrTrTwhrqNjWGIErL2Me71+NU/vEcpf3ixu3622+LTXokHiWpKcnui/f2cTTWedB4m5aJjyPrv3kitYbo5uq3smQaaENJQVQRfScK7zFtkUOL5Dt3vpweJFvo1d7S9+31e0eKTFINCCJh6tXzL5uP8xioJU2TyhREYpFxlEJcRJJ7eS+vhWW3cp47pZuRjp7FiNnOHRBcohoSo5LESgQeRZjMSRGmJ7znt+7T30gBEKWWw537fT0OVtJwTiwk1pCt/5IxYH/2WFR8hSTK816EhedajHLppkEDVKWjy7juEmcZU1AQQ0cQJiZgMBlKCgwUoFCyhLCsiGswdFKfSVoqLITzKSvh1vZdx+8SH3uK5YcFHey02C04Yp4ijR8t2oy4/lHslkcjXQEESYdcXI9kkF0by7m6ZGb1NK+Jiw96adA5xbnJLx9fzBOtK+F9hhYTvP1n6GqwsNKMF7fWLjv2vs7bNbFqCBOCV+3WXrTqcjj+uaIk9UHIhRdtRkhhNQDgx166peK645ypSlVm5BE//4hvvz18C82kl50pSwV19Q92rdWpKMTX0T+OD3h51PZ5m30XTNl82odenhFzcvG2sxlCSVIygqj09TtWu0m0ycITfUGYGjzJ5WCSkFiN37tCEim5a0hchBjb2BoydYyWHupfpybe4zVD54XXnK/QpAkLxcrzP1ZJ9+2F1OerXuyaNa/Ic+rULcdXNOEXZ7y6dSgKAyANImJkixTiME/BsKzzKxYozp3ls+eiJu1z7ps7G+bvjpLq8BNWr4Vne+E4Jqgu+ZAYe3TBvlNJQgDAci6vmq80x3fK5mOa9MqclzfWzN8T993bLbziycWIDwMmGNT8zHkWNH8V38d9YdAUdVpVfuLjfQt3hn7EAADPf/W/4okDPAZO1VFnQWV+cty5ZUHH3koay+DlMTtm+uZ5eoxfu3+BMlKRG/9k1+rjrwSMjn17an96FFfHuyr/F/MGmWvXQ+NfSd8/UH3H9Sccv/yIfTg7bczOVzVvOxrqNqIqxOXDmjsofRj2ZE6vni8jHn6T1gmSnkweJfG+uK8fxTXZ5tAuIWjjN581xEvV/Y1vW1kiDbWhpFuuirv5mDPYUev1jvt1VufJbiiy9iLml44UWaQY7YiD6MqNb01WcPf8nelbPVw63t/xUtIjkkxBJB7ZRinERWS5lx9/xG81y89708mpwg/RZ6/ezPc0xYSS1JAdIo+SKZnjpff2bu262ic4bFJxTvzdG3eSbXrUFkkYzomH2BoyjvRks+HPHosSJAcS5XmvD/ptUFq8+EwYk1uWFfXkca6pvqSLUFAQgbiOs1dRUVdUaFpWVv7svQyTWr+lY4f2jx89bHw9vzCM3mtubmJtGbDwlhR70FNQSAeiNnz7lUVND02ccSaT2mibQkrk7zZos1E7Lk4rXD563aOvCe6PTnpU6P3l/BkOoNBjVei6JgHDF92WepOLPxjKGhQUPwVUR0dXU0NbIMDoDMX/WhkKir8YpY5dLYpDD1z5jccxFD8fuboNg6WmYzbIe5Jl4Y0rT//A50UCqND7y/ltHQDVt/lnUCcjdSWFpvrWri59hI9vxkqxF+8fCmUNCoqfD53VVBXDkCoOh8OR34kdFBQUDaXq4YpBf/ZnfIofgDzdRqn/mtC1tpzMyP2rjsY37lDT3woq9P5yfl8HoGt1dp7stURbhc75mPBw/8JdDyRPdv5zoaxBQfHTQZYv8c7MzBYIhAig7zKKG1/jXzCplYKC4m+FZuboPYxNF1OCFUSdPBNT9Lt90KCg+CFQkUJBQUHxp0Nv284iKTkFw3Bl5ab/tTIUFBQUvzbC5Ou7Av9rJSgofnmoSKGgoKD400EVFBQRBOHz+Xw+NamVgoKCgoKCgoKCgoKCQgL0ys/VNBqDyy3HcWqKCQUFBQUFBQUFBQUFBYUE0Kys7MrPn3EAGl2qY5DlfHl958OPL8xuK/Ux0RQUFBQUFBRyh2bufT7yWezTZ7FR4Qs6i1vV+AvzHypPM/c+//C4qxH6Q2pn9Fx5OzLAQfmHVN5wmMaOy4+E//skNibqzrLu/8Go8b9CXCtTI1gKCnpMbGxlZWWTJk1QWkMjAdHss3jfkt4qsQFjVt4jPJqHYeV3NaDFkVHeIZ++3zMLr0qPiniY9RN20yJV42eAKJsPdXMd3rNjSz11ZnV+YvSVQ3tOxX3ZZUDJbLjPQjf7ts3oZekxIUEBwaINCCRIiUC1B6w9vs5eLXLtoPk3KiQpgur19fT6x9rC3MxA+fP1eQ4bntaZzUyghpwrZPRbf3vzQCXk25qESYfcJh1KweWtIamUnG+ZsAhRGx4YutKWWa8iLPf09HGBrwWS74CI/9yxa1DqvSrEf4Bi4gFXj5PZdQ1I1+k6Yab7cNs2+k2F5bnvo04HbgrN7EXmABnt5148OF6vTm/Ne7xm6LzwChwAUPXOE+fMHmPL1qRX5Ly8eWTHnjuZPABg9vO/v7E//8k6p4WhRTgA3XLuxb3WEZNdDiY18sjtn0ZDmxI1dj92yqsNHQDHhfyKwvSXt0/sPHQvkwsADGu/K0GjtOqOePgvto/0vGKxliz0iE31tUIc41eX5iU+vX54z+nYQgwAbT7xwEXPguX9lt0Tv7trg3wjhU+o/IV8hQFb7qzrx8AxPqesMONt1I2TR0P+V/S7NPB/AL2D76Wg5gcdFt742kMTN6Xw3Z5xPfYgGqN2XZn6HyotG7+18j+IH9A7NOk1bZ4955jnP1dyOEJetcSlULKON2Tr6H82hCNYWS0vLmApKH5p6NUcroqqGoIgCNqwV2k0/cELJmnkZAssGnF5vDQmeGNMIyr4fUC0u/Q2rXh6bntwej5HvbOzz8zt2xU93A++FwAgKj3mBvp1T9q9dFJkZauxS1ZsXl892et0BkYqVQOt+YjlHprZGQI1KTVRZNGL30YER6ZN9u1ZX0VCNeRcoSB2j8fEEzQAoHeavs/X8MbyVVdyMACc+ylLCIDKWUMSKbnfMnERXv7vVvfEJrVRhmjYzd8wWT0qMv2PGAQrde5rXRx66ePAPr0MTp/58qyAqPdeemB9709Xg1btfFPMaMbuNthQhwappA4gfH9qrks4k9HFc79Ps2tL1oTmCSvzPuMAAKjByDUBM5o93r5k46vq5oNmLV0dwChx3fJMdMQhjit2dXI0CT+a9kfYVCqqHm+duvsZH1XQMB3otWh1AOQ5ByWIsgP24fpKv4tptW2BVxUUYRJCjxws5+qSBWdTcQV1UzuPuZ4BzTHX6afTJQ7uGuYbKXxC5UX/FCQcm7vmzmdNk85DXKcHHWL7uW98VEJt698wZGxKir8dVFNfl1n4PC6pqFzKJCtLby5rv/zT+YtGsBQUBNAZTEWUxsAxDIeGfI1kmIydP/LzSf+owYFEj5GI+vBd15faiL6++IXH+QEAL2r9cN/QUhyAZjbt9ImppjQAYdYJj/G74mtyEr2D76XdHdNim3a2ZiWeORzTetIUK8XE435zjrypAgBEyXTIzNmT+lsaqkBZxtOr+7YFRxeIRFGNrq7zfEZ1M9VkckvzkuPObll3LUVIrgai0nHcHA8HK7ahVhOsNOvl3eNBe2+lcySowei95qa/TnhwcXtHS92mUBh7LsD/1Ksy8pEMlnZq0ZwvP8WnsSzDl/aybX74fQaGqPcdM0D9ZZD/+WcFGKTt2t2pd+CY4Rbnd70VkEiJ/otp6rLSufLwikfDD7eXrumw9Bs7AwFQY/dx9TUmUUPeFVbmpSblAQAwdcqFOLcoMykpFWtMhV80pDdR12DROGVF5TwppGSrkERDsiKsPDelvObfaDOHjaPa5J703htbIeMImMSxQWv4zkvelevGLLsnqh1R6b/uygrlPU5zQwppZN5LEl+kKHbua8ONW3Yhq8WIQb30zp3JFbUmo53LLAfWw+XugXdLcABITX4TJRIgdYDqwoykQmDqleO4alFmctKX0QOt1bDRnbEHy7eEPKsESNq/taXtCZcxPfY/v1MOACB4+zhOd8ToLme3xnJkM2p9CKyB6jsfOOecPG/slmcin0B1xwZdcs2cP3pzDJfEhgybZaEBele3pbZ1tjfXY1UmXA1YsftJASYhVZKC45UFmRmZPICM9PxrQ8YuMW+jhiQU4QAAOLc4Kznpm4+x5KEn4WL8srzMzAwhZKSnbNDsdNmnt43u2fQPEqQa7BtAqHxNSUlOekpeakpC3ItStQt+3mMvRh6Q8ZOz3Lsb0iLC7gYAgNl8wCw/L4f2Onh+zIVrnwbOYF93nXIiEyNXQ1YImpLEEwiVR8iyDUaqPKI5alfo1NwNGwv6zhzZ3UQVK3l3ws8rOJ7k3mTqfMktD4BqdR7v6TGqh7leE0Fx+subh7ftffRRguWZRoNmL/Ic0l4b+xBzMaxYqpfwEtQgk2QaDvE76Dq4jRonK+p8oP/x58WitiLQUPaUgmpYuczxGW1rpkWrzHl1K3jnnhoNGTbLQneOUEcBANqeiHYFwEquffN1UQyy9OayDkWApClJnE2mViYawUqwPEneoKD4PUG1NLVUVVQRBIUGjGaV2k2aNyT/aNDjYhIhvCTUp2d3qx6zLhVyY/2HdrXubmXde3ZtFhMmH3K26W79z46X3ycGumrJzcVehzMspkxr/WDh5K2vjMaN7KIAAKjB8A17fc0zTi53Gztu8upwGLZ+q6upaBUEy9Z7w9QWb3d4jx7h5DZ/+/U0LipZDURRS7065uS6OZNHO7kvv1TZc0Xg3G5KktQAAGB0sjN7unLsUAfHOREqk/yXD9ZCAVEZui0q9umzb/5Ei5k6jyiyWAi/sKAUBwC6aTtzes6rN59EHQMv4eU7oa6FueZ3PVM9KQAApY7TVo7I3Rtwr0gOb+OlVuMXrpBmMmHX9bALi2wYUknJVmGjQQ2GL5vTNefIusNvqmWuhMSx8U8Prj3BewztrS6avIio9RrSHYkOu1f7QUec9wJxfEl0bMXOfbvD86fx+bHRaWy73ro19qOZ9LDVr469Fymnj0VI09YWLfDUt4mij4+AZce/q1BsbWFSE1545dNLYVX9x9qpfzdpUwYIsw2W/+D2W9W+9pY1yQDV7WdvUfzv7RdcMikR9E6DuiQHuA0bNHTefWWnxR5dFYCsKaVPKTQVs4F2bSAnPvGnHLiNc7hcHGEwJC9B+4G+gX+KfhyPtbDqotuYRWly7W5Ii0i6G0bbqZvXDMLDV0xxct8QZTzSweBLfTJHJQAAzivNzy36TPaiQMqmJFSeNNtICAcAQJT7zHBRvbvGdYDdoLHLzidI8VqNIH3JojwAAKuTT1DgVJOUo35TRju5Lwp+o6SvTZoPAYDZYcbmVQOEocvcnKZujm01aqihNG/hSdUghW41ZnD1mXkTxnsEvDRw27TasRm5huSjL2LQFk7rA9yN4vf4OI1xXxEm6L9y+7xuTREAAH70hiHW1rajgxK46cddbbpbWdsOkPQMSXpLjemXCSBsyhrEOZuMrUw0giW3PEneqBGXHLAUFL8WdEAQNXW1svJyXNrnSETFauqCXil7fZ+W4qo/RClBSlx0+vsWb/N58PxpRgb9dTazl54qCsVtx7pZ5Rwfv+NGLgYAHy4GnrW7NHIA+0RKghBtqqvblJP5PC45rwKHooKsRGmuhBXc27e19oe8qwdDhp4Z2dWEFpNApkYBAIAwM+zojWwuACRfPvlgYoBjH61bl4sebXdzOfjtEBbnFmfXf92EqPecPr5dTojPg1IcABjqGk2htLhMa9D6I/MNQud4vSypBCMNdQQ+kkgBomrjs6Jf4nb3R8W4egNNLA4p1fjtKiSRkruG0kA3GrfMu+37vVNOJYtfStZ48IrI6w8+b3Gw1424kIehOnZDrTgPlj758s5erPcWoITxlUju2Aod7WyZLwLecDFOzNPc6X17Njt/IQ8DoOnoN4OiR/nyuk1EVV0NxYvKyms7WaystBxR01D70hULkq5cTj7tNMzo1tnGXoxOkm0KHtx65TPdvsuO2CgOoPp29uZF94Pe8iRIAQAIM28ci8isxqH69c2HWWN6WeijMSRzCfFKCSkFYQ3a9G9/DFA6A+Vk3t4y/3DCl1ENzcTtRLRb7U9Y9qkZTrveNGIZ7lfTqLS08xzXifbhwv/yMADSwZ2sviGV8nh5UREXtdTRQiFX5oGXnLsbkiLC7kbItBzhaJh6bnlwdDoGcDnwtF3vBTXnOBN7lISoBAAAYeLxmeNJbv6bpiSBWHmSbCMpHAAAGMU3d+y+nSIAgILX9wtIlai5KbHpi0x9YuUB0eg3cbTe693jdoTlYwCQl38iocY2xMrTOjs6GKSdW3rsaToGcCHgdJ8ec1mSFSdRQwJ4QcSeff8m8QA+7Nlv03+zYz/962dziDO25BrFgpoMGt6uMmL+ztvvuAC5p7feDMnIAAAgAElEQVSd6HnB859uO2PufZapPjLk3y8TN+XXi37nbPT28m5lEiQPUyUFLAXFLwe9pLSEw+WUlJbQpNtiB9HoOdu3w4sd82LKcZDHO38xYFyuAHA+T4DzuDwcBx4PmEwmoOrs1s2YHeZcjv06zRPw8lwNGoAQK3oSen/i0jXnjg6Pe/3u/dvIuw/eFEp+U4aqtx85ZeIQKzM9VUU6DVVoyqhKYqEAOLEaNTrmZn+oydSC3Ox8xMaoOQoFlfmpqch3/Xr9s1QQ5Q5T/Vd2T9nmvf9FVZ3fAuB//lSQzyjliHue/04K1eq3yK9L3EaPyDKxDYEajN93wbc9AwCw0mvzRkj53pBYDblXKCOkFQqTD03qdqhhUrJVKCsMs4nLZho/3zzliuS1aI2A8zzsZsHeoQMNLx3PNrAf3OHTnQPPvn75FOu9RcTxhZE6toJl3x5N3ux9UQWApz2NKXLp20vn0oX8/+SFKvbx1sUn7rPHWIbca1xFpNkG//To9jNfb/suSlGRXMN+/Vvn3d8Wz5ckBQCAF9au8cO51RxQZH2/2039+yGxPAoAUB0ZWLM20qSHy+y5W7w+euyME33Rqb+8EOeXZDfyGZJmPOlY5CQABEGEZUl3t64OfispB8jsG1IqjwM0thuSc3dD1hMRdjfqxkYq3NSknBrXKE1LKcIsa0RkjEpyZGhKIuWFxNlGYjgAAHxOfJPeMMcU3/mS3jWx8jTj1qb0rGvPv5MnUR5VNzRS5qSm1KzzxYpTkouwjlJoTmJDcoRZqek1DcRNT8kGW+PmNPigJoV5GwTd0NgAMi6l1bzcwYqSk0sYlka6KEg9871hyNovi4WwKb/ynbP9iFYmRsZhKgXFrwydz+fzeDyhUIjjuIT3ygAAQDO2tNTWV1l72gEAABAanQa+l68NOuS5+NIH+c6mwnEc8JoqEUT0F14WOnfY2kgxgYfl31o+7nnrLl0s21v2GLV4yuT+69yWhJGPV1ADpw07ZiiEbt28/+WHCh6u6bjxsPO3/fJ3atTI0lBENIoBlCayG6LisOXmqp719+KsP3UeUek0bdtWx7J9s1dezay9C35JcSU011Atuxjo/gQAWAPVm0Jp8dfZXuKkaK26WjUzVAkIHyFSh86gwdJb/zoGuXifycEAsI9hKydEKyIAgAsrCqTopyWoIfcKG45sFZJIyV1DSSiYu62Yon1/1eKIjz/4KUvwLuxG2rghg9ln7/Ya0jorYvObut99xHgvSXwhKkNJHJvWsW8PLSWtZdcfLgUAQOkMzK6n9qVLHzFhQV4B9NJvxoRE2Sfv1gEvKynFEGVVFRSqMAAAVFVNBS8tLq3zSQyvjD4f4Rno1Od5UeMuRppt8NLIW7Fz59tbsZ7m2tub5tzzfy+ULAUAOI7XdS5JT0CkKeUd1FsbmZacoWwZNs+577Fn10sByJYXygj2IWzlonMpAiGntCC/pFoKD2bK7BtSKY8oa2spYEUF8tjDUW7dDWGRVN3N9/coW1RKaPUGNyW58kTZRlI4AADO5XIbmm/Fpi+Zla+t6luIlUcBcBAK63z0FUoTZbI5gHhwnFTD34Af0S8TNWUtYpxN7q1MiizDVAqKXxs6jgv5fD6KSoq/WgTxJ309rtJqVkEo95nrP0lwcvbOhx8KCMRxDMMQGp0u7QWIwYqTkgpZPbq0YUa+ET8Vilf0PvrW++hbF86+2ha2pHcHhbD82iGKWDUU23Vtjz1eui/iFQ8AgGnSTJcGaVIpQzcxa8WA5zwAUGpl2hxybuRikmagoWrW3ts32efvnLU6NLPOHQhS4hMFQ9u300STCjAAZhvLNrT8e4k1CwMIpPivDnqMO1vTEKBqv2zPVP5Bj813cmpTkqDiY6bE0z/qQq7GD6iwwUhRIV1ZS7sprbrkYylHCilcpgplhtVhxooJrLDF2wl2lkSV1LSUGbyKT6XSDNFFEMYXlhER/tpt/IixLGvDd5cj6s2cFOe9JPFF6thMy7491RKOeK+5LVopzegwffciux5aISEFwvSop/lug/vbqD66L2kTDKnutTIpIQsZ264N63x+JQCghm3NlTnvE9KFdd+A8d+FhKSfGDP0zbfjywaZV0K2wcui7jxduNi+R/tse5OM26trdkmQnKPIbu/7ppQ4qbUeAh4faMrKSgiUNvTa0inIK8lJS2vANrjM9j/UNxBNm55t0ewLz+sOw2QJInE0qrsRW0Tc3WAlGZllCubs5mhkOgaAqJm0ql3uJ2NUSoK0Kfk8PigoKtSrWUJfKT7bNCociBGbvmRVXpiRmCJw7NRJ+3ha/Vd7JMpjJVmZFSyj5hoofMQAECUDQ00pngYbMd6gtWhlwoBiHgAoGJsaQtaDbKEU5m3o6EuYk5kLluyWTPjEBQBUy9RUXZCd9UPeeTauXxarPVFTkiD/VhZBYnmSvEFB8RuCCgQCHMcZDLqiooLkXwcAbmluTnZWtujPhxIOjlUX5+YUVBB9ncLysvPA1KZ3KzUlJpNBb8xeCIK3F048V3VauWaCLdtA15Ddyc5p9sbp1gwAALRZPw8fp94dWupra7fo5NC3DS07te6jmlg1uDlZHxXMrdqpoAB0Tetp0wdrS5smEJ0h3p592XoG5oNmTe+DR4c9LMQAq/iQnPQdyZlFHABErbvvrm0jsGs7TyUqGLPZbDbbrKWOEgIAeMmDi3dLOrktHNvZxLB1/1k+w1QTLoUmCIBUilOcnZmZkZGZkZGZkZlTzMHx6k/ZmfnlEj8T0lQMTNlstrGWAkJTNTBjs9lGmgrkavw2FdJMnAOvXj27oFudHXFIpGSrkERDkiKkaVfPZc4q0WfulOmZsWsx1Vf+EhKI+pB1V8MubxzSkB1iiOML+3j3epzKP56jtF/cuF1/D0ax3ksSXySOzWzft5d6VtT91+kiV8xIefDghaB9356aKAD/zam9t7l2S7b6Du/auqVpe9uhHmtm2CpKuCVESduYzWab6asgiKKWkdlXKwlTwq+8oNl5LhzZhd3Sot+MBc4m+TcuR5Z/8wCdd/N8tF7P7tr1p+k30Lxk2QYAoCL6ThTeY9oihxbJd+582UtWkhQZ4pqSLKUAACBIUx0jYyNjE7MOPccscOsKabHPaud0IQoaLb56GpttrCVhBm2jUNavey2zFhrMRvkGsfKIgnpzY1MLq/4TVmyf070sYs/55DpPQzIFkVhk7G6Ii0i6G97La2HZrZznTulmpKNnMWK2cwcEl6iGJN+QFfzz+4RMVndHRws9LU0NFQVUgvIAQJRtGhMOxIhPXzIqjxffPx2S19Frg49DRyNdHQO2zaiZ/5jTyZXnvQgLz7UY5dJNgwaoSkeXcd2lCa3GjDe0B3vN7MPW029t7+XZD425fj+fNGPX0NDRlzDtZli88pBZvgPbGOgZW09Y4Nah+Pb1mEYtjJShN5dx5EDclCTIvZVFiLe8pGEqBcVvCB3HcRqNhqIok8kEkMf+C9+A5YcFHey02C04Yp4ijR8t2vi4/lHslkcjXQEESYdcXI9kkNaVc3XJzOppXhMXH/TSoHOKc5NfPr6YJ1pzxPsMLSZ4+8/Q1WBhpRkvbq1ddux9ndGFWDWECcGrdmsvWnU5HP9cUZL6IOTCizYjpLstfuylWyquO86ZqlRlRh7x848olPD6i2bSy86UpYK6+ge71upUFOLr6B/HB7w8avu8zb4Lpmw+7UMvz4g5uXjb2QyhJCkZQVT6+h2r3ZDaZOGJviBMDZ7kcjBJSKzG710hiZTcNSQuQoxtbA2ZOkZLD/WvUxPv8Zqh88JrNspv0oSFYuX5H6sa8HVGrGPX3Hfpw7Anc3r1fBnx8JsjkAm8lyS+iGC069tT+9OjuDpGq/xfzBtkrl0PjStXi7Ci++tmVk2aMXny+hG6TbDy3HeRpx9IyjK01i6BB8friXpe563Hnb9aCcu5vGq+0hzfKZuPadIrc17eWDN/T1zVtxXgFU8uRnwYMMGg3v821LySrFEVd/MxZ7Cj1usd93MwqaXILkjclMSwei082wvHMUF1yYfE2KML9p36MhEU1Xdcf8Lxa/Ufzk4bs/PVD8jxAABMa9+jJ77+KEjaN2nai0b4hnjlAQDoFlN2nZvEqSjMehN5cNbRkP/V+7QvUxCJR7buhriIrLvhxx/xW83y8950cqrwQ/TZqzfzPU0xoSQ1fhBYyln/INNlXgcvL2EK4vxHeod8ktxXis82P0R50s634cpXvdg1a16R59SpW46vaMIvznh161CUpHzIe33Qb4PS4sVnwpjcsqyoJ49zTfUl6t2I8Ybg+eVbTSftOMtW4WRFHV/iH/5Rqozd4JSCZZ1fsUBx7iyfPRc1aZ9z39zZMH93lKxnUgGAjL25jP0ycVOS3bIsrUw8gk2p+RAv1vKShqkUFL8hiJ29DYqiKEqn0+n5BXI4ba1jh/aPHz1sfD2/MIzea25uYm0ZsPDWdwNYCgpZQdSGb7+yqOmhiTPOZMpnEhHabNSOi9MKl49e9+irp/6t3it/81L8evwZrazQY1XouiYBwxfdrvyvVZEesdlG7vyt6YuCgoLilwTFcQTDAMdxOSwfpqCgkBmljl0tikMPXJHL8JfBUtMxG+Q9ybLwxpWn1IAL5Gxeil+U37aVUX2bfwZ1MlJXUmiqb+3q0kf4+Gas/A9Z+EFQ2YaCgoLi74QOoh3Cf7dOl4LiT6Pq4YpB8vqMr9R/TehaW05m5P5VR+OptRcA8jUvxa/K79vKdK3OzpO9lmir0DkfEx7uX7jrgeQZzb8IVLahoKCg+EtBevXtRqPREISGIEhJmRw+SP4Fk1opKCgo/ixoZo7ew9ji9qPACqJOnomRx6EaFBQUFBQUFH8OdBwHHEcAcETG84soKCgoKH5zhMnXdwX+10pQUFBQUFBQ/DbQaTQ6iqLUMyQFBQUFBQUFBQUFBQWFNNCZTCaCIDQaTSgUAlC77FBQUFBQUFBQUFBQUFCQgdLpdAUFBRaLpaqq8h9cXt/58OMLs9vSJP8qBQUFBQUFBcWfCtPYcfmR8H+fxMZE3VnWnSFdkWzjqP969MXoufJ2ZICD8n90+Rpo5t7nI5/FPn0WGxW+oLO4teE/9NIPj7saoT/zohQU8oaOIIAgCI2GSj2tlWY2OWjvBKMvuQcrCJ0/eT/hqdYMK7+rAS2OjPIO+fT9xnN4VXpUxMOsn7AlHakaPwNE2Xyom+vwnh1b6qkzq/MTo68c2nMq7su+FUpmw30Wutm3bUYvS48JCQoIFm1pIUFKBKo9YO3xdfZqkWsHzb9RIUkRVK+vp9c/1hbmZgbKn6/Pc9jwlP+1kEANOVfI6Lf+9uaBSt95nDDpkNukQym4vDUklZLzLRMW1T+wuAYs9/T0cYGvG3Ek/H/u2AAAQNfpOmGm+3DbNvpNheW576NOB24KTeEDAKreeeKc2WNs2Zr0ipyXN4/s2HMnkwcAzH7+9zf25z9Z57QwtAgHoFvOvbjXOmKyy8Ek5oAtd9b1Y+AYn1NWmPE26sbJoyH/KxJNlKBbzr14cLxenX6X93jN0HnhHDsyj8poL16qApdNw99l0oYMvqFkMsjDa9JAy5bq9OqSvNQ3j8/sPvBvHgYM25U3Nre5MGXSoRQhAIDCgE131moEjfS8kI8Bs9+GB5v6K9SxPl4ZMX/wmkc8kiKipqw565zAo0ikGNZ+V4JGadUdk/FfbB/peSGfTtSUR5uvIUtEhO2MGrsfO+XVhg6A40J+RWH6y9sndh66l8kFIFTjisVama5FYg2lAVvurFQPGjvjXB4GAMCwWRYa2CHUfcK+BCGxNTCpK0TVrGft2DKs+sS8hUffVv4u+8b+TOgdfC8FNT/osPBG3QM+iYJICpr0mjbPnnPM858rORwhr5ovXZFs4yg5j75+Zk8kx2sJ3+0Z12MPojFq15WpctHt5/NzxwDifZ7iL0b08gXn8bhYQw79EKZfXbX1bgEOAIALynJlHVfhpTHBG2NkFP69QLS79DateHpue3B6Pke9s7PPzO3bFT3cD74XACAqPeYG+nVP2r10UmRlq7FLVmxeXz3Z63QGRipVA635iOUemtkZAjUpNVFk0YvfRgRHpk327VlfRUI15FyhIHaPx8QTNACgd5q+z9fwxvJVV3IwAJz7KUsIgMpZQxIpud8ycRFe/u9W98QmteM6RMNu/obJ6lGR6b/LQwkhiHrvpQfW9/50NWjVzjfFjGbsboMNdWiQwgfUYOSagBnNHm9fsvFVdfNBs5auDmCUuG55JjpaDscVuzo5moQfTfvOBIKEY3PX3PmsadJ5iOv0oENsP/eNj0pwAOH7U3NdwpmMLp77fZpdW7ImNE9YmfcZB5zUo4ikAGTX8E8EUe2zaNeqzu+P7Ji/Oq2KpWPcrmc3fXUUpBkBC1POLF4X9rF2GCMsy+WTF5E0ColHkUkBAPbh+kq/i2m1+uJVBbXvhMQ2pYRERE7V461Tdz/jowoapgO9Fq0OgDznoAQBoRqyX4vYGhIgsoZUFaIaNr47/AeVHfFdfPJdFfUMKS2NCSJANfV1mYXP45KKyr/1CZIiGcdRf9Hoi4KC4odBB8BRFAGABu2yg3OLs9LSckgTI6I+fNf1pTairy9+4XF+AMCLWj/cN7QUB6CZTTt9YqopDUCYdcJj/K74mtRI7+B7aXfHtNimna1ZiWcOx7SeNMVKMfG435wjb6oAAFEyHTJz9qT+loYqUJbx9Oq+bcHRBSJRVKOr6zyfUd1MNZnc0rzkuLNb1l1LEZKrgah0HDfHw8GKbajVBCvNenn3eNDeW+kcCWoweq+56a8THlzc3tFStykUxp4L8D/1qoy8p8XSTi2a8+Wn+DSWZfjSXrbND7/PwBD1vmMGqL8M8j//rACDtF27O/UOHDPc4vyutwISKdF/MU1dVjpXHl7xaPjh9tK1HZZ+Y2cgAGrsPq6+xiRqyLvCyrzUpDwAAKZOuRDnFmUmJaVijanwi4b0JuoaLBqnrKicJ4WUbBWSaEhWhJXnppTX/Btt5rBxVJvck957YytkHKGRODZoDd95ybty3Zhl90S1Iyr9111ZobzHaW5IIY3Me0niixBGO5dZDqyHy90D75bgAJCa/CZKVEJrNWx0Z+zB8i0hzyoBkvZvbWl7wmVMj/3P75QDAAjePo7THTG6y9mtsZxv6sS5JTnpKXmpKQlxL0rVLvh5j70YeSBJCHh1YUZSITD1ynFctSgzOak2Dsg9ikiqERrKBIF5UX3nA+eck+eN3fJM5GSo7tigS66Z80dvjuGSNArDZllogN7Vbaltne3N9ViVCVcDVux+UoBJyL2EMNrZ9VJ9c2DL0XsFGACkp7yOuSvtreGcwvTkJLFdgvgiwqYk8ygyKQBRx5ScJO5zsdimxMndhvyG8cqCzIxMHkBGev61IWOXmLdRQxKKcEI1ZL0WiTUkqSjeGlJUiGraztuxqf+nA7OXnEmqlu5qYpB7b05aRNibAwAwmw+Y5efl0F4Hz4+5cO3TwBns665TTmRi5GrIAFkQMWyWhW7T3jt07vVSHABt4Xr45IjnnmP3JAiBYbMsdOcIdRQAoO2JaFcArOSaaDILSRHhOEoEqtV5vKfHqB7mek0Exekvbx7etvfRR4xc6qdlG9HVmIZD/A66Dm6jxsmKOh/of/x5MUamhqzXkmnMRu5RxOYl8yim0aDZizyHtNfGPsRcDCv+bj6r2PEGoX4SrIFojtoVOjV3w8aCvjNHdjdRxUrenfDzCo5Hif1Q3uFA8ReAAgCO40KhEMMa4Ck049GBF0Iirp4K9vd2bN1U7AMoXhLq07O7VY9Zlwq5sf5Du1p3t7LuPbs22oXJh5xtulv/s+Pl988odNWSm4u9DmdYTJnW+sHCyVtfGY0b2UUBAFCD4Rv2+ppnnFzuNnbc5NXhMGz9VldT0RdVlq33hqkt3u7wHj3CyW3+9utpXFSyGoiilnp1zMl1cyaPdnJffqmy54rAud2UJKkBAMDoZGf2dOXYoQ6OcyJUJvkvH6yFAqIydFtU7NNn3/yJFrP8AFFksRB+YUEpDgB003bm9JxXbz6JEigv4eU7oa6FueZ3KaaeFACAUsdpK0fk7g24VySHt8VSq/ELV0gzmbDretiFRTYMqaRkq7DRoAbDl83pmnNk3eE3sg/RSBwb//Tg2hO8x9De6qLIRNR6DemORIfdq/00I857gTi+SB2bZtLDVr869l5kybc+iDRtbdECT32bKPq0B1h2/LsKxdYWJjXRgFc+vRRW1X+snTrJGyz8U/TjeKyFVRfdH7CCRC4aSg1h+sLyH9x+q9rX3rImu6C6/ewtiv+9/YJLJiWC3mlQl+QAt2GDhs67r+y02KOrApD5BmlTYuWl5YihpZW+gvgb+EkQe1QjkG9T1oWmYjbQrg3kxCf+kMUZcreGxApRrV4Ldvnbfdzj49eYZ8ga5NqbkxaR9OaMtlM3rxmEh6+Y4uS+Icp4pIPBl/pkSnq14LzS/Nyiz3XfBsgYRPzoDUOsrW1HByVw04+72nS3srYdULMggqSIdBzF6uQTFDjVJOWo35TRTu6Lgt8o6WujEqTkm20kQ7caM7j6zLwJ4z0CXhq4bVrt2Iy0J2rUtQh6PRJIx4eE5iWxIbPDjM2rBghDl7k5Td0c22rUUMNvRoYNG29IYw1Euc8MF9W7a1wH2A0au+x8goTX1hIcAMT6PMXfDR3DcIFAiOM4gJS9FFaeeOvAjuyknDKhmlm/8W6+mwxos5dfJf802SAEKXHR6e9bvM3nwfOnGRn019nMXnqqKBS3HetmlXN8/I4buRgAfLgYeNbu0sgB7BMpCUK0qa5uU07m87jkvAocigqyEqW6l4J7+7bW/pB39WDI0DMju5rQYhLI1CgAABBmhh29kc0FgOTLJx9MDHDso3XrctGj7W4uB78dpuDc4uz6j+iIes/p49vlhPg8KMUBgKGu0RRKi8u0Bq0/Mt8gdI7Xy5JKMNJQR+AjiRQgqjY+K/olbnd/VIyrN9DE4pBSjd+uQhIpuWsoDXSjccu8277fO+VUshQvHGUCr4i8/uDzFgd73YgLeRiqYzfUivNg6ZMvL1/Fem8BShhfiSSOTdPRbwZFj/K/vxdEVV0NxYvKymtTA1ZWWo6oaah96b0FSVcuJ592GmZ06yzxvZQXFXFRSx0tFHLl3XXJR0MpoZOkr4IHt175TLfvsiM2igOovp29edH9oLc8CVIAAMLMG8ciMqtxqH5982HWmF4W+mhMOrGd8EqSphTEn9x6rt3KJZduTE18/fr1i5j7t+6//Cidk9Lb+YZE+db8IEwLdh+//71QYpFYiD1KIjQTtxPRbrU/YdmnZjjtelMzVJZjUwIAIKxBm/7tjwFKZ6CczNtb5h9O+DImJ1OjoUiwBqPTvCux877+LEyvIypWDQkV0lpO3LRJS1Pw6ubzLHl8gpdzb05SRNibC5mWIxwNU88tD45OxwAuB562672gqej3iOOLLOnVIkw8PnP8N/fbiCCSJ4hGv4mj9V7vHrcjLB8DgLz8EwkSheScbSSDF0Ts2fdvEg/gw579Nv03O/bTv342h7gnSmjEZzHxvR6Z9sQeRWJeEhvSOjs6GKSdW3rsaToGcCHgdJ8ec1my35B0MIpv7th9O0UAAAWv7xcAABBvqiTJAUCsz1P83dBxHGofI6UE//j06uWaf6e8e1+lGTx/xICW149K2CSgAWBcrgBwPk+A87g8HAceD5hMJqDq7NbNmB3mXI79Os0T8PJcDRqAECt6Enp/4tI1544Oj3v97v3byLsP3hRKXDwCqHr7kVMmDrEy01NVpNNQhaaMqiQWKnqkJlCjRsfc7A81NyzIzc5HbIyao1BQmZ+a+t3kYBzH66YqRLnDVP+V3VO2ee9/UVXntwD4nz8V5DNKOeLa4jspVKvfIr8ucRs9IstwEPOCHTUYv++Cb3sGAGCl1+aNqLdPDTHEasi9QhkhrVCYfGhSt0MNk5KtQllhmE1cNtP4+eYpVySvvmoEnOdhNwv2Dh1oeOl4toH94A6f7hx49vXDgljvLSKOL4zEsZnQCLCPty4+cZ89xjLkHvEv4QDiPPznIJWG0kCavvBPj24/8/W276IUFck17Ne/dd79bfF8SVIAAHhh7fI/nFvNAUXW95u41L8fshyFfYre4zHiHLuTlWWHdl36zdrr7nJpsXdgjKTJX/DNAsj66/1IiuRN/dWAOL8ku87Dm9yaUkR1ZGDN2kiTHi6z527x+uixM070rp9UDfkiSDy5aP0tkQvQO3rsnG/0tUwmNZAmglebF70fsmrqGvf/Tdsf39jPkXLuzck6esLeXN3YSIWbWjuvGi9NSynCLGtEZEp6pDcsexDJE5pxa1N61rXnpM9J3yD3bCMRYVZqek3rcdNTssHWuDkNPqhJUEM2xI/ZSM1D5FFCYvOS2BBVNzRS5qSmZItksOKU5CKsYz1puY83AD4nvkmXNv1IdAAKiu+hYxiG43iDFkbWBa9IT/0IVtqaKMjvMbK2bhyH2sdbRLR8E/Cy0LnD1kaKeYDB8m8tH/e8dZculu0te4xaPGVy/3VuS0QvighBDZw27JihELp18/6XHyp4uKbjxsPO35riOzVqZGkoUvMFF6WJPl4gKg5bbq7q+e24uu7yA0Sl07RtWx3L9s1eeTWz9i74JcWV0FxDtexioPsTAGANVG8KpcVf5xyJk6K16mrVzFAlIHyESB06gwZLb/3rGOTifSYHA8A+hq2cEK2IAAAurCiQIo9IUEPuFTYc2SokkZK7hpJQMHdbMUX7/qrFER9/8KQQwbuwG2njhgxmn73ba0jrrIjNb+q+EBfjvSTxhagMJXbsxIK8Auil34wJid+MOPGyklIMUVZVQaEKAwBAVdVU8NLiUkw0mx4AAK+MPh/hGejU53kRwY0gytpaClhRgTQb8jYU+WgoJaTpC/rVRx8AACAASURBVC+NvBU7d769Fetprr29ac49/5oPdqRSAIDXfwUoKY9LkaN4n5JibiXF3Lpw5PiwLWeXTh54Ju5iPggEgm8rxwUC4ZdrN3htJDFCQo+SCPHaSAA5NiVAvbWRackZypZh85z7Hnt2vVSyGg1DgjXw6sL0pKSanVo1y+qlZfFqSKhQ8PZc0LWHBc/2djk+Z6X3M4+AZ7Ku3q6vp7x6c8IiqXrz75At6cVLalqxQfRtBCAyj7ukojbDN0REvtlGBnBcCjVkRGyvR/b7pB5FZF5i5VEAHITCOi/YhD/+2QzncrmSloB+9cMfZHmKPxq6QCCg0WgIImNGQ5oYmehAUdwnwjECjmEYQqPTZchp34AVJyUVsnp0acOMfCN+jgiv6H30rffRty6cfbUtbEnvDgph+bUdpVg1FNt1bY89Xrov4hUPAIBp0kyXBmlSKUM3MWvFgOc8AFBqZdoccm7kYqQTxgAAVbP23r7JPn/nrNWhmXXuQJASnygY2r6dJppUgAEw21i2oeXfS6yxKYEU/9VBj3FnaTUXU7Vftmcq/6DH5js5tZ2VoOJjpsTTP+pCrsYPqLDBSFEhXVlLuymtuuRjKUcKKVymCmWG1WHGigmssMXbH4l/UEWV1LSUGbyKT6XVUtuIML6wjIjw127jR4xlWRu+uxxRb+qROO8liS9SxxamRz3Ndxvc30b10f36L9zxyqSELGRsuzas8/mVAIAatjVX5rxPSBd+fUgD4L8LCUk/MWboG/H9OqJp07Mtmn3hOfkbIdlopIYNai8J6Qsvi7rzdOFi+x7ts+1NMm6vrnkrJznpkd3e974hKUfV07jsQ/5n6KjcBACwirIKYDVh1QgirCZNQFhR/vlHvHAh9qhGI8HZZEbA4wNNWVkJgVL5VvwDrCGpQhwHAGF2iP8O2+ClK+bETV7/sE66kiVHiaNRvbnYIuLeHCvJyCxTMGc3RyPTMQBEzaRV7bI4GZNeA+6zThABzqnmgoKigiggaRo6mj/uMVKYkZgicOzUSft4mtSvLOWdbSRDa9HKhAHFPABQMDY1hKwH2UIp1JDpWmJ7vVr4PH5Ny3yFbHxIaF4S5bGSrMwKllFzDRQ+YgCIkoHhdw4gy3ijwdYg9MNGOQDF3woqEAi4XC6Hw6mulu7NL72d8wKP0f2sLc3ZbbsOmrFyZm/0zdXbxBviY3nZeWBq07uVmhKTyaA3pvsWvL1w4rmq08o1E2zZBrqG7E52TrM3TrdmAACgzfp5+Dj17tBSX1u7RSeHvm1o2al1H9XEqsHNyfqoYG7VTgUFoGtaT5s+WFvatI7oDPH27MvWMzAfNGt6Hzw67GEhBljFh+Sk70jOLOIAIGrdfXdtG4Fd23kqUcGYzWaz2WYtdZQQAMBLHly8W9LJbeHYziaGrfvP8hmmmnApNEEApFKc4uzMzIyMzIyMzIzMnGIOjld/ys7ML5f4mZCmYmDKZrONtRQQmqqBGZvNNtJUIFfjt6mQZuIcePXq2QXd6qxQJ5GSrUISDUmKkKZdPZc5q0SfuVOmZ8auxVRf+UtIIOpD1l0Nu7xxSEN2ASGOL+zj3etxKv94jtJ+ceP2h3pdnVjvJYkvMscG/ptTe29z7ZZs9R3etXVL0/a2Qz3WzLBVBABhSviVFzQ7z4Uju7BbWvSbscDZJP/G5cjyb553826ej9br2V27zooNREG9ubGphVX/CSu2z+leFrHnfLLoa76StjGbzTbTV0EQRS0js/oGJIJYSnYNocHtRZa+AAAqou9E4T2mLXJokXznzpcNSCVJkSHON8iakmbhvtV/7viBth3ZLVua24yaP9dBIzcmNhsDEKbHxBboDJ421a5tS2O29chZEzrxXjx904hXKyRNSexRkhwAUdBo8TW42GxjrW9m3RE0pSz6I011jIyNjE3MOvQcs8CtK6TFPqud4SZRjYZAYg1JKopXQ7oKsbww/x2PmIOX+g1uVsfAsuQoscjYmxMXkfTmvJfXwrJbOc+d0s1IR89ixGznDgguUQ3SpEcMSRCBMD3hPb91n/5GCoAotRzu3E/iJi+ygxffPx2S19Frg49DRyNdHQO2zaiZ/5jTyYXknW0kgmgP9prZh62n39rey7MfGnP9fj5pT9Soa4nt9UTgn98nZLK6Ozpa6GlpaqgooADk40Ni85Ioz3sRFp5rMcqlmwYNUJWOLuO6f5sXCMYb5DTYGsR+2BgHoPhboRcVFSEIwmAwUBQFVEWyBF7FUWw7esYQHVUFhFOSFf84cPHJCJK9L7D8sKCDnRa7BUfMU6Txo0WbEdc/it3yaKQrgCDpkIvrkQyya2M5V5fMrJ7mNXHxQS8NOqc4N/nl44t5okn7vM/QYoK3/wxdDRZWmvHi1tplx+ru4yBWDWFC8Krd2otWXQ7HP1eUpD4IufCizQjJJgAA4MdeuqXiuuOcqUpVZuQRP/+IQglv/GgmvexMWSqoq3+wa61ORSG+jv5xfMDLo7bP2+y7YMrm0z708oyYk4u3nc0QSpKSEUSlr9+x2k2iTRae6AvC1OBJLgeThMRq/N4VkkjJXUPiIsTYxtaQqWO09FD/OjXVPXIdadKEhWLl+R8bckqbWMeuue/Sh2FP5vTq+TLi4TfHEhN4L0l8kapQdH/dzKpJMyZPXj9CtwlWnvsu8vQDgajCy6vmK83xnbL5mCa9MufljTXz98RVfSuPVzy5GPFhwASDr/9Ft5iy69wkTkVh1pvIg7OOhvyv5nsIrbVL4JfT5523Hneuf2Y9ASRSMmsIDW8vSeatirv5mDPYUev1jvt1ZoDK2CgApL4hFjz/1f+KJw7wGDhVR50FlfnJceeWBR17ywMA4DwLmr+K7+O+MGiKOq0qP/HxvoU7QxszM5usKYk9SoIDoPqO6084fjXAh7PTxux8Ve8exTalLLB6LTzbC8cxQXXJh8TYowv2nfoyfVS8GrKujyS2hgSI1JCyQqzg9uattic3zFs5On72RdGKVplyFMFtydSbExeR9eb8+CN+q1l+3ptOThV+iD579Wa+p2nN1vSNiC+xkAURXnpv79auq32CwyYV58TfvXEn2aaH7AYEIB5HpWAAVS92zZpX5Dl16pbjK5rwizNe3ToUhUmQ+onZBgAABM8v32o6acdZtgonK+r4Ev/wj1L1RDJdi3TMhqWc9Q8yXeZ18PISpiDOf6R3yCcJ40Mi85Ipz3t90G+D0uLFZ8KY3LKsqCePc031pbEtOQ22BokfyjscKP4CEJueXT9//szlcnEcb6Ks1/gaO3Zo//jRw8bX8wvD6L3m5ibWlgELb3033qSgkBVEbfj2K4uaHpo440ymfCZwos1G7bg4rXD56HWPvnoq5b1yQv7tRUHxa/Nn+LxCj1Wh65oEDF90u/K/VoXi50D1ehQUPwp6mzZtNDQ0cnJycnNzPzf6jCgKCgoZUerY1aI4dNkVuYzPGCw1dQMb70mWhTe8nlI9549Aru1FQfEb8Nv6PKpvM7w950VsYj5fveN4lz7Cx+tjP//XSlFQUFD89tBLSkowDDM1NaXRaO/e5/7X+lBQ/K1UPVwxSF6f8ZX6rwlda8vJjNy/6mg8tVb+hyDP9qKg+B34fX2ertXZebLXEm0VOudjwsP9C3c9kOrIegoKCgoKMpCBDv0FAoGqmhqfx8v9UN74Gv+CSa0UFBQUFH8uNDNH72FscRuSYAVRJ8/EyPP4mZ95LQoKCgoKCvmBOE0YjSAIh8MBgOzsksbXSD1GUlBQUFBQUFBQUFBQ/MGgOI5raGjweLzKSmq5OQUFBQUFBQUFBQUFBYUE6Lm5uRUVFcXFxQiCACj81/pQUFBQUFBQUFBQUFBQ/NKgXC63oKCAz+fz+TKfRNiIy+s7H358YXbbRp8FTUFBQUFBQfFbQDP3Ph/5LPbps9io8AWdxa0MFQuj58rbkQEOyj9SNYoaaObe5x8edzWSdKD9T2wUGd2GgoLiR0FHEATHG7plGaLSxsF98rCe5vpN8cr85DtBa44/qySohGHldzWgxZFR3iGfvv8NvCo9KuJh1k/YM41UjZ8Bomw+1M11eM+OLfXUmdX5idFXDu05Ffdl9wQls+E+C93s2zajl6XHhAQFBIs2VpAgJQLVHrD2+Dp7tci1g+bfqJCkCKrX19PrH2sLczMD5c/X5zlseFrn/QGBGnKukNFv/e3NA5WQb2sSJh1ym3QoBZe3hqRScr5lwqL6hz7XgOWenj4u8LWsB5PDL+DYNSj1XhXiP0Ax8YCrx8nsugak63SdMNN9uG0b/abC8tz3UacDN4Vm9iJzgIz2cy9+OWIeAKDuEfOoeueJc2aPsWVr0ityXt48smPPnUweADD7+d/f2J//ZJ3TwtAiHIBuOffiXuuIyS4Hk36Xs5Mb2pSosfuxU15t6AA4LuRXFKa/vH1i56F7mVwAhu3KG5vbXJgy6VCKEABAYcCmO2s1gkZ6XrFYS2T5qcFG+zYRR6VQzpZnWPtdCRqlhQLgGL+6NC/x6fXDe07HFmLA7Ln25laHpgjguJBfWZj28s6ZfYduplXVl/oC/8X2kZ4X8jEAJZNBHl6TBlq2VKdXl+Slvnl8ZveBf/MwANIiiu+gd/C9FNT8oMPCG19WuigN2HJnXT8GjvE5ZYUZb6NunDwa8r+iRoSW8N2ecT32IBqjdl2ZKg+dJUMSX79KFqWQxM93G1LERAoFxV8GHcfx2ifJ78YPRDItx6zfNFYx6uzulfEfBaxmRqoyH8CEl8YEb4yRVfq3AtHu0tu04um57cHp+Rz1zs4+M7dvV/RwP/heAICo9Jgb6Nc9affSSZGVrcYuWbF5ffVkr9MZGKlUDbTmI5Z7aGZnCNSk1ESRRS9+GxEcmTbZt2d9FQnVkHOFgtg9HhNP0ACA3mn6Pl/DG8tXXcnBAHDupywhACpnDUmk5H7LxEV4+b9b3ROb1A6AEQ27+Rsmq0dFpv8uTzmkKHXua10ceunjwD69DE6f+fIciaj3Xnpgfe9PV4NW7XxTzGjG7jbYUIcGqaQOIHx/aq5LOJPRxXO/T7NrS9aE5gkr8z7jAACowcg1ATOaPd6+ZOOr6uaDZi1dHcAocd3yTHQyJo4rdnVyNAk/mvZH2FQqqh5vnbr7GR9V0DAd6LVodQDkOQclEL+WIAu9T0ySRvkhlsdyri5ZcDYVV1A3tfOY6xnQHHOdfjodAECYdnax35UcUNRqY+8xd9VO1coJ655UiIb42IfrK/0uptX6GF5VUIQBIKp9Fu1a1fn9kR3zV6dVsXSM2/Xspq+OQh5GVkTRAAQJx+auufNZ06TzENfpQYfYfu4bH5VQj10UFBQUfy90gUCIoiiCoAiCSPdVsonN2FFGrw+4b7srenGXGC/+9xD14buuL7URfX3xC4/zAwBe1PrhvqGlOADNbNrpE1NNaQDCrBMe43fF1ww/6B18L+3umBbbtLM1K/HM4ZjWk6ZYKSYe95tz5E0VACBKpkNmzp7U39JQBcoynl7dty04ukAkimp0dZ3nM6qbqSaTW5qXHHd2y7prKUJyNRCVjuPmeDhYsQ21mmClWS/vHg/aeyudI0ENRu81N/11woOL2zta6jaFwthzAf6nXpWRWw9LO7Vozpef4tNYluFLe9k2P/w+A0PU+44ZoP4yyP/8swIM0nbt7tQ7cMxwi/O73gpIpET/xTR1WelceXjFo+GH20vTegBY+o2dgQCosfu4+hqTqCHvCivzUpPyAACYOuVCnFuUmZSUijWmwi8a0puoa7BonLKicp4UUrJVSKIhWRFWnptSe6IO2sxh46g2uSe998ZWyDgOI3Fs0Bq+85J35boxy+6JakdU+q+7skJ5j9PckEIamfeSxBcpip372nDjll3IajFiUC+9c2dyRa3JaOcyy4H1cLl74N0SHABSk99EiQRIHaC6MCOpEJh65TiuWpSZnPTlqZ7WatjoztiD5VtCnlUCJO3f2tL2hMuYHvuf3ykHABC8fRynO2J0l7NbYzmyGbU+BNZA9Z0PnHNOnjd2yzORT6C6Y4MuuWbOH705hktiQ4bNstAAvavbUts625vrsSoTrgas2P2kAJOQKknB8cqCzIxMHkBGev61IWOXmLdRQxKKiH+fNPSIi2hmP8LyOL8sLzMzQwgZ6SkbNDtd9ulto3s2vQgAcF7ph4yMTAwy01LwdoN29+9lTn8SK/qwj3OLs5KTvv3UyWhn10v1zYEtR+8VYACQnvI65q7kIpmQeydFWkTYSQEAMJsPmOXn5dBeB8+PuXDt08AZ7OuuU05kYuRqyAjOLclJT8lLTUmIe1GqdsHPe+zFyANJQrJrkSovKwjTcIjfQdfBbdQ4WVHnA/2PPy/GQBRf27T3Dp17vRQHQFu4Hj454rnn2D0JGEmqJA89VMPKZY7PaFszLVplzqtbwTv31ChPGMukkI8cEM1Ru0Kn5m7YWNB35sjuJqpYybsTfl7B8UJ5exSpbzCNBs1e5DmkvTb2IeZiWLGk+azkjYKQ9UQkxpJpiEXsbBLUIIsU4kahoKAAAABUTU2VxVJSVFRgMBhSSdBbdeqg+O4db9jKXecunrt4ZPOiURaq4j5k4iWhPj27W/WYdamQG+s/tKt1dyvr3rNrB0bC5EPONt2t/9nx8vtnFLpqyc3FXoczLKZMa/1g4eStr4zGjeyiAACowfANe33NM04udxs7bvLqcBi2fqurqWh+PMvWe8PUFm93eI8e4eQ2f/v1NC4qWQ1EUUu9OubkujmTRzu5L79U2XNF4NxuSpLUAABgdLIze7py7FAHxzkRKpP8lw/WQgFRGbotKvbps2/+RItZ/IkoslgIv7CgFAcAumk7c3rOqzefRHmVl/DynVDXwlzzuwxeTwoAQKnjtJUjcvcG3CuSwzthqdX4hSukmUzYdT3swiIbhlRSslXYaFCD4cvmdM05su7wm2qZKyFxbPzTg2tP8B5De6uLAhNR6zWkOxIddq92uq447wXi+JLo2Iqd+3aH50/j82Oj09h2vXVr7Ecz6WGrXx17L1JOnyyQpq0tWuCpbxNFn8AAy45/V6HY2sKkJrzwyqeXwqr6j7VTl3ZmBRmE2QbLf3D7rWpfe8uaZIDq9rO3KP739gsumZQIeqdBXZID3IYNGjrvvrLTYo+uCkDWlNKnFJqK2UC7NpATn/gjlgj8eMvjHC4XRxiMb1Y70ZSNeg+w0kA41dUSbgsrLy1HDC2t9L/fJ46kSGbk2kmRFpF0Uoy2UzevGYSHr5ji5L4hynikg8GX+mSOZQAAnFean1v0mXicj3+KfhyPtbDqoouS3zJpDyuz7a3GDK4+M2/CeI+AlwZum1Y7NiPvUshSJdnwAG3htD7A3Sh+j4/TGPcVYYL+K7fP69b0i4eLjWWJEOTeGhDlPjNcVO+ucR1gN2jssvMJFfgP8CiSCpkdZmxeNUAYuszNaerm2FajhhpKu2+F2EaR2BPJbChxEDobqRoSMjaIb5QaJEYKBcUfD93AwIDH4wmFwtLSUh5PilcsDA0tFZrF6Am8C0dWHvuk3GGM78zVS6pnLYkokNvoRZASF53+vsXbfN7/2TvvqKixLoDfZBq9CUgRAcVRURAVsYGCYl9w7agIFiyI2Hvva8furr2jiKiIIjY+C13XgiLSe+99WvL9QRF0kgzD6K5ufmfPHiHcl5v7bnlJ3nuB1+EpKcz36WwbXVUUirpMdLXMuDD54P1MDACybnh52/mOGcK9mBAjQpV0dJRqUl9HxWeX41CQlxYryZmwvCcn9tb/kH37pN+oq2N6GTMiYsjUyAMAEKUGnLufzgOA+JuXgqfudxioGXSz4PkBV+eTXw+kcF5RelPDIurWcyZ3zfDzDC7BAYClrqEEJUWlmsO2n1mm7794/tviCjDUUEcgl0QKENW+nhsGxR6Y+bwIV2+micUhoRo/XYMkUjLXUBKYhpPWeXT5fHzG5Xg+9V9LBV4ecje4cs9Ie51An2wM1bYbZVkTvPZlw9Ncsd6bhxLGVyy5Y3O62fVjv9kfzcNqIsIz59hat77uk40BMLT1WkPB8xxZXSaiqq6G4gWlZfVVGystKUPUNNQaxhfCuFs3469M+M0wyLulJ2OSZJu84KB3nnPsex6MDK0BVM/OvnPB06Mf+BRSAACi1PvnA1Orcah+/+BZ2ngbUz00IplkuF5BkVIQhWF//G8wBiiThdakPtyz7DTJjFbp+c6WZ6q0s3Of1J2R5fN3NgYIADA7zr0SPhcAQVAE+FlPd/p+bLguhrHrxTDX+p+w9MtzJxyOFgo/Xtp7revGNb73Z8W+f//+TcTToKdvc/kAACSHpEbGRYrkEGGRErEtRjsYJF5bfzYsGQO46XXFbsBypTqLShvLAAAgir0wbzLp5eNlBQU81EJbE4VM4rwRIyJWvvkm/3LyvMBjJ/4XxwfIOvZn38G7HQbp3fXOkPlQHjUe5ti1InDZoYefeACZV/ZdtPZx/733oYgntat4mhnLdYjPvQ1irKIHB488TBACQN77p3kAwDSTsUeR5ChGD4eR+knX1p4PT8YAfPZfGdh/iYJk1iLoFIpKJL2hxEDsbCQFkSpji++UBiUpI4WG5leHWVVdpSCvwOfzq6urAdjUEoAgwEBjfPb7RpXiAGnHL/a4sGJwH60H/jK7j8R4PCHgAr4Q5/P4OA58PrDZbEDVuR1bs80X34z8Ms0T8LJMDQaACCt46f906tot1845Rr3/9PlDyOPg6HzqvWdRdbMxM6aOsOygqyrHZKAcJVZVnAIKgBOrUadjZnpWXZYRZqbnIH0N26CQV5GTmIh8U6FxvHHuQ5TNZ+3a2Cdhn8efb6oa/RWAoLIwL4dVUiPOjt9IoZqDVq7uGbXTLaQUF7esFdWffMJnkRkLALCSO0tHN9mnhhhiNWTeoJSQNiiKPzWt96nmSUnXoLSwOkxdN8/o9e4Zt9K+57yYmtcBD/KOjxpq4HshXd9+uHnho79efXnzKdZ7C4jjCyN1bI6FbX/F6ONvqgDwpPCIAmdbG21fn5x/5Aktlht04+XMheMt/J60rCHSbIMXPn/4apGHfU/50BCewaDBHbOf7vsooJICAMDz8+oexOO86hqQU/h2S5um10NieRQAoDrEq25tpHF/54VL9szPdTsURbnP1ndAGsszjKadD5kGgCCIqDTu8d7NZz8IaquQKNl37fpbOXJt+rnONH/zx/aARncJTddG4oLidCEAAFYYdsxt9DVud0sL8649By04PtPZd5WHV0QpTnZI6suVbZEiq1+ERUrdyFCFlxhXZxq8JCmhALOoE5EyliUHh7rtFMh9nkj5liQ/UVpicp1teMkJ6dDPqA0DZH8byTQw0ocU36S65w1YQXx8McvCUAeF2rnezY3lumbEjhwalK+MjU5u8iBI5h5F0iCqbmCoXJOYULe2HStKiC/AuklmLaJOIa9E0htKHCTORqQGZcYGENMpNDQ0DTCLi4uqq6pQlFFZWcliSXAbKSgrrRYVZ2TVbnkBeE1ubilioK6GQsvWXXwLjuNQv1wTQWr/h5f6L/lta4iYGxgsJ2j9pNcde/a0MLPoP3bVjOmDt7muCSAfy6L6E3YcnMvx37v7z7dZ5Xy8lcPO005fV9hv1KiTZaBIbS0FlFH7TB5RGbnnwSbrr43YePEnotJ99r69DqUnFm68nVp/FYLiogpoo6FaesNr5ksAUBiqrgQlRV9mAoqTYrTvZdnaQGX/vdG16jBZDFgb9D+Ho84eVzMwACw3YOOUMDkEAHBReZ4ESZBCDZk32Hyka5BESuYaUsHp7LphhtbTTasCc7/zXZbwU8D9pEkjhnO9H9uM6JgWuDu68dsXMd5LEl+IyigSx2Z0s+2vKa+57u6ztQAAKJOF2Vlr+frmYqK87Dyw0WvNhljpJ+82Ai8tLsEQZVUVFKowAABUVU0FLykqqb+nAgC8Iux6oLvXhIGviRcISgRptsFLQoIilyyzt1QIz7S3N8l4suuziFoKAPCm+2JTjTtJU8onaLI2Mik+RdkiYKmT7flXdyuFQuHXjeNCoUhax/5OlseyAjauvJYgFNWU5OUUVzcKCZxfmJ6QmIwlxm9lbPbe4RHnsj+yruQQrI2shV8YFxEUFxHkc+bCb3u8104fejXqRl0RIDkkPTIrUoSHJCpS3yBlLEtcwhFlLU0OVlC7uRHxJUunfLMRu6sDgsj+RF+dtVmxXI/Y3NvQJo/H++piZO5RxA2iADiIRI1eS4ukH9TVG4e8EpFAaihxf0/qbERqUGVsENspNDQ09TBVlFVrJ7Wqq6tXSLJnsSglLgmz1dORR2LLcQDgaGmp4CXFJUT1GMcwDGEwmfUJQXqwori4fIX+PTuxQwgSEb/gc1jQ57AgH+93+wLWDDDnBOTUD1/FqiHXtZcZ9mLticB3fAAAtnFrHQYkSaQM07hDexa85gOAfHuTNpBxPxOjmoGGqll5HPjDPufQgs3+qY2uQJjwMVY4yqxrKzQuDwNgd7LoxMh5Elu3YI9ASvDupNskb0bdyVTt1x2bJTjptvtRRv3ISFiem9qstxLkanyHBpuNBA0ylTW1lBjVxbklNRJI4VI1KDUK5nM3TFEIWHWAYH9DVF5NU5nFLy8sqZbYRoTxhaUE3nvvOnn0RAUrg083A5vMthLnvSTxRerYbAtba7WYMx5bHhbhAAAs8zlHVtr11/TzyxMlh4bnuA4f3Ff1+dMWvPhppEdcTBoysWsnhes5FQCAGnTprFzzOSZZ9OVmBkDwyc8v+eL4UdFfjzyaZV6KbIOXhj4KX7HKvr9Zur1xysPNdVtXUOcossv7tispJ7U2QcgXAENZWR6B8vLSclBQVKgTRBQUFUFUXlYp9W1kyyxP2Cy/OCMpiXR3V7z02eXbs04unHxn+un4ZrwRwEqzciqhm7KiZIekCT2xp21JkRJ7iLhIYcUpqaWcztw2aEgyZPaskgAAIABJREFUBoCoGbevXz4mZSxLDNKqr3UXNN3ndQ5Z3pCkwgr4AuDIcZp1w8do296YBUV8AOAYmRhAWnC6CADwmmpeXVs4AENDu1XTVkmGImIPiTJSM8GC244NhTwAQDVNTNSF6WktfAAoNveSIHOPImkQK05LLVcwbKOBQi4GgMjrG7SStGcIOgXIKxEJpIYS5zYUziZejRZlbBoaGgCUw+FwOBwGg6GoKKbgigEvenE/gmflvOg3c0MdfdOhbs5W2NunEflEAxQsOz0bTPoOaK8mz2azmFJvrwIAwg8+F1+rTti4ZUo/rr6OAbe73YSFO+dYsQAA0NaD3DwnDDBvp6el1bb7SNtOjPTExrdqYtXgZaTlcjpbdlVBAZitrGbPGa4ladJEtEd4uNtydfU7D1swZyAeFvAsHwOsPCs+7hviUwtqABC1PosO7xuN3Tl0OZZjxOVyudwO7bTlEQDAi4NvPC7u7rpiYg9jg46DF3j+phrj6x8jBFKpmqL01NSUlNSUlNSU1IyiGhyvLkxPzSmjHGoxVPRNuFyukSYHYajqd+ByuYatOORq/DQNMoydvG7f9l7eu9GOOCRS0jVIoiHJIUSpl/s6J5Wwq49KdTtw6zHRU24ICUR9xLbbATd3jmjOPiXE8YXlPr4bpfK7+1itN/cfZjWp3WK9lyS+SBybbWZro54W+vR9cq0rpiQEB78Rmtlat0IBBNGXjz/k2a3Zu8ixV8d2Jmb9RrltmdtPjuKSEHktIy6X20FPBUHkNA07fLGSKOHerTcMO/cVY3py25kOmrvcyTjn/s2Qsq9uoLMfXA/Tte6j1XR3iGaalyzbAACUhz0KxfvPXjmybfyjRw17yVJJkSGuK8lSCgAAgihpGxoZGhl3MLcev9y1FyRFvsrDQJQcEZmnPXz2LLsu7Yy4VmMWTOnOfxMeLf2TkBZZvmWIEm9ff9tmkttQzfqbYo5G2y8RxOUaacojAAzTmXt3LZk8tF83brt2nfuOXbZkpEZmRGQ6RnqoDqlCTyxSFiniQyRFiv/2TkB6e6clM3obauuajl7oZI7glGpQeRQJCEe9jZGJqeXgKRsOLO5TGnjseryI/JIpKyxe+TkmVaGPg4OprmYrDRWOROMDRGv4/HkDubp6He3nuw9CI+4+zcEAQJQc81nQceBgQw4g8u0cnQZ9tScLyVBE7CFR0oOAj8ojFiwa2klf18hqynJX86KHdyOk/rxZnfJicy8JMvcokgb5bwLuZZqOde6twQBUpZvzpD4STdQFIOwUANJKJKWhxLoNlbOJV6MlGZuGhgaAiaIogiC1/5dMBC9+fnitipv7uLV/ussLC5PCL247FphL+Jgbywk4erL7KtezgUvlGIKw2q20m36K3eJciAuAMO6Us8uZFLJTYxm318yrnj1/6qqT8zWYNUWZ8W9f3MiuXXPEr4S2Uzx2zdXRUMBKUt4EbV13/nOjx6ti1RDFnN10RGvlppv38Mry4sRgP583nUZLZgVBpG+QisvBayYqVakhZ1bvCqSoBcAwtrEzUVBBXXaddanXqcBvkcOuKAHgZaEHlu5etHzG7iuezLKUiEur9nmniKikpARRsV19vn6Lc+MVF21BlHh2mvPJOBGxGj93gyRSMteQ+BBi1LefAVvbcO2pwY1a4r/YMmrpvbpdyBUVFVCsLCe3qhkvjcQ6dt11lzwLeLnYxvpt4LOvPqpN4L0k8UUEq6uttVbh86hGRqv4OyIaWWLXX+PW7QKs4Om2eVXT5k6fvn20jiJWlvkp5Eow1XMERkdnr5OTdWvHck57Lzh9sRKWcXPTMvnFi2bsPt+KWZHx9v6WZceiqr5uAC9/eSMwa8gU/Sa/ba55qaxRFfXgRc1wB833B582XrjXfBs2iBJ3JTEKNiu8bXAcE1YXZ8VGnlt+4nKcCABqXh1dtkngOXPF0RnqjKqc2BcnVhzyb8l7lJZYvoVgeY+vP5qz182529ODHwEA1XPYftHhy+Es79njD73Dct79XTR1iNvQWdrqClCREx91bd3R8x/4AIATH6pDqtAj0FaqIkV8iKxICT6eWb1ZYbXHH5dmibLCvG8/yHE3wURUakgN03TG4WvTasrz06JDTi445/d33aQK4nNRV1gswXvXUZN180/eXMMWRu0a4+FXSNkFwtc3g5SmHfTmqtSkhV5Ys+terWPjJU+O7+212fNswLSijI+P7z+K79u/yamI40v8ISzt+oblcksWeB670YpRmRn9aMeyI6HSfqCpnmaPHGTuUWQN8t+fXL1DftWqqwFsXmla6MsXmSZ6kl0XQafU6kJYiaQ1lDi3oXQ28Wp8j0ihofkPgYxzGiMQCHAcxzAsK6uMWoKKbuZmL54/a3k7/2JYA7Y8+ENhz5AVQd8Mo2hopAVRczxwa6XSqalzr6bKZuEk2nrswRuz89eP2/b8i6f+V71X9ual+VX4NXyD03+T/zbF/Y4rH0qyOoXmx/Nfzb3iKxEJ38lQzVWDhoaGGlQkEtUuFGcymZR/TUND872Q79bLtMj/r1syGciyFNS0OwzzmGaRf/9WOF0yQcbmpfml+Gl9A9Xr+/uw7obq8hwlPSsX54GiFw8iWzjpkoZGlvxLKtG/RA0aml8PpkAgYDKZGIYhSEuWLdLQ0LSMqmcbhsnqNb784C3+W/vVpIb8uencR3rnAADZmpfm1+Ln9Q2mZg+n6fPXaKkwa3Jjnv254nAw9TxoGpofxr+kEv1L1KCh+QVBRjgO43A4NTU8DMPy82XwlOY/MKmVhoaGhoYURgcHj9+44ua4YHmhl65GFPxsr/5oaGhoaGhoGsPU09MrKysrLi4RCoWSf/qIhoaGhoaGEFH83cNe/7QSNDQ0NDQ0NN8LtLKyks1m4zjO59Ov+mloaGhoaGhoaGhoaGgoYH769InNZgsEQhSl10bS0NDQ0NDQ0NDQ0NDQUIDy+fyysjIAkJen+ir49zi9ntPpFz4Lu8jya9U0NDQ0NDQ0/yVYfdcFhhx0UPtXLc1hdPa4/uyCi6GkD+nZRg7rz9z738vIiNBH6/qwvqtuNDQ0NC2GyeGwAIDFQjFcBCBBrmNZb7q1diC78a9wXviBiZueiP8uL8ty9e39bc+MFftZYbwqOTTwWdoP2FyOVI0fAaLceZSri6N1t3a66uzqnNiwW6eOXY5q2GZCvoOj5wpX+y6tmaXJEX5H95+t3YGCQqoWVGvI1gvb7NVCtg5bdr+cShFU19Z9/u9Wpp076CtX3l06cke44MtBAjVk3CBr0PaHu4fKf1PuRXGnXKedSsBlrSGplIwvmfAQoubo5b+xX5PIASzzypxJXu+F1FdAxD/u2MCyWn3r6FjNxrlD8ObAGHdfdOJxX/eKnaNXBNQHONPM88ZfQ6OWjNsZgRNI+eQwB+16unOw4OW2CSv8C3AApsWSG8etAqc7n2uzhcxtfo4PRkvRX/LGw9zmTxtq0U6dWV2cnRj94uqRv/6XzSAPIhEAgPyATX67hsjF/uXidikdAwCK0EvtSdQpVCHB1O41Zd5Mx36d9JREZZmfQ694/eGfIJAfsufRRvWjE+dey649e991/l7m/jOnnIip661vNQRgEznAyTgRAKAa3cbNc/vdpquBiqg47ePzG3+duhVThhP6IbXy/02Y5ot8j7Y5OXLF/cafmRTvbPUWlC7b/PM56qdB0Wb2Uvua8+6/38qoEfGrBdQSMgU1mnn+8vxOTAAcFwnK85PfPrx46NSTVB4Q5/lbpluJUsqss4Yn/iDMNilmS26cnKzbqEH+iy2jlt4rx6XMAFTI0A/lh+x5tG0QC8cENaX5KR9C71865/d3QW1So0xE4pIeoG2m/nXDPW/9oHVPvl5exrT4PoYSnwFoaJoJE0ERBEGEIqEIEwFI8PBL+OavhQuuNCQG5T4Lto4pf/G6Qqq4xEsizu6MkEbypwPR6jnApDz82oGzyTk16j2cPOcdOCDnNvPkZyEAotJ/idfqPnFH1k4LqWg/cc2G3durp8+/koKRStXBaDN6vVur9BShmoSayCkwiz4Eng1Jmr7IuqmKhGrIuEFh5DG3qRcZAMDsPufEIoP76zfdysAAcF5hmggAlbGGJFIyv2TiQ3jZ//bOjFWsrwWIht2yHdPVQ0OSf47bH3KwrLsbV99IqjcbXpVXgGFYyIvPC1x7d5MLeFYNAABo2169dMrCn73j16YacVJ1/8Tlek1wML53LqmRdSjc5tcEUR248vCmHp/PHFy2OalKQduoq3VvPXUUsiWwhnwPW6sif9/coQNt9K9cTcdAEhsSdwqxjuoD1v61fUDh7aObDkUXsVpzew830GZAAvUgWIyGdacV5wAAgCj19Dzh5Sh69OcOz9fZQlV90769OmmjMWVSK0/zBUJno434Y0Bb6emw819HxRWU/XMZrerF3llHXglQjobJ0PkrN++HbKejMbUDDnHxRZZSCtkk2Ub0+fIS53tsVk/3Pz1b31mzxT9bVJFdWT+QlDID/ECEMeeXbHlU2cq4xwiXOUdPcVfP3Pm8uE59skREmPSI+NkNRfOLwxSJRLWrInEcl2gyCF6Zk5RU/wOi+/tcblXo1pdi3ici6o6H767tW/v2ZfW9qNUAwA/d7rjIvwQHYHSYfeXiLBMGgCjtotvkwx/rfJtpvsj3SLekSKUeVgqxV09HdJw2w1Iu9sLqxWeiqwAAkTcZMW/htMEWBipQmhJ++8S+s2F5taKoRi+XpZ5je5u0YvNKsuOjvPdsu5MgIlcDUek2abHbSEuugaYiVpL29vGFo8eDkmso1GAN2PJgl/a9s0VmDhY6SpAfeW3/rsvvSslvpLGkyysXN/z0MUnB4t5am35tTn9OwRB12/FD1N8e3XX9VR4GSYePdB/gNd7R9PrhD0ISqdpfsU2cNzpVnN7w3PG0mSTdB4Al3z/kBYAazZzUVGMSNWTdYEV2Ylw2AABbu0yE8wpS4+ISsZY02KAhU1FdQ4FRU1pQxpdASroGSTQkO4SVZSaU1f0bbT1y59hOmZc8jkeKf4lPDYljg6bjIV+Pim3j19VNEUBUBm+7tUH52IQlfvkMMu8liS9ScF5RWnxc3Fd/mRnyImnuOCtT1rPXAgBAtSx7GVWGn35TQyoFACD88CJKZ/S4nt57I2safomTu42UEFwyquf01zWn+KUT97yq7XhUZ+JRX5fUZeN2R/BIDMXqu85/v+7tfYldnOw76ypUxNzev+HIyzyMIh8SwupqZ6Ma/deec0/yMABITngf8bj2CKU15HrY9uVFrfNJazt6mI3utauZGJUNWUDWKcQqOi8YqfBs/Uyvx8U4ACTGR4dKJilOw1rEOgAAajRx4Xjd915OO/yyMACAxNg3zxsdb77yhMi8EpEeIqxEAADsNkMWrJ4/0kwbz4nwuVM4dC73rsuMi6kYuRpSQOxs0pVRCp+XVnlUs8dkd7ex/TvrKgqLkt8+OL3v+PPcOtdB1XrO2DV7Up+27OLo+tAjNS9hwEpvebbhsIUr3UeYaWFZETcCiiSaz8rqu87/0Gh1FACgy8UwFwCs+E7DZBak1djD/rMyd+zMs503po+xKlb86eLq+Wc/igDVsHRe7DmuXwdNRkXGu6Czh45RD2DIwfGKvNSUVD5ASnLOnRET13TupIbEFOAABPFFmlLIclR1fkpcPrB1y3BctSA1Pq7J01spM4BYKPyQwIZU4LzijOSE7MSEmKg3JWo+qz0m3gj5q842JImIOOkRnuiHGYqGRgrqbiCllGa2HzGqU8HTB6+rxRzEi/09rftY9l/gm8+L3DWql1UfS6sBC+vHTKL4U059+1j9fvDtt/coTNXiB6vmn04xnTG7Y/CK6XvfGU4a05MDAKi+447jizqnXFrvOnHS9M334Lfte11Mar9MptDPY8esth8OeowbPcF12YG7STyUWg1ETlO9OuLStsXTx02Yud63wnqD15Le8lRqAACwutt1CN84cdRIh8WBKtN2rR+uiQKiMmpfaGT4q6/+CxOz+BORU1BABPl5JTgAME26dmZmvIsurE0O/Ji3n0Q6pp1bfVN+mkgBAMh3m71xdObx/U8KZDBZSGI1/sUNMoynHL4b4LOyL0siKekabDGovuO6xb0yzmw7HS0uciSDxLHxwuA7L/H+owao1z4ZQtRsRvRBwgKe1D8RFee9QBxfzXDsJmDpL16kqVv2MmEAACDKPfp0rol88bcEX6fFK8J9A6oGT7RT/84LnQhTCpYT/PCDqq29RV3EozqD7E2L/vfwDY9MqhZm92E94/e7/jZs1NKnyhNWufXiAFl/kZoXKyspQwwsLPU44i+AGLketn3gdfjHnMiwJK7dAJ3vtYUaw7h/P73qyCchxc1NQiQaincAVKd3PxP8/ZP//aDXYzKtRKSHSCoRq8us3VuG4fc2zJgwc0eo0ZiR+g3ttShgcX5JTmZBZWNLEjubdGWUVIoiiAhR6O551GuWccK51TPGTZi58my0vJ5Wg0VY5hPGKT3aNneGx7EYvUl1oUdR6AkCVirLAwDbfO7uTUNE/utcJ8zaHdl+7CgDSbZ+EITtGGFl1W/c0Rhe8gWXvn0srfoNabKaAxDlgXOdVR9vcRliN2ziuusx5TgA2nbC9v0zDT8e85wwfuaGAOHgjQeW9laqCxnSAYwEMFQ6DLXrBBkfY3/AqqNvkGUGIPdDMhtK2H5h2IuPWFvLnhIkWZmnZekNJSYD0NA0HyaCIFB/J4k0c8gmbzFquG7KnaDPMp7BL0yICkv+3PZDDh9eh6ekMN+ns210VVEo6jLR1TLjwuSD9zMxAMi64eVt5ztmCPdiQowIVdLRUapJfR0Vn12OQ0FeWqwkZ8LynpzYW/9D9u2TfqOujullzIiIIVMjDwBAlBpw7n46DwDib14KnrrfYaBm0M2C5wdcnU9+bUWcV5T+1XQDdes5k7tm+HkGl+AAwFLXUIKSolLNYdvPLNP3Xzz/bXEFGGqoI5BLIgWIal/PDYNiD8x8XoSrN9PE4pBQjZ+uQRIpmWsoCUzDSes8unw+PuNy/Pf6xg5eHnI3uHLPSHudQJ9sDNW2G2VZE7z2ZcMLc7Hem4cSxlcsmWOjAMAwdr0Y5lp/AEu/PHfC4WghiJJevMxwsbTURT9lYHLdrMxFf++NqmxogEAKAACEcbduxl+Z8JthkPf3sREAADBJUkpecNA7zzn2PQ9GhtYAqmdn37ng6dEPfAopAABR6v3zganVOFS/f/AsbbyNqR4akUxSzStIzCv8eGnvta4b1/jenxX7/v37NxFPg56+zZXAcTjd7Pqx3+yP5mE1EeGZc2ytW1/3kWTsRdYp4gW09VpDwfMcAp1Y3Zfeilz65WdRsmQainMAtLVea7QyIrscBwDFYfvubxrAAVHODY/xXn8LpVKeHBlXIpJDhJVIxLYY7WCQeG392bBkDOCm1xW7AcuVav+O2A9JA7YOUeyFeZO/ul7pnI1YeRIhqiAiANEYNHWc7vsjkw4G5GAAkJ1zMaaxKgUPTxx/8lEIkH4laKJNn7rQo9BQfMBKZfkYRg+HkfpJ19aeD0/GAHz2XxnYf4kClQUlglX04OCRhwlCAMh7/zQPAND2wxy7VgQuO/TwEw8g88q+i9Y+7r/3PhTxhAckAxiKNSAKw/7432AMUCYLrUl9uGfZ6ZiGCJJxfJEjVQZoNqgxkQ0rqYXrwcsKCniohbYmCrUvFwkNJW1aJkNaQ4nJADQ0zYfZ8CoSx3G0WRumImo2DtaKH84+TJP10wyMxxMCLuALcT6Pj+PA5wObzQZUnduxNdt88c3IL9M8AS/L1GAAiLCCl/5Pp67dcu2cY9T7T58/hDwOjs6nvr1F1c3GzJg6wrKDrqock4FylFhVcQooAE6sRp2OmelZddVOmJmeg/Q1bINCXkVOYuI3N+M4jje2EKJsPmvXxj4J+zz+fNPovQwOIKgszMthldSIe/T3jRSqOWjl6p5RO91CSnEQc/+P6k8+4bPIjAUAWMmdpaObPtkkhFgNmTcoJaQNiuJPTet9qnlS0jUoLawOU9fNM3q9e8at77qer+Z1wIO846OGGvheSNe3H25e+OivV1/efIr13gLi+MKoHLvpUhBcUJxeW6pECS9f5k6yslS/nFFmatWd9fZkRKNJvERStQdzg268nLlwvIXfExnYQzykKQUvfP7w1SIP+57yoSE8g0GDO2Y/3fdRQCUFAIDn16+EwXnVNSCn8O0mE00gNS9WGHbMbfQ1bndLC/OuPQctOD7T2XeVh1cExSR6joVtf8Xo42+qAPCk8IgCZ1sbbV9Jdpsh7RQpEMZeWrk9qNYezG5uh5YZSqghoQPUlazqkH3TXe6M3rJ70BfLyVh5GVcisiJFWInUjQxVeIlxGXUOVZKUUIBZ1IlIH7BEFyydsxEpT5LhKIOIAIZRRxNm2p3XBPdCWFZaZt20woqyCrwh9Mg1FBuwqFSWR9UNDJVrEhPqlrxhRQnxBVg3kguSnMrY6OSm7sw0MNKHFN+kuht9rCA+vphlYaiDQipQDGBIqA7xqlsbadzfeeGSPfNz3Q5F1aZtWScHcqTJAM2G2IbNWjCBAzQehhEZSuq0TMoPMRQNDQFMHMcRBBGJRBiGMZtzG4nq2zv2FIXveSmL+ZRiwXG8PgxqX5QiCOCl/kt+2xoi5gYGywlaP+l1x549Lcws+o9dNWP64G2uawLI4xPVn7Dj4FyO/97df77NKufjrRx2nnb6uvh+o0adLANFapMHoIzaiQmIysg9DzZZf52oGy/+RFS6z96316H0xMKNt1Prr0JQXFQBbTRUS294zXwJAApD1ZWgpOjLHDFxUoz2vSxbG6jsvze6Vh0miwFrg/7ncNTZ42oGBoDlBmycEiaHAAAuKs+TINtTqCHzBpuPdA2SSMlcQyo4nV03zNB6umlVYK6sH758hfBTwP2kSSOGc70f24zomBa4O7rxSwUx3ksSX4jKKBLHBiBZCiL8/CKk6HcrC8WAjN6Wyu+uNhmQkq9kwyvCrge6e00Y+LqgORfeLEhTCl4SEhS5ZJm9pUJ4pr29ScaTXZ9F1FIAgDddJ0BVuiXIG/zCuIiguIggnzMXftvjvXb60KtRN0hzG7ubbX9Nec11d5+tBQBAmSzMzlrL15fa7Zq9vFCUl50HNnqt2RArdnFDdX5yXFzdTq2tShvyBrWG3zoAlpudiym2bq2IQAmOVeQkJ3GKeC1SXiJkVokID0lUib5ByoClsk5znU3GylNRn7jEgmNNn9lKpmEzA5ZMeRQAB5Go0UtfkYy8EefxeNIUJoIBDMnfN6yNTIpPUbYIWOpke/7V3ZJaHb5HfBGr0vwM8M+AKGtpcrCCL/voEBhK+rRMzk9jKJpfESYAIAjCYrGame1YnUcO55a8OBtBtUMIjmEYwmAySZO/RGBFcXH5Cv17dmKHRIufZ8Mv+BwW9DksyMf73b6ANQPMOQE59QMbsWrIde1lhr1YeyLwHR8AgG3cWocBSeJa/gamcYf2LHjNBwD59iZtION+JkY6OQ0AUDUrjwN/2OccWrDZP7XRFQgTPsYKR5l1bYXG5WEA7E4WnRg5T2LrFuwRSAnenXSb5M2oO5mq/bpjswQn3XY/yqgv+MLy3FTKr380hlyN79Bgs5GgQaayppYSo7o4t6RGAilcqgalRsF87oYpCgGrDjwXf6OKyqtpKrP45YUl1RLbiDC+sJTAe+9dJ4+eqGBl8OlmYJNJleK8lyS+yB2bfHGH4OPzsMqtVt2MdC11Yu6HNesOXfDJzy/54vhR0c1YP9IsG1KkFLw09FH4ilX2/c3S7Y1THm6u2yeFOhGRIKa/qPJGE41Ls3IqoZuyIvlZ2Ga21moxZzy2PCzCAQBY5nOOrLTrr+nnRzGjTQpEyaHhOa7DB/dVff6U4q2VZBp++aOvHQDLiQhLnD/NzlozICC/+RciTXyJo0WVSOwh4kqEFaeklnI6c9ugIckYAKJm3L7+UwLSBqzk1/mNs0lXRsVJSRtEopTYBKFD9+5aF5IkH3tLVeilsjxgxWmp5QqGbTRQyMUAEHl9g1bf7RWQKCM1Eyy47dhQyAMAVNPERF2YnibDR5RCvgAYysryCJTIrM3mINMMINZ7ZWFDpFVf6y5ous9riteK3zEtyzhV0tBIDorjOIZhcnJyamqSfjACAECxp+Ng7YzHQe8oH3Bg2enZYNJ3QHs1eTabxWzJgmLhB5+Lr1UnbNwypR9XX8eA291uwsKdc6xYAABo60FunhMGmLfT09Jq232kbSdGemLjWzWxavAy0nI5nS27qqAAzFZWs+cM15I04yPaIzzcbbm6+p2HLZgzEA8LeJaPAVaeFR/3DfGpBTUAiFqfRYf3jcbuHLocyzHicrlcbod22vIIAODFwTceF3d3XTGxh7FBx8ELPH9TjfH1jxECqVRNUXpqakpKakpKakpqRlENjlcXpqfmlFG+JmSo6JtwuVwjTQ7CUNXvwOVyDVtxyNX4aRpkGDt53b7tvbx3ox1xSKSka5BEQ5JDiFIv93VOKmFXH5XqduDWY6Kn3BASiPqIbbcDbu4c0Zx9ZYjjC8t9fDdK5Xf3sVpv7j/MalJJxHovSXyROXZtgxyNtl8uiss10myYx8n/8CIM6zFsct92sS9Cmj5CIJGqv7gH18N0rftoSTxPopk2JEspAADlYY9C8f6zV45sG//oUcP+eFRSZIjrLzLzMkxn7t21ZPLQft247dp17jt22ZKRGpkRkeTbxLPNbG3U00Kfvk+uzQ8pCcHBb4RmttYSbG9F2SnfIIi+fPwhz27N3kWOvTq2MzHrN8pty9x+cqQyEmr4tQNgyTeO3SqwXLh32eg+nYyNO/YZ3LN1YwFS5aWKL7FIWYmID5FUIv7bOwHp7Z2WzOhtqK1rOnqhkzmCU6pBGbDioXQ26cqoWCkpgwgvenrFL7v+ymDNAAAgAElEQVTb/B2eI7sZ6mjrc/uOnfd7Z4qNeaQr9FJZHvhvAu5lmo517q3BAFSlm/OkPlTxIz2ipAcBH5VHLFg0tJO+rpHVlOWu5kUP70Y0Y1GfGBBESdvQyNDIuIO59fjlrr0gKfJV/V1O85MD2YnktYy4XG4HPRUEkdM07NC0GtbR3AxAhlg/lN6GCEe9jZGJqeXgKRsOLO5TGnjserzoyzExhpIg6SnrNZbq0FaD/U8YioamOTDV1NSKioqEwrqZ25JJIZoDR1krfD73MJH62SaWE3D0ZPdVrmcDl8oxBGG1myw3/RS7xbkQFwBh3ClnlzMppG1l3F4zr3r2/KmrTs7XYNYUZca/fXEju3Y5Er8S2k7x2DVXR0MBK0l5E7R13fnPjbQTq4Yo5uymI1orN928h1eWFycG+/m86TRaMhMIIn2DVFwOXjNRqUoNObN6VyDVEx+GsY2diYIK6rLrrEu9TgV+ixx2RQkALws9sHT3ouUzdl/xZJalRFxatc87RUQlJSWIiu3q8/WbXxuvuGgLosSz05xPxomI1fi5GySRkrmGxIcQo779DNjahmtPDW7UUv13hAEAEEVFBRQry8mtasYrO7GOXXfdJc8CXi62sX4b+Oyrzy0TeC9JfFGA6jlsv+jwRaks79njD72rTSq898+jFPeN7BpzdOdXj3jFSzX+C7z85Y3ArCFT9CU1R3NtSHXJVVEPXtQMd9B8f/BpBiaxFNkJiftLLHjOu7+Lpg5xGzpLW10BKnLio66tO3r+A+kLHFZXW2utwudRjTy54u+IaGSJXX+NW7cpViGQdSXRNRU83Tavatrc6dO3j9ZRxMoyP4VcCSaVINXwfqM//NoB8LKIg/MWZbu7Td7653JlpDzz48vDmy80qEeqvFTxRXDFUlUi4kNklUjw8czqzQqrPf64NEuUFeZ9+0GOuwkmolJDKiidTboyKt7npVW+6s3hBUsL3GfN2nNhg6KgKOVd0KlQiuIrZaGXzvL89ydX75BftepqAJtXmhb68kWmiR71uaQDS7u+YbnckgWex260YlRmRj/asexIqLSfkKpHwWaFtw2OY8Lq4qzYyHPLT1xumJwpRXIghtHR2evkZN3aexunvRecmlTDepqZAcgg8ENpbcg0nXH42rSa8vy06JCTC875/d1oqo04Qx1nkKXlIgAAttWicxe/nEEYd2La9DOJ6I82FA1Nc0DGT/m9pqamsLCwuroaAdWWt9jN3OzF82ctb+dfDGvAlgd/KOwZsiJIgk8X0NBIBqLmeODWSqVTU+deTZXNLBS09diDN2bnrx+37fkXT/2lvVf2NqT5Vfg1fIPTf5P/NsX9jisfVvzTqvzHoC1PQ0ND8w1oXl4uh8PBcay6WvpP2NHQ0LQU+W69TIv8/7olkzEuS0FNu8Mwj2kW+fdvhf+C94sEyNSGNL8UP61voHp9fx/W3VBdnqOkZ+XiPFD04kFky+Yt0kgGbXkaGhoacphlZaUqKsoAOErPm6ah+QeperZhmKxe48sP3uK/tV9Nasifm859/F5fp/wXIksb0vxa/Ly+wdTs4TR9/hotFWZNbsyzP1ccDv4nvgf/X4S2PA0NDQ0pSD9bSyUlxcrKqpqaakxET2qloaGhoWkEo4ODx29ccduYYHmhl65GFPxs7/doaGhoaGhoWg6TzWJiIhGLyUDl5SvoOf80NDQ0NI0Rxd897PVPK0FDQ0NDQ0Pz74LJ5wlwDEdQlM36+mPFNDQ0NDQ0NDQ0NDQ0NDRfwRSIhCIcwzAMQRAAio9a09DQ0NDQ0NDQ0NDQ0PzHQVEUxXGcz+dXVf0D+zmiek6nX/gs7CLx18VpaGhoaGho/v0wOntcD3kVGf4qMvTe8h7iVtf+6jA6e1x/dsHFsPEOhv/AsEecGr8Ckl4Xy3rjw5D9I5V/iFI0LYXOGz8VTDabIycnJxKJqqqqeDWSCckbDZ0xy2mAaRsVRnVBUtSDS39ef1NA9NlgluXq2/vbnhnr4Vf47R5neFVyaOCztB+w+xmpGj8CRLnzKFcXR+tu7XTV2dU5sWG3Th27HNWwOYV8B0fPFa72XVozS5Mj/I7uP1u7bwWFVC2o1pCtF7bZq4VsHbbsfjmVIqiurfv8361MO3fQV668u3TkjnDBl4MEasi4Qdag7Q93D5VHvm5JFHfKddqpBFzWGpJKyfiSCQ8hao5e/hv7NZ06jmVemTPJ630LPgn8jzt2HfIDNvntGiIX+5eL26X0xgZkaveaMm+mY79OekqisszPoVe8/vBPtSFzgBSzJTcavrYMAND4a8uoeo+pixeO78dtxSzPePvgzMFjj1L5AMAetOvpzsGCl9smrPAvwAGYFktuHLcKnO58Mk76z7H/WKTqSnHmTRCwrbc+2DtSCQEcFwkq8pPePrp64tSDpCoAAJbV6ltHx2o2HngJ3hwY4+6Twxmy59G2QSwcE9SU5qd8CL1/6Zzf33WZnWkhvlNq7EhjmdD2rH4b7+/u5DOj/m84Q/54tFXj6Bh3nxzsi4Y4JqguyY4Nv3v62JXIfAzkSTSs5Vs/JM82qT2JrEHvGyQOpvki36NtTo5ccf/LTgrE/SX6dGxS/2OIxtjDt2b9g0r/yyAc9vxbkjkNNdKOo6QbwPxrkM5Fmyv1HfIGqt59yiL3CdYdteX4hQkRfscPno+UpFMo+ktcPvzPweRw5JSUlBEEYbHYeTWS3EeyLWZsXG6XfXHX4qBkvkZ3p1VL1q+p8FjunyNF4sNLIs7ujGi+3E8IotVzgEl5+LUDZ5NzatR7OHnOO3BAzm3myc9CAESl/xKv1X3ijqydFlLRfuKaDbu3V0+ffyUFI5Wqg9Fm9Hq3VukpQjUJNZFTYBZ9CDwbkjR9kXVTFQnVkHGDwshjblMvMgCA2X3OiUUG99dvupWBAeC8wjQRACpjDUmkZH7JxIfwsv/tnRmrWD9eRTTslu2Yrh4akvyz3OWQIt/D1qrI3zd36EAb/StXG+4jEfUBa//aPqDw9tFNh6KLWK25vYcbaDMgkdQBRJ8vL3G+x2b1dP/Ts/WdNVv8s0UV2ZU4AACqP2bL/rmtXxxYs/NddZthC9Zu3s8qdtnzqnYmBY7L9ZrgYHzvXNIvYVNqCMybIAAAECV5r1p9KwPkNDvZuy3ZdEi1Ysq2l+W1WRrLurtx9Y2k+m7Cq/Lqa6Mw5vySLY8qWxn3GOEy5+gp7uqZO58X40DYKTh5LEsNlnF7zXLvRJyjbmLntsR9fxvMZc6VZDINAUCsH1JkG1Jr0EiK+P6izSiO/9Cw5xdGmlGKtOMNmhaCtnbctGe+3ovdy7ZH5HO4oxau37OTP939coqI7q+WwxSJRCKRCAA4HA6ABLeRiCaXq8n/+7TP63Q+QH7w7eBxg8ea6DMg56tXKoi64+G7a/vWvn1ZfS9qNQDwQ7c7LvIvwQEYHWZfuTjLhAEgSrvoNvnwx7ohB9N8ke+RbkmRSj2sFGKvno7oOG2GpVzshdWLz0RXAQAibzJi3sJpgy0MVKA0Jfz2iX1nw/JqRVGNXi5LPcf2NmnF5pVkx0d579l2J0FErgai0m3SYreRllwDTUWsJO3t4wtHjwcl11CowRqw5cEu7Xtni8wcLHSUID/y2v5dl9+Vkt9GY0mXVy5u+OljkoLFvbU2/dqc/pyCIeq244eovz266/qrPAySDh/pPsBrvKPp9cMfhCRStb9imzhvdKo4veG542kz6s4DAMCS7x/yAkCNZk5qqjGJGrJusCI7MS4bAICtXSbCeQWpcXGJWEsabNCQqaiuocCoKS0o40sgJV2DJBqSHcLKMhPK6v6Nth65c2ynzEsexyPLpXzuTOLYoOl4yNejYtv4dU9qW0dUBm+7tUH52IQlfvkMMu8liS9S5HrY9uVFrfNJazt6mI3utauZtb3J6uq8YKTCs/UzvR4X4wCQGB8dWitA6gDV+Slx+cDWLcNx1YLU+LiGrM1o/9u4Hljw+j1+ryoA4v7c267fRefx/f98/agMAED44UWUzuhxPb33Rko4sYIcAmugek5/XXOKXzpxz6tan0B1Jh71dUldNm53BI/Ehqy+6/z3697el9jFyb6zrkJFzO39G468zMMoUiUxxOYFAMD5JVkpKakYpCYl4F2HHRls05n5MrL2kTnOK0qLjxP3nhbnFWckJ2QnJsREvSlR81ntMfFGyF9xIsCJOoU8lqUGF5Rmp6amiCAlOWFHq+43PQf01fFOLibREEC8H+KkGrJIrdFsZF6/SA8R1i8AAHabIQtWzx9ppo3nRPjcKRw6l3vXZcbFVIxcDWkR319ZJJ5AqDxClr4wUuWRVmMP+8/K3LEzz3bemD7Gqljxp4ur55/9SHFtqGaPye5uY/t31lUUFiW/fXB63/HnuRh5gyRqsA2HLVzpPsJMC8uKuBFQ1OhNN9GwhyIDkPgGCcRqkDuATK1B6qIk1yWVeclB2AYjVp90Gd5JrSYt9LrXrguvizAqZyNGmlGKtEMsYghrCgCBDRGzxT5HOlwev8CvoJHezB7Lbx7UP+m49B5RyaF0UUvnxZ7j+nXQZFRkvAs6e+hYbSxLNfyWBLEDMyIQxZ4DenL+3n/U/10RDpBz9rCv3Zmxv3X0Phoj+qH99WuCVlVVVVVVYRjGYrEkksDzo99nMjr3s9GTQ4CpZmpjpVscHh7/bU7Di/09rftY9l/gm8+L3DWql1UfS6sBC+sHRqL4U059+1j9fvDttx3CVC1+sGr+6RTTGbM7Bq+Yvved4aQxPTkAgOo77ji+qHPKpfWuEydN33wPftu+18Wkdua0Qj+PHbPafjjoMW70BNdlB+4m8VBqNRA5TfXqiEvbFk8fN2Hmet8K6w1eS3rLU6kBAMDqbtchfOPEUSMdFgeqTNu1frgmCojKqH2hkeGvvvovTMwqCEROQQER5OeV4ADANOnamZnxLrqwNvj5MW8/iXRMO7f6Jj82kQIAkO82e+PozOP7nxRIeS/SxOySqvEvbpBhPOXw3QCflX1ZEklJ12CLQfUd1y3ulXFm2+noaqkbIXFsvDD4zku8/6gB6rUz+RA1mxF9kLCAJ/UvWcR5LxDHF6Vjy/Ww7QOvwz/mRIYlce0G6NTZj2Hcv59edeSTkGIZuCcAIEodTdviiR9i65ZxY+kfP5XLdTQ1rgsvvCLcN6Bq8EQ79W9mMEoBYbbBcoIfflC1tbeoSwaoziB706L/PXzDI5Oqhdl9WM/4/a6/DRu19KnyhFVuvThA1pWklpfQvAxlwwFDLDWQmurqZnUDXhj24iPW1rKnzj+8oAqv4fFwhMX6ZonMNxoS+OEPRqb1i/QQSf1idZm1e8sw/N6GGRNm7gg1GjNSv6E9qcMcAADnl+RkFlSSDbAJ+6sphMqTpi+K+AIARHngXGfVx1tchtgNm7juegzlczqF7p5HvWYZJ5xbPWPchJkrz0bL62k1uecS0yCJGmzzubs3DRH5r3OdMGt3ZPuxowy+WI9o2EM+WCLxDWJI1CC1oYytQTbEIr4uKc1LDtNy/PDqq0unTHbb/1bf9Y/NDq1RCWpls2nReEOqE4qrKYQ2FCa8+8jnduE2GdCgul1NVVPefSgjjhVSF0XbTti+f6bhx2OeE8bP3BAgHLzxwNLeSkhLht8UNHNgxmAwERAI6ucd43w+H9Xp1FENaWl/SZAPf32YQoGorKxCQV5RTVUDoEACEcGnixu3stasOnNjJYYzsIIXJzZ4hZK4X/MRJkSFJX9u+yGHD6/DU1KY79PZNrqqKBR1mehqmXFh8sH7mRgAZN3w8rbzHTOEezEhRoQq6ego1aS+jorPLsehIC8tVpIzYXlPTuyt/yH79km/UVfH9DJmRMSQqZEHACBKDTh3P50HAPE3LwVP3e8wUDPoZsHzA67OJ78ewuK8ovSmd9mIuvWcyV0z/DyDS3AAYKlrKEFJUanmsO1nlun7L57/trgCDDXUEcglkQJEta/nhkGxB2Y+L8LVm2licUioxk/XIImUzDWUBKbhpHUeXT4fn3E5XoLnaFKBl4fcDa7cM9JeJ9AnG0O17UZZ1gSvfdnwwlys9+ahhPEVS+7YnG52/dhv9kfzsJqI8Mw5ttatr/tkYwAMbb3WUPA8R1aXiaiqq6F4QWlZfdLGSkvKEDUNtYa0Loy7dTP+yoTfDIO8W3oyJkm2yQsOeuc5x77nwcjQGkD17Ow7Fzw9+oFPIQUAIEq9fz4wtRqH6vcPnqWNtzHVQyNIpv7hFSSWpzAvs+PcK+FzARAERYCf9XSn78eGsSvD2PVimGv9T1j65bkTDkd//UAPLyso4KEW2pooZP5jZZKp0s7OfVJ3RpbP39kYfHVn8pWGRH5IhUTWkBwZ1y+SQ4T1S8S2GO1gkHht/dmwZAzgptcVuwHLlWr/jthFKcIcAABEsRfmTSa5+Kb9RQax8iTpiyq+AABYRQ8OHnmYIASAvPdP80iVAEA0Bk0dp/v+yKSDATkYAGTnXIz56k++bZBpRqgGo4fDSP2ka2vPhydjAD77rwzsv0SBQgdypBrbsInVILOhrK0hIu5lkusi0bAF5sXzAo+d+F8cHyDr2J99B+92GKR31zsDo6iVzeaHjzfE1xRCG/718e1nuXFdjBihCW1/W+Gi8WTfxVfQqatRSfRRsskDZKDGwxy7VgQuO/TwEw8g88q+i9Y+7r/3PhTxpJJMjMQ3ZAxe9v5VHD5rzOTuYef+LmEZDnH5rT2gyWqqCBS2rL+o8uF/AiaKMoQCYXl5hZychI8BmG2HzvO0rry1Y8XzNL56V8f5bpuXlq/Y/UJ2i8IxHk8IuIAvxPk8Po4Dnw9sNhtQdW7H1mzzxTcjv0zzBLwsU4MBIMIKXvo/nbp2y7VzjlHvP33+EPI4ODpfQHyOOlB1szEzpo6w7KCrKsdkoBwlVlWcAgqAE6tRp2Nmeladswsz03OQvoZtUMiryElMRL4pwzjeODoRZfNZuzb2Sdjn8eebRpvj4gCCysK8HFZJjThDfiOFag5aubpn1E63kFIcxLx8QfUnn/BZZMYCAKzkztLRTVaAE0OshswblBLSBkXxp6b1PtU8KekalBZWh6nr5hm93j3jVouWjlFR8zrgQd7xUUMNfC+k69sPNy989NerL28+xXpvAXF8YaSOzbGw7a8YffxNFQCeFB5R4Gxro+37D21RguUG3Xg5c+F4C78nLWuINNvghc8fvlrkYd9TPjSEZzBocMfsp/s+CqikAADw/Pp1dzivugbkFL7d+qXp9ZBYnuJDv6Jk37Xrb+XItennOtP8zR/bAzIazRtvshoQFxSni71rwgHE5ZYfAcNo2vmQaQAIgohK4x7v3Xz2gwC+vo1sqqHUfiihNSRFxvWLrLQR1i91I0MVXmJcXZfjJUkJBZhFnYiUYU6O+P4ihUh5EXH6oowvAIDK2OhkyTuQYdTRhJl253Ue8UV+0yCJGqi6gaFyTWJC3fJwrCghvgDrJrE24pBmbEOiBqkNZWwNEJH0MuF1fSfzitISk+vMxktOSId+Rm0YkIFR1ErpkHa8IdW5xNUUYhtinz98yPbs0lmFIRg4dqSdBuexz9uKLp3wmMefJRrRiYFpYKQPKb5JdQ80sYL4+GKWhaEOCuTrG0gyABXNHJhhqde27jbc6nnsvgsuEpVF37jxKGeWCd7QAT+yv349mCiKMhgMDMMqKiTbaYjTfdIMyxLf+ZdeZmIAyWl/njO7sGnioCshN9JlPG7EcRzq+xlBav+Hl/ov+W1riBh3x3KC1k963bFnTwszi/5jV82YPnib65oA8jEEqj9hx8G5HP+9u/98m1XOx1s57Dzt9HUZ/UaNOlkGitSOYgBl1L4NQVRG7nmwyfrr0V3jVRCISvfZ+/Y6lJ5YuPF2av1VCIqLKqCNhmrpDa+ZLwFAYai6EpQUfZmqJk6K0b6XZWsDlf33Rteqw2QxYG3Q/xyOOntczcAAsNyAjVPC5BAAwEXleRKUVQo1ZN5g85GuQRIpmWtIBaez64YZWk83rQrM/c53WcJPAfeTJo0YzvV+bDOiY1rg7ujGL63EeC9JfCEqo0gcm9HNtr+mvOa6u8/WAgCgTBZmZ63l65uLifKy88BGrzUbYltalgEAAC8tLsEQZVUVFKowAABUVU0FLykqwQDqLwKvCLse6O41YeBrSaZWkECabfCSkKDIJcvsLRXCM+3tTTKe7PosopYCABzHGzsX1T0aaUqJJTcvzi9MT0hMxhLjtzI2e+/wiHPZH1lZd3KJVgMiylqaHKzgO+03IxQKv758XCgU1VsHywrYuPJaglBUU5KXU1wtXoUmGrIJ/ZBKFRmujWzcqqzqF+EhierXN0gZ5hTWkai/GkOuPFH6ooovAMB5PF6zEnh9JmxGg8RqoAA41G43UUvjf0uJNGMbEjXIbShTa5D3MuF1/SDz1kcnea1sLj98vCG+ppB0SvK76GoHs866nJ6Y35WPfXp3aZNtqp745INMirTkSJe+pIWfcn+by4O9apqqaEVBMWPonnF4QV4heaf88PHhTwqTyay7k/wyb5hCQllVHsGxL7fxGIaDnLwcUe/jGIYhDCaTKjtRgxXFxeUr9O/ZiR1CEOb8gs9hQZ/Dgny83+0LWDPAnBOQUx8ZYtWQ69rLDHux9kTgOz4AANu4tQ4DkiRShmncoT0LXvMBQL69SRvIuJ+Jkc5AAwBUzcrjwB/2OYcWbPZPbXQFwoSPscJRZl1boXF5GAC7k0UnRs6T2LoJ2QRSgncn3SZ5M+pOpmq/7tgswUm33Y8y6quLsDw3lfLrH40hV+M7NNhsJGiQqayppcSoLs4tqZFACpeqQalRMJ+7YYpCwKoDz8UnIlReTVOZxS8vLJFgGFYHYXxhKYH33rtOHj1Rwcrg083AJjMnxXkvSXyROjbbwtZaLeaMx5aHRTgAAMt8zpGVdv01/fzyRMmh4Tmuwwf3VX3+VPpJQo31iItJQyZ27aRwPacCAFCDLp2Vaz7HJIu+3EYCCD75+SVfHD8q+usVJ80yL0W2wUtDH4WvWGXf3yzd3jjl4ea6jSGocxTZ5X3blaSWl9S8eOmzy7dnnVw4+c700/GSv6ZBWvW17oKm+7z+Lu+VsfLSclBQVKgf9CgoKoKovKyy4cr5xRlJSeRb7jbRkG1G6Ict01+aqBRHi+qX2EPE9QsrTkkt5XTmtkFDkjEARM24ff03TaQMcypI+0vAFwBHjtOkZYriKz59tSi+xCNKiU0QOnTvrnUhSeJHeyRqYMVpqeUKhm00UMjFABB5fYNWEo+MSQZLJL4hVkNiNUhtKGNrUA+xxF3XdzIvo217YxYU8QGAY2RiAGnB9X5NViubTcvGGz8i2whi38bKT+4zWl319dlbqQb7Bjq0Ns57/0GiDhfroqKM1Eyw4LZjQyEPAFBNExN1YXralwalHH6Lyxv1SDUww2pK8moAUJ3fR/RkxJ5+V4G3tL9oAABFEBRFGTgOGCbZOK/qY8QHHnfM7Im92um2btPFftZ0a4WsyKhUokKDZadng0nfAe3V5NlsFrMli4mFH3wuvladsHHLlH5cfR0Dbne7CQt3zrFiAQCgrQe5eU4YYN5OT0urbfeRtp0Y6YmNb9XEqsHLSMvldLbsqoICMFtZzZ4zXEvSlIRoj/Bwt+Xq6ncetmDOQDws4Fk+Blh5VnzcN8SnFtQAIGp9Fh3eNxq7c+hyLMeIy+VyuR3aacsjAIAXB994XNzddcXEHsYGHQcv8PxNNcbXP0YIpFI1RempqSkpqSkpqSmpGUU1OF5dmJ6aU0Y5TmSo6JtwuVwjTQ7CUNXvwOVyDVtxyNX4aRpkGDt53b7tvbx3o4XXJFLSNUiiIckhRKmX+zonlbCrj0p1O3DrMdFTbggJRH3EttsBN3eOaM4OMcTxheU+vhul8rv7WK039x82XfUg1ntJ4ovEsdlmtjbqaaFP3yfXumJKQnDwG6GZrXUrFEAQffn4Q57dmr2LHHt1bGdi1m+U25a5/eQoLgmR1zLicrkd9FQQRE7TsMMXK4kS7t16w7BzXzGmJ7ed6aC5y52Mc+7fDPlqZTaW/eB6mK51H62mey8007xk2QYAoDzsUSjef/bKkW3jHz1q2EuWSooMcV1JllIkN68o8fb1t20muQ3VrL9r42i0/eKEXK6RpnzDEfU2RiamloOnbDiwuE9p4LHrtdunEXeKdIiSIyLztIfPnmXXpZ0R12rMgind+W/CoyXZK1yshqR+SNkikTVAyqgUi5T1i/gQSf3iv70TkN7eacmM3obauqajFzqZIzilGqTO1gLwys8xqQp9HBxMdTVbaahwUArlAYAofbUkvgiUK3p6xS+72/wdniO7Gepo63P7jp33e2eK7YFI1OC/CbiXaTrWubcGA1CVbs6T+lDMW298zWKTOdXYRiwkapDZUNbWIOtl4uv6PuZFtIbPnzeQq6vX0X6++yA04u7ThgdkJLWSEClGKdTjjR+SbfCyD+/SjBx/b/suPK4oKqx8yHgr0cf3iRK91hXroqKkBwEflUcsWDS0k76ukdWU5a7mRQ/vRlSSS1EOv8XmjToIBmbEME0d54yz7WVm2mPg5E0HFloW3z19NwuDFvYXDQAAE8dxBEEYDEbTF+PE4LkBf2xhu00bvXL/LCW0ujDl7e1df17+RJjVsJyAoye7r3I9G7hUjiEIq93qt+mn2C3OhbgACONOObucSSE7N5Zxe8286tnzp646OV+DWVOUGf/2xY3s2jVH/EpoO8Vj11wdDQWsJOVN0NZ15z83iguxaohizm46orVy0817eGV5cWKwn8+bTqMlsgIIIn2DVFwOXjNRqUoNObN6VyDp5tAAwDC2sTNRUEFddp11qdepwG+Rw64oAeBloQeW7l60fMbuK57MspSIS6v2eaeIqKSkBFGxXX2+fgtm4xUXbUGUeHaa88k4EbEaP3eDJFIy15D4EALfPpYAACAASURBVGLUt58BW9tw7anBjVqq/YZ73VbjiooKKFaWk1vVjDd3Yh277rpLngW8XGxj/Tbw2VcLlwm8lyS+iGB1tbXWKnwe1choFX9HRCNL7Ppr3LpdgBU83Tavatrc6dO3j9ZRxMoyP4VcCabKwoyOzl4NX7p32nvB6YuVsIybm5bJL140Y/f5VsyKjLf3tyw7FlX1dQN4+csbgVlDpug3+W1zzUtljaqoBy9qhjtovj/4tPGqw+bbsEGUuCuJJCQ1L5b3+PqjOXvdnLs9PfgRAFA9h+0XHb4czvKePf7QOwAApumMw9em1ZTnp0WHnFxwzu/vuhfnJJ0iHTWvji7bJPCcueLoDHVGVU7sixMrDvlL8kBcrIYUfkiupHhr1NlRqqgUj3T1i/gQWf0SfDyzerPCao8/Ls0SZYV5336Q426CiajU+E5gCd67jpqsm3/y5hq2MGrXGA+/QuriKz59fQflq94cXrC0wH3WrD0XNigKilLeBZ0KpfJDEjX470+u3iG/atXVADavNC305YtME71aIeJhT0Ldy1axGYBqbCMeYjXIbShba5D1Msl1SWVeKoSvbwYpTTvozVWpSQu9sGbXvUbZhrhWEiHVKIVyvPFjsg2W8f5DMad1dNgnAcYPD01f3r3mbQxPslbFuiiWdn3DcrklCzyP3WjFqMyMfrRj2ZHQRqVByuG3uLwhrTlwTKHT2FmT22qweXmfwy4tP3YprE5B2Y8P/2sgNoMGMJlMNpuNIEhubhm1BBXdzM1ePH/W8nb+xbAGbHnwh8KeISuCvhnA0tBIC6LmeODWSqVTU+deTZXNrAm09diDN2bnrx+37fkXT/2veq/szUvzH+DXcBtO/03+2xT3O658KNkOCP8KxKav/7N33mFRY10cPskUirRBRAERUEBBRVREKSooig1cC3ZBESuiYsWua1ksiL33LiIqIoiNT5Gua6GI9CpI7zDDTPL9MaAgk8wwjKvu5n322UcI5+Z3zz333Jvk3oSC4kfwawTbvyPbUPzHQAGARqMzGAwU/clfB6Og+E8j02eAYYn/qbsSGT8Yskqqeraus40LA+9GUpMwkLB7Kf4r/LZhg6qb/WHbV4slIyWnbuo4aygv9FE06ev3fyWo9EXxj/ELBdtvm20o/svQcQzBMWDX1fN4EngHBgUFhZjUvNhsK6nH+DLDt/v/aV6XGXZy64X4H/V1yt8LSbqX4j/D7xs2dJV+0+YsWd9BgV73JeHFyTWHQ4Qskf51oNIXxT/GrxRsv2+2ofgPg5gPGcxkMul0OoKgRcXUolYKCgoKijZD07NzHacv6O0cWEH4letRP+Y7IhQUFBQUFBT/EHTgf98KAEV/0nemKSgoKCj+ZfCSHxz2/tkiKCgoKCgoKH4UdBzHMQzjcDjU3kgKCgoKCgoKCgoKCgoKodAxDOPxeADA5XKbfsObgoKCgoKCgoKCgoKCgqIlKI1GQ1FUSkqKxWL9hNOrTzsb6rOsJ034n1JQUFBQUFBQULSEZuB668UlR61f6WkAw3LL4zCvMfItj9AMXG+FvY6OfB0d/nB1P0F7qEXgV6wyBcV/C7qUlBSNRkMQhE4XtSMjir0cFs4ZP1C3g1R9SfqbgAtnrv9dTPi6BIaJxz2vLucmCvxyKF6THh70IusfeIMcqYx/AkTeYKyTo71ln65qLGZtfmLE3TPHrsZ8fc2EjJ692xonm54d6eXpUX5Hvc7z30AhxIoP2mHEn5d22CiF/Wm7KrBSmBBUzWrxkj9MDQ30NOSrH6wcsyuy/ttBAhkSLpAxbOfjPSNlWmzG5SWdcZp9JgWXtEJSKwlXmfBQ829PN4DlXlsw1fuDoC/Gi8hPD2wAAKCrDpixyNnevIe6HK8i91P4Ne+//FPqAQBl9Zu5Ytlkc/329Mqcd4/OHTz2JJMDAMxhns93D69/tcNhjX8RDkA3dr993DRozqzTScwRe5/sGMbAsfq68sKMuPDAKxf8/i7if/OXbux++/R0tSaTBk7o9rErH9ZZk0VURm/BVpW4eAp/l+8PixMbqHKfSYtc/hjcS1OBV5oV//L2qTN3EypwQDvPPHV7ccGmYRuftXybIZEPUW3ni1eX9KAD4DivvrIw/d3jy4fOPMv89qVrmSFb/TxHSCeecnS5kt3Y70jPRYKMjq3Lktkjjbuy6LWleamxodePnPpfHgbAMPW4e3SiStO5Zv3bAxMW3zX8kyhs5p3XOvGXGBElJGyI3CsEwf1LZsTeJ1tYR6csvJmHAQAwzDb6exv5O884kcAjqrJPPiZygaiS6dKDe8fVXl655kJc1e/ymtd/ErrRct+jnU+PWRPY9HuchHFI0QTex2NTLY4hyhMP3533s7X8w8Oo4LChoPg9oWMYRqPReDxeTY1oH5VCOoxeu9W5U+ThLd6vi6W6jZi3est6zrJ1PlnizK3wsqjzu6PEMPz9QDr0H6JbGXnzwPn0/DpWv2luiw4ckHZxPv2JC4AoWLh7ewxKOrJhdlhVtynrN+/ZWTtnybUMjNSqAVrn8Ztc2mdncJVEVCItSy+JCzofljZnuWVziYQyJFwgN/qYy8zLNACg911wYrlm4Katd3MwAJxdnMUDQCWskMRK4lUmPoRX/G+fc2K7xnkdomy9atccVnhY+u9yUUIIwhqy4dTOIcX3jm49FFvC6Kg/cJSmKg1S6gHVmLDda2HH0APrd7+v7Wy7dMM2L0ap497X/I9z4bj0AAc7nYcX0lq4gJtw0X37k+r2Ov1GOy44ekbfw3n3y1IcgPfpqvush0xG/8Un3TreX7/dP49XlVeNA04aUURWAOIr/FeCyPV3O+Ftz3tycpfbmzyuooah2YAeqmhCBWn1yX0INaH75h15XY9KKeuOXLJ2mxfkTTua0JC/ZPpZmZb4+34ZOXSwxrXr2W2ZaSOKQ9ce3trv07mDq7al1ciqaveyHKjOQqFx+o59frDF43Za4ynwmoIijCwRFTPFiyggDhvx3EvSv4QgqMoiF4gqmy0/6Glbfm75uisfa6hrSFERFocUFBQU/yboPB6G4xwM49VzOQDCF5ci7YwsjJgfTpwLii/DAQqun/O38B43studs9/fo0dY9ocfbDDjP33xeBjjAQCc8J32y/3LcACa3vxrl+fp0gB4WZddph+Ob7CmGy33PdInLVqun6ls4vWzUd1nzzWRTrzkseJcbA0AIDK6oxctmz3cWFMByjMi753Yfz6igG+KKg9wXOk2caBueya7LC855sbeHfdTeOQyEIU+U1e4jDHR11Rph5VlvXt66ejx4PQ6ITIYQ7Y/8lR9eL6kt51xJzkojL7p5Xn1fTn5SIulXV274utP8Wmyxg83DDbvfPZTBoawrCaPYL076nnrdQEGaYeP9B3iPdne8NbhOC6JFf9XTN1ZW6ZVnd380v5sb6GNxxeSHnjIGwDVdp7aXDGJDEkXWJWXmpQHAMBUreDh7KLMpKRUrC0FflVIb8dSlqXVlRdVcESwEq9AEoVkh7CK3JTGL+qgHcfsntgj94rr8ehKMWdoJIENKvaHfF2rdkze+IxfOqIwfMfdzfLHHNz9Cmlk0UvSvwhh9Jq1dIzsi03O3k9LcQBITY4N5x+hdRs3qR8Wsmmv3+sqgKST+7qaX5412eLkmycVAADcuNCYTuMn9b+xL7ruuzJxdmlOekpeakpCzNsyJR8P1ym3w04l8QCvLcxIKgSmWgWOKxZlJic19gPyiCKyaoNCsSBwL6o+7dTNackrp+x9zQ8ytNOUo76Omasm7YlikzQKw2yjv5favf2pPafZGKjJViXc89p85FUBJiT3EoJqT1k2We2D97Rdfp8xAIDUxLcvhVZKiA9xvKogMyOTA5CRnn9/9JT1Bj2UkIQiHABAup+VGTtmo09Wl/G2g9VuXs9tw1Sb0ct6sGLsqb0XnhVgAJCe8iHqadPjOLskKznpu1GKNGzEiigAwrARz70k/UsYAqssUoFoe/OVB/8aXnxq2frrSbWinU0AEh/NSQ8RjuYAAMzOI5Z6LBnTWxXPj/K5Xzxyof4Dx7mXMzFyGWJAHoeossmsFW6TzPVUaFU574PPHzrWoJBhttF/f4fjY90flOEAaBfHs1fGv1k85VgCj7ibAwAwtWyXrV08uncH7HPU7YCSpk+fSXxIQuuzjRDPAyBMzdEepx1H9VCqywq/5e156U2J0I5O0igkVQYAgiGb8DxCUiXSfuJh/3m5u3YXWC2aMEhHESv9eNljyfl4lLi9JB1RFBS/NigAzuPxcBwQRLTl5TQaDYX6+sZpNl7PqUc66nZTbLH6By/1d7McZGKx1LeQHe05doDpIBPTIcsa5zG85DPTzAaZ/nHwXctrFLpi6aN1S85mGM6d3z1kzZx977WmTugvBQCohv2u48sNMq5scpoydc62hzBu5z5HXf5iXFlz113zusQddJ003sFp1YEHaWxUuAxEWoVVG3Vlx4o5kxycN/lWWW72dh8oI0wGAACjr7Ve5JYpY8fYrQhSmO25aZQKCojC2P3h0ZGvv/svQsDmT0RaVhapLywowwGArtvLgJ7zPrZhZTAn4d1HXidDg/YtGqSZFQCATJ/5W8bnHvd6ViSBu8Uiy/iFC6TpzDj8IMBnrRlDJCvxCmwzqIb9xhUDcs7tOBsr/hSNJLDx4pD7r3CLsUNY/F6JKA0ePQiJCHjWuFxXUPQCcf8iDWyajoW5em30s7DS72MQketu2AVPjUtseCyFZcd/rJTubqjT0BvwqkjfgJrhU6xZJN8awosjQuOxLib9O/2A7S8SUSgyhOkLyw95HKdoZWPckF3QTsNsDEv+9/gtm8yKD72vbf9kL6dxtmNXPpd3WOcyQArIYoOsKdFOA8118Q/PWrf+TpgPv0JT0Btp3QNy4hMb85d0P6tB8CYyPj86Ik3fekjbWhirKKtANI1N1KWE/+0PRnDYiOdekv4lJkILRFUGrz7saf3lmJtHW64hG5DoaE56iGQ0Z/Sct2e7Lf5w81wH513h2hPGaHwtT6yk1wjOKcvPLapu2qBkcYh2cdjp5awVf8zNYbLz5gDu8C0HVg6UEyW3COzmAEyjhXu2juD5b3RymLcnutvEsZrftJH4kBhxso2QeRQA3WTyqNrrK2dMd/F6p+H01za7jsKUkMggqzIAtHbIJp+m8kHkhy6cpfh0u+MIa9spG28lCLnzK8SHIDBsKCh+W+gYhuM4BgAIoADCByq88uO7VHzW2Am9X9/4UMbQtHKw1QYkW1EBgRJJLXzhpsREpH/qEpfPgTeRGRn0D9nMwWqKKJT0nOJkknNp+sHAXAwAPt/2vmHtO2GE/uWUBB4q16mTXF3mm5jkvEocigqyEkU5E1bw7MS+xh/y7p32G3t9wgAdWlQCmYwCAABeZsCFwGw2ACTfuRIy08tuqErwnaKXB5xmnf5+VMDZJdnfLW5iWS6Y3ivHzy2kDAcABktZDspKylVsd55bpeG/Ysm70irQUmYh8IXEChBFM7fNwxIPOL8swSXxeiQRZfx2BZJYSVyhKNC1pm507fnp+Nyrya3a+dUK8MqwByHVe8fYdAryycNQVeuxJnUhG159fWAuMHoLUML+lUgS2DRV9Y5Q9DK/ZV0QRZYSiheVVzQOl1h5WQWipKz0dRLBTbp7J/mawzit4BvEdakoKmKjxqoqKLTlYZVAJKNQROgk6asgJPi92wKb/gejw+sAVbe2MSh6fjSOI8QKAICXGXgxKLMWh9oPj15kTR5sqI5GpRP7Ca8ibkrUQL0jWh2VV4kDQDvb/YFbh0gBL/+262Tvv4kXJJD5EAMARNb2r/8NxwClM9C6zMd7V51tXNEq1cfanPnWK5aN1UVF5i6wsux4y0f8pX/c+Cv7bvbast43cF7ihw8f3kY9D37+7su3qKTpOF2OcGr8Ccu+utDhcGwbNiWTixEQNmhHcdxL0r8AAIDRd+Xd6JXffualNzEVWGUhBdK6zvzrL5X23PeP3mRJ4hG8hEdzkkOEozmPaTzeTjP15qbzEekYwB3va9ZDVsvx/464f5ElvUZ4iZcWTf+uvsRxiOrY2veqClp16PFHNkDutf2XLX0W/zHwUNQzoRuKBHdzZj+7MRppNzdcjEzHAHy8rg21cJcV7ihixMw2xJ7n+6wg6NiJ/yVxAD4fO2k2fI/dMPUHN3JIejqJDBpJlX8YjJJHB488TuECQMGH5wUAZAv3hPkQBIYNBcVvCx3HAQBBGpKlCBeCWLbf/qOd183bf9MB52EVCf73XxTM0sEluXcCY7O5gNdzuDiHzcFx4HCAyWQCytLv3pFptOJO9LdlnoBX5CrTAHhY0Sv/5zM3bL95wT7mw8dPcWFPQ2ILhW4eAZTVe8LcmaNN9NQUpek0VEqOUZMk23A9TSCjQWNu9ueGpMDNzc5HzLQ6o1BQlZ+airQYePjX6Y0g8kbzPLcMStnvevJtTZO/AqivLi7IZ5TVCfJlCytUZdhaj/4xu13CynEQcD8T1Zh+wmd5bwYAYGX3V45v9p4aYohlSLxAMSEtkJd8ZvbAM62zEq9AcWHozdy4SPvNnrl3xdpNLCp1bwIeFRwfO1LT91K2hs0oo+Inp15/e7AgMHqLiPsXRhLYTGgD2Jfg26+cl0029ntG/Ec4gKAI/2cQSaEokKYvvPjl49fLXW36y4SHsTWHDe+e93x/fL0wKwAAvLBhwxvg7No6kJZt+VaY5vUhbsqG5Rv8TlAbtn+O4/3x2/cMa6vra8O8G/ZG6ljMWua+d8kXl0MxlThIGVtZtIs9/rYGAE+LjCqaZTVY1bfhDTDigBVHHHMZf1O/r4mxUa/+w5Yed57lu87VO6rh5knzjYJ4fWn2j7qGBCAJG0m7l5t4Ze3OYH4I0Pu4HFql1USEOFVG2nHf71n7afTWedud/55/Mr6tjyMlPJqTDfSEozlLW0uBnZrUcOWCl6WlFGHGDSZiJT3SChPGIV1TWwMyfNMaLuCxouTkUoaxVicUUoVFvcBujrI0teTrUlMa9hRjJSnJRVifRhlizIjEzjZEnucPMrys1PSGM7PTU7LBXLszDUguI0lkkFaZj8SHbIDqxNh0UbOFUB9SUPzLoOM4jqIIiqIYJur4zcl6ut/1+RFFZUW0uriMZr11HF5SLLFHkd/Acbxx0AUE4f8PL/d3H/dnmIBsiOUHb5r6pnv//sa9jS0mrps7Z/gOp/UB5JMSVMNh18GFUv779px897mSg7e323122vcDRwsZDbY0FGm47kZp/AkYojBm76Otlt/Pq5tu/kQU+s7fv8+u/MSyLfcyG2tRX1pSBZ2VFctvezu/AgDZkSw5KCv5tuZIkBWt2wCTjpoKXg/H8+XQGTTYEPw/u6OzXK/nYADYl4AtMyKkEQDAeZUFIiRBITIkXmDrEa9AEiuJKxSGlIHT5rkdnm9dF/TlB69o4X4MCEybOnqU/o2ng0d3zwraE9v06YOA6CXpX4jCWOLATizIK4DB6h2ZkPjdjBMvLy3DEHlFBRRqMAAAVFFJAS8rKcO+faEWr4q4FbTY22HomyKCiiDyHVSksKICUV7I21oko1BESNMXXhYWHO2+ysZENjLXxkY355nnJ55wKwDA8Wa38IRdlJDlqKNf8r5g7Tp2bIdAGY5V5aenSZWwBZbSTACJD/kCv+6NTEvOkDcOWDnN6uLrB2WMPlYWKjIqGx+82AAAgNIZmLVlB1/ftnUMTnFSVHBSVLDPuUvj9t7YMGfk9Zjb/EGAYKPgj6Jl2GBiuRd4hP2Lf57awvSkpIY3tbYvb5aWBVdZSIHcuJtH778oeH28/6UVW1xfu3i9Fnf3dnOdkhrNCQ+JNJq3QLykFy8sjATGoRCb5rKaKyfq5jjwP/vdIK7Jv8WaEYmXbVrteWFPHYhloKRV/kHgbDZbqOKv9RXmQwqKfxl0AMBxwDC8lTf8MXZ5UQEAojrapg+afDWe8HXgOIZhCI1Ob5y1ig9WkpRUKGvRvwczLFbwghxO0aeI4E8RwT433u8PWD/ESCogv3GgFChDuteA3ljohhNB7zkAAEydjp1okCaSGLqOXjcGvOEAgEw33c6QE5iLkS0YAwBAlUxdD/xlk39o6Tb/zCY14KbEJ3LH9u7VHk0qwACYPYx70PKfJTZs2COwqn9/2mXqDVrDyRRtNh6bV3/aZc+TnMZxglv5JVPo1z+aQi7jBxTYakQokC6v0kGOVlv6paxOBCtcrALFRtZo4eYZsgHrDrwUfKGKyiipyDM4lcVltSL7iLB/YRlBDz84TR8/RdZU8+OdoGYLHQVFL0n/Ig1sXnp4ZL7TqOFmii+fN3/NFF6VlJCFTOnVQ/ZWfhUAoJo9DeTrPiWk875dpAHUf/TzS788eWys4P0ySHszy55ots8b8R9TEdNGha1qLyHpCy8PfxK5Zp2NRe9sG52Mx9sa3oUhPOmRVa9lbJA1JcaJikhdMtvaUiUgoFD0ACTxYYshhcupB5q8vAwCNb2tLJUSzrluf8y/A8kwWnBkrbWFip9fgUQaGiv/nF8NfeTbSaIwsfg+bLB8cdxL0r/ERFiBOA4AvGw/z4Pm5zdsXhEzZ+eLJulKnBwliDaN5gIPEY/mWGlGZrmUgX5nNCwdA0CUdLo1fglFzKTXino2iUNeTmYuGOt3ZUIxGwBQFV1dFjc76wsGAHhdLRukpKX4fZWmrNpe+HwMK83KrJTV6qyMwhcMAJHR0PzOisSHAgsUL9sIm0fRunTTYUAJBwCktHU1ISukiQvrOfUN9RZFhvAqizdkt3qaSthebcrYFBS/ISj/7hKGYbjI61Lp3W2d7Mz7GuobmU9Y96dL37LHV4LzCY2xvOw80DUb0k1Jhslk0NvyFgVunM/lN4oOW7bPMNfX6KSp39faYdnuBaYMAAC04zAXN4chRl3VO3To0neMVQ9admrTSzWBMtg5WV+kDEx6KaAA9Pam8xeM6iDqtTSiOtp1sZW+moaB7dIFQ/GIgBeFGGCVn5OTWpCcWVQHgCgNWn54/3js/qGriVLa+vr6+vp6XVVlEADAS0NuPy3t67RmSj8dze7Dl7qNU0zw9U/gAqlVXUl2ZmZGRmZGRmZGZk5JHY7XFmdn5lcIfUxIU9DQ1dfX11aRQmiKGnr6+vpa7aXIZfw2BdJ0pnnfu3dj9cAm2+tJrMQrkEQhySFEbsDijdMUIq4/KVfT029EV13+a5dAWKN33Au4s3t0a17oQty/sC9PH8Qo/LF4Yoe3gY8/N5vzCYxekv5FFthQH3v1+GO29fp9y+0HdO+q29t8rMv2hebSAMBLeXj3Lc168ZoJ/fW7Gg5buHqaTn7gnbDvPpOH5T26FaFmOahDk+0miBSrs7auocnwGZsPrBhUHnTsVjL/ab5MB219fX09dQUEkVbR0mvuQCKIrcRXCK1uL7L0BQBQGfEkHLeYv3ZMl+QnT76++VOYFRmCYoOsKbH028fuFpks27dq/KAeOjrdBw3v/93LMOTVv4Wuvr5eF2WmUB8iiJyqlraWto6ekeXk1U4DIC36dQHG7G01mJUV/vxDOj+DZaSEhLzl9ray/PZ6K0HnIoFm6LzP0336SPM++l27GphNXOU+Rjk3KvrrR0QQKeUuTQvUVhGy/JcMkeLw+7AR7l6BEPcvoSoFV1m0ArG8AM+DL5mjNniMaqJSrBwlEDFHc+JDJKM55939gOxu09znDtRSVTMcv2yaEYILlUGa9IghiUNe2qOAePnRS5eP7KGhpm06Y7WTUcnjB1HVAAC89IRP9d2HDteSAkSmq/20YSoihAbnbcDDXMOJswYq0wBV6DNr6qBvMS1sRtTqRiFG2DwK6TBqyaKh+mrq3W2WLB6GRj14/u2eIF79KSFTdpCdnaGaSntlBSlUiAyyKjc0gOAhm5xWT1OJ26stGZuC4jeEDoACIK16FInzZPTHzpikwWJwilJe3958zjeG5NPEWH7A0dN91zmdD1opTauP4L9Jufmn2I0vhDkCcJPOzHI8l0F2Zizn3vpFtfOXzFx3eokyva4kN/ld6O08/qJ9TjV0meHqubCTsixWlvE2+M+NFz81W+EhQAYv4fzWIx3Wbr3zEK+uLE0N8fN522O8aE6oj/YNVnA8eFNXoSYz7JyHZ5Cw+8s0ncHWurIKqKPnecdGTUV+y+08Y+oBrwg/sHLP8tVz91xzo1dkRF1Zt/9GBk+YlZggClYeFxvfcK2z5rIV8FLPz551OolHLOP3LpDESuIKiQ8h2mbmmkxVrQ1nhjcpqfGr5QAASLt2sihWkf+lNV9pExjYDfUuexHwasVgy3dBL777pjJB9JL0L1IJRc93LKqZvXDOnJ3jO7XDKnI/hl0L4fILvLN1lcyK5XP3XGxPr8p5F7h91bGYmu/t8cpXt4M+j5ih8e1XdMO5h2/OrqsszIoNO730gt/fDc9DaN1neX/97Pu0fZemNXMgESRWYiuE1reXMPfWxDwKrRtlp/Lh4PMmG4fEbBQA0tgQDF4RdXDR8rzFLtP/PLlaHqnMjX91eNul919vqzBNl1+4/O3PuUknZs85lyrEh7KD19wYjOMYt7b0c2L0hdUnribxGP2sLDsUv4xp0teq/o6KRdytLZTv3ishORex9vz3f5fMHOEycp4qSxaq8pNjbm48ejHu68QZVbfbednum28+35g/+dB7MfdHihaH34eNMPcSQNy/hEBUZRELxAoe79lnfmXXyi2T4pfd5m/lFitHEVRLrNGc+BDZaF4ff85jm6yH619X5vE+R9y49yh/sS7GEyZDLMjiEMu6tXm1tPtSt2O329Oqc2Of7Fp1JJwfM3jZs+P7BmxzOx8wuyQn/mngk2QzC+En43w47bFLZt266wFMdnlW+KvQXF31Rh1CZkSCEcsbwuZR3Dd3guVmH7yhr1CXFX5pvefDpgvXsZQbnkd1Ny45fWc9kxvjOcHVrxgnk0FS42eCYAAAIABJREFU5TbQ+lRJ3F6SjigKil8bxNJqOADgOI4gSHWNBN7M1seod+jLF20v5xeGMWT7o79k945YE9xivklBIS6Ikv2Bu2vlzsxceD1TMgs40Y4TD96eX7hp0o6X3yKVil4JIfn2oqD4tfl3xLyUxVb/He287Nc+rvrZUigoKCh+bxrerIPjuOiv2KGgoJA8Mn0GGJb4n7orkfkZQ1ZJVc/WdbZxYeDdSOp68Ucg0faioPgN+G1jHlU3+8O2rxZLRkpO3dRx1lBe6KNooV/ZoKCgoKAQAp1/9YhhGJdb/xNfq09B8V+n5sVmW0k9xpcZvt3/T/O6zLCTWy/EUxv9fwiSbC8Kit+B3zfm6Sr9ps1Zsr6DAr3uS8KLk2sOh5AvWqSgoKCgEAHEbLAVAMbj8TAM42FteQFOA/+BRa0UFBQUFP8sND0713H6dAFHsILwK9ejfsQnYf4J/q31oqCgoKD4t4MMshyKIIDjGIIgdWwJbAOmLiMpKCgoKCgoKCgoKCj+xfAXtWIAgKISeBRJQUFBQUFBQUFBQUFB8e8GxTAuhmEoSl1FUlBQUFBQUFBQUFBQUAgHBR4wUBpgPJz3Ez5sg6pPOxvqs6wnTfifUlBQUFBQUPzK0Axcb7245Kgl/n1pmoHrrbDX0ZGvo8Mfru4naNPoD6Pt4n804in8rRuFgoLiFwZlMplMJlOZ1V5WVrbpAaSjuYvHjuMXbz4Kfujn3r951pDparvU++KtoId3fI5vnN2vPVluYph4PHxxfGJ7gS+BxWvSw4NeJPwD70wjlfFPgMgbjFv61+mbgU9fRLx8dPf0VscBKk38JqNnv/b0ncdhr54HXvnLZWDjISFWfNAOI3YGRkaGe42RF0EIqmbluuPgpTvB4ZHhTzYOYjQ7SCBDwgUyhu0MiYmOfP39f2HX5+vSfoBCUisJV5nwEKJkf/Dl91WOvONu1LYR+acHNjBMPQKim9cr4tSUTiiqPu1k+Iv945S+SaP3drsb/mDDQCaxFQBzmOeryJiQ/fYqfEO6sfvd8BsL9GlCwub3QIz2ktGxddt39cGT8Fchzx5cP717sZVaY5CirH6zt1+8/yT8VUjwTW/3EVrMhrOYb3kS2sQtUiP+einMvQAyI/a+inwdFRH9KuTJ3Qveaxz6qYji129NGRMZ+vKRz+lts0078BWinWeeiXi1aziTsG5DtgaFvwo5P1vza5U0pxz93/9OzOjytSMi8uYbHoT5rh3QjnqTuEDoRsvvvdw3Rq75b0nC5heH9/HYVAuTgWN2R9X/bCkUjfxijSI45ikoKP5x6CiK8r8ayeM2u5ZDpGXpZYlPr0XrTp8/qJkJIj9wwe7l/VPO7l4UXa1jv2zNlnV1bh63s8V5nRxeFnV+d1RbKvDbgHToP0S3MvLmgfPp+XWsftPcFh04IO3ifPoTFwBRsHD39hiUdGTD7LCqblPWb96zs3bOkmsZGKlVA7TO4ze5tM/O4CqJqERall4SF3Q+LG3OcsvmEgllSLhAbvQxl5mXaQBA77vgxHLNwE1b7+ZgADi7OIsHgEpYIYmVxKtMfAiv+N8+58R2jTM5RNl61a45rPCw9J+wCkDiYJ8fbPG4ndboNrymoAjDsLDQT0udBvaRDnhRCwAAaJcBAzpVRL54zwFgEFg1/BOXHuBgp/PwQloT7wgJm38niOLQtYe39vt07uCqbWk1sqravSwHqrNQyMMAUI0J270Wdgw9sH73+9rOtks3bPNilDrufS30O6EC3cuHm3DRffuT6vY6/UY7Ljh6Rt/DeffLUuG3+bCce+tX30jFpVi61i7ui706Y44LrqULHRNk+lmZlvj7fhk5dLDGtevZGABg2XcPXBx1bq6b7ZN1QYUYgFSvOctGocEbT72upj7RICpkYUNBQUFBQSEZ6AiC8DC8vKISoNkYjWU+PXkSANWc+UdzC0TR0m6oYtz5Q3ffF+KQefackfkO+1H6d88kcr/7Q5b94QcbzPj3oT0exngAACd8p/1y/zIcgKY3/9rlebo0AF7WZZfph+Mb5jN0o+W+R/qkRcv1M5VNvH42qvvsuSbSiZc8VpyLrQEAREZ39KJls4cbaypAeUbkvRP7z0cU8E1R5QGOK90mDtRtz2SX5SXH3Ni7434Kj1wGotBn6gqXMSb6mirtsLKsd08vHT0enF4nRAZjyPZHnqoPz5f0tjPuJAeF0Te9PK++Lyef42BpV9eu+PpTfJqs8cMNg807n/2UgSEsq8kjWO+Oet56XYBB2uEjfYd4T7Y3vHU4jktixf8VU3fWlmlVZze/tD/bW4T2BgAsPfCQNwCq7Ty1uWISGZIusCovNSkPAICpWsHD2UWZSUmpWFsK/KqQ3o6lLEurKy+q4IhgJV6BJArJDmEVuSkVDf9GO47ZPbFH7hXX49GVYs6NSQIbVOwP+bpW7Zi88Rm/dERh+I67m+WPObj7FdLIopekf5GCs0uykpOSvvvL3LDQtIWTTA0ZL97UAwDawWSAdnXk2bd1pFYAANy40JhO4yf1v7Evuu7rL3HysBETgiqj6tNO3ZyWvHLK3tf8hkc7TTnq65i5atKeKDaJoxhmG/291O7tT+05zcZATbYq4Z7X5iOvCjAh+ZAQRi/rwYqxp/ZeeFaAAUB6yoeopw2HaN3GTeqHhWza6/e6CiDp5L6u5pdnTbY4+eZJBUmBAATu5YOzS3PSU/JSUxJi3pYp+Xi4TrkddkpQE31nVl+el5mZwYOM9JRd7fvecRti1ulG+mchVtL9rMzYMRt9srqMtx2sdvN6LgYAUJ92Y//NkacWLjR7tSusVmfKMgfFV7uOhwlJsMRIfEwhPUQ4pgAAMDuPWOqxZExvVTw/yud+8ciF+g8c517OxMhliAFJ2AAAqmwya4XbJHM9FVpVzvvg84eONShkmG3039/h+Fj3B2U4ANrF8eyV8W8WTzmWwCMObAAAppbtsrWLR/fugH2Ouh1QItJTT7GGUWL3ImRJDyNzrzDxAocAclCVftMXu0y0MFBrxy1Jf/fo7P7jL79g5LEBSPuJh/3n5e7aXWC1aMIgHUWs9ONljyXn43liuZe0XoTeIFfYSui9V/gc0bs6ealfUZNWpfdbfeegxmn7lYGYkeBzCcm9FBQUvxIojgOXy8UwnCfi3kiajoEe/XN8Qgk/MXCS4pJ4HbvrK7dYb4SX+rtZDjKxWOpbyI72HDvAdJCJ6ZBljXMmXvKZaWaDTP84+K7lNQpdsfTRuiVnMwznzu8esmbOvvdaUyf0lwIAVMN+1/HlBhlXNjlNmTpn20MYt3Ofoy5/UaCsueuueV3iDrpOGu/gtOrAgzQ2KlwGIq3Cqo26smPFnEkOzpt8qyw3e7sPlBEmAwCA0ddaL3LLlLFj7FYEKcz23DRKBQVEYez+8JaL7iIEbP5EpGVlkfrCgjIcAOi6vQzoOe9ji/lDMifh3UdeJ0ODlmuFm1kBAMj0mb9lfO5xr2dFErhPL7KMX7hAms6Mww8CfNaaMUSyEq/ANoNq2G9cMSDn3I6zsbViF0IS2HhxyP1XuMXYISx+r0SUBo8ehEQEPGt82CcoeoG4f7UisJuBZYeGZrFMBvDXViLy/QYZ1EWH/i30YRkAXhXpG1AzfIo16wevYyRMKVh+yOM4RSsb44Yej3YaZmNY8r/Hb9lkVnzofW37J3s5jbMdu/K5vMM6lwFSQNZepO7FKsoqEE1jE3Wp76Ujct0Nu+CpcYkN/sSy4z9WSnc31BG+EFUk9+LFEaHxWBeT/p1a12HxOjYbRxgM4Yu1pftZDYI3kfH50RFp+tZDvp2HnXB5vx97lJujkfaY5U5d3p08/KSNH0+U6JhCeohkTGH0nLdnuy3+cPNcB+dd4doTxmh8La9NXQ/nlOXnFlU39RBx2ACgXRx2ejlrxR9zc5jsvDmAO3zLgZUD5UTpaAIDG4BptHDP1hE8/41ODvP2RHebOFZT1DXmBImIBEL3kiY9klYWKr71Q4BsX7ej3vN0Ui54zJ3k4Lz2fKyMOn+RN+l8g69afujCWYpPtzuOsLadsvFWQiUurntJrEi8IVxhK+CmvI/n6PfUb+Y4VK2XoWLG+7gKnPBcpLm3AQExT0FB8TOg0+h0QNF6LgfD0O8eSAqGoajUDspLK9sP8zi8WC1ok0dceTVoKimiIP6t0+/gpsREpH/qEpfPgTeRGRn0D9nMwWqKKJT0nOJkknNp+sHAXAwAPt/2vmHtO2GE/uWUBB4q16mTXF3mm5jkvEocigqyEkU5E1bw7MS+xh/y7p32G3t9wgAdWlQCmYwCAABeZsCFwGw2ACTfuRIy08tuqErwnaKXB5xmnf5+PMbZJdnNXYOwLBdM75Xj5xZShgMAg6UsB2Ul5Sq2O8+t0vBfseRdaRVoKbMQ+EJiBYiimdvmYYkHnF+W4KxWulgQIsr47QoksZK4QlGga03d6Nrz0/G5V5NFvrvdSvDKsAch1XvH2HQK8snDUFXrsSZ1IRtefb3TLzB6C1DC/pVIFtgoANB0nC5HODUewLKvLnQ4HMsFXlroqxxHExM19GMOJt3H1Ij3976Y6q8FEFgBAAA36e6d5GsO47SCb/wYHwEAAJ0kpRSEBL93W2DT/2B0eB2g6tY2BkXPj8ZxhFgBAPAyAy8GZdbiUPvh0YusyYMN1dEokgWeeBWJe7nxV/bd7LVlvW/gvMQPHz68jXoe/PzdFw4AIIosJRQvKq9oLBkrL6tAlJSVREnkorgXrygqYqPGqioo5Io6XaMrdLVePLUv7bPP33kYPzYIkepjbc586xXLxuqiInMXWFl2vOXTuOiy9u3Zg0FWf+07zmamXHAKyG/rdFHCYwrJIcIxhcc0Hm+nmXpz0/mIdAzgjvc16yGrG/Z2EUcUaddrgJd4adH07+pLGDaA6tja96oKWnXo8Uc2QO61/ZctfRb/MfBQ1LNqEILgwGb2sxujkXZzw8XIdAzAx+vaUAt3WWFFNRYoKBGRNTaxe0mSHkmHpYkvngBEedjMSWofjkw9yA/bvPzLCULFf7VmlDw6eORxChcACj48LwAA8dxLYkWWvkRQ2ArY8e8+SU/qqU0LT+kybo2j8rP9l19Dj17aZbFHP2Mk3sCIc28jAmKegoLiZ0BHUFRJQaGktJjN4SBIK15UUV9dWljIKK/7AbeDMDabC3g9h4tz2BwcBw4HmEwmoCz97h2ZRivuRH9b5gl4Ra4yDYCHFb3yfz5zw/abF+xjPnz8FBf2NCS2UPhecJTVe8LcmaNN9NQUpek0VEqOUZMk2zANI5DRoDE3+3NDZuXmZucjZlqdUSioyk9NRVoM+Tje1EmIvNE8zy2DUva7nnzb5LkMDlBfXVyQzyirEzQHbGGFqgxb69E/ZrdLWDkOAu4koxrTT/gs780AAKzs/srxuyJF2hlPLEPiBYoJaYG85DOzB55pnZV4BYoLQ2/mxkXab/bMvftD9/PVvQl4VHB87EhN30vZGjajjIqfnHr97cmnwOgtIu5fmLDAbr7LEa8vzeZfDfJSXr36MtXUhHU1p8LQtC/j3emoJot4iaz4B78E337lvGyysd8zCfhDMKQpBS9++fj1cleb/jLhYWzNYcO75z3fH18vzAoAAC9s3OSJs2vrQFpWhvxRD6l7seKIYy7jb+r3NTE26tV/2NLjzrN817l6R5W3reoiuRcHEJRbBEDTnn0xbDYAgiC88qSn+7adjxOWHqSMrSzaxR5/WwOAp0VGFc2yGqzq69N4wYhXRp688G7Mus6+6/0y295TJDymkA03hGMKS1tLgZ2alNMQGmVpKUWYcYOJ+F2PqMJEYYPTNbU1IMM3rWFSjhUlJ5cyjLU6oSB0hbjAwEZZmlrydakpDW9HwEpSkouwPkJKalQpcBgllUHkXh5x0iNxrwjiWzsE0LS769Kz7r8RVA0S8Q1UJ8amc5ubiONeEivy9CVcYSvAiuPi8tx6GijQ6odOHGOtLPXU511Vzx54wtNP9aTeIMy9FBQUvxp0DodTXV1dX8/DcbzFYCWI+vKyalBnyVf4n3KLAgCZYYrtoLysXPKXkziOA94w50QQ/v/wcn/3cX+GCUgoWH7wpqlvuvfvb9zb2GLiurlzhu9wWi/kLjaq4bDr4EIp/317Tr77XMnB29vtPjvtey+0kNFgS0ORhrv+KI1/0x1RGLP30VbL799K2HTzJ6LQd/7+fXblJ5ZtuZfZWIv60pIq6KysWH7b2/kVAMiOZMlBWcm3F1sIsqJ1G2DSUVPB6+F4vhw6gwYbgv9nd3SW6/UcDAD7ErBlRoQ0AgA4r7KAfHujKDIkXmDrEa9AEiuJKxSGlIHT5rkdnm9dF/TlBy/H4X4MCEybOnqU/o2ng0d3zwraE9v0Xq6A6CXpX4jCWJLABiDZ5cj9FBpW8oepcbuAnIEm8u+vRzXd+0S8NxIAAK+KuBW02Nth6Jui1lS8VZCmFLwsLDjafZWNiWxkro2Nbs4zz0884VYAgON40wgSllZFyBuc4qSo4KSoYJ9zl8btvbFhzsjrMbe/lJeWYYi8ogIKNRgAAKqopICXlZRhAAiXy/3+vDiXy2vqfKHuReQ7qEhhRQWirCfFPgdsWXszhcurKyvIL60VwYLZx8pCRUZl44MXGwAAUDoDs7bs4Ov7tWPglaXlPEyhtFyEVCMqEhtTCA+JNKa0QMyuJ2xuLyhs8oXYNJfVXDlRYOPQdE+MqPtjAAgSEdnfk7qXKOkRtzLaFvFENNaodeIBAABns9ktbMVTSGhFEvPiRS8xvPT3sbV2vQ3UpPpjftfiBw3s2TnPkJX6LK5WyLkIcy8FBcUvBh1F6RxOPQ1FGXQGDxNh+sxLT0zhjjDowULSinAApl4vPdqXl8klRKY4hmEIjU4nSq2ig5UkJRXKWvTvwQyLFbwakFP0KSL4U0Swz433+wPWDzGSCshvfAIjUIZ0rwG9sdANJ4LecwAAmDodO9EgTSQxdB29bgx4wwEAmW66nSEnMBcjXZwGAKiSqeuBv2zyDy3d5p/ZpAbclPhE7tjevdqjSQUYALOHcQ9a/rPEhg17BFb170+7TL1BaziZos3GY/PqT7vseZLTeOXMrfySWSlSXUSS8QMKbDUiFEiXV+kgR6st/VJWJ4IVLlaBYiNrtHDzDNmAdQcI3n2JyiipyDM4lcVloszD+RD2Lywj6OEHp+njp8iaan68E9RsUaWg6CXpX+SBTT75q49/GVH9p2kfbTWTTgmBEa26Qq//6OeXfnny2NhWbM5rlQ+FpBS8PPxJ5Jp1Nha9s210Mh5va3i7ivBERIKA9hKWN5opLv+cXw195NsB4FVJCVnIlF49ZG/lVwEAqtnTQL7uU0I6DwCtLK8E2XayDWUisu3aAa+yovmrToW4F2lvZtkTzfZ5I8qKUpxTmpOW1vLFr4Qwe1tZKiWcc93+mD90MIwWHFlrbaHi50f+MIqPOD1FEG0aUwQeIh5TsNKMzHIpA/3OaFg6BoAo6XRr3AkobtcTvZ7fwgZ4OZm5YKzflQnFbABAVXR1WdzsrC8YAOB1tWyQkpbiRydNWVWED9NgpVmZlbJanZVR+IIBIDIamiJ/zkZgImqknlPfoOUbQoZswUmPpJVFEd/KIYCXkZjCtevbt8OltO/uFYo13xDPvSRWZDEvXKGgRmlEgKPqE98lykwfNJ6l+Ob83UzN/UPtOuoUfIj7ggHIkp6LIPdSUFD8aqAYhuE4juM4nd58RStNXq1rV92umu2ZQFNQ69ata7fOLCkAwMtD/V+WG01d9oeRlobu0HnzRsp/8n+URHjHGMvLzgNdsyHdlGSYTAa9LV+u4sb5XH6j6LBl+wxzfY1Omvp9rR2W7V5gygAAQDsOc3FzGGLUVb1Dhy59x1j1oGWnNr1UEyiDnZP1RcrApJcCCkBvbzp/wagOoo5/iOpo18VW+moaBrZLFwzFIwJeFGKAVX5OTmpBcmZRHQCiNGj54f3jsfuHriZKaevr6+vr63VVlUEAAC8Nuf20tK/Tmin9dDS7D1/qNk4xwdc/gQukVnUl2ZmZGRmZGRmZGZk5JXU4XlucnZlfIfTePU1BQ1dfX19bRQqhKWro6evra7WXIpfx2xRI05nmfe/ejdUDm+zqJ7ESr0AShSSHELkBizdOU4i4/qRcTU+/EV11+W/fx2ON3nEv4M7u0a15rwxx/8K+PH0Qo/DH4okd3gY+/txsQiMwekn6F1lg8wuUUu7yrVL6+toqX9dxcuJCI7B+ttPNuiaGhjW/hUBi1Vi5R7ci1CwHdRB5tX0rfUiWUgAAKiOehOMW89eO6ZL85MnXz8AIsyJDUHuRuZdm6LzP0336SPM++l27GphNXOU+Rjk3KjobA+ClPLz7lma9eM2E/vpdDYctXD1NJz/wTlgFDsBLj4ouUB01f551z67a+qYTls7oy3kbGVv3vZaW7kWkWJ21dQ1Nhs/YfGDFoPKgY7eS2zyBk1dv2sp6XZSZwOxtNZiVFf78Qzo/g2WkhIS85fa2shTpBVxi9RSBiDmmEB8iGVM47+4HZHeb5j53oJaqmuH4ZdOMEFyoDKFdTzBkYZP2KCBefvTS5SN7aKhpm85Y7WRU8vhBVDUAAC894VN996HDtaQAkelqP22YKJ/R5bwNeJhrOHHWQGUaoAp9Zk0dJGQR9zcEJyI+ePWnhEzZQXZ2hmoq7ZUVpFAh7gUAoqRH0srCxRMMAYTgJc+v+eX1WbLLbUwfrU6qGvpmExf9YUAXQbxgxHMviRWJN4QqFNgoJI7CK+LeZ2nb/9HlfWRSSUxE5YjJprz4D6k8Ec4lOPdSUFD8YtB5PJ6UFFNOrl15RVnTA4i8+YojywfwE4LWkhMWwMu4sXjxlRQeXhl9auNhF7fpm07Np1dmvfHZcfIOyZ1RLD/g6Om+65zOB62UptVH8F9wjyjZe/tvMW9YqmN8IcwRgJt0ZpbjuQwytVjOvfWLaucvmbnu9BJlel1JbvK70Nt5/O1InGroMsPVc2EnZVmsLONt8J8bLzZdBiFQBi/h/NYjHdZuvfMQr64sTQ3x83nbY7xojquP9g1WcDx4U1ehJjPsnIdnUKGQPEfTGWytK6uAOnqed2zUVOS33M4zph7wivADK/csXz13zzU3ekVG1JV1+29k8IRZiQmiYOVxsfHDAzprLlsBL/X87Fmnk3jEMn7vAkmsJK6Q+BCibWauyVTV2nBmeJOSOKHbx6582PCG+nbtZFGsIv9LTSse2QkM7IZ6l70IeLVisOW7oBfFzUskiF6S/iUEVN1u52W7b6I+35g/+dB7/uU4+8PLmHb7x/RKOLr7u7vzgq2a/gVe+ep20OcRMzREdUdrfSisyjUxj0LrRtmpfDj4PAcT2YrshMTtJRA8//3fJTNHuIycp8qShar85JibG49e5L9tAsu5s3WVzIrlc/dcbE+vynkXuH3VsRj+fuu610dXba13c15zdC6LVpOfGHpizSH/FgupBbiXbjj38M3ZdZWFWbFhp5de8Pu77Su8mabLL1z+9iM36cTs+W+tLDsUv4xp0teq/o6KRdytLZTv3hP63mmxeopgxBtTiA+RjSn18ec8tsl6uP51ZR7vc8SNe4/yF+tiPGEyxII0bLJubV4t7b7U7djt9rTq3Ngnu1YdCeenILzs2fF9A7a5nQ+YXZIT/zTwSbKZhfCTcT6c9tgls27d9QAmuzwr/FVorq66aDJJh1Es5YbnUd2NS07fWc/kxnhOcPUrFj5kC056JO4VXzwhNW8PL11ZtHjevL2XNrerL8l4H3wmHAPy2CBBPIUkVsTeEK5QUKOQycByPsSVSnWMjfhYj3Eiw7NX9617l8AGUc4lOPdSUFD8WiD9TQe3ayejpdWFU89JSk5te4l9jHqHvnzR9nJ+YRhDtj/6S3bviDXBIny6gIJCNBAl+wN318qdmbnweqZkRk2048SDt+cXbpq04+W3SP1XR6/kfUjx6/HvaGUpi63+O9p52a99XPWzpfwUflAiEpj0KCgoKCh+CGh9PaeiojI/P19Wtm2vuaagoGgLMn0GGJb4n7orkZkxQ1ZJVc/WdbZxYeDdyP/OdEqiPqT4RfltWxlVN/vDtq8WS0ZKTt3UcdZQXuijaKFf2aAQlf9o0qOgoKD4edAxjIfjvILCgppaajyjoPh51LzYbCupx/gyw7f7/2lelxl2cuuF+B/1dcpfEEn6kOJX5fdtZbpKv2lzlqzvoECv+5Lw4uSawyGkK5opWsN/NelRUFBQ/DwQw959URrKYNCZTAanXgJD2n9gUSsFBQXFfwaanp3rOH26gCNYQfiV61GifBGEgoJCklC9koKC4hcA6W7YR0ZWWlOzM5fLzf8igQ+0UZeRFBQUFBQUFBQUFBQU/2JQAEARtEcPAxubET9bDAUFBQUFBQUFBQUFBcWvDp1Go9XU1nz+/Jl6xQ4FBQUFBQUFBQUFBQWFUFA6nd5Otl1KSkp8fPxPOL36tLOhPst6ivx1cQoKCgoKCgqK3wuageutsNfRka+jwx+u7idoVyPFj+W/O+GkGbjeenHJUQv92UIo/n3QZWRkZNvJIAhSXl7e9ADS0Xze3NH9euh1VZOvebRlivcbrgiHBMAw8bjn1eXcRIGfqcVr0sODXmT9A2+rI5XxT4DIG4x1crS37NNVjcWszU+MuHvm2NWYr9vgZfTs3dY42fTsSC9Pj/I76nWev0NeiBUftMOIPy/tsFEK+9N2VWClMCGomtXiJX+YGhroachXP1g5Zldk/beDBDIkXCBj2M7He0bKIN+XxEs64zT7TAouaYWkVhKuMuEhRMne23+LObNZQVjutQVTvT+QdSAh/PTABgAAuuqAGYuc7c17qMvxKnI/hV/z/ss/pR4AUFa/mSuWTTbXb0+vzHn36NzBY08yOQDAHOb5fPfw+lc7HNb4F+EAdGP328dNg+bMOp3EHLH3yY5nP4drAAAgAElEQVRhDByrrysvzIgLD7xywe/vIv6X2OnG7rdPT1drMhZyQrePXfmwzposojJ6C7aqxMVTKP5X4f9ZWh0bDFOPu0cnqqAAOFZfW5aXGPng7LFr0YUYMC3/fLRvjBwCOM6rrypMe/fk+okzj9Jqmlt9pf7tgQmLfdEpx30XV+0evyagMcPTe7vdPjUyxn3S7iiMoClJG4VhviVwTw+fubPPpPAAAKRG/PXkT+WjExb75GMAMjq2LktmjzTuyqLXlualxoZeP3Lqf3mkvZmsXmLJoIsX2EIQ3L9kRux9soV1dMrCm/xKMsw2+nsb+TvPOJHAI2oUn3xM5AJRJdOlB/eOq728cs2FuCrqlbItoRst9z3a+fSYNYHfvv1J3Il4H49NtTiGKE88fHfeTxT9H+afm3D+W/ln5xuC+hfFLwcdx3EejwcAtbW1TQ8g0rL0ssSn16J1p88f1NyG5FBrwcuizu+OalsZvwlIh/5DdCsjbx44n55fx+o3zW3RgQPSLs6nP3EBEAULd2+PQUlHNswOq+o2Zf3mPTtr5yy5loGRWjVA6zx+k0v77AyukohKpGXpJXFB58PS5iy3bC6RUIaEC+RGH3OZeZkGAPS+C04s1wzctPVuDgaAs4uzeACohBWSWEm8ysSH8Ir/7XNObNc4r0OUrVftmsMKD0v/XS5KCEFYQzac2jmk+N7RrYdiSxgd9QeO0lSlQUo9oBoTtnst7Bh6YP3u97WdbZdu2ObFKHXc+5o/S8dx6QEOdjoPL6S1cAE34aL79ifV7XX6jXZccPSMvofz7pelOADv01X3WQ+ZjP6LT7p1vL9+u38eryqvGgecNKKIrADEV/ivBcu5t371jVRciqVr7eK+2Ksz5rjgWjoAAC/txjqPuzkgrdLDxsV96yHFqhk7XlXyJxPY5wdbPG6nNfYbvKagCMOwsNBPS50G9pEOeMEfXNAuAwZ0qoh88Z4DgIjbKAQgikPXHt7a79O5g6u2pdXIqmr3shyozkKB/DKSrF5iyQAQK7BJa0bYv4QgqFFELhBVNlt+0NO2/NzydVc+1lDz7lYhuBNRr0792fyHJpwUFP8UdAzD6urqAIDNZqM0xtcDWObTkycBUM2Zf3xvQ3KoKQjL/vCDDWb8py8eD2M8AIATvtN+uX8ZDkDTm3/t8jxdGgAv67LL9MPxDQMu3Wi575E+adFy/UxlE6+fjeo+e66JdOIljxXnYmsAAJHRHb1o2ezhxpoKUJ4Ree/E/vMRBXxTVHmA40q3iQN12zPZZXnJMTf27rifwiOXgSj0mbrCZYyJvqZKO6ws693TS0ePB6fXCZHBGLL9kafqw/Mlve2MO8lBYfRNL8+r78vJR1os7eraFV9/ik+TNX64YbB557OfMjCEZTV5BOvdUc9brwswSDt8pO8Q78n2hrcOx3FJrPi/YurO2jKt6uzml/Zne5Oe/5uQ9MBD3gCotvPU5opJZEi6wKq81KQ8AACmagUPZxdlJiWlYm0p8KtCejuWsiytrryogiOClXgFkigkO4RV5KZUNPwb7Thm98QeuVdcj0dXijlDIwlsULE/5OtatWPyxmf80hGF4TvubpY/5uDuV0gji16S/kUIo9espWNkX2xy9n5aigNAanJsOP8Irdu4Sf2wkE17/V5XASSd3NfV/PKsyRYn3zypAADgxoXGdBo/qf+NfdF135WJs0tz0lPyUlMSYt6WKfl4uE65HXYqiQd4bWFGUiEw1SpwXLEoMzmpsR+QRxSRVRsUigWBe1H1aaduTkteOWXva36QoZ2mHPV1zFw1aU8Um6RRGGYb/b3U7u1P7TnNxkBNtirhntfmI68KMCG5lxy8vjwvMzODBxnpKbva973jNsSs0430IgDAOWWfMzIyMchMS8F72R4ZPtiA/iq6vqHBSrKSk75/TpsbFpq2cJKpIePFm3oAQDuYDNCujjz7tg6AuCmFNQoBjF7WgxVjT+298KwAA4D0lA9RT0VrFYJ6iScDQKzAJq0YUf8SWjGBjSJKgWh785UH/xpefGrZ+utJtSAuEh/NSQ8RjuYAAMzOI5Z6LBnTWxXPj/K5Xzxyof4Dx7mXMzFyGeIiuBN9JrmOJBSPkCVzjFQ80n7iYf95ubt2F1gtmjBIRxEr/XjZY8n5eIK60Xuv8Dmid3XyUr+iJlmC3m/1nYMap+1XPixDlE1mrXCbZK6nQqvKeR98/tCxBvcSJiJSyOdRxOLFyqJEE04AAJSsXvs7HB/r/qAMB0C7OJ69Mv7N4inHEnhAGqJkENdLHBmknmdq2S5bu3h07w7Y56jbASUt1rMKnNsQ6hYyphDVCyXz4Q/oehT/PCiXy+VwOBwOB0FarAhrG3ipv5vlIBOLpb6F7GjPsQNMB5mYDlnWOI/hJZ+ZZjbI9I+D71peo9AVSx+tW3I2w3Du/O4ha+bse681dUJ/KQBANex3HV9ukHFlk9OUqXO2PYRxO/c56vL3GMiau+6a1yXuoOuk8Q5Oqw48SGOjwmUg0iqs2qgrO1bMmeTgvMm3ynKzt/tAGWEyAAAYfa31IrdMGTvGbkWQwmzPTaNUUEAUxu4Pj458/d1/EQLW4iPSsrJIfWFBGQ4AdN1eBvSc97HF/M7PSXj3kdfJ0KB9i27fzAoAQKbP/C3jc497PSuSwN1ikWX8wgXSdGYcfhDgs9aMIZKVeAW2GVTDfuOKATnndpyNFX+KRhLYeHHI/Ve4xdghLH6fRpQGjx6ERAQ8a1yuKyh6gbh/kQY2TcfCXL02+llYi4cqiFx3wy54alxiw+MbLDv+Y6V0d0Odht6AV0X6BtQMn2LNIkk9eHFEaDzWxaR/px+wq0MiCkWGMH1h+SGP4xStbIwbsgvaaZiNYcn/Hr9lk1nxofe17Z/s5TTOduzK5/IO61wGSAFZbLQiRwHgdWw2jjAY3+3ioslrDRlhoozU1dYKSTtYdmhoFstkgC4NAACR7zfIoC469G/yx3nCGoXoXBVlFYimsYm6FOmfkdC8XmLKAJBwYBP3LzERWiCqMnj1YU/rL8fcPNpyDdmAREdz0kMkozmj57w9223xh5vnOjjvCteeMEbja3liJb1GcE5Zfm5RNdn1EkEn+h5C8aTJXEhyAABEfujCWYpPtzuOsLadsvFWAsldS27K+3iOfk/9ZkMdqtbLUDHjfVwFjnZx2OnlrBV/zM1hsvPmAO7wLQdWDpT7GuECE5FQCEYiEvHiZVGSCaeQehFBEqJCEVgv8WQAoeeZRgv3bB3B89/o5DBvT3S3iWM1v8tcrZvbkM/nietFgvDoFaF/Ufx86CgNAUAAAHDkV1m4wk2JiUj/1CUunwNvIjMy6B+ymYPVFFEo6TnFySTn0vSDgbkYAHy+7X3D2nfCCP3LKQk8VK5TJ7m6zDcxyXmVOBQVZCWKcias4NmJfY0/5N077Tf2+oQBOrSoBDIZBQAAvMyAC4HZbABIvnMlZKaX3VCV4DtFLw84zTr9fc/H2SXZzW+wICzLBdN75fi5hZThAMBgKctBWUm5iu3Oc6s0/FcseVdaBVrKLAS+kFgBomjmtnlY4gHnlyU4q5UuFoSIMn67AkmsJK5QFOhaUze69vx0fO7VZBFuAooFXhn2IKR67xibTkE+eRiqaj3WpC5kw6uvD8wFRm8BSti/EkkCm6aq3hGKXua3rAuiyFJC8aLyisZRACsvq0CUlJW+jrfcpLt3kq85jNMKvkFcl4qiIjZqrKqCQq6khxPJKBQROkn6KggJfu+2wKb/wejwOkDVrW0Mip4fjeMIsQIA4GUGXgzKrMWh9sOjF1mTBxuqo1Ekq+fwKrIc1XQiRFfoar14al/aZ5+/8zBAAIDefeG1yIUACIIiwPn8fLdv/NcpGU3H6XKEU+NPWPbVhQ6HY7nASwt9leNoYqKGfszBpPuYGvH+3hdTTe4nskYhGaK48Vf23ey1Zb1v4LzEDx8+vI16Hvz83RdRepjgeqHiyWgQI7nAJu5fAADA6LvybvTKbz/z0puYCmwUIQXSus786y+V9tz3j95kSeIRvIRHc5JDhKM5j2k83k4z9eam8xHpGMAd72vWQ1bL8f+OuH+RJb1GeImXFk0nqXzzTkQGsXiSZC4sOQAAMEoeHTzyOIULAAUfnheQaWDHv/skPamnNi08pcu4NY7Kz/Zffg09emmXxR79jKE6tva9qoJWHXr8kQ2Qe23/ZUufxX8MPBT1jN+fW5mIGh0ocCT6atZSPL23OFmUBGH1IjITa8JJXC+0m1gyAIg8z+xnN0Yj7eaGi5HpGICP17WhFu4//GMMAoKN+K6bCNErrH9R/BLQAQBBEARBcBzHf5HrSIzN5gJez+HiHDYHx4HDASaTCShLv3tHptGKO9HflnkCXpGrTAPgYUWv/J/P3LD95gX7mA8fP8WFPQ2JLRS6eQRQVu8Jc2eONtFTU5Sm01ApOUZNkmzDPIFARoPG3OzPDbHOzc3OR8y0OqNQUJWfmtriqS6O402zKSJvNM9zy6CU/a4n3za5LY8D1FcXF+QzyuoENUMLK1Rl2FqP/jG7XcLKcRBwzwrVmH7CZ3lvBgBgZfdXjm/2nhpiiGVIvEAxIS2Ql3xm9sAzrbMSr0BxYejN3LhI+82euXezfuTijbo3AY8Kjo8dqel7KVvDZpRR8ZNTr789WBAYvUXE/QsjCWwmtAHsS/DtV87LJhv7PSP+IxxAUIT/M4ikUBRI0xde/PLx6+WuNv1lwsPYmsOGd897vj++XpgVAABe2LDhDXB2bR1Iy7Z8z1Dz+gjLUTTt2RfDZgMgCMIrT3q6b9v5/7d331FRXF0AwO/Mzu7CIh0UBKSIq2ABFbH3rlETExV7wxjFGmNvUaPRWGNLYqKJGjuWGBRRo58iIqIRRZQmHem9LVtmvj8ABd2ZLawBkvs7OTmJ43tz35vXdupzWcVRVsT7rlpzMV3PttvUGe2efPuNX0q1G9FrPIbHyPKSK35hKmLv3csY5+lh+ntKoatne37YoRBt7+JWhc4JPuA96rS4vYd7uzYd+807OGOS73Kf3SEqnjbgLpfWwfxTDVseeXzZNwEVTYBy8/5+iX21IFgOCifCQP5027Kooetnbpjx96wfI2p7OVLHsznXRM86m5s62BuVv4quPK5MflxsNu1emUSrQU8V5Z2IE1vwCvbBXOXgAABQEhker+Yr3Oic58/T5rd2MeLJeo8e1tdMePNsWHHrVsyLm1EyoOwcbCDBN67yVxmdHROTx3e3tyKh4ukBTQeiymyUrqPe1PB7wWs3inJRVS62wLVbcLKVS9swAFhqnjS1szeUvIpNrthC58bGZNNuNdLpfG2jUWNTr/WihoCq+A0JAAzD1OFiTRmGYaDqly1BVPyLKbi8+KONQUq6K50esGbc45YdO7q3de8+evn0af03TV3pl87ZBUmbMZv3zBZe3r7tx7DXRVLGfMSWX7zenTjeC6MyLY8kKk9Lk7yKs/iE0bDvrq3v8e66uvq9+IRR+1k7to8o+GHBukuJVaWQ5eUWg62ZccG53TPuAYBokGkjyM99e8+RslS85p08mtgZ7bwyqiIcis+DVQH/G7F/ks/JFBqAzvBbNyFYjwAARlGUqUbfVhGGzjPUnHYZcqTSeYSqCF2mrp1ueWv9cv+MD3yjhvyl39W4cUOHiE/d7Dm0ZZL/tvDqZ2WVtF6O/kUYDWdv2JGZaZnQs2kTAUS+s+JkCvLyacLQ2IiEUhoAgDQ2MWLyc/Ppt9e9mOLgM/5zdo/p/TibpSCEoaWFkM7OVOeFvJrSTYRq4hy+mPyggIeLlwzwED1IHTDAOeWvrVEK1akA4J2zf6pGcO4xCgCAfu23btnpWLlCkp+ZnldWrdYZaU5y7Kt4+lXMRt7Xpzb7RE/Z+bCkcucsj+EByKMCg3I/9nQ38Evp7GH49KTqX3VcB4WQy+XvlpGRyxVv8pTmRIcERIcEnD189KPvTq2aNuhk6DnuSYCtXLUKQ4cNW8Havyr2U5YVHx1d+aZW84Iaw7Lyg6IiQ/nz0/v/uJP56GDHo4vW+Tzy3vlIJ7/7dTabs25SazZ/j3aDHtvjhW/iZ+1ELLiDZxvMVQ0OAMCUl5erffwU8U/Dy0a0dbEWdqQvnIjo0rm1bZqr6au/npdVXHHgouFAVEXpTMQRvHajqG4Q1Z/80mbB+SZOTQ4KdxjAXvMMVLw9s0L1//5Q1ChXteDVaL2oQaBounLioWkl3VgHGJqmCR5FVY0V2qNzo6OzRN07thIEhSu/UUGaHRUcEBUccPbU0x1+K3u1E/qlV02USsPQa9OpLR246gf/p1IAAIFjEysexKkVDOXYojkfHksBQL+5sy2kXE2luW8YAyBNPH12fTsg/ft5X19OrFYCeWxEpHx42zbmZHQmDSBo5d6Kl/5XZOUDeyypZE8PeY87xavcmfGA1Qdmyg55b7uRUjWQyYsyElV+/aM67jA+QIYaUyNDytDCshGvLC8jX6JGKkarDLUmajd77QSR3/JdLC9nJPVNLAz50qKcfDUWHpVY+xed4H/l2dTxo8aKPO1envevcX+RstbL0b84G7Yi/v6D9KlD+nc1vnur5k8Epjj6RRIxtk0r0Zn0YgAg7Vq7GEqiXsTXuH1S9vLChfhjnw0PVz74EOZde7Qmk88+Vm+C1kwtI9ToeKkYvpiC+zceLF0+oHvb5AGOCde/rnxZg+pBj6t477cN1Te1MtK8lLg4zlfTMgV3fr8089CC8X9M+yVG1fkkWcTd4JKNnm4O1h5WL64Gqz5Fw3lQigqKQGQgqoyfEBkYgKKosOT9TOmC1+kl4GZooGp3rOWqbRg6atjs/UtLqjJkGABQJF/YuqfbkVVrF4VO++ZOtYOmzRilTK1mc6Wb2GdzOi8hsUDoIrYlg+JpAMLEsXnVI3haDnqqcHYimVQGQj1hjZxVLEWUD+a1GhyUhxYZFqk/vssoU+PHRy4m2u3oPaKJY+az5xk0gCIlMRXcxU4CyCkHANLC2dlUnpxUy9OhSmciDtqNoly4ysVIysorDxUDwDNrbF6zOXA0UU3VJgxl6LykxCKRva0ZCRk0AKFvY/deKm3WNhqv51mD133rRXWEVCgUMplMLpczTM0exzO0dnJydrIzFwDPyLp5c6fmtqZClZveR6clp4Fz117NTfQFAj5Vmx+q8udnjz02HrNuw4RuYhsrO3H7vmMWbPnckw8AQDbp5z1/TK92Tk0tLZu1H9anFS/5VfWfakrDKE9JyhC6eLQxIgEoc89Znw+xVPckGtF4qM+cPmJrG5fB8z7vzQT73cmigS56HRP9npjEbAkAYdJl4d4do+g/vv89UuggFovF4hZOjfUJAGDybp+7mdd+6tKxHRztWvafN/8j4xe+l1/IgTOVJDc5MTEhITEhITEhMSVXwjBlOcmJ6YUqLxPyjGycxWKxg4WQ4BnbtBCLxfbmQu4wGkyGPEev3Zcunfqqc7WnxjlSaZchR4Qcm4hGneas9jIKPnmjwLqFuIpzU8M3XYIwHbrpkt/5LUM1eaELe/+iM27+GWr08ZzRlk+uXq/5kkClrZejf3E1bJCF/37wennfldsXjuzU0sm5bbfh3htmd9MDAEXslYtPeH3nLP2ko9jJtd/sr7wc06+eDyp85/du2rUzwdY9ulhWe4qCEJraOji7evSfsHbXoi4F/gfOxFRczde3dBCLxS2aGhGEnoV9i5oVyIY9lfYRgsbHi2v4AgAoCr5xn+k+a9mwZjE3brx5bamqVFyUtQ3OQ6k2xatLZ8Jsx3kPsqj6JSU0a/a2VYvFDhZv7mmTPg8MpjsMHt/VKTIw6O0ZGq0OiiI+5GFm4yGzZvZt7eQg9vxk3oT20icPwiUAwHOdsX3r4vGDurmJnZxcuo5esniYWWrIw2SNlrnVy6VdGDWqX/2GzYG9f6nCclDUy5BO89u6565gyKoVQ5q87WFajVFKaTmbs2/imM2lYX/4JTf3Wjy9s31ja9dRC7zavXkRhJaDXi0wJVEvEkVdRoxwtbYwNzMSkiqCBwC2wbw2g4Py2AqfP01yGPlxs6cPonNDg4sGfuapiHj2SgEAirhrfhGGQ+ctHNTKxtrBc8JXU9vlXv8zROWTe9yUz0QctBtFOXCVSxH/IkrWsnd/eyEQ+k4jvfq9fQGQqgWnprQMg530id+VVNfRkzqb8YA0cps0rsu7dxmzrG24abyeZw9e560X1ZGK70bKFQoFj8fjUW+nEsKw26J9CztVHFL7uT90B0XCqTlzjscquDYpQaf77T/UfvnUI/5f6vFkwRUvCK75KXb3X4OmAMijf5405XACV7R0yqWVX5TNmjtx+aG5ZpQkNzUmLPBcWsUjQtISaDbBZ+tsKzMRnZ/wJGDj6t+q39CgNAzFiyPr91kuW3/+ClNSlPfq9oWzT1qNUq/iZA99A4ym7DntbFSaGHR4xVZ/FaMf8Bx79nUWGZFTth6ZUhVT9oWFI7aGyoApvL/ry20Lv5q+7cR8qjAh5PjyHacSFKpSaYkw6rPit6oXNzsuPdYHFK+OTJ50KFrBHkbDzpAjlc4jZN9EOHTtZidobL/q5/7Vcqr2yXUgDAxEJF2YnqHJV9qUNuzKcuff8bu3qGePMP8773wqmKX1cvQvzhCyb236onTy7GnTvhllZUAXpr4MOnFbXpHh+fVL9BctnL7tN3OqOCXs6oYlB0Lfe08nU3TvnP/rgRNs3v4R5Tp97+nJkqKspPCgQ/N+vfB35fUQXstJu998s95r+1GvGhXIhiOV1hGC5sdLVfWWhl4LlAwZYfFsz63qTx1qd1AAONtGbdGZN8/c+Hy79yS3W3siAIBsOuKbYyPebn59atZn3z+tOB9T/uxuqMGOYW1e7N9S7dqFdgdF8mj/kvWy+TOW7p9uyitNjwz8Yen3lytO2ac//Tt34kDvQTMbm4qgOD0m9PTq/b+pesEGV7nCtAmjOg0aNmdMrP1LBbaDomaGdOb1bdu7Hd/85bpPIxacq3iUW6sxiqVYWs3m7Ju4ZnNZxOEVX4tW+Hx7fKbidfCpS9fS5zjTClVhfCB07Kmt+51Xzz10fqVAHrr1E58LOaqXIsoHc50HT6c8e54nbBIe/FJGSx/cT/6qvSTsRXnFpqQza7/SWzxv/oFz5ryS1PAbm5fsu1/bG541XkdpN4qyLzhjaY5yMfl/Hdze6ev5R/wm56ZE3Lx6I6Zr98ocVS04NaZdGBykzw6t2Ky/fPlJP0F5QdL9e4Gpzk1rEV9VmJrOKRzB//NdD30QRJcePcvKSvPz8wQCQSND89rn6NaubeDdO7XPpx7j99pw7VvRdwOXBqj8EDVC6iJMRu66uKzRzxNnn0zUzQ2cZJPRe87Nylrz6aa7b1sqtl4d0f3xQqh++3e0eWH39Zc3Gewcuex6cV2Hoj6lg3mDhjMRQv8GpKOjg6uri5WVlUj0wd8GjBBipe/WyTX38k8XdbI+44tMGrcY7DPZPevqxQc4S38IOj1eCDUADbbNk027fjy4vb2pvrBRU88pk3orAq89rOX9mP8cHMwRQvUWZWXduLSkzM3NraSk5MXLV3UdD0L/VaV31g7W1WV8/f4bLm/sJkkM+nH9rxH4/PoHocvjhVBD0HDbPGXRwWva3JWWRpQk48WdH5fuva2r+7s/OBzMEUL1FzFx2hRpeTlBkHw+Xyc/I/8DN7UihBBqCHgtRvh8JFb2uQI68/7xkyEf4kMymqn/ESKEEELKEP0G92cYhgBSLlcUFevgVBf+jEQIIYQQQgihfzEKgKBpBcPQTG0/64gQQgghhBBC6N+PJEkAYAiCUfdrogghhBBCCCGE/sPIikuRNK2ok5+RZFOvXwLPLmjNU/1XEUIIIfTf8E8uD3ApogTPxefMnaNT7NX42v0/lSHPxedM0KOHDx49vH/lqw7KHiiuCzqvKA1hT0F1iCorK6Vpms/nU1SNLkk06TZz+tAOrVo4WRuWXls3dvfjys8TEwbigeO8hnRu49DEhC/JiHl05fivZ5/ksL4FgO+x4tLOZodH+1zIef93KlMaf9//TtI/8M40zjD+CYShy/CpU0b2cHOyNhWUpUcGX/z5wO+hb96eoN9i5PylUwe0bkIVxIdc2L/zSMWLFVSkqkBaDtx4dNMAk6CNg5dcLVIVCGndZ87cjz1dXVrYGJb8+eWwzQ9kbzeyhKHjDPn9vrm+bZA+8W5Oiuifp07+OZbRdYScqXRcZNZNNb+AXIlOPfH5uN3P1PmWOIs6b9jA91xxcf9oi+ozqOzJrk/m+JJjD/rOKd4yaqlfVQen2s4/99Og0MWfbglhWFKdTaf6bb21pb/s3qYxSy9nMwCU++JzBz39p0361XYDV7NpGJ8t1vJ46fdaf2HrQL3In6Z4H0+ubJ8Ctoo6FK2g3BefOzTeulr1SgM3DP/ySrHJyN1X1nRWBH87etHlLAZA0HGZ776xlinHvMfvjVCw7Iu7wya0Vb6vIgYASNMOExct+Kyb2JwqSgm7dnjPgRuJUhXBc9eE42DvuZMHuTuZUmV5aa/CA0/u++l/aTzuIUXBWoc9Nl7bPqwRAQyjkBVnxYXdOPnDz9fiSlWNUQ2jsf2zqHYLfffbHhq29Oq7n2NUVvNq0PHyoJ4sRTjofDCv+9lB1xQvD4zrfoAwG7334sy6jqX+aNA9hX3cQA0DJSkrJUmS4pGSMimA8M0GQk9E5UfePPHQefysLtVTEBbuXR2LH106cDIpU2Ls9snM6Ru/Fi5efDRWm6Uwkx9yZEtIbQvRIBCWHXs5Fz04vetIfLrEtIPX/C927dLznnEoSg5AGHVfvHtFl+h9qyYHFTcfu3Lttm/Kps09kUBzpqrEsx21xts8OUFuomYkeiIq97n/kaC4aQt71AyRNQwdZyh/eMB74jEeAFDtP/9hod3VNesvptAATHlOkgKA1HGEHKl0XmT2TUzh/7bPiIOV4gIAAB26SURBVDSoWmwTZn2XbJ5mej8o/t+wIqVf/7luxbm4qmpjSjOzaZoOCoyaN7Wzm57fnTIAACCbdepkVfjgzlMpAJ8lVeV/MnqdxoxwvPJrXLXaUdFs/s30O/TxzL3smzGod0+bEyerrcSVVhQAKKJ+XzzpioDfcc6P85v8sXLD5TRFcVpJ5cxflpHvNKifld+ZNFrfY3BPJiOL5t4Xd81z7Iu0+WTDztlNAnet3PK0zHbwvFVf7+TnTfnuUSln8OwI497L9q7vEHV4z5Kv40pFjR3a9Ojc1JSENDXaBmsdKuJOLV9xMQX0LFoN8F68/nvj4gmb7hX/dxubzrHWvAr/5PLgP7QUQf862FNQHaJIgjEyNBCJDIRCYXxi3psNdOLNH38EIO0mflwzBZ14dsPaN/8Xmajf9uTCrp2sj8e+OzsQpiP3/rmqa8XVlxVXQlcAgPT+NyMXXs5nAHgtZp04NtOZB6BIqnYiHKh2C333ucU9bNTBUxR58peQlpOne+hFHl2x6HB4KQAQ+s5Dv1gwub+7nREUJDy49MOOI8GZFUlJs05Tvpw/urOzuaA8Py0m9NR3m/6IVXCHQRi5jVvkPcxDbGdhQOcnhd08uv9gQLxERRj8XhuubW185Uhu2xHuVo0g6+HpnVt/f1rAfXaGjvt92aI3/xcRJ3K/sqpnN9tfohJowrTPZwNNw/ZvPfMok4a4vfva99r92UjXM3ufyzlSVfyRwHnSOq/iX9beHflLWxXHuiqQ+Kvf7wYgHWaMqxkxRxi6zrA47VV0GgCAoHGhginPToyOfkXXJsM3EVIGpmYinqQgu1CqRirtMuSIkGsTXZgaW1j532STYVtGt0o97nPwYZGWZ/U4GjZYjPze16d402er/6rInTDqv+niWsMDYxZfyOJxtV6O/sWJKc9Niol+9zpSalBg3OxPPV35dx7LAIC09OjkUPLglycSzlQAAPLngaFWoz7teGr7Q8mbP2S4m42WWIpMNvX66bRXzJdjv3tUceBJq7H7fackLvl0W0g5R0Xxu66+vNP60o5Xrb0GuFiLil9c2rl2371MWsV4yE2vQ5+u5aGrzyY1GzW4p/Xpk6lvSq20ogCAKctKiM4CgXUhwxhnJ8ZEVw4YBACA9GlAUKtBA2zOHc/rMqRT/I27pl5dOfelouZZ9gXAa/7Rpx3o22u+u/CoGCD6x+1O3Y5N+qz7j49vFHIFz47fpm9P4/Cfvvv1r0waAOJjn4XcrNiism2w1yEjzX+dkJBIQ2JcLNNm8L7+PV2oew913th0PrVxbmKd2gAABLYD562YO6xtYyY95OwfOYNmi/+cMv1YIs0dhrZYap61p4CWywPWImu3FKmoXo9Ji+Z/2q2FBa845WnAke8PVNYhV/BcdLpKAQAAwnz03sszUzdvyezzxSddHI3pvJfHVsz99fVwrtGG4ygL7AcvWDZnaFtL+nXIOb/c927TVDohcuHIkDUM7iJribToMH6O9+juLtYG8tz4sGu/7Dh4N4PWqnqPRCi4ysXRYVlxhPGf7Cmo4SD19IQCIUVRPD09PW0yEOrrk7Kc7EIl177zLs/v0cWj+zzfrPKHW4d38uzi4dlrQdWaSRHzs1fXLp4f7wl7/zcKZZx3bfncXxJcp89qeXvptO1P7cd90lEIAKTNyM0HF7okHF8zdey4aV9fgY++2T7FueJmXFE3n80zmz3f4/PpqDFTl+z6M66cVB0GoWdhWhZyfNOiaZ+OmbHGt7jH2t2LO+urCgMAgN++b4sH68YOHzZikb/R5K1rhliQQBgN33H/4YNH7/wTrOQ+ckJPJCJkWZn5DABQzm1cqJSn4ZV3BktfhL1UWLm6mL83gtdIBQCg7zZr3ajUgzv/ytbBHQZqh1GPM+Q5Ttj7p9/ZZV35aqXSLsNaI21Grl7UKeXwpl/Cy7TOhKNhMzm3/7jHdB/ey7TinjzCpOfQLkSw319VF/uUtV5g718aNOwa6OTAwCRTj07OPAAAwrBDFxfJw8C/S9UoXPEDX7/S/mP7mr53V6FusQ4pdPrt68+N+wxwr+zxpFW/Aa65/7v+pJwrVQWq/eCOMTunfjR4+Je3DMcs9+4kBK7jpbJ69Tr06QKPH0SkPwyOE/ftZVWtA2lXUbLwa3cNBwx0Mu06xC3yWmBetdGDY18aIxq1dG3GvHoeWXnE6eSIl0V6LV0dedoGTxfmFxJ27h5Nhar/bk1qlItnaN9roIcZISkr+1B3AOp0auPcxDG18VvP3LZhMHNl7fQxMzbfd/hkmM2b/Go1AjDS/PTU7JJ3F4hcNa+0p4CWywPWImu7FCGbjflm5wz7iAPzx3w2Y62fvP+6XV92bvSmrbIFz0H3q5SKg23Ye/Yk45sbpgzsO3js6jMvihjODDkam6Dd7G3rByour546Zua2h81HD7d7Z4TXdELkyJAjDNVF1pio/fz9u2c6xv66YvqnY2YsOxKu39SSVG9f71cvd0VxdFh2KsL4F/cUlnEDNRiUUCigaUWZpEQi0XxFS5h0mTLa5fXVZfdUXIrTjDw2NDg+qtnzdCk8fpCQQD1LFvS0NiYht/XYqR4pR8fvuZpKA8Drc7tP9fX9ZKD4WOwLBdnIyqqRJPFxaExaEQPZmUmR6uyJzvzrh+1V/5N26dCF4Sc/6eTIC3nBFUYmAIAi0e/Xq8nlABBz/vjtiTtH9LYIOJ99d9fUSYfeXRIx5bnJNc9EEaY9Ph/fJuXC/Nv5DADwTc0aQX5ugcXgbw4vsbm8aG5YXjHYm5kSkMGRCgjjrvPX9ovcNeNuLmOqYRUro2YYDS5DjlQ6j1AdlP241T6tow5O/z1GB99pVYopCvrzdsl3wwZY+Z9No8nGfYd7SG6vettLlbbeTJK1f0VyNWwSAHiOU48FT63aQCf/PnvM3nA5KOIC76VM8fCwJl+m0Hpunu0Uf28PLXmTAUsqAACQR188H3NizEf2Aac+TB0BAADFMaRk3g54Ov/zAR33PLwvAbJp3wEu2bf2P5eqSAUAoEi8+pt/YhkDZc+u3Un6rKdrUzIknn2WZIq5xw2hW99ugic7w8tpSciD1M/79Ghy5mza2+uR2lSUPOrGLd768d5ZLs/+2FJg5/VmA/e+NEQYm5qQTHZBYVUGdEF+IWFiZvJmVaVp8PKI49tPt1m30vfqzMhnz549CbkVcCssQ41uxFUuquXsEw9mAxAESYD09a0tvhG1eFiZO37dTm0cm1inNoXAfdQIu1en1xwJjqcBzu8+0bfXV40qa0K7EaCSIvLoF+PfKzJni9Kwp3DWYSZ7kbkzZEM6Dh7Zpth/yffXX5YDpJ7YcazH2Tkfd/4+5K8SLYPX8Srlbbn4udf27LseKweAzGe3Mrnz4xi+eB1GDLOJO73qtwfxNMDZnSd6d18sUidGNgL2DLlGUV0fSiDM+k381PrZvnF7/NJpAEhLP/aicpNW1ctRrg9zlP/FPUX5uIEaDsrOziY7J1siKefzNTzBSxi0nrh6mUf8vmVHa3FNRRm6vFwOjEwqZ6TlUoYBqRQEAgGQpuKWTQTtFp1/+PY2T2AKU814AAo6+97lWxNXbTj968jQZy+jngfdvB2eJWPfRyXStO0n0ycO9WhhbaxH8UhhI35ptIiseGstSxiVMaYmv67sc/LU5HSiq70tCZnF6a9eEe/NtQxTvbsThu1mbl3XJXaHz49Pql2XYQBkJTmZ6fx8ibKf5O+lIi36LVvRMXSLd1ABA0pO5pM24384u7AtHwDo/D++HFXjPTXs2MPQeYZa4sxQEfPz5M4/a5ZKuwy1xW8xcfUXDo+3Tb/4QR+xkjz2u5Z5cPggO9+jyTYDhrTLufHTo7e9VGnrzWbvX7Sqhl3zKUdGlpdcsRBXxN67lzHO08P095RCV8/2/LBDIdVu4mVLVbExI+DcvRkLPnO/8JcO6kM5ziGFybl7/dFCnwEd9e8Hldv1698y7daOCJmqVAAATFbVQ55MeZkE9ETvv6mlBu7qFbr36W4QfvBJKQAT9yAke1Kfno19z6a/GVO0qih57PW/ZCdmt/Bf8qAY7N78sap96ZymwdM5wQe8R50Wt/dwb9emY795B2dM8l3usztExXlMznIp4n1XrbmYrmfbbeqMdk++/cYv5YOVV8dTG9esxzq1mTrYG5W/iq4sJJMfF5tNu1cm0X4EYMPdojTtKRx1yFFkLQdays7BBhJ84yrPUtDZMTF5fHd7KxIq7m7WPHgdr1LelqskMjxe3VMfHEeZNLWzN5S8qnpAic6Njcmm3Wqk1mxC5MiQexTV8aEEnkNLZyrpj8fKbqbUono5K+qDHOX/WE9BDQklMjAwY+iMjAxzc7OMTLWvwRCGbSev3zi48MjKbVdTPtCpW4ZhgKlcHRBExb+YgsuLP9oYpKRP0ukBa8Y9btmxo3tb9+6jl0+f1n/T1JV+3Asg0mbM5j2zhZe3b/sx7HWRlDEfseUXr3fnyvfCqEzLI4nKj6SQvIqz64TRsO+ure9R812cNe8jJ4zaz9qxfUTBDwvWXUqsKoUsL7cYbM2MC87tnnEPAESDTBtBfu7bW82UpeI17+TRxM5o55VRFeFQfB6sCvjfiP2TfE6m0AB0ht+6CcF6BAAwiqJMNY6RijB0nqHmtMuQI5XOI1RF6DJ17XTLW+uX+2d84Hs45C/9rsaNGzpEfOpmz6Etk/y3hVe/ZqOk9XL0L8JoOEfDBuB4ylEeFRiU+7Gnu4FfSmcPw6cna6z32Z+NBABgioPP+M/ZPab342xNCq4RziGFyQ8KeLh4yQAP0YPUAQOcU/7aGqVQnQoAGIap3oJUTZnc4wbPrU93C32L1X/eWQUAQFJ8um8PS1/ftw1Iq4qiE/7cs6WoUXhoGdP0zR8KVO5LI0xBXj5NGBobkVBKAwCQxiZGTH5uPl1xDVvb4KU50SEB0SEBZw8f/ei7U6umDToZeo5zpOcuFyPNSY59FU+/itnI+/rUZp/oKTsflnywIQBAh1Mb6ya1prb3aDkCcCw+VbQoDXtKde/VoXZFrgUtgv9AqxSmvLxc/QbL3thIAAYUimoXmBW1PtfJmiFHm/8Qh7JqvtNiX0qrl6OiPsRR/q/1FNSAUDweaWZmRlH83NxcdRMRxh28N6zrlfnT8h3+KapuKGJomiZ4FMXWi9VH50ZHZ4m6d2wlCApXvldpdlRwQFRwwNlTT3f4rezVTuiXXnUFRmkYem06taUDV/3g/1QKACBwbGLFgzi1gqEcWzTnw2MpAOg3d7aFlKuptKqb00gTT59d3w5I/37e15cTq5VAHhsRKR/eto05GZ1JAwhaubfipf8VWfnAHksq2dND3uNO8Sp3Zjxg9YGZskPe226kVI1W8qKMRJVf/6iOO4wPkKHG1MiQMrSwbMQry8vIl6iRitEqQ62J2s1eO0Hkt3zXXeU/VEl9EwtDvrQoJ79M/bcZsvUvOsH/yrOp40eNFXnavTzvX+MGGGWtl6N/cTds7uc+ZBF3g0s2ero5WHtYvbgarNEvdNnLCxfij302PFyDB/Q0qkMVQwpTcP/Gg6XLB3RvmzzAMeH615VvSVA9EHFQcrw4q1fg3qeHyYvDPhuu5zIAAPx2n+9b1re7xYUL1W5d06ai6OywP30Bqh8/QVvWfWnVZ5ni6BdJxNg2rURn0osBgLRr7WIoiXoRX6PVaBN8VRkKXqeXgJuhAfdf4yhXzXgL7vx+aeahBeP/mPZLjDonR7XpsMrUampTuol9aqPzEhILhC5iWzIongYgTBybV312R9sRgJ2uWxQXlbO5pksRRUpiKriLnQSQUw4ApIWzs6k8Oam2JwD/wVWK0gw5Ghudl5RYJLK3NSMhgwYg9G3szN895hpNiBwZcrV51UWWSWUg1BOq/YNEkRAZKx/Rvr3l0bh3jp9W1au6ojiOslK1Ocqaaig9BTUQpKWlpVwus7a2NjWt+Xwdz9DaycnZyc5cADwj6+bNnZrbmgoBgDD2mL1541D66k++MUJb5+ZOzs2dHCzYL1LTaclp4Ny1V3MTfYGAT9XmjQ3y52ePPTYes27DhG5iGys7cfu+YxZs+dyTDwBANunnPX9Mr3ZOTS0tm7Uf1qcVL/lV9Z9qSsMoT0nKELp4tDEiAShzz1mfD7FUd1wiGg/1mdNHbG3jMnje572ZYL87WTTQRa9jot8Tk5gtASBMuizcu2MU/cf3v0cKHcRisVjcwqmxPgEATN7tczfz2k9dOraDo13L/vPmf2T8wvfyCzlwppLkJicmJiQkJiQkJiSm5EoYpiwnOTG9UOXyh2dk4ywWix0shATP2KaFWCy2Nxdyh9FgMuQ5eu2+dOnUV52rvQCAI5V2GXJEyLGJaNRpzmovo+CTNwqsW4irODc1fNMlCNOhmy75nd8yVJPXpbD3Lzrj5p+hRh/PGW355Or11zVGdKWtl6N/cTXsigyFZs3eFkosrjYiSJ8HBtMdBo/v6hQZGFTzFAJHqqrCXTsTbN2ji6XanzrWsA65hhQAgKLgG/eZ7rOWDWsWc+PGmxeQqkrFRdnx4qheQds+PU2T7t96Fl/R0xNib99+Im/bp0fNF1W9V1GEvqWDWCxu0dSIIPQs7FvUbGnKqbmv97DvSxF75eITXt85Sz/pKHZy7Tf7Ky/H9Kvng955IZsGR5nnOmP71sXjB3VzEzs5uXQdvWTxMLPUkIfc35DQoFyKV5fOhNmO8x5koU7z0arDKqXl1Ma+iWNqk4b94Zfc3Gvx9M72ja1dRy3wakcwKsNQOQIopW2L0orK2VzTpYgi7ppfhOHQeQsHtbKxdvCc8NXUdrnX/wwpUZWO3T+9SlGeIUdjkz7xu5LqOnpSZzMekEZuk8Z1eXdlxzIhsuHIkCMMlUVmSqJeJIq6jBjham1hbmYkVHksmdxbJy6kuc3dPH+Ym71VYxtx19FffOxCqbMvTcul8igrVZujrKkG0FNQQ0JJy8ul0vKoqMjGjZtU30AYdlu0b2GnirHCfu4P3UGRcGrOnOOxRLOuPRxEjUivdXuqXszA5PitGb/3ifKfB3S63/5D7ZdPPeL/pR5PFlzx7uCan2J3/zVoCoA8+udJUw4ncEVLp1xa+UXZrLkTlx+aa0ZJclNjwgLPpVU8jiQtgWYTfLbOtjIT0fkJTwI2rv4tqsZ9BkrCULw4sn6f5bL1568wJUV5r25fOPuk1Sj1Kk720DfAaMqe085GpYlBh1ds9c9SceaF59izr7PIiJyy9ciUqpiyLywcsTVUBkzh/V1fblv41fRtJ+ZThQkhx5fvOJWgUJVKS4RRnxW/Vb3T2XHpsT6geHVk8qRD0Qr2MBp2hhypdB4h+ybCoWs3O0Fj+1U/96+WU7UPtQNhYCAi6cL0jFINLtkpbdiV5c6/43dvUc8eYf533vmKMEvr5ehfKpBNR3xzbMTboF6fmvXZ908rRoTyZ3dDDXYMa/Ni/5Z3Tk8qT1X9bzBF9875vx44wUbd6tC0DlUVuTT0WqBkyAiLZ3tuVXtiTvuK4jpeSvDb9OlhmXM3tFqbLP47JJxY3Le72cWr1f7iuxXFazlp96Hx1hULAK/tR70qWxrHB54593WJ413QbPsqYoBOOb9+if6ihdO3/WZOFaeEXd2w5EDoe2/qVf8oM+lP/86dONB70MzGpiIoTo8JPb16/2/POddoatchAACdefPMjc+3e09yu7UnTNXlFq06rHLaTW3sm7imNlnE4RVfi1b4fHt8puJ18KlL19LnONMKVWFogbtFFbCm0255oHI213ApEkvTSWfWfqW3eN78A+fMeSWp4Tc2L9l3X9sPNAH886sUltGG4yhLnx1asVl/+fKTfoLygqT79wJTnZuq2gknjgzZw1BdZDr21Nb9zqvnHjq/UiAP3fqJz4UcFcel9MneeV9mz5k587ujaw1kuQlPA36+T6u1L03LpeooK6VdGP/anoIaEmL4qL4dO7qHh0cAEAmJHIsMdbm1axt4907t86nH+L02XPtW9N3ApQFqfLoAIfUQJiN3XVzW6OeJs08m6uZuELLJ6D3nZmWt+XTT3bct9V/denVfhwix+Hc0NmH39Zc3Gewcuey6DmZ/hBBC/ylUVFQkSRJyuTwtLZ0gLes6HoT+q/TdOrnmXl59USdLUr7IxNSmq89k96yrcx/8C38vstBpHSLEpcE2NrJp15FtJU8eRqbLTN3GT+qtCPzmId6AhhBCSGOUgYFBRkYGTTN8Pl/+Ib9AgBDiUnpn7WBdXcbX77/h8sZuksSgH9f/GvGhvk5ZD+myDhHi1HAbG2XRwWva3JWWRpQk48WdH5fuvc1xYzVCCCHEgvDo4iKTyUxMTIUCvSzt36H51n/gplaEEEIfAK/FCJ+PxJSSLXTm/eMnQ7Ib2qU/hNAHV//HjfofIUJaIVasmRca+lAmo01NzJNS8NlIhBBCCCGEEEJcqM5dOuvpCYODHxAk3taCEEIIIYQQQkgF6s6d2wo5bWZmXlCg0aflEUIIIYQQQgj9F5E52bl6enpmZmZyGb5gByGEEEIIIYSQCiRfwLe0tCwrk8gV8roOBiGEEEIIIYRQfUfm5mZHRERkZ2cVFOTVdTAIIYQQQgghhOo7Ki8vLykpmUcKDAwMinTwolaEEEIIIYQQQv9mZHFxoVwuIwhQKPDZSIQQQgghhBBCKlBCobBFC3tgSIWCiX1VWNfxIIQQQgghhBCq16j27dvb2trKpEx8fCIA/oxECCGEEEIIIcSF7OjRgcfj2ds3MzExretgEEIIIYQQQgjVd1RyckJSYnJxcQlN47ORCCGEEEIIIYRUoJJT4jOzs/LzCxmGqutgEEIIIYQQQgjVd1RhUQ6AQlJeSgD+jEQIIYQQQgghpAJZUlokk0kBaACmroNBCCGEEEIIIVTfkRTFyBUSmpFTeDESIYQQQgghhJAqpJ4+j0eBVFoikZbUdTAIIYQQQgghhOo7qpGhnqmJZVmpoqCguK6DQQghhBBCCCFU35H5+cV5ebn6+nrdu/ar62AQQgghhBBCCNV3pLVtY4ZkeHzKzrFpXQeDEEIIIYQQQqi+Izt4tLSxbaKnL3we8XddB4MQQgghhBBCqL4jU9OiGbLU2ETUxMqsroNBCCGEEEIIIVTfkUXFeQQh51EgEOjVdTAIIYQQQgghhOo7qqy0PDEhPYEupnjRAPy6jgchhBBCCCGEUL1GKRRESSHNJwmJJBvAuq7jQQghhBBCCCFUr1GpyVm52ZLSwnQaShsJ8WckQgghhBBCCCEulK11e2N9RV62Ii4+vq6DQQghhBBCCCFU31GNLWzd3SwJEN75n/D5k5K6jgchhBBCCCGEUL1GMrzcvJKIQkmEg5NxXQeDEEIIIYQQQqi+o2ydyiyteQUFGTKaASDqOh6EEEIIIYQQQvUaaWReBlSmrSN079+kroNBCCGEEEIIIVTfkQytl59DFOYJCUZU18EghBBCCCGEEKrvqJfPssolcmNjI15rU4CEuo4HIYQQQgghhFC9RsXFlJUWy0kiMztdUNfBIIQQQgghhBCq7yiKtDQ2Eoj0DYR8I4Ciuo4HIYQQQgghhFC9RkpKwMSosWsrN5eWbnUdDEIIIYQQQgih+o7Mzix+nZwNCj1jQ4u6DgYhhBBCCCGEUH1H8Uj9/LySZ2ER5RJ5XQeDEEIIIYQQQqi+owz1jRmGyUjLUsiIug4GIYQQQgghhFB9R8nKaSCgrKw8LS29roNBCCGEEEIIIVTfUWlpWQzQAj6fgHIAfl3HgxBCCCGEEEKoXiOlUhkwpL6+ob7IsK6DQQghhBBCCCFU35FGpo1MzIwNDUXW1pZ1HQxCCCGEEEIIofqObGQo4vFBIiuVMdK6DgYhhBBCCCGEUH1HlkmKeRQYmxoJBFRdB4MQQgghhBBCqL6jGFAYGBiYmZkIBfoAqXUdD0IIIYQQQgiheo0SCgQSSWlxcZFCj6nrYBBCCCGEEEII1XcUzciLS4pKS0uNjU3qOhiEEEIIIYQQQvUdJRBQJMlrbNmEzxfGRhXXdTwIIYQQQgghhOo1Uo+v52Bv5dnFycEeP/iBEEIIIYQQQkgF0tRc1NjKQM9A5tLWtq6DQQghhBBCCCFU31H5BeX8tCITc0sSyLoOBiGEEEIIIYRQfUfp6RunpxWUl8e6uhjXdTAIIYQQQgghhOq7/wPaM+9iwCo2KAAAAABJRU5ErkJggg==;" vertex="1" parent="1">
          <mxGeometry x="90" y="820" width="520" height="131" as="geometry" />
        </mxCell>
      </root>
    </mxGraphModel>
  </diagram>
</mxfile>
